ISO-10303-21;
HEADER;
FILE_DESCRIPTION (( 'STEP AP203' ),
    '1' );
FILE_NAME ('EC1.STEP',
    '2026-08-26T16:28:16',
    ( '' ),
    ( '' ),
    'SwSTEP 2.0',
    'SolidWorks 2025',
    '' );
FILE_SCHEMA (( 'CONFIG_CONTROL_DESIGN' ));
ENDSEC;

DATA;
#1 = EDGE_CURVE ( 'NONE', #21, #638, #160, .T. ) ;
#2 = DIRECTION ( 'NONE',  ( -0.000000000000000000, -1.000000000000000000, -0.000000000000000000 ) ) ;
#3 = PLANE ( 'NONE',  #428 ) ;
#4 = DIRECTION ( 'NONE',  ( 0.000000000000000000, 1.000000000000000000, 0.000000000000000000 ) ) ;
#5 = ORIENTED_EDGE ( 'NONE', *, *, #128, .T. ) ;
#6 = CARTESIAN_POINT ( 'NONE',  ( 2.571758278209441957E-16, 31.50000000000000000, 7.100000000000000533 ) ) ;
#7 = CARTESIAN_POINT ( 'NONE',  ( 0.000000000000000000, 30.75000000000000000, 0.000000000000000000 ) ) ;
#8 = CALENDAR_DATE ( 2026, 26, 8 ) ;
#9 = AXIS2_PLACEMENT_3D ( 'NONE', #388, #559, #443 ) ;
#10 = AXIS2_PLACEMENT_3D ( 'NONE', #620, #104, #389 ) ;
#11 = ORIENTED_EDGE ( 'NONE', *, *, #509, .F. ) ;
#12 =( BOUNDED_CURVE ( )  B_SPLINE_CURVE ( 3, ( #107, #732, #502, #678 ),
 .UNSPECIFIED., .F., .F. ) 
 B_SPLINE_CURVE_WITH_KNOTS ( ( 4, 4 ),
 ( 1.570796326794896558, 4.712388980384689674 ),
 .UNSPECIFIED. ) 
 CURVE ( )  GEOMETRIC_REPRESENTATION_ITEM ( )  RATIONAL_B_SPLINE_CURVE ( ( 1.000000000000000000, 0.3333333333333333703, 0.3333333333333333703, 1.000000000000000000 ) ) 
 REPRESENTATION_ITEM ( '' )  );
#13 = DIRECTION ( 'NONE',  ( 0.000000000000000000, 1.000000000000000000, 0.000000000000000000 ) ) ;
#14 = CARTESIAN_POINT ( 'NONE',  ( 1.951563910473907981E-15, 22.49999999999693046, 2.124999999999996891 ) ) ;
#15 = DATE_AND_TIME ( #709, #440 ) ;
#16 = ORIENTED_EDGE ( 'NONE', *, *, #239, .T. ) ;
#17 = FACE_OUTER_BOUND ( 'NONE', #397, .T. ) ;
#18 = CARTESIAN_POINT ( 'NONE',  ( 4.249999999999994671, 23.77499999999692903, -2.124999999999995559 ) ) ;
#19 = EDGE_CURVE ( 'NONE', #339, #584, #594, .T. ) ;
#20 = SECURITY_CLASSIFICATION_LEVEL ( 'unclassified' ) ;
#21 = VERTEX_POINT ( 'NONE', #40 ) ;
#22 = ADVANCED_FACE ( 'NONE', ( #209 ), #355, .T. ) ;
#23 = CIRCLE ( 'NONE', #130, 8.550000000000000711 ) ;
#24 = CARTESIAN_POINT ( 'NONE',  ( -8.530127018922181392, 25.05903810567359002, -0.4000000000000190070 ) ) ;
#25 = DIRECTION ( 'NONE',  ( -0.000000000000000000, -1.000000000000000000, -0.000000000000000000 ) ) ;
#26 = DIRECTION ( 'NONE',  ( 0.000000000000000000, 0.000000000000000000, 1.000000000000000000 ) ) ;
#27 = CARTESIAN_POINT ( 'NONE',  ( 0.000000000000000000, 38.75000000000000000, 0.000000000000000000 ) ) ;
#28 = VERTEX_POINT ( 'NONE', #36 ) ;
#29 = LOCAL_TIME ( 12, 28, 16.00000000000000000, #648 ) ;
#30 = CARTESIAN_POINT ( 'NONE',  ( -4.330127018922182103, 31.50000000000000000, -4.600000000000020073 ) ) ;
#31 = LINE ( 'NONE', #545, #343 ) ;
#32 = CARTESIAN_POINT ( 'NONE',  ( 0.000000000000000000, 31.50000000000000000, 5.000000000000000000 ) ) ;
#33 = EDGE_CURVE ( 'NONE', #568, #501, #76, .T. ) ;
#34 = ORIENTED_EDGE ( 'NONE', *, *, #44, .T. ) ;
#35 = DIRECTION ( 'NONE',  ( 0.000000000000000000, 1.000000000000000000, 0.000000000000000000 ) ) ;
#36 = CARTESIAN_POINT ( 'NONE',  ( 1.951563910473907981E-15, 22.49999999999693046, 7.669342192283114201 ) ) ;
#37 = EDGE_LOOP ( 'NONE', ( #48, #532, #180, #240 ) ) ;
#38 = PLANE ( 'NONE',  #685 ) ;
#39 = CARTESIAN_POINT ( 'NONE',  ( 1.047073013270987016E-15, 37.74999999999997868, 8.550000000000000711 ) ) ;
#40 = CARTESIAN_POINT ( 'NONE',  ( 1.047073013270987016E-15, 30.75000000000000000, 8.550000000000000711 ) ) ;
#41 = ORIENTED_EDGE ( 'NONE', *, *, #330, .F. ) ;
#42 = EDGE_CURVE ( 'NONE', #129, #556, #31, .T. ) ;
#43 = ORIENTED_EDGE ( 'NONE', *, *, #33, .T. ) ;
#44 = EDGE_CURVE ( 'NONE', #638, #21, #569, .T. ) ;
#45 = ORIENTED_EDGE ( 'NONE', *, *, #696, .F. ) ;
#46 = AXIS2_PLACEMENT_3D ( 'NONE', #319, #606, #668 ) ;
#47 = EDGE_LOOP ( 'NONE', ( #341, #489, #367, #472, #280, #710 ) ) ;
#48 = ORIENTED_EDGE ( 'NONE', *, *, #294, .T. ) ;
#49 = DIRECTION ( 'NONE',  ( 0.000000000000000000, 0.000000000000000000, -1.000000000000000000 ) ) ;
#50 = ORIENTED_EDGE ( 'NONE', *, *, #486, .T. ) ;
#51 = CIRCLE ( 'NONE', #635, 2.125000000000000000 ) ;
#52 = CIRCLE ( 'NONE', #10, 8.550000000000000711 ) ;
#53 = CARTESIAN_POINT ( 'NONE',  ( -0.5000000000000031086, 22.64999999999692903, 7.683974596215564112 ) ) ;
#54 = ORIENTED_EDGE ( 'NONE', *, *, #275, .T. ) ;
#55 = EDGE_CURVE ( 'NONE', #702, #62, #182, .T. ) ;
#56 = DIRECTION ( 'NONE',  ( 0.000000000000000000, -0.000000000000000000, 1.000000000000000000 ) ) ;
#57 = CARTESIAN_POINT ( 'NONE',  ( 0.000000000000000000, 37.74999999999997868, -8.550000000000000711 ) ) ;
#58 = EDGE_LOOP ( 'NONE', ( #553, #630 ) ) ;
#59 = PLANE ( 'NONE',  #601 ) ;
#60 = PERSON ( 'UNSPECIFIED', 'UNSPECIFIED', 'UNSPECIFIED', ('UNSPECIFIED'), ('UNSPECIFIED'), ('UNSPECIFIED') ) ;
#61 = DIRECTION ( 'NONE',  ( 0.000000000000000000, 0.000000000000000000, -1.000000000000000000 ) ) ;
#62 = VERTEX_POINT ( 'NONE', #271 ) ;
#63 = APPROVAL ( #353, 'UNSPECIFIED' ) ;
#64 = CARTESIAN_POINT ( 'NONE',  ( 10.00000000000000355, 25.49999999999692690, -14.00999999999999979 ) ) ;
#65 = PERSON_AND_ORGANIZATION ( #60, #247 ) ;
#66 = VECTOR ( 'NONE', #409, 1000.000000000000000 ) ;
#67 = ORIENTED_EDGE ( 'NONE', *, *, #294, .F. ) ;
#68 = DIRECTION ( 'NONE',  ( 0.000000000000000000, 0.000000000000000000, 1.000000000000000000 ) ) ;
#69 = DIRECTION ( 'NONE',  ( -0.000000000000000000, -1.000000000000000000, -0.000000000000000000 ) ) ;
#70 = APPROVAL_ROLE ( '' ) ;
#71 = EDGE_CURVE ( 'NONE', #645, #706, #23, .T. ) ;
#72 = LINE ( 'NONE', #348, #316 ) ;
#73 = LINE ( 'NONE', #179, #637 ) ;
#74 = COORDINATED_UNIVERSAL_TIME_OFFSET ( 5, 0, .BEHIND. ) ;
#75 = CARTESIAN_POINT ( 'NONE',  ( 4.330127018922181215, 31.50000000000000000, -4.600000000000022737 ) ) ;
#76 =( BOUNDED_CURVE ( )  B_SPLINE_CURVE ( 3, ( #96, #485, #263, #318 ),
 .UNSPECIFIED., .F., .F. ) 
 B_SPLINE_CURVE_WITH_KNOTS ( ( 4, 4 ),
 ( 1.570796326794896558, 4.712388980384689674 ),
 .UNSPECIFIED. ) 
 CURVE ( )  GEOMETRIC_REPRESENTATION_ITEM ( )  RATIONAL_B_SPLINE_CURVE ( ( 1.000000000000000000, 0.3333333333333333703, 0.3333333333333333703, 1.000000000000000000 ) ) 
 REPRESENTATION_ITEM ( '' )  );
#77 = DIRECTION ( 'NONE',  ( -0.000000000000000000, -1.000000000000000000, -0.000000000000000000 ) ) ;
#78 = CARTESIAN_POINT ( 'NONE',  ( -0.5000000000000042188, 28.99999999999999645, -0.8660254037844361541 ) ) ;
#79 = COORDINATED_UNIVERSAL_TIME_OFFSET ( 5, 0, .BEHIND. ) ;
#80 = DIRECTION ( 'NONE',  ( 0.000000000000000000, 0.000000000000000000, 1.000000000000000000 ) ) ;
#81 = AXIS2_PLACEMENT_3D ( 'NONE', #211, #35, #378 ) ;
#82 = AXIS2_PLACEMENT_3D ( 'NONE', #634, #25, #411 ) ;
#83 = ADVANCED_FACE ( 'NONE', ( #203 ), #655, .F. ) ;
#84 = DIRECTION ( 'NONE',  ( -0.000000000000000000, -1.000000000000000000, -0.000000000000000000 ) ) ;
#85 = CARTESIAN_POINT ( 'NONE',  ( -10.00000000000000000, 25.49999999999692690, -14.00999999999999979 ) ) ;
#86 = PERSON_AND_ORGANIZATION_ROLE ( 'creator' ) ;
#87 = EDGE_CURVE ( 'NONE', #649, #339, #139, .T. ) ;
#88 = CARTESIAN_POINT ( 'NONE',  ( -4.330127018922182103, 31.50000000000000000, -2.500000000000019540 ) ) ;
#89 = ORIENTED_EDGE ( 'NONE', *, *, #387, .F. ) ;
#90 = CARTESIAN_POINT ( 'NONE',  ( 1.951563910473907981E-15, 22.49999999999693046, 7.669342192283114201 ) ) ;
#91 =( BOUNDED_CURVE ( )  B_SPLINE_CURVE ( 3, ( #380, #24, #539, #609 ),
 .UNSPECIFIED., .F., .F. ) 
 B_SPLINE_CURVE_WITH_KNOTS ( ( 4, 4 ),
 ( 1.570796326794896558, 4.712388980384689674 ),
 .UNSPECIFIED. ) 
 CURVE ( )  GEOMETRIC_REPRESENTATION_ITEM ( )  RATIONAL_B_SPLINE_CURVE ( ( 1.000000000000000000, 0.3333333333333333703, 0.3333333333333333703, 1.000000000000000000 ) ) 
 REPRESENTATION_ITEM ( '' )  );
#92 = CARTESIAN_POINT ( 'NONE',  ( 0.000000000000000000, 31.50000000000000000, 2.899999999999999911 ) ) ;
#93 = EDGE_LOOP ( 'NONE', ( #252, #174, #625, #110, #720, #449 ) ) ;
#94 = FACE_OUTER_BOUND ( 'NONE', #58, .T. ) ;
#95 = DIRECTION ( 'NONE',  ( 0.000000000000000000, 0.000000000000000000, 1.000000000000000000 ) ) ;
#96 = CARTESIAN_POINT ( 'NONE',  ( -0.5000000000000031086, 22.64999999999692903, 7.683974596215564112 ) ) ;
#97 = AXIS2_PLACEMENT_3D ( 'NONE', #417, #715, #159 ) ;
#98 = ORIENTED_EDGE ( 'NONE', *, *, #739, .T. ) ;
#99 = APPROVAL_PERSON_ORGANIZATION ( #306, #683, #70 ) ;
#100 = ADVANCED_FACE ( 'NONE', ( #147, #432 ), #724, .T. ) ;
#101 = VERTEX_POINT ( 'NONE', #92 ) ;
#102 = ORIENTED_EDGE ( 'NONE', *, *, #71, .F. ) ;
#103 = PRODUCT_RELATED_PRODUCT_CATEGORY ( 'detail', '', ( #383 ) ) ;
#104 = DIRECTION ( 'NONE',  ( 0.000000000000000000, -1.000000000000000000, 0.000000000000000000 ) ) ;
#105 = VERTEX_POINT ( 'NONE', #549 ) ;
#106 = AXIS2_PLACEMENT_3D ( 'NONE', #331, #470, #529 ) ;
#107 = CARTESIAN_POINT ( 'NONE',  ( 4.330127018922181215, 23.79903810567358136, -4.600000000000022737 ) ) ;
#108 = CC_DESIGN_APPROVAL ( #683, ( #336 ) ) ;
#109 = CARTESIAN_POINT ( 'NONE',  ( 4.330127018922181215, 31.50000000000000000, -2.500000000000022204 ) ) ;
#110 = ORIENTED_EDGE ( 'NONE', *, *, #575, .F. ) ;
#111 = DIRECTION ( 'NONE',  ( 0.000000000000000000, -1.000000000000000000, 0.000000000000000000 ) ) ;
#112 = ADVANCED_BREP_SHAPE_REPRESENTATION ( 'EC1', ( #338, #664 ), #563 ) ;
#113 = ORIENTED_EDGE ( 'NONE', *, *, #742, .F. ) ;
#114 = CYLINDRICAL_SURFACE ( 'NONE', #261, 2.100000000000000089 ) ;
#115 = ORIENTED_EDGE ( 'NONE', *, *, #342, .F. ) ;
#116 = AXIS2_PLACEMENT_3D ( 'NONE', #619, #735, #49 ) ;
#117 = ADVANCED_FACE ( 'NONE', ( #430, #274 ), #669, .T. ) ;
#118 = CIRCLE ( 'NONE', #234, 10.00000000000000000 ) ;
#119 = LINE ( 'NONE', #187, #233 ) ;
#120 = CARTESIAN_POINT ( 'NONE',  ( 0.000000000000000000, 31.50000000000000000, 5.000000000000000000 ) ) ;
#121 = SECURITY_CLASSIFICATION ( '', '', #20 ) ;
#122 = ORIENTED_EDGE ( 'NONE', *, *, #330, .T. ) ;
#123 = DIRECTION ( 'NONE',  ( 0.000000000000000000, 1.000000000000000000, 0.000000000000000000 ) ) ;
#124 = ORIENTED_EDGE ( 'NONE', *, *, #143, .F. ) ;
#125 = CARTESIAN_POINT ( 'NONE',  ( 4.330127018922181215, 31.50000000000000000, -2.500000000000022204 ) ) ;
#126 = CARTESIAN_POINT ( 'NONE',  ( 1.224646799147353256E-15, 28.99999999999999645, 10.00000000000000000 ) ) ;
#127 = DIRECTION ( 'NONE',  ( 0.000000000000000000, 0.000000000000000000, 1.000000000000000000 ) ) ;
#128 = EDGE_CURVE ( 'NONE', #542, #105, #552, .T. ) ;
#129 = VERTEX_POINT ( 'NONE', #364 ) ;
#130 = AXIS2_PLACEMENT_3D ( 'NONE', #216, #713, #212 ) ;
#131 = DIRECTION ( 'NONE',  ( 0.9578262852211513190, 0.2873478855663452736, 0.000000000000000000 ) ) ;
#132 = CARTESIAN_POINT ( 'NONE',  ( 4.249999999999994671, 23.77499999999692903, 2.124999999999996003 ) ) ;
#133 = CYLINDRICAL_SURFACE ( 'NONE', #262, 2.100000000000000089 ) ;
#134 = VECTOR ( 'NONE', #693, 1000.000000000000000 ) ;
#135 = EDGE_CURVE ( 'NONE', #645, #638, #593, .T. ) ;
#136 = LOCAL_TIME ( 12, 28, 16.00000000000000000, #79 ) ;
#137 = DIRECTION ( 'NONE',  ( 0.000000000000000000, 0.000000000000000000, 1.000000000000000000 ) ) ;
#138 = PERSON_AND_ORGANIZATION ( #60, #247 ) ;
#139 = LINE ( 'NONE', #142, #437 ) ;
#140 = DIRECTION ( 'NONE',  ( 0.000000000000000000, -0.000000000000000000, 1.000000000000000000 ) ) ;
#141 = APPROVAL_STATUS ( 'not_yet_approved' ) ;
#142 = CARTESIAN_POINT ( 'NONE',  ( 1.951563910473907981E-15, 22.49999999999693046, -14.00999999999999979 ) ) ;
#143 = EDGE_CURVE ( 'NONE', #278, #645, #603, .T. ) ;
#144 = LINE ( 'NONE', #372, #334 ) ;
#145 = DIRECTION ( 'NONE',  ( 0.000000000000000000, 0.000000000000000000, -1.000000000000000000 ) ) ;
#146 = PERSON_AND_ORGANIZATION ( #60, #247 ) ;
#147 = FACE_OUTER_BOUND ( 'NONE', #682, .T. ) ;
#148 = CIRCLE ( 'NONE', #46, 10.00000000000000000 ) ;
#149 = ORIENTED_EDGE ( 'NONE', *, *, #446, .T. ) ;
#150 = AXIS2_PLACEMENT_3D ( 'NONE', #85, #323, #272 ) ;
#151 = EDGE_CURVE ( 'NONE', #101, #729, #169, .T. ) ;
#152 = CARTESIAN_POINT ( 'NONE',  ( -0.5000000000000031086, 28.99999999999999645, 7.683974596215564112 ) ) ;
#153 = DIRECTION ( 'NONE',  ( 0.000000000000000000, 1.000000000000000000, 0.000000000000000000 ) ) ;
#154 = CC_DESIGN_PERSON_AND_ORGANIZATION_ASSIGNMENT ( #138, #86, ( #660 ) ) ;
#155 = CYLINDRICAL_SURFACE ( 'NONE', #97, 2.100000000000000089 ) ;
#156 = DIRECTION ( 'NONE',  ( 0.000000000000000000, 1.000000000000000000, 0.000000000000000000 ) ) ;
#157 = DIRECTION ( 'NONE',  ( 0.000000000000000000, 0.000000000000000000, 1.000000000000000000 ) ) ;
#158 = VERTEX_POINT ( 'NONE', #215 ) ;
#159 = DIRECTION ( 'NONE',  ( 0.000000000000000000, 0.000000000000000000, -1.000000000000000000 ) ) ;
#160 = CIRCLE ( 'NONE', #393, 8.550000000000000711 ) ;
#161 = ADVANCED_FACE ( 'NONE', ( #366, #421 ), #326, .F. ) ;
#162 = CARTESIAN_POINT ( 'NONE',  ( -0.5000000000000042188, 22.64999999999692903, -9.416025403784436421 ) ) ;
#163 = APPROVAL ( #141, 'UNSPECIFIED' ) ;
#164 = ORIENTED_EDGE ( 'NONE', *, *, #390, .F. ) ;
#165 = CARTESIAN_POINT ( 'NONE',  ( -0.1301270189221822582, 22.53903810567358335, -0.4000000000000196176 ) ) ;
#166 = VERTEX_POINT ( 'NONE', #657 ) ;
#167 = CARTESIAN_POINT ( 'NONE',  ( -4.200000000000006395, 23.75999999999692847, 7.100000000000004086 ) ) ;
#168 = VERTEX_POINT ( 'NONE', #727 ) ;
#169 = CIRCLE ( 'NONE', #662, 2.100000000000000089 ) ;
#170 = CARTESIAN_POINT ( 'NONE',  ( 1.951563910473907981E-15, 22.49999999999693046, 2.899999999999987477 ) ) ;
#171 = CARTESIAN_POINT ( 'NONE',  ( -0.5000000000000031086, 30.75000000000000000, 7.683974596215564112 ) ) ;
#172 = APPROVAL_PERSON_ORGANIZATION ( #644, #63, #267 ) ;
#173 = CARTESIAN_POINT ( 'NONE',  ( -4.250000000000006217, 23.77499999999692548, 2.125000000000003109 ) ) ;
#174 = ORIENTED_EDGE ( 'NONE', *, *, #497, .T. ) ;
#175 = CC_DESIGN_PERSON_AND_ORGANIZATION_ASSIGNMENT ( #310, #654, ( #336 ) ) ;
#176 = ORIENTED_EDGE ( 'NONE', *, *, #486, .F. ) ;
#177 = DIRECTION ( 'NONE',  ( 0.000000000000000000, 0.000000000000000000, -1.000000000000000000 ) ) ;
#178 = DIRECTION ( 'NONE',  ( 0.000000000000000000, 1.000000000000000000, 0.000000000000000000 ) ) ;
#179 = CARTESIAN_POINT ( 'NONE',  ( -4.330127018922182103, 31.50000000000000000, -0.4000000000000192846 ) ) ;
#180 = ORIENTED_EDGE ( 'NONE', *, *, #570, .F. ) ;
#181 = ADVANCED_FACE ( 'NONE', ( #665 ), #490, .T. ) ;
#182 = CIRCLE ( 'NONE', #600, 8.550000000000000711 ) ;
#183 = CIRCLE ( 'NONE', #521, 2.100000000000000533 ) ;
#184 = AXIS2_PLACEMENT_3D ( 'NONE', #349, #514, #61 ) ;
#185 = DIRECTION ( 'NONE',  ( 0.000000000000000000, -1.000000000000000000, 0.000000000000000000 ) ) ;
#186 = ORIENTED_EDGE ( 'NONE', *, *, #204, .T. ) ;
#187 = CARTESIAN_POINT ( 'NONE',  ( 9.246083333562500925E-16, 38.75000000000000000, 7.549999999999987388 ) ) ;
#188 = CARTESIAN_POINT ( 'NONE',  ( 1.951563910473907981E-15, 22.49999999999693046, -2.125000000000003553 ) ) ;
#189 = ORIENTED_EDGE ( 'NONE', *, *, #1, .F. ) ;
#190 = DIRECTION ( 'NONE',  ( 0.000000000000000000, 0.000000000000000000, 1.000000000000000000 ) ) ;
#191 = CARTESIAN_POINT ( 'NONE',  ( 15.25706806282719974, 27.07712041884508380, -8.507637230630246350 ) ) ;
#192 = EDGE_LOOP ( 'NONE', ( #408, #681, #590, #189 ) ) ;
#193 = CC_DESIGN_PERSON_AND_ORGANIZATION_ASSIGNMENT ( #531, #321, ( #336 ) ) ;
#194 = AXIS2_PLACEMENT_3D ( 'NONE', #565, #504, #451 ) ;
#195 = CYLINDRICAL_SURFACE ( 'NONE', #694, 8.550000000000000711 ) ;
#196 = FACE_OUTER_BOUND ( 'NONE', #677, .T. ) ;
#197 = FACE_OUTER_BOUND ( 'NONE', #344, .T. ) ;
#198 = PERSON_AND_ORGANIZATION_ROLE ( 'classification_officer' ) ;
#199 = ORIENTED_EDGE ( 'NONE', *, *, #44, .F. ) ;
#200 = CARTESIAN_POINT ( 'NONE',  ( 4.330127018922181215, 23.79903810567358136, -4.600000000000022737 ) ) ;
#201 = CARTESIAN_POINT ( 'NONE',  ( 0.000000000000000000, 59.03427124746189492, 0.000000000000000000 ) ) ;
#202 = DATE_AND_TIME ( #658, #136 ) ;
#203 = FACE_OUTER_BOUND ( 'NONE', #519, .T. ) ;
#204 = EDGE_CURVE ( 'NONE', #290, #433, #371, .T. ) ;
#205 = EDGE_LOOP ( 'NONE', ( #34, #687 ) ) ;
#206 = CARTESIAN_POINT ( 'NONE',  ( 1.951563910473907981E-15, 22.49999999999693046, 7.099999999999989875 ) ) ;
#207 = DIRECTION ( 'NONE',  ( 0.000000000000000000, -1.000000000000000000, 0.000000000000000000 ) ) ;
#208 = DATE_TIME_ROLE ( 'creation_date' ) ;
#209 = FACE_OUTER_BOUND ( 'NONE', #332, .T. ) ;
#210 = EDGE_CURVE ( 'NONE', #556, #483, #148, .T. ) ;
#211 = CARTESIAN_POINT ( 'NONE',  ( -4.330127018922182103, 31.50000000000000000, -2.500000000000019540 ) ) ;
#212 = DIRECTION ( 'NONE',  ( 0.000000000000000000, 0.000000000000000000, 1.000000000000000000 ) ) ;
#213 = ORIENTED_EDGE ( 'NONE', *, *, #631, .T. ) ;
#214 = CC_DESIGN_SECURITY_CLASSIFICATION ( #121, ( #336 ) ) ;
#215 = CARTESIAN_POINT ( 'NONE',  ( 4.330127018922181215, 31.50000000000000000, -4.600000000000022737 ) ) ;
#216 = CARTESIAN_POINT ( 'NONE',  ( 0.000000000000000000, 37.74999999999997868, 0.000000000000000000 ) ) ;
#217 = ORIENTED_EDGE ( 'NONE', *, *, #396, .T. ) ;
#218 = CARTESIAN_POINT ( 'NONE',  ( -0.5000000000000042188, 30.75000000000000000, -0.8660254037844361541 ) ) ;
#219 =( LENGTH_UNIT ( ) NAMED_UNIT ( * ) SI_UNIT ( .MILLI., .METRE. ) );
#220 = DIRECTION ( 'NONE',  ( 0.000000000000000000, 1.000000000000000000, 0.000000000000000000 ) ) ;
#221 = ORIENTED_EDGE ( 'NONE', *, *, #631, .F. ) ;
#222 = CARTESIAN_POINT ( 'NONE',  ( -0.1301270189221822582, 22.53903810567358335, -4.600000000000020073 ) ) ;
#223 = ORIENTED_EDGE ( 'NONE', *, *, #210, .T. ) ;
#224 = AXIS2_PLACEMENT_3D ( 'NONE', #643, #4, #127 ) ;
#225 = CARTESIAN_POINT ( 'NONE',  ( -4.330127018922182103, 23.79903810567358136, -4.600000000000020073 ) ) ;
#226 = CARTESIAN_POINT ( 'NONE',  ( 0.1301270189221805096, 22.53903810567358335, -0.4000000000000207834 ) ) ;
#227 = ORIENTED_EDGE ( 'NONE', *, *, #425, .T. ) ;
#228 = ORIENTED_EDGE ( 'NONE', *, *, #210, .F. ) ;
#229 = CYLINDRICAL_SURFACE ( 'NONE', #116, 2.100000000000000089 ) ;
#230 = ORIENTED_EDGE ( 'NONE', *, *, #370, .F. ) ;
#231 = CC_DESIGN_PERSON_AND_ORGANIZATION_ASSIGNMENT ( #65, #412, ( #383 ) ) ;
#232 = VECTOR ( 'NONE', #728, 1000.000000000000000 ) ;
#233 = VECTOR ( 'NONE', #403, 1000.000000000000114 ) ;
#234 = AXIS2_PLACEMENT_3D ( 'NONE', #582, #304, #478 ) ;
#235 = CC_DESIGN_APPROVAL ( #63, ( #660 ) ) ;
#236 = EDGE_CURVE ( 'NONE', #62, #501, #551, .T. ) ;
#237 = EDGE_LOOP ( 'NONE', ( #67, #45 ) ) ;
#238 = DIRECTION ( 'NONE',  ( 0.000000000000000000, -0.000000000000000000, 1.000000000000000000 ) ) ;
#239 = EDGE_CURVE ( 'NONE', #28, #568, #571, .T. ) ;
#240 = ORIENTED_EDGE ( 'NONE', *, *, #739, .F. ) ;
#241 = DIRECTION ( 'NONE',  ( 0.000000000000000000, 0.000000000000000000, -1.000000000000000000 ) ) ;
#242 = CARTESIAN_POINT ( 'NONE',  ( -4.330127018922182103, 31.50000000000000000, -2.500000000000019540 ) ) ;
#243 = CARTESIAN_POINT ( 'NONE',  ( 0.000000000000000000, 38.75000000000000000, 0.000000000000000000 ) ) ;
#244 = ORIENTED_EDGE ( 'NONE', *, *, #651, .T. ) ;
#245 = DIRECTION ( 'NONE',  ( -0.000000000000000000, -1.000000000000000000, -0.000000000000000000 ) ) ;
#246 = LINE ( 'NONE', #700, #134 ) ;
#247 = ORGANIZATION ( 'UNSPECIFIED', 'UNSPECIFIED', '' ) ;
#248 = DATE_AND_TIME ( #8, #686 ) ;
#249 = VERTEX_POINT ( 'NONE', #200 ) ;
#250 = DIRECTION ( 'NONE',  ( 0.000000000000000000, 0.000000000000000000, 1.000000000000000000 ) ) ;
#251 = DIRECTION ( 'NONE',  ( 0.000000000000000000, 1.000000000000000000, 0.000000000000000000 ) ) ;
#252 = ORIENTED_EDGE ( 'NONE', *, *, #55, .F. ) ;
#253 = CARTESIAN_POINT ( 'NONE',  ( 2.602374448188125350E-16, 38.75000000000000000, 2.125000000000000000 ) ) ;
#254 = UNCERTAINTY_MEASURE_WITH_UNIT (LENGTH_MEASURE( 1.000000000000000082E-05 ), #219, 'distance_accuracy_value', 'NONE');
#255 = CARTESIAN_POINT ( 'NONE',  ( 0.000000000000000000, 30.75000000000000000, -8.550000000000000711 ) ) ;
#256 = PERSON_AND_ORGANIZATION ( #60, #247 ) ;
#257 = EDGE_LOOP ( 'NONE', ( #424, #405, #611, #284 ) ) ;
#258 = AXIS2_PLACEMENT_3D ( 'NONE', #268, #315, #717 ) ;
#259 = DIRECTION ( 'NONE',  ( 0.000000000000000000, 1.000000000000000000, 0.000000000000000000 ) ) ;
#260 = APPLICATION_PROTOCOL_DEFINITION ( 'international standard', 'config_control_design', 1994, #672 ) ;
#261 = AXIS2_PLACEMENT_3D ( 'NONE', #120, #510, #458 ) ;
#262 = AXIS2_PLACEMENT_3D ( 'NONE', #359, #588, #517 ) ;
#263 = CARTESIAN_POINT ( 'NONE',  ( -17.60000000000000142, 27.77999999999692804, -9.416025403784431091 ) ) ;
#264 = DIRECTION ( 'NONE',  ( 0.000000000000000000, -1.000000000000000000, 0.000000000000000000 ) ) ;
#265 = ORIENTED_EDGE ( 'NONE', *, *, #71, .T. ) ;
#266 = CARTESIAN_POINT ( 'NONE',  ( -0.1665001676616094106, 22.54995005029541133, 7.679095736333072963 ) ) ;
#267 = APPROVAL_ROLE ( '' ) ;
#268 = CARTESIAN_POINT ( 'NONE',  ( 0.000000000000000000, 30.75000000000000000, 0.000000000000000000 ) ) ;
#269 = ADVANCED_FACE ( 'NONE', ( #547 ), #155, .F. ) ;
#270 = DIRECTION ( 'NONE',  ( 0.000000000000000000, 1.000000000000000000, 0.000000000000000000 ) ) ;
#271 = CARTESIAN_POINT ( 'NONE',  ( -0.5000000000000042188, 28.99999999999999645, -9.416025403784436421 ) ) ;
#272 = DIRECTION ( 'NONE',  ( 0.9578262852211513190, -0.2873478855663452736, 0.000000000000000000 ) ) ;
#273 =( BOUNDED_CURVE ( )  B_SPLINE_CURVE ( 3, ( #206, #167, #740, #288 ),
 .UNSPECIFIED., .F., .F. ) 
 B_SPLINE_CURVE_WITH_KNOTS ( ( 4, 4 ),
 ( 1.570796326794895670, 4.712388980384690562 ),
 .UNSPECIFIED. ) 
 CURVE ( )  GEOMETRIC_REPRESENTATION_ITEM ( )  RATIONAL_B_SPLINE_CURVE ( ( 1.000000000000000000, 0.3333333333333327597, 0.3333333333333327597, 1.000000000000000000 ) ) 
 REPRESENTATION_ITEM ( '' )  );
#274 = FACE_OUTER_BOUND ( 'NONE', #237, .T. ) ;
#275 = EDGE_CURVE ( 'NONE', #350, #105, #144, .T. ) ;
#276 = CARTESIAN_POINT ( 'NONE',  ( 0.000000000000000000, 38.75000000000000000, -7.549999999999987388 ) ) ;
#277 = DIRECTION ( 'NONE',  ( 0.000000000000000000, -0.000000000000000000, 1.000000000000000000 ) ) ;
#278 = VERTEX_POINT ( 'NONE', #385 ) ;
#279 = DIRECTION ( 'NONE',  ( -0.000000000000000000, -1.000000000000000000, -0.000000000000000000 ) ) ;
#280 = ORIENTED_EDGE ( 'NONE', *, *, #87, .F. ) ;
#281 = EDGE_CURVE ( 'NONE', #744, #661, #91, .T. ) ;
#282 = AXIS2_PLACEMENT_3D ( 'NONE', #604, #153, #379 ) ;
#283 = ADVANCED_FACE ( 'NONE', ( #94 ), #38, .F. ) ;
#284 = ORIENTED_EDGE ( 'NONE', *, *, #313, .T. ) ;
#285 = CARTESIAN_POINT ( 'NONE',  ( 0.000000000000000000, 31.50000000000000000, 2.899999999999999911 ) ) ;
#286 = ORIENTED_EDGE ( 'NONE', *, *, #386, .F. ) ;
#287 = EDGE_CURVE ( 'NONE', #584, #339, #273, .T. ) ;
#288 = CARTESIAN_POINT ( 'NONE',  ( 1.951563910473907981E-15, 22.49999999999693046, 2.899999999999987477 ) ) ;
#289 = CC_DESIGN_DATE_AND_TIME_ASSIGNMENT ( #415, #208, ( #660 ) ) ;
#290 = VERTEX_POINT ( 'NONE', #30 ) ;
#291 = EDGE_CURVE ( 'NONE', #661, #744, #493, .T. ) ;
#292 = EDGE_LOOP ( 'NONE', ( #265, #511, #199, #477 ) ) ;
#293 = VECTOR ( 'NONE', #737, 1000.000000000000000 ) ;
#294 = EDGE_CURVE ( 'NONE', #166, #129, #506, .T. ) ;
#295 = AXIS2_PLACEMENT_3D ( 'NONE', #201, #548, #723 ) ;
#296 = ORIENTED_EDGE ( 'NONE', *, *, #406, .T. ) ;
#297 = FACE_OUTER_BOUND ( 'NONE', #292, .T. ) ;
#298 = VERTEX_POINT ( 'NONE', #438 ) ;
#299 = FACE_OUTER_BOUND ( 'NONE', #47, .T. ) ;
#300 = FACE_OUTER_BOUND ( 'NONE', #460, .T. ) ;
#301 = ORIENTED_EDGE ( 'NONE', *, *, #612, .F. ) ;
#302 = CIRCLE ( 'NONE', #573, 2.100000000000000089 ) ;
#303 = DIRECTION ( 'NONE',  ( 0.2873478855663453291, -0.9578262852211514300, 0.000000000000000000 ) ) ;
#304 = DIRECTION ( 'NONE',  ( 0.000000000000000000, -1.000000000000000000, 0.000000000000000000 ) ) ;
#305 = DIRECTION ( 'NONE',  ( 0.000000000000000000, -1.000000000000000000, 0.000000000000000000 ) ) ;
#306 = PERSON_AND_ORGANIZATION ( #60, #247 ) ;
#307 = EDGE_LOOP ( 'NONE', ( #435, #11 ) ) ;
#308 = LINE ( 'NONE', #6, #465 ) ;
#309 = CARTESIAN_POINT ( 'NONE',  ( 1.951563910473907981E-15, 22.49999999999693046, 7.669342192283114201 ) ) ;
#310 = PERSON_AND_ORGANIZATION ( #60, #247 ) ;
#311 = ORIENTED_EDGE ( 'NONE', *, *, #291, .T. ) ;
#312 = DIRECTION ( 'NONE',  ( -0.000000000000000000, -1.000000000000000000, -0.000000000000000000 ) ) ;
#313 = EDGE_CURVE ( 'NONE', #249, #298, #12, .T. ) ;
#314 = APPROVAL_DATE_TIME ( #15, #683 ) ;
#315 = DIRECTION ( 'NONE',  ( -0.000000000000000000, -1.000000000000000000, -0.000000000000000000 ) ) ;
#316 = VECTOR ( 'NONE', #312, 1000.000000000000000 ) ;
#317 = ADVANCED_FACE ( 'NONE', ( #391 ), #229, .F. ) ;
#318 = CARTESIAN_POINT ( 'NONE',  ( -0.5000000000000042188, 22.64999999999692903, -9.416025403784436421 ) ) ;
#319 = CARTESIAN_POINT ( 'NONE',  ( 0.000000000000000000, 28.99999999999999645, 0.000000000000000000 ) ) ;
#320 = CYLINDRICAL_SURFACE ( 'NONE', #295, 10.00000000000000000 ) ;
#321 = PERSON_AND_ORGANIZATION_ROLE ( 'design_supplier' ) ;
#322 = CARTESIAN_POINT ( 'NONE',  ( -0.5000000000000031086, 22.64999999999692903, 7.683974596215564112 ) ) ;
#323 = DIRECTION ( 'NONE',  ( -0.2873478855663453291, -0.9578262852211514300, 0.000000000000000000 ) ) ;
#324 = DIRECTION ( 'NONE',  ( 0.000000000000000000, 0.000000000000000000, -1.000000000000000000 ) ) ;
#325 =( BOUNDED_CURVE ( )  B_SPLINE_CURVE ( 3, ( #557, #226, #444, #679 ),
 .UNSPECIFIED., .F., .T. ) 
 B_SPLINE_CURVE_WITH_KNOTS ( ( 4, 4 ),
 ( 4.712388980384689674, 7.853981633974482790 ),
 .UNSPECIFIED. ) 
 CURVE ( )  GEOMETRIC_REPRESENTATION_ITEM ( )  RATIONAL_B_SPLINE_CURVE ( ( 1.000000000000000000, 0.3333333333333333703, 0.3333333333333333703, 1.000000000000000000 ) ) 
 REPRESENTATION_ITEM ( '' )  );
#326 = PLANE ( 'NONE',  #561 ) ;
#327 = CARTESIAN_POINT ( 'NONE',  ( -0.5000000000000042188, 30.75000000000000000, -0.8660254037844361541 ) ) ;
#328 = CARTESIAN_POINT ( 'NONE',  ( 0.000000000000000000, 28.99999999999999645, 0.000000000000000000 ) ) ;
#329 = ORIENTED_EDGE ( 'NONE', *, *, #618, .T. ) ;
#330 = EDGE_CURVE ( 'NONE', #542, #445, #426, .T. ) ;
#331 = CARTESIAN_POINT ( 'NONE',  ( 0.000000000000000000, 30.75000000000000000, 0.000000000000000000 ) ) ;
#332 = EDGE_LOOP ( 'NONE', ( #176, #296, #102, #124 ) ) ;
#333 = FACE_OUTER_BOUND ( 'NONE', #496, .T. ) ;
#334 = VECTOR ( 'NONE', #543, 1000.000000000000000 ) ;
#335 = VERTEX_POINT ( 'NONE', #684 ) ;
#336 = PRODUCT_DEFINITION_FORMATION_WITH_SPECIFIED_SOURCE ( 'ANY', '', #383, .NOT_KNOWN. ) ;
#337 = CARTESIAN_POINT ( 'NONE',  ( -4.250000000000006217, 23.77499999999692548, -2.125000000000003109 ) ) ;
#338 = MANIFOLD_SOLID_BREP ( 'Stock-Eccentric Shaft-1', #707 ) ;
#339 = VERTEX_POINT ( 'NONE', #170 ) ;
#340 = CARTESIAN_POINT ( 'NONE',  ( -4.330127018922182103, 23.79903810567358136, -0.4000000000000192846 ) ) ;
#341 = ORIENTED_EDGE ( 'NONE', *, *, #275, .F. ) ;
#342 = EDGE_CURVE ( 'NONE', #290, #661, #395, .T. ) ;
#343 = VECTOR ( 'NONE', #492, 1000.000000000000000 ) ;
#344 = EDGE_LOOP ( 'NONE', ( #227, #16, #43, #526, #54, #579, #400, #731 ) ) ;
#345 = LINE ( 'NONE', #457, #572 ) ;
#346 = CARTESIAN_POINT ( 'NONE',  ( 0.000000000000000000, 38.75000000000000000, -2.125000000000000000 ) ) ;
#347 = ORIENTED_EDGE ( 'NONE', *, *, #497, .F. ) ;
#348 = CARTESIAN_POINT ( 'NONE',  ( 2.602374448188125350E-16, 30.75000000000000000, 2.125000000000000000 ) ) ;
#349 = CARTESIAN_POINT ( 'NONE',  ( 0.000000000000000000, 31.50000000000000000, 5.000000000000000000 ) ) ;
#350 = VERTEX_POINT ( 'NONE', #448 ) ;
#351 = CARTESIAN_POINT ( 'NONE',  ( -0.5000000000000042188, 22.64999999999692903, -9.416025403784436421 ) ) ;
#352 = DIRECTION ( 'NONE',  ( 0.000000000000000000, -1.000000000000000000, 0.000000000000000000 ) ) ;
#353 = APPROVAL_STATUS ( 'not_yet_approved' ) ;
#354 = ORIENTED_EDGE ( 'NONE', *, *, #554, .F. ) ;
#355 = CONICAL_SURFACE ( 'NONE', #369, 7.549999999999987388, 0.7853981633974439491 ) ;
#356 = CARTESIAN_POINT ( 'NONE',  ( 0.000000000000000000, 38.75000000000000000, 0.000000000000000000 ) ) ;
#357 = FACE_OUTER_BOUND ( 'NONE', #37, .T. ) ;
#358 = CC_DESIGN_APPROVAL ( #163, ( #121 ) ) ;
#359 = CARTESIAN_POINT ( 'NONE',  ( -4.330127018922182103, 31.50000000000000000, -2.500000000000019540 ) ) ;
#360 = CALENDAR_DATE ( 2026, 26, 8 ) ;
#361 = ORIENTED_EDGE ( 'NONE', *, *, #396, .F. ) ;
#362 = FACE_BOUND ( 'NONE', #507, .T. ) ;
#363 = DIRECTION ( 'NONE',  ( 1.000000000000000000, 0.000000000000000000, 0.000000000000000000 ) ) ;
#364 = CARTESIAN_POINT ( 'NONE',  ( 1.224646799147353256E-15, 30.75000000000000000, 10.00000000000000000 ) ) ;
#365 = CARTESIAN_POINT ( 'NONE',  ( 4.330127018922181215, 31.50000000000000000, -0.4000000000000214495 ) ) ;
#366 = FACE_BOUND ( 'NONE', #541, .T. ) ;
#367 = ORIENTED_EDGE ( 'NONE', *, *, #425, .F. ) ;
#368 = ORIENTED_EDGE ( 'NONE', *, *, #42, .F. ) ;
#369 = AXIS2_PLACEMENT_3D ( 'NONE', #27, #607, #324 ) ;
#370 = EDGE_CURVE ( 'NONE', #101, #339, #621, .T. ) ;
#371 = CIRCLE ( 'NONE', #81, 2.100000000000000089 ) ;
#372 = CARTESIAN_POINT ( 'NONE',  ( 1.951563910473907981E-15, 22.49999999999693046, -14.00999999999999979 ) ) ;
#373 = FACE_OUTER_BOUND ( 'NONE', #670, .T. ) ;
#374 = COORDINATED_UNIVERSAL_TIME_OFFSET ( 5, 0, .BEHIND. ) ;
#375 = AXIS2_PLACEMENT_3D ( 'NONE', #356, #586, #68 ) ;
#376 = DIRECTION ( 'NONE',  ( -0.000000000000000000, -1.000000000000000000, -0.000000000000000000 ) ) ;
#377 = ORIENTED_EDGE ( 'NONE', *, *, #742, .T. ) ;
#378 = DIRECTION ( 'NONE',  ( 0.000000000000000000, 0.000000000000000000, 1.000000000000000000 ) ) ;
#379 = DIRECTION ( 'NONE',  ( 0.000000000000000000, -0.000000000000000000, 1.000000000000000000 ) ) ;
#380 = CARTESIAN_POINT ( 'NONE',  ( -4.330127018922182103, 23.79903810567358136, -0.4000000000000192846 ) ) ;
#381 = CARTESIAN_POINT ( 'NONE',  ( 2.571758278209441957E-16, 31.50000000000000000, 7.100000000000000533 ) ) ;
#382 = ORIENTED_EDGE ( 'NONE', *, *, #342, .T. ) ;
#383 = PRODUCT ( 'EC1', 'EC1', '', ( #481 ) ) ;
#384 = CC_DESIGN_DATE_AND_TIME_ASSIGNMENT ( #202, #419, ( #121 ) ) ;
#385 = CARTESIAN_POINT ( 'NONE',  ( 0.000000000000000000, 38.75000000000000000, -7.549999999999987388 ) ) ;
#386 = EDGE_CURVE ( 'NONE', #105, #649, #567, .T. ) ;
#387 = EDGE_CURVE ( 'NONE', #168, #158, #183, .T. ) ;
#388 = CARTESIAN_POINT ( 'NONE',  ( 0.000000000000000000, 30.75000000000000000, 0.000000000000000000 ) ) ;
#389 = DIRECTION ( 'NONE',  ( 0.000000000000000000, 0.000000000000000000, 1.000000000000000000 ) ) ;
#390 = EDGE_CURVE ( 'NONE', #729, #584, #308, .T. ) ;
#391 = FACE_OUTER_BOUND ( 'NONE', #580, .T. ) ;
#392 = EDGE_LOOP ( 'NONE', ( #347, #113, #515, #738 ) ) ;
#393 = AXIS2_PLACEMENT_3D ( 'NONE', #423, #376, #157 ) ;
#394 = ORIENTED_EDGE ( 'NONE', *, *, #484, .T. ) ;
#395 = LINE ( 'NONE', #626, #711 ) ;
#396 = EDGE_CURVE ( 'NONE', #278, #335, #452, .T. ) ;
#397 = EDGE_LOOP ( 'NONE', ( #122, #149, #286, #616 ) ) ;
#398 = ORIENTED_EDGE ( 'NONE', *, *, #624, .F. ) ;
#399 = DIRECTION ( 'NONE',  ( 0.000000000000000000, 0.000000000000000000, 1.000000000000000000 ) ) ;
#400 = ORIENTED_EDGE ( 'NONE', *, *, #87, .T. ) ;
#401 = EDGE_CURVE ( 'NONE', #445, #542, #51, .T. ) ;
#402 = VECTOR ( 'NONE', #207, 1000.000000000000000 ) ;
#403 = DIRECTION ( 'NONE',  ( 8.659560562354895880E-17, -0.7071067811865506814, 0.7071067811865443531 ) ) ;
#404 = CARTESIAN_POINT ( 'NONE',  ( 1.951563910473907981E-15, 22.49999999999693046, 2.124999999999996891 ) ) ;
#405 = ORIENTED_EDGE ( 'NONE', *, *, #387, .T. ) ;
#406 = EDGE_CURVE ( 'NONE', #335, #706, #119, .T. ) ;
#407 = CARTESIAN_POINT ( 'NONE',  ( 0.000000000000000000, 30.75000000000000000, 0.000000000000000000 ) ) ;
#408 = ORIENTED_EDGE ( 'NONE', *, *, #546, .F. ) ;
#409 = DIRECTION ( 'NONE',  ( 0.000000000000000000, -1.000000000000000000, 0.000000000000000000 ) ) ;
#410 = CARTESIAN_POINT ( 'NONE',  ( -0.1665001676616102710, 22.54995005029541133, -9.411146543901944383 ) ) ;
#411 = DIRECTION ( 'NONE',  ( 0.000000000000000000, 0.000000000000000000, -1.000000000000000000 ) ) ;
#412 = PERSON_AND_ORGANIZATION_ROLE ( 'design_owner' ) ;
#413 = ORIENTED_EDGE ( 'NONE', *, *, #696, .T. ) ;
#414 = FACE_OUTER_BOUND ( 'NONE', #691, .T. ) ;
#415 = DATE_AND_TIME ( #360, #491 ) ;
#416 = ORIENTED_EDGE ( 'NONE', *, *, #484, .F. ) ;
#417 = CARTESIAN_POINT ( 'NONE',  ( 4.330127018922181215, 31.50000000000000000, -2.500000000000022204 ) ) ;
#418 = CYLINDRICAL_SURFACE ( 'NONE', #722, 8.550000000000000711 ) ;
#419 = DATE_TIME_ROLE ( 'classification_date' ) ;
#420 = CARTESIAN_POINT ( 'NONE',  ( 1.951563910473907981E-15, 22.49999999999693046, 7.099999999999989875 ) ) ;
#421 = FACE_OUTER_BOUND ( 'NONE', #456, .T. ) ;
#422 = CARTESIAN_POINT ( 'NONE',  ( 0.000000000000000000, 38.75000000000000000, 0.000000000000000000 ) ) ;
#423 = CARTESIAN_POINT ( 'NONE',  ( 0.000000000000000000, 30.75000000000000000, 0.000000000000000000 ) ) ;
#424 = ORIENTED_EDGE ( 'NONE', *, *, #618, .F. ) ;
#425 = EDGE_CURVE ( 'NONE', #584, #28, #345, .T. ) ;
#426 = CIRCLE ( 'NONE', #194, 2.125000000000000000 ) ;
#427 = CARTESIAN_POINT ( 'NONE',  ( -0.3332143967457694700, 22.59996431902066050, 7.683974596215564112 ) ) ;
#428 = AXIS2_PLACEMENT_3D ( 'NONE', #242, #251, #238 ) ;
#429 = CIRCLE ( 'NONE', #224, 2.100000000000000089 ) ;
#430 = FACE_BOUND ( 'NONE', #205, .T. ) ;
#431 = DIRECTION ( 'NONE',  ( 0.000000000000000000, -0.000000000000000000, 1.000000000000000000 ) ) ;
#432 = FACE_BOUND ( 'NONE', #627, .T. ) ;
#433 = VERTEX_POINT ( 'NONE', #692 ) ;
#434 = DIRECTION ( 'NONE',  ( 0.000000000000000000, -0.7071067811865506814, -0.7071067811865443531 ) ) ;
#435 = ORIENTED_EDGE ( 'NONE', *, *, #313, .F. ) ;
#436 = ADVANCED_FACE ( 'NONE', ( #528 ), #699, .F. ) ;
#437 = VECTOR ( 'NONE', #719, 1000.000000000000000 ) ;
#438 = CARTESIAN_POINT ( 'NONE',  ( 4.330127018922181215, 23.79903810567358136, -0.4000000000000214495 ) ) ;
#439 = AXIS2_PLACEMENT_3D ( 'NONE', #125, #123, #56 ) ;
#440 = LOCAL_TIME ( 12, 28, 16.00000000000000000, #74 ) ;
#441 = ORIENTED_EDGE ( 'NONE', *, *, #55, .T. ) ;
#442 = ADVANCED_FACE ( 'NONE', ( #17 ), #689, .F. ) ;
#443 = DIRECTION ( 'NONE',  ( 0.000000000000000000, 0.000000000000000000, 1.000000000000000000 ) ) ;
#444 = CARTESIAN_POINT ( 'NONE',  ( 0.1301270189221805096, 22.53903810567358335, -4.600000000000022737 ) ) ;
#445 = VERTEX_POINT ( 'NONE', #253 ) ;
#446 = EDGE_CURVE ( 'NONE', #445, #649, #72, .T. ) ;
#447 = ADVANCED_FACE ( 'NONE', ( #297 ), #195, .T. ) ;
#448 = CARTESIAN_POINT ( 'NONE',  ( 1.951563910473907981E-15, 22.49999999999693046, -9.401392999851994503 ) ) ;
#449 = ORIENTED_EDGE ( 'NONE', *, *, #236, .F. ) ;
#450 = APPLICATION_CONTEXT ( 'configuration controlled 3d designs of mechanical parts and assemblies' ) ;
#451 = DIRECTION ( 'NONE',  ( 0.000000000000000000, 0.000000000000000000, 1.000000000000000000 ) ) ;
#452 = CIRCLE ( 'NONE', #623, 7.549999999999987388 ) ;
#453 = ORIENTED_EDGE ( 'NONE', *, *, #281, .T. ) ;
#454 = CIRCLE ( 'NONE', #375, 7.549999999999987388 ) ;
#455 = LINE ( 'NONE', #171, #508 ) ;
#456 = EDGE_LOOP ( 'NONE', ( #574, #223 ) ) ;
#457 = CARTESIAN_POINT ( 'NONE',  ( 1.951563910473907981E-15, 22.49999999999693046, -14.00999999999999979 ) ) ;
#458 = DIRECTION ( 'NONE',  ( 0.000000000000000000, 0.000000000000000000, -1.000000000000000000 ) ) ;
#459 = EDGE_CURVE ( 'NONE', #501, #350, #726, .T. ) ;
#460 = EDGE_LOOP ( 'NONE', ( #186, #213, #453, #115 ) ) ;
#461 = DIRECTION ( 'NONE',  ( 0.000000000000000000, 1.000000000000000000, 0.000000000000000000 ) ) ;
#462 = CARTESIAN_POINT ( 'NONE',  ( 1.951563910473907981E-15, 22.49999999999693046, 7.099999999999989875 ) ) ;
#463 = AXIS2_PLACEMENT_3D ( 'NONE', #327, #220, #277 ) ;
#464 = ORIENTED_EDGE ( 'NONE', *, *, #143, .T. ) ;
#465 = VECTOR ( 'NONE', #704, 1000.000000000000000 ) ;
#466 = ADVANCED_FACE ( 'NONE', ( #299, #469 ), #59, .T. ) ;
#467 = AXIS2_PLACEMENT_3D ( 'NONE', #523, #13, #250 ) ;
#468 = AXIS2_PLACEMENT_3D ( 'NONE', #78, #156, #95 ) ;
#469 = FACE_BOUND ( 'NONE', #307, .T. ) ;
#470 = DIRECTION ( 'NONE',  ( -0.000000000000000000, -1.000000000000000000, -0.000000000000000000 ) ) ;
#471 = APPROVAL_DATE_TIME ( #248, #163 ) ;
#472 = ORIENTED_EDGE ( 'NONE', *, *, #19, .F. ) ;
#473 = DIRECTION ( 'NONE',  ( 0.000000000000000000, 1.000000000000000000, 0.000000000000000000 ) ) ;
#474 = CARTESIAN_POINT ( 'NONE',  ( 1.951563910473907981E-15, 22.49999999999693046, -9.401392999851994503 ) ) ;
#475 = FACE_OUTER_BOUND ( 'NONE', #392, .T. ) ;
#476 =( BOUNDED_CURVE ( )  B_SPLINE_CURVE ( 3, ( #404, #132, #18, #188 ),
 .UNSPECIFIED., .F., .T. ) 
 B_SPLINE_CURVE_WITH_KNOTS ( ( 4, 4 ),
 ( 1.570796326794897668, 4.712388980384688786 ),
 .UNSPECIFIED. ) 
 CURVE ( )  GEOMETRIC_REPRESENTATION_ITEM ( )  RATIONAL_B_SPLINE_CURVE ( ( 1.000000000000000000, 0.3333333333333339810, 0.3333333333333339810, 1.000000000000000000 ) ) 
 REPRESENTATION_ITEM ( '' )  );
#477 = ORIENTED_EDGE ( 'NONE', *, *, #135, .F. ) ;
#478 = DIRECTION ( 'NONE',  ( 0.000000000000000000, 0.000000000000000000, -1.000000000000000000 ) ) ;
#479 = CARTESIAN_POINT ( 'NONE',  ( 0.000000000000000000, 0.000000000000000000, 0.000000000000000000 ) ) ;
#480 = ORIENTED_EDGE ( 'NONE', *, *, #291, .F. ) ;
#481 = MECHANICAL_CONTEXT ( 'NONE', #672, 'mechanical' ) ;
#482 = CARTESIAN_POINT ( 'NONE',  ( -0.5000000000000042188, 28.99999999999999645, -0.8660254037844361541 ) ) ;
#483 = VERTEX_POINT ( 'NONE', #516 ) ;
#484 = EDGE_CURVE ( 'NONE', #158, #168, #663, .T. ) ;
#485 = CARTESIAN_POINT ( 'NONE',  ( -17.60000000000000142, 27.77999999999692804, 7.683974596215565889 ) ) ;
#486 = EDGE_CURVE ( 'NONE', #335, #278, #454, .T. ) ;
#487 = CARTESIAN_POINT ( 'NONE',  ( 0.000000000000000000, 31.50000000000000000, 5.000000000000000000 ) ) ;
#488 = DIRECTION ( 'NONE',  ( 0.000000000000000000, 0.000000000000000000, -1.000000000000000000 ) ) ;
#489 = ORIENTED_EDGE ( 'NONE', *, *, #575, .T. ) ;
#490 = CYLINDRICAL_SURFACE ( 'NONE', #537, 8.550000000000000711 ) ;
#491 = LOCAL_TIME ( 12, 28, 16.00000000000000000, #583 ) ;
#492 = DIRECTION ( 'NONE',  ( 0.000000000000000000, -1.000000000000000000, 0.000000000000000000 ) ) ;
#493 =( BOUNDED_CURVE ( )  B_SPLINE_CURVE ( 3, ( #225, #222, #165, #340 ),
 .UNSPECIFIED., .F., .T. ) 
 B_SPLINE_CURVE_WITH_KNOTS ( ( 4, 4 ),
 ( 4.712388980384689674, 7.853981633974482790 ),
 .UNSPECIFIED. ) 
 CURVE ( )  GEOMETRIC_REPRESENTATION_ITEM ( )  RATIONAL_B_SPLINE_CURVE ( ( 1.000000000000000000, 0.3333333333333333703, 0.3333333333333333703, 1.000000000000000000 ) ) 
 REPRESENTATION_ITEM ( '' )  );
#494 = CARTESIAN_POINT ( 'NONE',  ( -4.330127018922182103, 23.79903810567358136, -0.4000000000000192846 ) ) ;
#495 = CARTESIAN_POINT ( 'NONE',  ( 0.000000000000000000, 30.75000000000000000, -2.125000000000000000 ) ) ;
#496 = EDGE_LOOP ( 'NONE', ( #688, #558, #5, #354 ) ) ;
#497 = EDGE_CURVE ( 'NONE', #702, #568, #455, .T. ) ;
#498 = CARTESIAN_POINT ( 'NONE',  ( 0.000000000000000000, 38.75000000000000000, -8.550000000000000711 ) ) ;
#499 = ORIENTED_EDGE ( 'NONE', *, *, #406, .F. ) ;
#500 = VECTOR ( 'NONE', #613, 1000.000000000000000 ) ;
#501 = VERTEX_POINT ( 'NONE', #162 ) ;
#502 = CARTESIAN_POINT ( 'NONE',  ( 8.530127018922181392, 25.05903810567359002, -0.4000000000000221712 ) ) ;
#503 = EDGE_LOOP ( 'NONE', ( #499, #361, #464, #725 ) ) ;
#504 = DIRECTION ( 'NONE',  ( 0.000000000000000000, 1.000000000000000000, 0.000000000000000000 ) ) ;
#505 = ORIENTED_EDGE ( 'NONE', *, *, #287, .T. ) ;
#506 = CIRCLE ( 'NONE', #9, 10.00000000000000000 ) ;
#507 = EDGE_LOOP ( 'NONE', ( #480, #695 ) ) ;
#508 = VECTOR ( 'NONE', #279, 1000.000000000000000 ) ;
#509 = EDGE_CURVE ( 'NONE', #298, #249, #325, .T. ) ;
#510 = DIRECTION ( 'NONE',  ( 0.000000000000000000, -1.000000000000000000, 0.000000000000000000 ) ) ;
#511 = ORIENTED_EDGE ( 'NONE', *, *, #546, .T. ) ;
#512 = CARTESIAN_POINT ( 'NONE',  ( 0.000000000000000000, 38.75000000000000000, 0.000000000000000000 ) ) ;
#513 = CARTESIAN_POINT ( 'NONE',  ( 0.000000000000000000, 59.03427124746189492, 0.000000000000000000 ) ) ;
#514 = DIRECTION ( 'NONE',  ( 0.000000000000000000, -1.000000000000000000, 0.000000000000000000 ) ) ;
#515 = ORIENTED_EDGE ( 'NONE', *, *, #236, .T. ) ;
#516 = CARTESIAN_POINT ( 'NONE',  ( 0.000000000000000000, 28.99999999999999645, -10.00000000000000000 ) ) ;
#517 = DIRECTION ( 'NONE',  ( 0.000000000000000000, 0.000000000000000000, -1.000000000000000000 ) ) ;
#518 = AXIS2_PLACEMENT_3D ( 'NONE', #88, #650, #488 ) ;
#519 = EDGE_LOOP ( 'NONE', ( #221, #673, #382, #311 ) ) ;
#520 = LINE ( 'NONE', #365, #66 ) ;
#521 = AXIS2_PLACEMENT_3D ( 'NONE', #109, #473, #642 ) ;
#522 = AXIS2_PLACEMENT_3D ( 'NONE', #513, #352, #743 ) ;
#523 = CARTESIAN_POINT ( 'NONE',  ( 4.330127018922181215, 31.50000000000000000, -2.500000000000022204 ) ) ;
#524 = CYLINDRICAL_SURFACE ( 'NONE', #184, 2.100000000000000089 ) ;
#525 = APPROVAL_STATUS ( 'not_yet_approved' ) ;
#526 = ORIENTED_EDGE ( 'NONE', *, *, #459, .T. ) ;
#527 = EDGE_CURVE ( 'NONE', #706, #645, #52, .T. ) ;
#528 = FACE_OUTER_BOUND ( 'NONE', #667, .T. ) ;
#529 = DIRECTION ( 'NONE',  ( 0.000000000000000000, 0.000000000000000000, -1.000000000000000000 ) ) ;
#530 = DIRECTION ( 'NONE',  ( 0.000000000000000000, 0.000000000000000000, 1.000000000000000000 ) ) ;
#531 = PERSON_AND_ORGANIZATION ( #60, #247 ) ;
#532 = ORIENTED_EDGE ( 'NONE', *, *, #42, .T. ) ;
#533 = CARTESIAN_POINT ( 'NONE',  ( 0.000000000000000000, 38.75000000000000000, 0.000000000000000000 ) ) ;
#534 = CYLINDRICAL_SURFACE ( 'NONE', #82, 8.550000000000000711 ) ;
#535 = APPLICATION_PROTOCOL_DEFINITION ( 'international standard', 'config_control_design', 1994, #450 ) ;
#536 = VECTOR ( 'NONE', #562, 1000.000000000000000 ) ;
#537 = AXIS2_PLACEMENT_3D ( 'NONE', #218, #84, #652 ) ;
#538 = CONICAL_SURFACE ( 'NONE', #733, 7.549999999999987388, 0.7853981633974439491 ) ;
#539 = CARTESIAN_POINT ( 'NONE',  ( -8.530127018922181392, 25.05903810567359002, -4.600000000000019185 ) ) ;
#540 = ADVANCED_FACE ( 'NONE', ( #333 ), #736, .F. ) ;
#541 = EDGE_LOOP ( 'NONE', ( #377, #441 ) ) ;
#542 = VERTEX_POINT ( 'NONE', #346 ) ;
#543 = DIRECTION ( 'NONE',  ( 0.000000000000000000, 0.000000000000000000, 1.000000000000000000 ) ) ;
#544 = CARTESIAN_POINT ( 'NONE',  ( 0.000000000000000000, 59.03427124746189492, -10.00000000000000000 ) ) ;
#545 = CARTESIAN_POINT ( 'NONE',  ( 1.224646799147353256E-15, 59.03427124746189492, 10.00000000000000000 ) ) ;
#546 = EDGE_CURVE ( 'NONE', #706, #21, #246, .T. ) ;
#547 = FACE_OUTER_BOUND ( 'NONE', #257, .T. ) ;
#548 = DIRECTION ( 'NONE',  ( 0.000000000000000000, -1.000000000000000000, 0.000000000000000000 ) ) ;
#549 = CARTESIAN_POINT ( 'NONE',  ( 1.951563910473907981E-15, 22.49999999999693046, -2.125000000000003553 ) ) ;
#550 =( BOUNDED_CURVE ( )  B_SPLINE_CURVE ( 3, ( #474, #191, #587, #309 ),
 .UNSPECIFIED., .F., .T. ) 
 B_SPLINE_CURVE_WITH_KNOTS ( ( 4, 4 ),
 ( 1.629309242285699177, 4.653876064893887055 ),
 .UNSPECIFIED. ) 
 CURVE ( )  GEOMETRIC_REPRESENTATION_ITEM ( )  RATIONAL_B_SPLINE_CURVE ( ( 1.000000000000000000, 0.3723196881091623833, 0.3723196881091623833, 1.000000000000000000 ) ) 
 REPRESENTATION_ITEM ( '' )  );
#551 = LINE ( 'NONE', #671, #500 ) ;
#552 = LINE ( 'NONE', #495, #232 ) ;
#553 = ORIENTED_EDGE ( 'NONE', *, *, #151, .F. ) ;
#554 = EDGE_CURVE ( 'NONE', #649, #105, #476, .T. ) ;
#555 = PRODUCT_DEFINITION_SHAPE ( 'NONE', 'NONE',  #660 ) ;
#556 = VERTEX_POINT ( 'NONE', #126 ) ;
#557 = CARTESIAN_POINT ( 'NONE',  ( 4.330127018922181215, 23.79903810567358136, -0.4000000000000214495 ) ) ;
#558 = ORIENTED_EDGE ( 'NONE', *, *, #401, .T. ) ;
#559 = DIRECTION ( 'NONE',  ( -0.000000000000000000, -1.000000000000000000, -0.000000000000000000 ) ) ;
#560 = ADVANCED_FACE ( 'NONE', ( #357 ), #577, .T. ) ;
#561 = AXIS2_PLACEMENT_3D ( 'NONE', #328, #596, #431 ) ;
#562 = DIRECTION ( 'NONE',  ( -0.000000000000000000, -1.000000000000000000, -0.000000000000000000 ) ) ;
#563 =( GEOMETRIC_REPRESENTATION_CONTEXT ( 3 ) GLOBAL_UNCERTAINTY_ASSIGNED_CONTEXT ( ( #254 ) ) GLOBAL_UNIT_ASSIGNED_CONTEXT ( ( #219, #597, #614 ) ) REPRESENTATION_CONTEXT ( 'NONE', 'WORKASPACE' ) );
#564 = ORIENTED_EDGE ( 'NONE', *, *, #390, .T. ) ;
#565 = CARTESIAN_POINT ( 'NONE',  ( 0.000000000000000000, 38.75000000000000000, 0.000000000000000000 ) ) ;
#566 = ORIENTED_EDGE ( 'NONE', *, *, #401, .F. ) ;
#567 =( BOUNDED_CURVE ( )  B_SPLINE_CURVE ( 3, ( #629, #337, #173, #591 ),
 .UNSPECIFIED., .F., .F. ) 
 B_SPLINE_CURVE_WITH_KNOTS ( ( 4, 4 ),
 ( 1.570796326794895892, 4.712388980384690562 ),
 .UNSPECIFIED. ) 
 CURVE ( )  GEOMETRIC_REPRESENTATION_ITEM ( )  RATIONAL_B_SPLINE_CURVE ( ( 1.000000000000000000, 0.3333333333333327597, 0.3333333333333327597, 1.000000000000000000 ) ) 
 REPRESENTATION_ITEM ( '' )  );
#568 = VERTEX_POINT ( 'NONE', #53 ) ;
#569 = CIRCLE ( 'NONE', #258, 8.550000000000000711 ) ;
#570 = EDGE_CURVE ( 'NONE', #483, #556, #118, .T. ) ;
#571 =( BOUNDED_CURVE ( )  B_SPLINE_CURVE ( 3, ( #90, #266, #427, #322 ),
 .UNSPECIFIED., .F., .F. ) 
 B_SPLINE_CURVE_WITH_KNOTS ( ( 4, 4 ),
 ( 1.512283411304094161, 1.570796326794896558 ),
 .UNSPECIFIED. ) 
 CURVE ( )  GEOMETRIC_REPRESENTATION_ITEM ( )  RATIONAL_B_SPLINE_CURVE ( ( 1.000000000000000000, 0.9997147069104228567, 0.9997147069104228567, 1.000000000000000000 ) ) 
 REPRESENTATION_ITEM ( '' )  );
#572 = VECTOR ( 'NONE', #137, 1000.000000000000000 ) ;
#573 = AXIS2_PLACEMENT_3D ( 'NONE', #690, #178, #399 ) ;
#574 = ORIENTED_EDGE ( 'NONE', *, *, #570, .T. ) ;
#575 = EDGE_CURVE ( 'NONE', #350, #28, #550, .T. ) ;
#576 = DIRECTION ( 'NONE',  ( 0.000000000000000000, 1.000000000000000000, 0.000000000000000000 ) ) ;
#577 = CYLINDRICAL_SURFACE ( 'NONE', #522, 10.00000000000000000 ) ;
#578 = FACE_OUTER_BOUND ( 'NONE', #741, .T. ) ;
#579 = ORIENTED_EDGE ( 'NONE', *, *, #386, .T. ) ;
#580 = EDGE_LOOP ( 'NONE', ( #394, #329, #605, #398 ) ) ;
#581 = CARTESIAN_POINT ( 'NONE',  ( -0.3332143967457708578, 22.59996431902066050, -9.416025403784436421 ) ) ;
#582 = CARTESIAN_POINT ( 'NONE',  ( 0.000000000000000000, 28.99999999999999645, 0.000000000000000000 ) ) ;
#583 = COORDINATED_UNIVERSAL_TIME_OFFSET ( 5, 0, .BEHIND. ) ;
#584 = VERTEX_POINT ( 'NONE', #462 ) ;
#585 = APPROVAL_PERSON_ORGANIZATION ( #146, #163, #598 ) ;
#586 = DIRECTION ( 'NONE',  ( 0.000000000000000000, 1.000000000000000000, 0.000000000000000000 ) ) ;
#587 = CARTESIAN_POINT ( 'NONE',  ( 15.25706806282719974, 27.07712041884508380, 6.775586423061369601 ) ) ;
#588 = DIRECTION ( 'NONE',  ( 0.000000000000000000, -1.000000000000000000, 0.000000000000000000 ) ) ;
#589 = DATE_AND_TIME ( #712, #29 ) ;
#590 = ORIENTED_EDGE ( 'NONE', *, *, #135, .T. ) ;
#591 = CARTESIAN_POINT ( 'NONE',  ( 1.951563910473907981E-15, 22.49999999999693046, 2.124999999999996891 ) ) ;
#592 = PLANE ( 'NONE',  #150 ) ;
#593 = LINE ( 'NONE', #498, #536 ) ;
#594 =( BOUNDED_CURVE ( )  B_SPLINE_CURVE ( 3, ( #599, #666, #610, #420 ),
 .UNSPECIFIED., .F., .T. ) 
 B_SPLINE_CURVE_WITH_KNOTS ( ( 4, 4 ),
 ( 1.570796326794897446, 4.712388980384688786 ),
 .UNSPECIFIED. ) 
 CURVE ( )  GEOMETRIC_REPRESENTATION_ITEM ( )  RATIONAL_B_SPLINE_CURVE ( ( 1.000000000000000000, 0.3333333333333339810, 0.3333333333333339810, 1.000000000000000000 ) ) 
 REPRESENTATION_ITEM ( '' )  );
#595 = ADVANCED_FACE ( 'NONE', ( #196 ), #3, .F. ) ;
#596 = DIRECTION ( 'NONE',  ( 0.000000000000000000, 1.000000000000000000, 0.000000000000000000 ) ) ;
#597 =( NAMED_UNIT ( * ) PLANE_ANGLE_UNIT ( ) SI_UNIT ( $, .RADIAN. ) );
#598 = APPROVAL_ROLE ( '' ) ;
#599 = CARTESIAN_POINT ( 'NONE',  ( 1.951563910473907981E-15, 22.49999999999693046, 2.899999999999987477 ) ) ;
#600 = AXIS2_PLACEMENT_3D ( 'NONE', #482, #659, #80 ) ;
#601 = AXIS2_PLACEMENT_3D ( 'NONE', #64, #303, #131 ) ;
#602 = AXIS2_PLACEMENT_3D ( 'NONE', #7, #69, #530 ) ;
#603 = LINE ( 'NONE', #276, #674 ) ;
#604 = CARTESIAN_POINT ( 'NONE',  ( 0.000000000000000000, 38.75000000000000000, 0.000000000000000000 ) ) ;
#605 = ORIENTED_EDGE ( 'NONE', *, *, #509, .T. ) ;
#606 = DIRECTION ( 'NONE',  ( 0.000000000000000000, -1.000000000000000000, 0.000000000000000000 ) ) ;
#607 = DIRECTION ( 'NONE',  ( 0.000000000000000000, -1.000000000000000000, 0.000000000000000000 ) ) ;
#608 = ADVANCED_FACE ( 'NONE', ( #414 ), #114, .F. ) ;
#609 = CARTESIAN_POINT ( 'NONE',  ( -4.330127018922182103, 23.79903810567358136, -4.600000000000020073 ) ) ;
#610 = CARTESIAN_POINT ( 'NONE',  ( 4.199999999999994849, 23.75999999999692491, 7.099999999999996980 ) ) ;
#611 = ORIENTED_EDGE ( 'NONE', *, *, #624, .T. ) ;
#612 = EDGE_CURVE ( 'NONE', #433, #290, #302, .T. ) ;
#613 = DIRECTION ( 'NONE',  ( -0.000000000000000000, -1.000000000000000000, -0.000000000000000000 ) ) ;
#614 =( NAMED_UNIT ( * ) SI_UNIT ( $, .STERADIAN. ) SOLID_ANGLE_UNIT ( ) );
#615 = CIRCLE ( 'NONE', #602, 10.00000000000000000 ) ;
#616 = ORIENTED_EDGE ( 'NONE', *, *, #128, .F. ) ;
#617 = ADVANCED_FACE ( 'NONE', ( #633 ), #418, .T. ) ;
#618 = EDGE_CURVE ( 'NONE', #168, #298, #520, .T. ) ;
#619 = CARTESIAN_POINT ( 'NONE',  ( 4.330127018922181215, 31.50000000000000000, -2.500000000000022204 ) ) ;
#620 = CARTESIAN_POINT ( 'NONE',  ( 0.000000000000000000, 37.74999999999997868, 0.000000000000000000 ) ) ;
#621 = LINE ( 'NONE', #285, #293 ) ;
#622 = ORIENTED_EDGE ( 'NONE', *, *, #370, .T. ) ;
#623 = AXIS2_PLACEMENT_3D ( 'NONE', #533, #576, #190 ) ;
#624 = EDGE_CURVE ( 'NONE', #158, #249, #703, .T. ) ;
#625 = ORIENTED_EDGE ( 'NONE', *, *, #239, .F. ) ;
#626 = CARTESIAN_POINT ( 'NONE',  ( -4.330127018922182103, 31.50000000000000000, -4.600000000000020073 ) ) ;
#627 = EDGE_LOOP ( 'NONE', ( #41, #566 ) ) ;
#628 = ADVANCED_FACE ( 'NONE', ( #475 ), #534, .T. ) ;
#629 = CARTESIAN_POINT ( 'NONE',  ( 1.951563910473907981E-15, 22.49999999999693046, -2.125000000000003553 ) ) ;
#630 = ORIENTED_EDGE ( 'NONE', *, *, #651, .F. ) ;
#631 = EDGE_CURVE ( 'NONE', #433, #744, #73, .T. ) ;
#632 = CARTESIAN_POINT ( 'NONE',  ( 0.000000000000000000, 38.75000000000000000, 0.000000000000000000 ) ) ;
#633 = FACE_OUTER_BOUND ( 'NONE', #192, .T. ) ;
#634 = CARTESIAN_POINT ( 'NONE',  ( -0.5000000000000042188, 30.75000000000000000, -0.8660254037844361541 ) ) ;
#635 = AXIS2_PLACEMENT_3D ( 'NONE', #632, #461, #639 ) ;
#636 = CC_DESIGN_PERSON_AND_ORGANIZATION_ASSIGNMENT ( #256, #198, ( #121 ) ) ;
#637 = VECTOR ( 'NONE', #305, 1000.000000000000000 ) ;
#638 = VERTEX_POINT ( 'NONE', #255 ) ;
#639 = DIRECTION ( 'NONE',  ( 0.000000000000000000, 0.000000000000000000, 1.000000000000000000 ) ) ;
#640 = ORIENTED_EDGE ( 'NONE', *, *, #151, .T. ) ;
#641 = ADVANCED_FACE ( 'NONE', ( #578 ), #524, .F. ) ;
#642 = DIRECTION ( 'NONE',  ( 0.000000000000000000, 0.000000000000000000, 1.000000000000000000 ) ) ;
#643 = CARTESIAN_POINT ( 'NONE',  ( 0.000000000000000000, 31.50000000000000000, 5.000000000000000000 ) ) ;
#644 = PERSON_AND_ORGANIZATION ( #60, #247 ) ;
#645 = VERTEX_POINT ( 'NONE', #57 ) ;
#646 = CARTESIAN_POINT ( 'NONE',  ( 1.951563910473907981E-15, 22.49999999999693046, -9.401392999851994503 ) ) ;
#647 = CARTESIAN_POINT ( 'NONE',  ( -4.330127018922182103, 23.79903810567358136, -4.600000000000020073 ) ) ;
#648 = COORDINATED_UNIVERSAL_TIME_OFFSET ( 5, 0, .BEHIND. ) ;
#649 = VERTEX_POINT ( 'NONE', #14 ) ;
#650 = DIRECTION ( 'NONE',  ( 0.000000000000000000, -1.000000000000000000, 0.000000000000000000 ) ) ;
#651 = EDGE_CURVE ( 'NONE', #729, #101, #429, .T. ) ;
#652 = DIRECTION ( 'NONE',  ( 0.000000000000000000, 0.000000000000000000, -1.000000000000000000 ) ) ;
#653 = LINE ( 'NONE', #544, #402 ) ;
#654 = PERSON_AND_ORGANIZATION_ROLE ( 'creator' ) ;
#655 = CYLINDRICAL_SURFACE ( 'NONE', #518, 2.100000000000000089 ) ;
#656 = ADVANCED_FACE ( 'NONE', ( #708 ), #538, .T. ) ;
#657 = CARTESIAN_POINT ( 'NONE',  ( 0.000000000000000000, 30.75000000000000000, -10.00000000000000000 ) ) ;
#658 = CALENDAR_DATE ( 2026, 26, 8 ) ;
#659 = DIRECTION ( 'NONE',  ( 0.000000000000000000, 1.000000000000000000, 0.000000000000000000 ) ) ;
#660 = PRODUCT_DEFINITION ( 'UNKNOWN', '', #336, #680 ) ;
#661 = VERTEX_POINT ( 'NONE', #647 ) ;
#662 = AXIS2_PLACEMENT_3D ( 'NONE', #487, #270, #718 ) ;
#663 = CIRCLE ( 'NONE', #467, 2.100000000000000533 ) ;
#664 = AXIS2_PLACEMENT_3D ( 'NONE', #479, #26, #363 ) ;
#665 = FACE_OUTER_BOUND ( 'NONE', #93, .T. ) ;
#666 = CARTESIAN_POINT ( 'NONE',  ( 4.199999999999993960, 23.75999999999692491, 2.900000000000003464 ) ) ;
#667 = EDGE_LOOP ( 'NONE', ( #416, #89 ) ) ;
#668 = DIRECTION ( 'NONE',  ( 0.000000000000000000, 0.000000000000000000, -1.000000000000000000 ) ) ;
#669 = PLANE ( 'NONE',  #463 ) ;
#670 = EDGE_LOOP ( 'NONE', ( #368, #413, #98, #228 ) ) ;
#671 = CARTESIAN_POINT ( 'NONE',  ( -0.5000000000000042188, 30.75000000000000000, -9.416025403784436421 ) ) ;
#672 = APPLICATION_CONTEXT ( 'configuration controlled 3d designs of mechanical parts and assemblies' ) ;
#673 = ORIENTED_EDGE ( 'NONE', *, *, #612, .T. ) ;
#674 = VECTOR ( 'NONE', #434, 1000.000000000000114 ) ;
#675 = VECTOR ( 'NONE', #264, 1000.000000000000000 ) ;
#676 = ADVANCED_FACE ( 'NONE', ( #300 ), #133, .F. ) ;
#677 = EDGE_LOOP ( 'NONE', ( #734, #301 ) ) ;
#678 = CARTESIAN_POINT ( 'NONE',  ( 4.330127018922181215, 23.79903810567358136, -0.4000000000000214495 ) ) ;
#679 = CARTESIAN_POINT ( 'NONE',  ( 4.330127018922181215, 23.79903810567358136, -4.600000000000022737 ) ) ;
#680 = DESIGN_CONTEXT ( 'detailed design', #450, 'design' ) ;
#681 = ORIENTED_EDGE ( 'NONE', *, *, #527, .T. ) ;
#682 = EDGE_LOOP ( 'NONE', ( #217, #50 ) ) ;
#683 = APPROVAL ( #525, 'UNSPECIFIED' ) ;
#684 = CARTESIAN_POINT ( 'NONE',  ( 9.858406733136186526E-16, 38.75000000000000000, 7.549999999999987388 ) ) ;
#685 = AXIS2_PLACEMENT_3D ( 'NONE', #32, #259, #140 ) ;
#686 = LOCAL_TIME ( 12, 28, 16.00000000000000000, #374 ) ;
#687 = ORIENTED_EDGE ( 'NONE', *, *, #1, .T. ) ;
#688 = ORIENTED_EDGE ( 'NONE', *, *, #446, .F. ) ;
#689 = CYLINDRICAL_SURFACE ( 'NONE', #721, 2.125000000000000000 ) ;
#690 = CARTESIAN_POINT ( 'NONE',  ( -4.330127018922182103, 31.50000000000000000, -2.500000000000019540 ) ) ;
#691 = EDGE_LOOP ( 'NONE', ( #640, #564, #505, #230 ) ) ;
#692 = CARTESIAN_POINT ( 'NONE',  ( -4.330127018922182103, 31.50000000000000000, -0.4000000000000192846 ) ) ;
#693 = DIRECTION ( 'NONE',  ( -0.000000000000000000, -1.000000000000000000, -0.000000000000000000 ) ) ;
#694 = AXIS2_PLACEMENT_3D ( 'NONE', #512, #2, #241 ) ;
#695 = ORIENTED_EDGE ( 'NONE', *, *, #281, .F. ) ;
#696 = EDGE_CURVE ( 'NONE', #129, #166, #615, .T. ) ;
#697 = CIRCLE ( 'NONE', #468, 8.550000000000000711 ) ;
#698 = ADVANCED_FACE ( 'NONE', ( #197, #362 ), #592, .T. ) ;
#699 = PLANE ( 'NONE',  #439 ) ;
#700 = CARTESIAN_POINT ( 'NONE',  ( 1.047073013270987016E-15, 38.75000000000000000, 8.550000000000000711 ) ) ;
#701 = SHAPE_DEFINITION_REPRESENTATION ( #555, #112 ) ;
#702 = VERTEX_POINT ( 'NONE', #152 ) ;
#703 = LINE ( 'NONE', #75, #675 ) ;
#704 = DIRECTION ( 'NONE',  ( 0.000000000000000000, -1.000000000000000000, 0.000000000000000000 ) ) ;
#705 = DIRECTION ( 'NONE',  ( 0.000000000000000000, 0.000000000000000000, -1.000000000000000000 ) ) ;
#706 = VERTEX_POINT ( 'NONE', #39 ) ;
#707 = CLOSED_SHELL ( 'NONE', ( #442, #22, #447, #181, #560, #317, #676, #608, #698, #466, #540, #100, #656, #617, #628, #161, #730, #117, #436, #269, #595, #83, #283, #641 ) ) ;
#708 = FACE_OUTER_BOUND ( 'NONE', #503, .T. ) ;
#709 = CALENDAR_DATE ( 2026, 26, 8 ) ;
#710 = ORIENTED_EDGE ( 'NONE', *, *, #554, .T. ) ;
#711 = VECTOR ( 'NONE', #111, 1000.000000000000000 ) ;
#712 = CALENDAR_DATE ( 2026, 26, 8 ) ;
#713 = DIRECTION ( 'NONE',  ( 0.000000000000000000, -1.000000000000000000, 0.000000000000000000 ) ) ;
#714 = ORIENTED_EDGE ( 'NONE', *, *, #19, .T. ) ;
#715 = DIRECTION ( 'NONE',  ( 0.000000000000000000, -1.000000000000000000, 0.000000000000000000 ) ) ;
#716 = APPROVAL_DATE_TIME ( #589, #63 ) ;
#717 = DIRECTION ( 'NONE',  ( 0.000000000000000000, 0.000000000000000000, 1.000000000000000000 ) ) ;
#718 = DIRECTION ( 'NONE',  ( 0.000000000000000000, 0.000000000000000000, 1.000000000000000000 ) ) ;
#719 = DIRECTION ( 'NONE',  ( 0.000000000000000000, 0.000000000000000000, 1.000000000000000000 ) ) ;
#720 = ORIENTED_EDGE ( 'NONE', *, *, #459, .F. ) ;
#721 = AXIS2_PLACEMENT_3D ( 'NONE', #407, #245, #177 ) ;
#722 = AXIS2_PLACEMENT_3D ( 'NONE', #422, #77, #145 ) ;
#723 = DIRECTION ( 'NONE',  ( 0.000000000000000000, 0.000000000000000000, -1.000000000000000000 ) ) ;
#724 = PLANE ( 'NONE',  #282 ) ;
#725 = ORIENTED_EDGE ( 'NONE', *, *, #527, .F. ) ;
#726 =( BOUNDED_CURVE ( )  B_SPLINE_CURVE ( 3, ( #351, #581, #410, #646 ),
 .UNSPECIFIED., .F., .F. ) 
 B_SPLINE_CURVE_WITH_KNOTS ( ( 4, 4 ),
 ( 4.712388980384689674, 4.770901895875492293 ),
 .UNSPECIFIED. ) 
 CURVE ( )  GEOMETRIC_REPRESENTATION_ITEM ( )  RATIONAL_B_SPLINE_CURVE ( ( 1.000000000000000000, 0.9997147069104228567, 0.9997147069104228567, 1.000000000000000000 ) ) 
 REPRESENTATION_ITEM ( '' )  );
#727 = CARTESIAN_POINT ( 'NONE',  ( 4.330127018922181215, 31.50000000000000000, -0.4000000000000214495 ) ) ;
#728 = DIRECTION ( 'NONE',  ( -0.000000000000000000, -1.000000000000000000, -0.000000000000000000 ) ) ;
#729 = VERTEX_POINT ( 'NONE', #381 ) ;
#730 = ADVANCED_FACE ( 'NONE', ( #373 ), #320, .T. ) ;
#731 = ORIENTED_EDGE ( 'NONE', *, *, #287, .F. ) ;
#732 = CARTESIAN_POINT ( 'NONE',  ( 8.530127018922181392, 25.05903810567359002, -4.600000000000022737 ) ) ;
#733 = AXIS2_PLACEMENT_3D ( 'NONE', #243, #185, #705 ) ;
#734 = ORIENTED_EDGE ( 'NONE', *, *, #204, .F. ) ;
#735 = DIRECTION ( 'NONE',  ( 0.000000000000000000, -1.000000000000000000, 0.000000000000000000 ) ) ;
#736 = CYLINDRICAL_SURFACE ( 'NONE', #106, 2.125000000000000000 ) ;
#737 = DIRECTION ( 'NONE',  ( 0.000000000000000000, -1.000000000000000000, 0.000000000000000000 ) ) ;
#738 = ORIENTED_EDGE ( 'NONE', *, *, #33, .F. ) ;
#739 = EDGE_CURVE ( 'NONE', #166, #483, #653, .T. ) ;
#740 = CARTESIAN_POINT ( 'NONE',  ( -4.200000000000006395, 23.75999999999692847, 2.899999999999997247 ) ) ;
#741 = EDGE_LOOP ( 'NONE', ( #164, #244, #622, #714 ) ) ;
#742 = EDGE_CURVE ( 'NONE', #62, #702, #697, .T. ) ;
#743 = DIRECTION ( 'NONE',  ( 0.000000000000000000, 0.000000000000000000, -1.000000000000000000 ) ) ;
#744 = VERTEX_POINT ( 'NONE', #494 ) ;
ENDSEC;
END-ISO-10303-21;
