ISO-10303-21;
HEADER;
FILE_DESCRIPTION (( 'STEP AP203' ),
    '1' );
FILE_NAME ('EC3.STEP',
    '2026-08-26T16:29:13',
    ( '' ),
    ( '' ),
    'SwSTEP 2.0',
    'SolidWorks 2025',
    '' );
FILE_SCHEMA (( 'CONFIG_CONTROL_DESIGN' ));
ENDSEC;

DATA;
#1 = CARTESIAN_POINT ( 'NONE',  ( 18.09999999999998721, 7.929999999996922178, 8.549999999999993605 ) ) ;
#2 = ORIENTED_EDGE ( 'NONE', *, *, #282, .F. ) ;
#3 = DIRECTION ( 'NONE',  ( 0.9578262852211513190, -0.2873478855663452736, 0.000000000000000000 ) ) ;
#4 = CARTESIAN_POINT ( 'NONE',  ( 2.602374448188125350E-16, 30.75000000000000000, 2.125000000000000000 ) ) ;
#5 = DIRECTION ( 'NONE',  ( 0.000000000000000000, -1.000000000000000000, 0.000000000000000000 ) ) ;
#6 = CARTESIAN_POINT ( 'NONE',  ( 1.000000000000000000, 7.000000000000000000, 0.000000000000000000 ) ) ;
#7 = DIRECTION ( 'NONE',  ( -0.000000000000000000, -1.000000000000000000, -0.000000000000000000 ) ) ;
#8 = CARTESIAN_POINT ( 'NONE',  ( -8.530127018922181392, 5.059038105673581143, -0.4000000000000190070 ) ) ;
#9 = DIRECTION ( 'NONE',  ( 0.000000000000000000, 1.000000000000000000, 0.000000000000000000 ) ) ;
#10 = ORIENTED_EDGE ( 'NONE', *, *, #540, .T. ) ;
#11 = CARTESIAN_POINT ( 'NONE',  ( -10.00000000000000000, 5.499999999996927791, -14.00999999999999979 ) ) ;
#12 = CARTESIAN_POINT ( 'NONE',  ( 1.658783576975712840E-15, 12.49999999999692868, 9.401392999851985621 ) ) ;
#13 = ADVANCED_FACE ( 'NONE', ( #532 ), #713, .T. ) ;
#14 = PRODUCT_DEFINITION_FORMATION_WITH_SPECIFIED_SOURCE ( 'ANY', '', #602, .NOT_KNOWN. ) ;
#15 = EDGE_CURVE ( 'NONE', #457, #351, #288, .T. ) ;
#16 = CARTESIAN_POINT ( 'NONE',  ( 0.000000000000000000, 7.000000000000000000, -10.00000000000000000 ) ) ;
#17 = ORIENTED_EDGE ( 'NONE', *, *, #573, .T. ) ;
#18 = CARTESIAN_POINT ( 'NONE',  ( 4.330127018922181215, 13.79903810567358136, -0.4000000000000214495 ) ) ;
#19 = VECTOR ( 'NONE', #5, 1000.000000000000000 ) ;
#20 = CARTESIAN_POINT ( 'NONE',  ( 4.330127018922181215, 3.799038105673578691, -4.600000000000022737 ) ) ;
#21 = ORIENTED_EDGE ( 'NONE', *, *, #82, .F. ) ;
#22 = FACE_BOUND ( 'NONE', #472, .T. ) ;
#23 = CARTESIAN_POINT ( 'NONE',  ( 1.658783576975712840E-15, 12.49999999999692868, -2.125000000000003553 ) ) ;
#24 = SECURITY_CLASSIFICATION_LEVEL ( 'unclassified' ) ;
#25 = ORIENTED_EDGE ( 'NONE', *, *, #442, .F. ) ;
#26 = CARTESIAN_POINT ( 'NONE',  ( 1.366003243477517502E-15, 2.499999999996928235, -8.491319096583287873 ) ) ;
#27 = ORIENTED_EDGE ( 'NONE', *, *, #134, .F. ) ;
#28 = CARTESIAN_POINT ( 'NONE',  ( 0.3319951462397508490, 2.599598543868852918, -8.530417279381918405 ) ) ;
#29 =( BOUNDED_CURVE ( )  B_SPLINE_CURVE ( 3, ( #20, #64, #626, #622 ),
 .UNSPECIFIED., .F., .T. ) 
 B_SPLINE_CURVE_WITH_KNOTS ( ( 4, 4 ),
 ( 1.570796326794896558, 4.712388980384689674 ),
 .UNSPECIFIED. ) 
 CURVE ( )  GEOMETRIC_REPRESENTATION_ITEM ( )  RATIONAL_B_SPLINE_CURVE ( ( 1.000000000000000000, 0.3333333333333333703, 0.3333333333333333703, 1.000000000000000000 ) ) 
 REPRESENTATION_ITEM ( '' )  );
#30 = CLOSED_SHELL ( 'NONE', ( #522, #13, #256, #296, #581, #471, #410, #345, #314, #519, #711, #230, #691, #391, #83, #441, #656, #364, #680, #552 ) ) ;
#31 = VERTEX_POINT ( 'NONE', #542 ) ;
#32 = CARTESIAN_POINT ( 'NONE',  ( -0.5000000000000041078, 12.64999999999693081, -7.683974596215563224 ) ) ;
#33 = VERTEX_POINT ( 'NONE', #426 ) ;
#34 = EDGE_CURVE ( 'NONE', #60, #376, #92, .T. ) ;
#35 = VERTEX_POINT ( 'NONE', #546 ) ;
#36 = EDGE_CURVE ( 'NONE', #236, #637, #29, .T. ) ;
#37 = EDGE_LOOP ( 'NONE', ( #592, #484, #525, #265 ) ) ;
#38 = CARTESIAN_POINT ( 'NONE',  ( 1.658783576975712840E-15, 12.49999999999692868, 9.401392999851985621 ) ) ;
#39 = VERTEX_POINT ( 'NONE', #555 ) ;
#40 = CYLINDRICAL_SURFACE ( 'NONE', #301, 2.100000000000000089 ) ;
#41 = VERTEX_POINT ( 'NONE', #224 ) ;
#42 = CARTESIAN_POINT ( 'NONE',  ( 10.00000000000000355, 15.49999999999692690, -14.00999999999999979 ) ) ;
#43 = AXIS2_PLACEMENT_3D ( 'NONE', #599, #164, #261 ) ;
#44 = EDGE_LOOP ( 'NONE', ( #353, #449, #211, #689, #47, #657, #102, #372 ) ) ;
#45 = CARTESIAN_POINT ( 'NONE',  ( 4.330127018922181215, 13.79903810567358136, -0.4000000000000214495 ) ) ;
#46 = CIRCLE ( 'NONE', #529, 8.549999999999997158 ) ;
#47 = ORIENTED_EDGE ( 'NONE', *, *, #563, .F. ) ;
#48 = CARTESIAN_POINT ( 'NONE',  ( 8.530127018922181392, 15.05903810567358292, -4.600000000000022737 ) ) ;
#49 = VECTOR ( 'NONE', #7, 1000.000000000000000 ) ;
#50 = VERTEX_POINT ( 'NONE', #165 ) ;
#51 = CARTESIAN_POINT ( 'NONE',  ( 0.000000000000000000, 31.50000000000000000, 5.000000000000000000 ) ) ;
#52 = CARTESIAN_POINT ( 'NONE',  ( 0.000000000000000000, 30.75000000000000000, 0.000000000000000000 ) ) ;
#53 = CARTESIAN_POINT ( 'NONE',  ( 1.000000000000001110, 2.799999999996927169, 8.549999999999997158 ) ) ;
#54 = DIRECTION ( 'NONE',  ( -0.000000000000000000, -1.000000000000000000, -0.000000000000000000 ) ) ;
#55 = PERSON_AND_ORGANIZATION_ROLE ( 'classification_officer' ) ;
#56 = CARTESIAN_POINT ( 'NONE',  ( 1.000000000000000000, 7.000000000000000000, -8.549999999999997158 ) ) ;
#57 = AXIS2_PLACEMENT_3D ( 'NONE', #669, #9, #495 ) ;
#58 = CARTESIAN_POINT ( 'NONE',  ( 0.000000000000000000, 11.00000000000000000, -10.00000000000000000 ) ) ;
#59 = DIRECTION ( 'NONE',  ( -0.000000000000000000, -1.000000000000000000, -0.000000000000000000 ) ) ;
#60 = VERTEX_POINT ( 'NONE', #683 ) ;
#61 = DIRECTION ( 'NONE',  ( 0.000000000000000000, -1.000000000000000000, 0.000000000000000000 ) ) ;
#62 = EDGE_CURVE ( 'NONE', #512, #246, #721, .T. ) ;
#63 = EDGE_CURVE ( 'NONE', #41, #236, #452, .T. ) ;
#64 = CARTESIAN_POINT ( 'NONE',  ( 8.530127018922181392, 5.059038105673578478, -4.600000000000022737 ) ) ;
#65 = FACE_OUTER_BOUND ( 'NONE', #584, .T. ) ;
#66 = CARTESIAN_POINT ( 'NONE',  ( 0.6657105370716743797, 2.699713161118429738, 8.549999999999997158 ) ) ;
#67 = AXIS2_PLACEMENT_3D ( 'NONE', #366, #423, #369 ) ;
#68 = DIRECTION ( 'NONE',  ( 0.000000000000000000, -0.000000000000000000, 1.000000000000000000 ) ) ;
#69 = LINE ( 'NONE', #103, #80 ) ;
#70 = CARTESIAN_POINT ( 'NONE',  ( 4.330127018922181215, 13.79903810567358136, -4.600000000000022737 ) ) ;
#71 = DIRECTION ( 'NONE',  ( 0.000000000000000000, 0.000000000000000000, 1.000000000000000000 ) ) ;
#72 = AXIS2_PLACEMENT_3D ( 'NONE', #166, #566, #493 ) ;
#73 = CARTESIAN_POINT ( 'NONE',  ( -4.250000000000006217, 13.77499999999693614, -2.125000000000003109 ) ) ;
#74 = PERSON_AND_ORGANIZATION_ROLE ( 'design_supplier' ) ;
#75 = ORIENTED_EDGE ( 'NONE', *, *, #655, .F. ) ;
#76 = LINE ( 'NONE', #687, #412 ) ;
#77 = CARTESIAN_POINT ( 'NONE',  ( 1.366003243477517502E-15, 2.499999999996928235, -2.125000000000003553 ) ) ;
#78 = ORIENTED_EDGE ( 'NONE', *, *, #63, .F. ) ;
#79 = FACE_OUTER_BOUND ( 'NONE', #286, .T. ) ;
#80 = VECTOR ( 'NONE', #106, 1000.000000000000000 ) ;
#81 = EDGE_LOOP ( 'NONE', ( #642, #632, #480, #308 ) ) ;
#82 = EDGE_CURVE ( 'NONE', #376, #60, #486, .T. ) ;
#83 = ADVANCED_FACE ( 'NONE', ( #399, #231 ), #456, .F. ) ;
#84 = ORIENTED_EDGE ( 'NONE', *, *, #629, .F. ) ;
#85 =( BOUNDED_CURVE ( )  B_SPLINE_CURVE ( 3, ( #297, #176, #455, #123 ),
 .UNSPECIFIED., .F., .T. ) 
 B_SPLINE_CURVE_WITH_KNOTS ( ( 4, 4 ),
 ( 1.688023701488965633, 4.595161605690620377 ),
 .UNSPECIFIED. ) 
 CURVE ( )  GEOMETRIC_REPRESENTATION_ITEM ( )  RATIONAL_B_SPLINE_CURVE ( ( 1.000000000000000000, 0.4113060428849905081, 0.4113060428849905081, 1.000000000000000000 ) ) 
 REPRESENTATION_ITEM ( '' )  );
#86 = CALENDAR_DATE ( 2026, 26, 8 ) ;
#87 = VERTEX_POINT ( 'NONE', #58 ) ;
#88 = ORIENTED_EDGE ( 'NONE', *, *, #36, .T. ) ;
#89 = CIRCLE ( 'NONE', #146, 10.00000000000000000 ) ;
#90 = EDGE_CURVE ( 'NONE', #137, #524, #409, .T. ) ;
#91 = ORIENTED_EDGE ( 'NONE', *, *, #498, .T. ) ;
#92 =( BOUNDED_CURVE ( )  B_SPLINE_CURVE ( 3, ( #502, #73, #688, #171 ),
 .UNSPECIFIED., .F., .T. ) 
 B_SPLINE_CURVE_WITH_KNOTS ( ( 4, 4 ),
 ( 1.570796326794895892, 4.712388980384690562 ),
 .UNSPECIFIED. ) 
 CURVE ( )  GEOMETRIC_REPRESENTATION_ITEM ( )  RATIONAL_B_SPLINE_CURVE ( ( 1.000000000000000000, 0.3333333333333327597, 0.3333333333333327597, 1.000000000000000000 ) ) 
 REPRESENTATION_ITEM ( '' )  );
#93 = CARTESIAN_POINT ( 'NONE',  ( 8.530127018922181392, 15.05903810567358292, -0.4000000000000221712 ) ) ;
#94 = DESIGN_CONTEXT ( 'detailed design', #586, 'design' ) ;
#95 = DIRECTION ( 'NONE',  ( 0.000000000000000000, 0.000000000000000000, -1.000000000000000000 ) ) ;
#96 = AXIS2_PLACEMENT_3D ( 'NONE', #548, #606, #104 ) ;
#97 = FACE_OUTER_BOUND ( 'NONE', #229, .T. ) ;
#98 = DIRECTION ( 'NONE',  ( -0.000000000000000000, -1.000000000000000000, -0.000000000000000000 ) ) ;
#99 = DIRECTION ( 'NONE',  ( 0.000000000000000000, -1.000000000000000000, 0.000000000000000000 ) ) ;
#100 = CIRCLE ( 'NONE', #388, 10.00000000000000000 ) ;
#101 = CARTESIAN_POINT ( 'NONE',  ( -0.5000000000000041078, 18.00000000000000000, 0.8660254037844363761 ) ) ;
#102 = ORIENTED_EDGE ( 'NONE', *, *, #498, .F. ) ;
#103 = CARTESIAN_POINT ( 'NONE',  ( 1.658783576975712840E-15, 12.49999999999692868, -14.00999999999999979 ) ) ;
#104 = DIRECTION ( 'NONE',  ( 0.000000000000000000, 0.000000000000000000, -1.000000000000000000 ) ) ;
#105 = ORIENTED_EDGE ( 'NONE', *, *, #189, .F. ) ;
#106 = DIRECTION ( 'NONE',  ( 0.000000000000000000, 0.000000000000000000, 1.000000000000000000 ) ) ;
#107 = PERSON_AND_ORGANIZATION ( #268, #144 ) ;
#108 = CARTESIAN_POINT ( 'NONE',  ( 1.366003243477517502E-15, 2.499999999996928235, 7.099999999999989875 ) ) ;
#109 = CARTESIAN_POINT ( 'NONE',  ( 4.249999999999994671, 3.774999999996922817, -2.124999999999995559 ) ) ;
#110 = FACE_OUTER_BOUND ( 'NONE', #126, .T. ) ;
#111 = CALENDAR_DATE ( 2026, 26, 8 ) ;
#112 = EDGE_CURVE ( 'NONE', #183, #457, #668, .T. ) ;
#113 =( BOUNDED_CURVE ( )  B_SPLINE_CURVE ( 3, ( #32, #346, #119, #294 ),
 .UNSPECIFIED., .F., .T. ) 
 B_SPLINE_CURVE_WITH_KNOTS ( ( 4, 4 ),
 ( 4.712388980384689674, 4.770901895875492293 ),
 .UNSPECIFIED. ) 
 CURVE ( )  GEOMETRIC_REPRESENTATION_ITEM ( )  RATIONAL_B_SPLINE_CURVE ( ( 1.000000000000000000, 0.9997147069104228567, 0.9997147069104228567, 1.000000000000000000 ) ) 
 REPRESENTATION_ITEM ( '' )  );
#114 = DIRECTION ( 'NONE',  ( 0.000000000000000000, 0.000000000000000000, -1.000000000000000000 ) ) ;
#115 = AXIS2_PLACEMENT_3D ( 'NONE', #42, #481, #201 ) ;
#116 = DIRECTION ( 'NONE',  ( -0.000000000000000000, 1.000000000000000000, 0.000000000000000000 ) ) ;
#117 = PERSON_AND_ORGANIZATION_ROLE ( 'creator' ) ;
#118 = EDGE_LOOP ( 'NONE', ( #415, #679, #604, #88 ) ) ;
#119 = CARTESIAN_POINT ( 'NONE',  ( -0.1665001676616101600, 12.54995005029541488, -7.679095736333072075 ) ) ;
#120 =( BOUNDED_CURVE ( )  B_SPLINE_CURVE ( 3, ( #443, #674, #169, #386 ),
 .UNSPECIFIED., .F., .F. ) 
 B_SPLINE_CURVE_WITH_KNOTS ( ( 4, 4 ),
 ( 1.570796326794896558, 4.712388980384689674 ),
 .UNSPECIFIED. ) 
 CURVE ( )  GEOMETRIC_REPRESENTATION_ITEM ( )  RATIONAL_B_SPLINE_CURVE ( ( 1.000000000000000000, 0.3333333333333333703, 0.3333333333333333703, 1.000000000000000000 ) ) 
 REPRESENTATION_ITEM ( '' )  );
#121 = CARTESIAN_POINT ( 'NONE',  ( 1.658783576975712840E-15, 12.49999999999692868, 2.124999999999996891 ) ) ;
#122 = EDGE_LOOP ( 'NONE', ( #347, #311, #389, #161 ) ) ;
#123 = CARTESIAN_POINT ( 'NONE',  ( 1.366003243477517502E-15, 2.499999999996928235, -8.491319096583287873 ) ) ;
#124 = CARTESIAN_POINT ( 'NONE',  ( -0.1665001676616092996, 12.54995005029541311, 9.411146543901944383 ) ) ;
#125 = CC_DESIGN_APPROVAL ( #180, ( #673 ) ) ;
#126 = EDGE_LOOP ( 'NONE', ( #244, #291, #665, #84, #186, #419 ) ) ;
#127 = CARTESIAN_POINT ( 'NONE',  ( 0.3319951462397505160, 2.599598543868852474, 8.530417279381918405 ) ) ;
#128 = CARTESIAN_POINT ( 'NONE',  ( 1.000000000000000000, 7.000000000000000000, -8.549999999999997158 ) ) ;
#129 = DATE_AND_TIME ( #641, #233 ) ;
#130 = EDGE_LOOP ( 'NONE', ( #142, #530, #179, #696 ) ) ;
#131 = ORIENTED_EDGE ( 'NONE', *, *, #157, .T. ) ;
#132 = CARTESIAN_POINT ( 'NONE',  ( 1.000000000000000000, 2.799999999996927169, -8.549999999999997158 ) ) ;
#133 = VERTEX_POINT ( 'NONE', #53 ) ;
#134 = EDGE_CURVE ( 'NONE', #246, #512, #241, .T. ) ;
#135 = EDGE_CURVE ( 'NONE', #407, #31, #625, .T. ) ;
#136 = AXIS2_PLACEMENT_3D ( 'NONE', #380, #59, #274 ) ;
#137 = VERTEX_POINT ( 'NONE', #631 ) ;
#138 = ORIENTED_EDGE ( 'NONE', *, *, #489, .T. ) ;
#139 = CARTESIAN_POINT ( 'NONE',  ( 4.330127018922181215, 31.50000000000000000, -2.500000000000022204 ) ) ;
#140 = ADVANCED_BREP_SHAPE_REPRESENTATION ( 'EC3', ( #523, #428 ), #564 ) ;
#141 = APPROVAL ( #511, 'UNSPECIFIED' ) ;
#142 = ORIENTED_EDGE ( 'NONE', *, *, #712, .F. ) ;
#143 = CARTESIAN_POINT ( 'NONE',  ( 0.1301270189221805096, 2.539038105673578904, -0.4000000000000207834 ) ) ;
#144 = ORGANIZATION ( 'UNSPECIFIED', 'UNSPECIFIED', '' ) ;
#145 = ORIENTED_EDGE ( 'NONE', *, *, #282, .T. ) ;
#146 = AXIS2_PLACEMENT_3D ( 'NONE', #385, #116, #273 ) ;
#147 = CARTESIAN_POINT ( 'NONE',  ( 0.000000000000000000, 30.75000000000000000, 0.000000000000000000 ) ) ;
#148 = ORIENTED_EDGE ( 'NONE', *, *, #335, .T. ) ;
#149 = CARTESIAN_POINT ( 'NONE',  ( 1.658783576975712840E-15, 12.49999999999692868, -7.669342192283121307 ) ) ;
#150 = CYLINDRICAL_SURFACE ( 'NONE', #633, 2.125000000000000000 ) ;
#151 = EDGE_CURVE ( 'NONE', #504, #637, #168, .T. ) ;
#152 = ORIENTED_EDGE ( 'NONE', *, *, #535, .T. ) ;
#153 = VECTOR ( 'NONE', #445, 1000.000000000000000 ) ;
#154 = FACE_OUTER_BOUND ( 'NONE', #315, .T. ) ;
#155 = EDGE_CURVE ( 'NONE', #87, #183, #89, .T. ) ;
#156 = LOCAL_TIME ( 12, 29, 13.00000000000000000, #628 ) ;
#157 = EDGE_CURVE ( 'NONE', #516, #170, #646, .T. ) ;
#158 = MECHANICAL_CONTEXT ( 'NONE', #659, 'mechanical' ) ;
#159 = DIRECTION ( 'NONE',  ( 0.000000000000000000, 0.000000000000000000, -1.000000000000000000 ) ) ;
#160 = VECTOR ( 'NONE', #560, 1000.000000000000000 ) ;
#161 = ORIENTED_EDGE ( 'NONE', *, *, #134, .T. ) ;
#162 = LINE ( 'NONE', #377, #371 ) ;
#163 = PERSON_AND_ORGANIZATION ( #268, #144 ) ;
#164 = DIRECTION ( 'NONE',  ( 0.2873478855663453291, -0.9578262852211514300, 0.000000000000000000 ) ) ;
#165 = CARTESIAN_POINT ( 'NONE',  ( 1.658783576975712840E-15, 12.49999999999692868, -7.669342192283121307 ) ) ;
#166 = CARTESIAN_POINT ( 'NONE',  ( 0.000000000000000000, 11.00000000000000000, 0.000000000000000000 ) ) ;
#167 = FACE_BOUND ( 'NONE', #209, .T. ) ;
#168 = LINE ( 'NONE', #494, #19 ) ;
#169 = CARTESIAN_POINT ( 'NONE',  ( -17.60000000000000142, 17.77999999999693159, -7.683974596215560560 ) ) ;
#170 = VERTEX_POINT ( 'NONE', #559 ) ;
#171 = CARTESIAN_POINT ( 'NONE',  ( 1.658783576975712840E-15, 12.49999999999692868, 2.124999999999996891 ) ) ;
#172 = DIRECTION ( 'NONE',  ( 0.000000000000000000, 0.000000000000000000, 1.000000000000000000 ) ) ;
#173 = ORIENTED_EDGE ( 'NONE', *, *, #442, .T. ) ;
#174 = CARTESIAN_POINT ( 'NONE',  ( 1.366003243477517502E-15, 2.499999999996928235, 8.491319096583278991 ) ) ;
#175 = CC_DESIGN_PERSON_AND_ORGANIZATION_ASSIGNMENT ( #232, #221, ( #602 ) ) ;
#176 = CARTESIAN_POINT ( 'NONE',  ( -13.66872037914690097, 6.600616113740999324, 6.881590357894507903 ) ) ;
#177 = CARTESIAN_POINT ( 'NONE',  ( -4.330127018922182103, 3.799038105673582244, -4.600000000000020073 ) ) ;
#178 = APPROVAL_DATE_TIME ( #613, #476 ) ;
#179 = ORIENTED_EDGE ( 'NONE', *, *, #204, .T. ) ;
#180 = APPROVAL ( #245, 'UNSPECIFIED' ) ;
#181 = CARTESIAN_POINT ( 'NONE',  ( -4.330127018922182103, 3.799038105673582244, -0.4000000000000192846 ) ) ;
#182 = CARTESIAN_POINT ( 'NONE',  ( 4.330127018922181215, 31.50000000000000000, -4.600000000000022737 ) ) ;
#183 = VERTEX_POINT ( 'NONE', #693 ) ;
#184 = VECTOR ( 'NONE', #99, 1000.000000000000000 ) ;
#185 = CARTESIAN_POINT ( 'NONE',  ( -0.5000000000000029976, 12.64999999999693081, 9.416025403784436421 ) ) ;
#186 = ORIENTED_EDGE ( 'NONE', *, *, #477, .F. ) ;
#187 = VECTOR ( 'NONE', #317, 1000.000000000000000 ) ;
#188 =( BOUNDED_CURVE ( )  B_SPLINE_CURVE ( 3, ( #289, #238, #464, #510 ),
 .UNSPECIFIED., .F., .T. ) 
 B_SPLINE_CURVE_WITH_KNOTS ( ( 4, 4 ),
 ( 4.712388980384689674, 7.853981633974482790 ),
 .UNSPECIFIED. ) 
 CURVE ( )  GEOMETRIC_REPRESENTATION_ITEM ( )  RATIONAL_B_SPLINE_CURVE ( ( 1.000000000000000000, 0.3333333333333333703, 0.3333333333333333703, 1.000000000000000000 ) ) 
 REPRESENTATION_ITEM ( '' )  );
#189 = EDGE_CURVE ( 'NONE', #33, #304, #384, .T. ) ;
#190 = ORIENTED_EDGE ( 'NONE', *, *, #363, .T. ) ;
#191 = ORIENTED_EDGE ( 'NONE', *, *, #390, .T. ) ;
#192 = CC_DESIGN_DATE_AND_TIME_ASSIGNMENT ( #589, #355, ( #673 ) ) ;
#193 = ORIENTED_EDGE ( 'NONE', *, *, #370, .T. ) ;
#194 = ORIENTED_EDGE ( 'NONE', *, *, #90, .T. ) ;
#195 = CARTESIAN_POINT ( 'NONE',  ( 1.366003243477517502E-15, 2.499999999996928235, 2.124999999999996891 ) ) ;
#196 = APPLICATION_PROTOCOL_DEFINITION ( 'international standard', 'config_control_design', 1994, #659 ) ;
#197 = ORIENTED_EDGE ( 'NONE', *, *, #470, .T. ) ;
#198 = DIRECTION ( 'NONE',  ( 0.000000000000000000, 0.000000000000000000, 1.000000000000000000 ) ) ;
#199 = LOCAL_TIME ( 12, 29, 13.00000000000000000, #567 ) ;
#200 = VERTEX_POINT ( 'NONE', #128 ) ;
#201 = DIRECTION ( 'NONE',  ( 0.9578262852211513190, 0.2873478855663452736, 0.000000000000000000 ) ) ;
#202 = ORIENTED_EDGE ( 'NONE', *, *, #540, .F. ) ;
#203 = FACE_BOUND ( 'NONE', #624, .T. ) ;
#204 = EDGE_CURVE ( 'NONE', #60, #31, #343, .T. ) ;
#205 = EDGE_CURVE ( 'NONE', #595, #133, #76, .T. ) ;
#206 =( BOUNDED_CURVE ( )  B_SPLINE_CURVE ( 3, ( #108, #544, #375, #497 ),
 .UNSPECIFIED., .F., .F. ) 
 B_SPLINE_CURVE_WITH_KNOTS ( ( 4, 4 ),
 ( 1.570796326794896114, 4.712388980384689674 ),
 .UNSPECIFIED. ) 
 CURVE ( )  GEOMETRIC_REPRESENTATION_ITEM ( )  RATIONAL_B_SPLINE_CURVE ( ( 1.000000000000000000, 0.3333333333333332038, 0.3333333333333332038, 1.000000000000000000 ) ) 
 REPRESENTATION_ITEM ( '' )  );
#207 = DIRECTION ( 'NONE',  ( 0.000000000000000000, 0.000000000000000000, -1.000000000000000000 ) ) ;
#208 = ORIENTED_EDGE ( 'NONE', *, *, #295, .T. ) ;
#209 = EDGE_LOOP ( 'NONE', ( #27, #278 ) ) ;
#210 = LINE ( 'NONE', #321, #473 ) ;
#211 = ORIENTED_EDGE ( 'NONE', *, *, #692, .T. ) ;
#212 = LINE ( 'NONE', #507, #360 ) ;
#213 = DIRECTION ( 'NONE',  ( 0.000000000000000000, 0.000000000000000000, -1.000000000000000000 ) ) ;
#214 = CC_DESIGN_PERSON_AND_ORGANIZATION_ASSIGNMENT ( #551, #74, ( #14 ) ) ;
#215 = EDGE_CURVE ( 'NONE', #31, #407, #313, .T. ) ;
#216 = CARTESIAN_POINT ( 'NONE',  ( 0.4999999999999978351, 7.000000000000000000, 0.000000000000000000 ) ) ;
#217 = DIRECTION ( 'NONE',  ( -0.000000000000000000, -1.000000000000000000, -0.000000000000000000 ) ) ;
#218 = APPROVAL_ROLE ( '' ) ;
#219 = CARTESIAN_POINT ( 'NONE',  ( -8.530127018922181392, 5.059038105673581143, -4.600000000000019185 ) ) ;
#220 = DIRECTION ( 'NONE',  ( 0.000000000000000000, 0.000000000000000000, 1.000000000000000000 ) ) ;
#221 = PERSON_AND_ORGANIZATION_ROLE ( 'design_owner' ) ;
#222 = ORIENTED_EDGE ( 'NONE', *, *, #34, .F. ) ;
#223 = CARTESIAN_POINT ( 'NONE',  ( 1.366003243477517502E-15, 2.499999999996928235, -14.00999999999999979 ) ) ;
#224 = CARTESIAN_POINT ( 'NONE',  ( 4.330127018922181215, 13.79903810567358136, -4.600000000000022737 ) ) ;
#225 = CYLINDRICAL_SURFACE ( 'NONE', #574, 2.100000000000000089 ) ;
#226 = APPROVAL_DATE_TIME ( #508, #141 ) ;
#227 = ORIENTED_EDGE ( 'NONE', *, *, #15, .T. ) ;
#228 = CARTESIAN_POINT ( 'NONE',  ( 4.330127018922181215, 3.799038105673578691, -0.4000000000000214495 ) ) ;
#229 = EDGE_LOOP ( 'NONE', ( #332, #640, #250, #222, #404, #660, #25, #302 ) ) ;
#230 = ADVANCED_FACE ( 'NONE', ( #636 ), #40, .F. ) ;
#231 = FACE_OUTER_BOUND ( 'NONE', #720, .T. ) ;
#232 = PERSON_AND_ORGANIZATION ( #268, #144 ) ;
#233 = LOCAL_TIME ( 12, 29, 13.00000000000000000, #515 ) ;
#234 = CARTESIAN_POINT ( 'NONE',  ( 1.658783576975712840E-15, 12.49999999999692868, 7.099999999999989875 ) ) ;
#235 = SHAPE_DEFINITION_REPRESENTATION ( #653, #140 ) ;
#236 = VERTEX_POINT ( 'NONE', #593 ) ;
#237 = CARTESIAN_POINT ( 'NONE',  ( 1.000000000000001110, 7.000000000000000000, 8.549999999999997158 ) ) ;
#238 = CARTESIAN_POINT ( 'NONE',  ( -0.1301270189221822582, 12.53903810567358690, -4.600000000000020073 ) ) ;
#239 = EDGE_CURVE ( 'NONE', #41, #504, #466, .T. ) ;
#240 = EDGE_CURVE ( 'NONE', #351, #457, #100, .T. ) ;
#241 =( BOUNDED_CURVE ( )  B_SPLINE_CURVE ( 3, ( #177, #565, #572, #436 ),
 .UNSPECIFIED., .F., .T. ) 
 B_SPLINE_CURVE_WITH_KNOTS ( ( 4, 4 ),
 ( 4.712388980384689674, 7.853981633974482790 ),
 .UNSPECIFIED. ) 
 CURVE ( )  GEOMETRIC_REPRESENTATION_ITEM ( )  RATIONAL_B_SPLINE_CURVE ( ( 1.000000000000000000, 0.3333333333333333703, 0.3333333333333333703, 1.000000000000000000 ) ) 
 REPRESENTATION_ITEM ( '' )  );
#242 = ORIENTED_EDGE ( 'NONE', *, *, #151, .T. ) ;
#243 = CYLINDRICAL_SURFACE ( 'NONE', #570, 2.100000000000000089 ) ;
#244 = ORIENTED_EDGE ( 'NONE', *, *, #205, .F. ) ;
#245 = APPROVAL_STATUS ( 'not_yet_approved' ) ;
#246 = VERTEX_POINT ( 'NONE', #416 ) ;
#247 = VECTOR ( 'NONE', #440, 1000.000000000000000 ) ;
#248 = ORIENTED_EDGE ( 'NONE', *, *, #681, .T. ) ;
#249 = LINE ( 'NONE', #479, #352 ) ;
#250 = ORIENTED_EDGE ( 'NONE', *, *, #370, .F. ) ;
#251 = DIRECTION ( 'NONE',  ( 0.000000000000000000, 1.000000000000000000, 0.000000000000000000 ) ) ;
#252 = ORIENTED_EDGE ( 'NONE', *, *, #240, .F. ) ;
#253 = DIRECTION ( 'NONE',  ( 0.000000000000000000, 0.000000000000000000, -1.000000000000000000 ) ) ;
#254 = CC_DESIGN_APPROVAL ( #476, ( #14 ) ) ;
#255 =( BOUNDED_CURVE ( )  B_SPLINE_CURVE ( 3, ( #690, #405, #402, #639 ),
 .UNSPECIFIED., .F., .T. ) 
 B_SPLINE_CURVE_WITH_KNOTS ( ( 4, 4 ),
 ( 1.570796326794897668, 4.712388980384688786 ),
 .UNSPECIFIED. ) 
 CURVE ( )  GEOMETRIC_REPRESENTATION_ITEM ( )  RATIONAL_B_SPLINE_CURVE ( ( 1.000000000000000000, 0.3333333333333339810, 0.3333333333333339810, 1.000000000000000000 ) ) 
 REPRESENTATION_ITEM ( '' )  );
#256 = ADVANCED_FACE ( 'NONE', ( #263 ), #591, .T. ) ;
#257 = CARTESIAN_POINT ( 'NONE',  ( 0.000000000000000000, 0.000000000000000000, 0.000000000000000000 ) ) ;
#258 = EDGE_CURVE ( 'NONE', #50, #516, #569, .T. ) ;
#259 = ORIENTED_EDGE ( 'NONE', *, *, #418, .T. ) ;
#260 = CARTESIAN_POINT ( 'NONE',  ( -8.530127018922181392, 15.05903810567358292, -0.4000000000000190070 ) ) ;
#261 = DIRECTION ( 'NONE',  ( 0.9578262852211513190, 0.2873478855663452736, 0.000000000000000000 ) ) ;
#262 = ORIENTED_EDGE ( 'NONE', *, *, #431, .F. ) ;
#263 = FACE_OUTER_BOUND ( 'NONE', #400, .T. ) ;
#264 = FACE_OUTER_BOUND ( 'NONE', #130, .T. ) ;
#265 = ORIENTED_EDGE ( 'NONE', *, *, #204, .F. ) ;
#266 = DIRECTION ( 'NONE',  ( 0.000000000000000000, 0.000000000000000000, -1.000000000000000000 ) ) ;
#267 = LINE ( 'NONE', #4, #603 ) ;
#268 = PERSON ( 'UNSPECIFIED', 'UNSPECIFIED', 'UNSPECIFIED', ('UNSPECIFIED'), ('UNSPECIFIED'), ('UNSPECIFIED') ) ;
#269 = CARTESIAN_POINT ( 'NONE',  ( 1.366003243477517502E-15, 2.499999999996928235, 7.099999999999989875 ) ) ;
#270 = CYLINDRICAL_SURFACE ( 'NONE', #482, 2.100000000000000089 ) ;
#271 = DATE_TIME_ROLE ( 'creation_date' ) ;
#272 = VECTOR ( 'NONE', #654, 1000.000000000000000 ) ;
#273 = DIRECTION ( 'NONE',  ( 0.000000000000000000, 0.000000000000000000, 1.000000000000000000 ) ) ;
#274 = DIRECTION ( 'NONE',  ( 0.000000000000000000, 0.000000000000000000, -1.000000000000000000 ) ) ;
#275 = LINE ( 'NONE', #223, #153 ) ;
#276 = CARTESIAN_POINT ( 'NONE',  ( 4.199999999999994849, 3.759999999996923581, 2.900000000000004352 ) ) ;
#277 = CARTESIAN_POINT ( 'NONE',  ( 1.000000000000000000, 7.000000000000000000, 0.000000000000000000 ) ) ;
#278 = ORIENTED_EDGE ( 'NONE', *, *, #62, .F. ) ;
#279 = CC_DESIGN_SECURITY_CLASSIFICATION ( #673, ( #14 ) ) ;
#280 = CARTESIAN_POINT ( 'NONE',  ( -0.5000000000000041078, 11.00000000000000000, -7.683974596215563224 ) ) ;
#281 = CIRCLE ( 'NONE', #67, 8.550000000000000711 ) ;
#282 = EDGE_CURVE ( 'NONE', #33, #524, #650, .T. ) ;
#283 = EDGE_CURVE ( 'NONE', #87, #351, #249, .T. ) ;
#284 = CARTESIAN_POINT ( 'NONE',  ( 1.000000000000000000, 2.799999999996927169, -8.549999999999997158 ) ) ;
#285 = PERSON_AND_ORGANIZATION ( #268, #144 ) ;
#286 = EDGE_LOOP ( 'NONE', ( #2, #597, #10, #194 ) ) ;
#287 = FACE_BOUND ( 'NONE', #408, .T. ) ;
#288 = CIRCLE ( 'NONE', #448, 10.00000000000000000 ) ;
#289 = CARTESIAN_POINT ( 'NONE',  ( -4.330127018922182103, 13.79903810567358491, -4.600000000000020073 ) ) ;
#290 = CARTESIAN_POINT ( 'NONE',  ( 1.658783576975712840E-15, 12.49999999999692868, 2.124999999999996891 ) ) ;
#291 = ORIENTED_EDGE ( 'NONE', *, *, #468, .F. ) ;
#292 = CARTESIAN_POINT ( 'NONE',  ( -4.200000000000006395, 13.75999999999693557, 7.100000000000004086 ) ) ;
#293 = ORIENTED_EDGE ( 'NONE', *, *, #283, .F. ) ;
#294 = CARTESIAN_POINT ( 'NONE',  ( 1.658783576975712840E-15, 12.49999999999692868, -7.669342192283121307 ) ) ;
#295 = EDGE_CURVE ( 'NONE', #637, #236, #536, .T. ) ;
#296 = ADVANCED_FACE ( 'NONE', ( #709 ), #475, .F. ) ;
#297 = CARTESIAN_POINT ( 'NONE',  ( 1.366003243477517502E-15, 2.499999999996928235, 8.491319096583278991 ) ) ;
#298 = VECTOR ( 'NONE', #698, 1000.000000000000000 ) ;
#299 = ORIENTED_EDGE ( 'NONE', *, *, #283, .T. ) ;
#300 = CARTESIAN_POINT ( 'NONE',  ( 0.1301270189221805096, 12.53903810567358157, -0.4000000000000207834 ) ) ;
#301 = AXIS2_PLACEMENT_3D ( 'NONE', #139, #319, #605 ) ;
#302 = ORIENTED_EDGE ( 'NONE', *, *, #157, .F. ) ;
#303 = PERSON_AND_ORGANIZATION ( #268, #144 ) ;
#304 = VERTEX_POINT ( 'NONE', #596 ) ;
#305 = ORIENTED_EDGE ( 'NONE', *, *, #334, .F. ) ;
#306 = PRODUCT_RELATED_PRODUCT_CATEGORY ( 'detail', '', ( #602 ) ) ;
#307 = DIRECTION ( 'NONE',  ( -0.000000000000000000, -1.000000000000000000, -0.000000000000000000 ) ) ;
#308 = ORIENTED_EDGE ( 'NONE', *, *, #541, .F. ) ;
#309 = CARTESIAN_POINT ( 'NONE',  ( 0.000000000000000000, 7.000000000000000000, 0.000000000000000000 ) ) ;
#310 =( NAMED_UNIT ( * ) PLANE_ANGLE_UNIT ( ) SI_UNIT ( $, .RADIAN. ) );
#311 = ORIENTED_EDGE ( 'NONE', *, *, #489, .F. ) ;
#312 = CARTESIAN_POINT ( 'NONE',  ( 15.25706806282719974, 17.07712041884508380, -6.775586423061373154 ) ) ;
#313 =( BOUNDED_CURVE ( )  B_SPLINE_CURVE ( 3, ( #77, #543, #706, #195 ),
 .UNSPECIFIED., .F., .F. ) 
 B_SPLINE_CURVE_WITH_KNOTS ( ( 4, 4 ),
 ( 1.570796326794896780, 4.712388980384689674 ),
 .UNSPECIFIED. ) 
 CURVE ( )  GEOMETRIC_REPRESENTATION_ITEM ( )  RATIONAL_B_SPLINE_CURVE ( ( 1.000000000000000000, 0.3333333333333333703, 0.3333333333333333703, 1.000000000000000000 ) ) 
 REPRESENTATION_ITEM ( '' )  );
#314 = ADVANCED_FACE ( 'NONE', ( #598, #154 ), #533, .F. ) ;
#315 = EDGE_LOOP ( 'NONE', ( #587, #21, #193, #575, #191, #414 ) ) ;
#316 = CARTESIAN_POINT ( 'NONE',  ( -4.330127018922182103, 13.79903810567358491, -0.4000000000000192846 ) ) ;
#317 = DIRECTION ( 'NONE',  ( 0.000000000000000000, -1.000000000000000000, 0.000000000000000000 ) ) ;
#318 = CARTESIAN_POINT ( 'NONE',  ( 0.000000000000000000, 7.000000000000000000, 0.000000000000000000 ) ) ;
#319 = DIRECTION ( 'NONE',  ( 0.000000000000000000, -1.000000000000000000, 0.000000000000000000 ) ) ;
#320 = ORIENTED_EDGE ( 'NONE', *, *, #62, .T. ) ;
#321 = CARTESIAN_POINT ( 'NONE',  ( 1.658783576975712840E-15, 12.49999999999692868, -14.00999999999999979 ) ) ;
#322 = CARTESIAN_POINT ( 'NONE',  ( 4.199999999999994849, 3.759999999996923581, 7.099999999999996980 ) ) ;
#323 = DIRECTION ( 'NONE',  ( -0.000000000000000000, -1.000000000000000000, -0.000000000000000000 ) ) ;
#324 = CYLINDRICAL_SURFACE ( 'NONE', #96, 2.100000000000000089 ) ;
#325 = CARTESIAN_POINT ( 'NONE',  ( 0.000000000000000000, 31.50000000000000000, 2.899999999999999911 ) ) ;
#326 = CYLINDRICAL_SURFACE ( 'NONE', #607, 8.550000000000000711 ) ;
#327 = AXIS2_PLACEMENT_3D ( 'NONE', #662, #98, #95 ) ;
#328 = CARTESIAN_POINT ( 'NONE',  ( 1.366003243477517502E-15, 2.499999999996928235, -14.00999999999999979 ) ) ;
#329 =( BOUNDED_CURVE ( )  B_SPLINE_CURVE ( 3, ( #18, #300, #571, #70 ),
 .UNSPECIFIED., .F., .T. ) 
 B_SPLINE_CURVE_WITH_KNOTS ( ( 4, 4 ),
 ( 4.712388980384689674, 7.853981633974482790 ),
 .UNSPECIFIED. ) 
 CURVE ( )  GEOMETRIC_REPRESENTATION_ITEM ( )  RATIONAL_B_SPLINE_CURVE ( ( 1.000000000000000000, 0.3333333333333333703, 0.3333333333333333703, 1.000000000000000000 ) ) 
 REPRESENTATION_ITEM ( '' )  );
#330 = CARTESIAN_POINT ( 'NONE',  ( 1.366003243477517502E-15, 2.499999999996928235, 2.124999999999996891 ) ) ;
#331 = LINE ( 'NONE', #678, #160 ) ;
#332 = ORIENTED_EDGE ( 'NONE', *, *, #390, .F. ) ;
#333 = CARTESIAN_POINT ( 'NONE',  ( 1.000000000000001110, 2.799999999996927169, 8.549999999999997158 ) ) ;
#334 = EDGE_CURVE ( 'NONE', #644, #246, #714, .T. ) ;
#335 = EDGE_CURVE ( 'NONE', #433, #644, #699, .T. ) ;
#336 = DIRECTION ( 'NONE',  ( -0.000000000000000000, 1.000000000000000000, 0.000000000000000000 ) ) ;
#337 = DIRECTION ( 'NONE',  ( -0.2873478855663453291, -0.9578262852211514300, 0.000000000000000000 ) ) ;
#338 = APPLICATION_PROTOCOL_DEFINITION ( 'international standard', 'config_control_design', 1994, #586 ) ;
#339 = ORIENTED_EDGE ( 'NONE', *, *, #155, .T. ) ;
#340 = CARTESIAN_POINT ( 'NONE',  ( -0.3332143967457693590, 12.59996431902066050, 9.416025403784436421 ) ) ;
#341 = ORIENTED_EDGE ( 'NONE', *, *, #411, .F. ) ;
#342 = CARTESIAN_POINT ( 'NONE',  ( 4.330127018922181215, 31.50000000000000000, -2.500000000000022204 ) ) ;
#343 = LINE ( 'NONE', #577, #420 ) ;
#344 = CC_DESIGN_PERSON_AND_ORGANIZATION_ASSIGNMENT ( #398, #117, ( #14 ) ) ;
#345 = ADVANCED_FACE ( 'NONE', ( #203, #97 ), #716, .F. ) ;
#346 = CARTESIAN_POINT ( 'NONE',  ( -0.3332143967457707467, 12.59996431902066050, -7.683974596215563224 ) ) ;
#347 = ORIENTED_EDGE ( 'NONE', *, *, #470, .F. ) ;
#348 = CC_DESIGN_PERSON_AND_ORGANIZATION_ASSIGNMENT ( #107, #55, ( #673 ) ) ;
#349 = CARTESIAN_POINT ( 'NONE',  ( 1.366003243477517502E-15, 2.499999999996928235, -14.00999999999999979 ) ) ;
#350 = APPROVAL_PERSON_ORGANIZATION ( #303, #180, #413 ) ;
#351 = VERTEX_POINT ( 'NONE', #16 ) ;
#352 = VECTOR ( 'NONE', #658, 1000.000000000000000 ) ;
#353 = ORIENTED_EDGE ( 'NONE', *, *, #573, .F. ) ;
#354 = EDGE_CURVE ( 'NONE', #50, #60, #69, .T. ) ;
#355 = DATE_TIME_ROLE ( 'classification_date' ) ;
#356 = EDGE_LOOP ( 'NONE', ( #131, #557, #248, #635, #461, #492 ) ) ;
#357 = CARTESIAN_POINT ( 'NONE',  ( 0.1301270189221805096, 2.539038105673578904, -4.600000000000022737 ) ) ;
#358 = EDGE_LOOP ( 'NONE', ( #708, #705, #17, #367, #91, #421 ) ) ;
#359 = CARTESIAN_POINT ( 'NONE',  ( 4.330127018922181215, 3.799038105673578691, -4.600000000000022737 ) ) ;
#360 = VECTOR ( 'NONE', #612, 1000.000000000000000 ) ;
#361 = ORIENTED_EDGE ( 'NONE', *, *, #240, .T. ) ;
#362 = DIRECTION ( 'NONE',  ( -0.000000000000000000, -1.000000000000000000, -0.000000000000000000 ) ) ;
#363 = EDGE_CURVE ( 'NONE', #183, #87, #694, .T. ) ;
#364 = ADVANCED_FACE ( 'NONE', ( #65 ), #326, .T. ) ;
#365 = VERTEX_POINT ( 'NONE', #284 ) ;
#366 = CARTESIAN_POINT ( 'NONE',  ( -0.5000000000000041078, 11.00000000000000000, 0.8660254037844363761 ) ) ;
#367 = ORIENTED_EDGE ( 'NONE', *, *, #215, .T. ) ;
#368 = DIRECTION ( 'NONE',  ( 0.000000000000000000, 0.000000000000000000, -1.000000000000000000 ) ) ;
#369 = DIRECTION ( 'NONE',  ( 0.000000000000000000, 0.000000000000000000, 1.000000000000000000 ) ) ;
#370 = EDGE_CURVE ( 'NONE', #376, #304, #212, .T. ) ;
#371 = VECTOR ( 'NONE', #217, 1000.000000000000000 ) ;
#372 = ORIENTED_EDGE ( 'NONE', *, *, #135, .T. ) ;
#373 = DIRECTION ( 'NONE',  ( 0.000000000000000000, 0.000000000000000000, -1.000000000000000000 ) ) ;
#374 = FACE_OUTER_BOUND ( 'NONE', #122, .T. ) ;
#375 = CARTESIAN_POINT ( 'NONE',  ( -4.200000000000001954, 3.759999999996928022, 2.900000000000001243 ) ) ;
#376 = VERTEX_POINT ( 'NONE', #121 ) ;
#377 = CARTESIAN_POINT ( 'NONE',  ( -0.5000000000000029976, 18.00000000000000000, 9.416025403784436421 ) ) ;
#378 = PERSON_AND_ORGANIZATION_ROLE ( 'creator' ) ;
#379 = CARTESIAN_POINT ( 'NONE',  ( 4.249999999999999112, 13.77499999999693259, 2.124999999999999112 ) ) ;
#380 = CARTESIAN_POINT ( 'NONE',  ( 1.000000000000000000, 7.000000000000000000, 0.000000000000000000 ) ) ;
#381 = APPROVAL_STATUS ( 'not_yet_approved' ) ;
#382 = ORIENTED_EDGE ( 'NONE', *, *, #411, .T. ) ;
#383 = DIRECTION ( 'NONE',  ( 0.9578262852211513190, -0.2873478855663452736, 0.000000000000000000 ) ) ;
#384 =( BOUNDED_CURVE ( )  B_SPLINE_CURVE ( 3, ( #234, #292, #513, #403 ),
 .UNSPECIFIED., .F., .F. ) 
 B_SPLINE_CURVE_WITH_KNOTS ( ( 4, 4 ),
 ( 1.570796326794895670, 4.712388980384690562 ),
 .UNSPECIFIED. ) 
 CURVE ( )  GEOMETRIC_REPRESENTATION_ITEM ( )  RATIONAL_B_SPLINE_CURVE ( ( 1.000000000000000000, 0.3333333333333327597, 0.3333333333333327597, 1.000000000000000000 ) ) 
 REPRESENTATION_ITEM ( '' )  );
#385 = CARTESIAN_POINT ( 'NONE',  ( 0.000000000000000000, 11.00000000000000000, 0.000000000000000000 ) ) ;
#386 = CARTESIAN_POINT ( 'NONE',  ( -0.5000000000000041078, 12.64999999999693081, -7.683974596215563224 ) ) ;
#387 = CALENDAR_DATE ( 2026, 26, 8 ) ;
#388 = AXIS2_PLACEMENT_3D ( 'NONE', #309, #251, #198 ) ;
#389 = ORIENTED_EDGE ( 'NONE', *, *, #334, .T. ) ;
#390 = EDGE_CURVE ( 'NONE', #33, #516, #210, .T. ) ;
#391 = ADVANCED_FACE ( 'NONE', ( #447 ), #617, .T. ) ;
#392 = DIRECTION ( 'NONE',  ( 0.000000000000000000, -1.000000000000000000, 0.000000000000000000 ) ) ;
#393 = DIRECTION ( 'NONE',  ( 0.000000000000000000, -1.000000000000000000, 0.000000000000000000 ) ) ;
#394 = EDGE_LOOP ( 'NONE', ( #487, #197, #320, #305 ) ) ;
#395 = FACE_OUTER_BOUND ( 'NONE', #44, .T. ) ;
#396 = DIRECTION ( 'NONE',  ( 0.000000000000000000, -1.000000000000000000, 0.000000000000000000 ) ) ;
#397 = CARTESIAN_POINT ( 'NONE',  ( 4.249999999999994671, 3.774999999996922817, 2.124999999999996003 ) ) ;
#398 = PERSON_AND_ORGANIZATION ( #268, #144 ) ;
#399 = FACE_BOUND ( 'NONE', #715, .T. ) ;
#400 = EDGE_LOOP ( 'NONE', ( #478, #649, #227, #293 ) ) ;
#401 = AXIS2_PLACEMENT_3D ( 'NONE', #425, #337, #3 ) ;
#402 = CARTESIAN_POINT ( 'NONE',  ( 4.199999999999994849, 13.75999999999692314, 7.099999999999996980 ) ) ;
#403 = CARTESIAN_POINT ( 'NONE',  ( 1.658783576975712840E-15, 12.49999999999692868, 2.899999999999987477 ) ) ;
#404 = ORIENTED_EDGE ( 'NONE', *, *, #354, .F. ) ;
#405 = CARTESIAN_POINT ( 'NONE',  ( 4.199999999999994849, 13.75999999999692314, 2.900000000000004352 ) ) ;
#406 = LINE ( 'NONE', #349, #651 ) ;
#407 = VERTEX_POINT ( 'NONE', #500 ) ;
#408 = EDGE_LOOP ( 'NONE', ( #341, #469 ) ) ;
#409 =( BOUNDED_CURVE ( )  B_SPLINE_CURVE ( 3, ( #499, #276, #322, #615 ),
 .UNSPECIFIED., .F., .T. ) 
 B_SPLINE_CURVE_WITH_KNOTS ( ( 4, 4 ),
 ( 1.570796326794897668, 4.712388980384688786 ),
 .UNSPECIFIED. ) 
 CURVE ( )  GEOMETRIC_REPRESENTATION_ITEM ( )  RATIONAL_B_SPLINE_CURVE ( ( 1.000000000000000000, 0.3333333333333339810, 0.3333333333333339810, 1.000000000000000000 ) ) 
 REPRESENTATION_ITEM ( '' )  );
#410 = ADVANCED_FACE ( 'NONE', ( #427 ), #270, .F. ) ;
#411 = EDGE_CURVE ( 'NONE', #579, #35, #585, .T. ) ;
#412 = VECTOR ( 'NONE', #458, 1000.000000000000000 ) ;
#413 = APPROVAL_ROLE ( '' ) ;
#414 = ORIENTED_EDGE ( 'NONE', *, *, #258, .F. ) ;
#415 = ORIENTED_EDGE ( 'NONE', *, *, #151, .F. ) ;
#416 = CARTESIAN_POINT ( 'NONE',  ( -4.330127018922182103, 3.799038105673582244, -4.600000000000020073 ) ) ;
#417 = LOCAL_TIME ( 12, 29, 13.00000000000000000, #618 ) ;
#418 = EDGE_CURVE ( 'NONE', #595, #200, #702, .T. ) ;
#419 = ORIENTED_EDGE ( 'NONE', *, *, #578, .F. ) ;
#420 = VECTOR ( 'NONE', #460, 1000.000000000000000 ) ;
#421 = ORIENTED_EDGE ( 'NONE', *, *, #535, .F. ) ;
#422 = CARTESIAN_POINT ( 'NONE',  ( -4.330127018922182103, 31.50000000000000000, -4.600000000000020073 ) ) ;
#423 = DIRECTION ( 'NONE',  ( 0.000000000000000000, 1.000000000000000000, 0.000000000000000000 ) ) ;
#424 = DIRECTION ( 'NONE',  ( 0.000000000000000000, 0.000000000000000000, 1.000000000000000000 ) ) ;
#425 = CARTESIAN_POINT ( 'NONE',  ( -10.00000000000000000, 15.49999999999692690, -14.00999999999999979 ) ) ;
#426 = CARTESIAN_POINT ( 'NONE',  ( 1.658783576975712840E-15, 12.49999999999692868, 7.099999999999989875 ) ) ;
#427 = FACE_OUTER_BOUND ( 'NONE', #526, .T. ) ;
#428 = AXIS2_PLACEMENT_3D ( 'NONE', #257, #704, #483 ) ;
#429 = CARTESIAN_POINT ( 'NONE',  ( 18.09999999999998721, 7.929999999996922178, -8.549999999999998934 ) ) ;
#430 = CARTESIAN_POINT ( 'NONE',  ( 0.000000000000000000, 31.50000000000000000, 5.000000000000000000 ) ) ;
#431 = EDGE_CURVE ( 'NONE', #170, #35, #162, .T. ) ;
#432 = AXIS2_PLACEMENT_3D ( 'NONE', #488, #307, #253 ) ;
#433 = VERTEX_POINT ( 'NONE', #437 ) ;
#434 = DIRECTION ( 'NONE',  ( 0.000000000000000000, 1.000000000000000000, 0.000000000000000000 ) ) ;
#435 = CARTESIAN_POINT ( 'NONE',  ( 1.366003243477517502E-15, 2.499999999996928235, 8.491319096583278991 ) ) ;
#436 = CARTESIAN_POINT ( 'NONE',  ( -4.330127018922182103, 3.799038105673582244, -0.4000000000000192846 ) ) ;
#437 = CARTESIAN_POINT ( 'NONE',  ( -4.330127018922182103, 13.79903810567358491, -0.4000000000000192846 ) ) ;
#438 = COORDINATED_UNIVERSAL_TIME_OFFSET ( 5, 0, .BEHIND. ) ;
#439 = CYLINDRICAL_SURFACE ( 'NONE', #634, 2.100000000000000089 ) ;
#440 = DIRECTION ( 'NONE',  ( -0.000000000000000000, -1.000000000000000000, -0.000000000000000000 ) ) ;
#441 = ADVANCED_FACE ( 'NONE', ( #110 ), #556, .T. ) ;
#442 = EDGE_CURVE ( 'NONE', #170, #39, #120, .T. ) ;
#443 = CARTESIAN_POINT ( 'NONE',  ( -0.5000000000000029976, 12.64999999999693081, 9.416025403784436421 ) ) ;
#444 = PERSON_AND_ORGANIZATION ( #268, #144 ) ;
#445 = DIRECTION ( 'NONE',  ( 0.000000000000000000, 0.000000000000000000, 1.000000000000000000 ) ) ;
#446 = CARTESIAN_POINT ( 'NONE',  ( -4.330127018922182103, 3.799038105673582244, -0.4000000000000192846 ) ) ;
#447 = FACE_OUTER_BOUND ( 'NONE', #465, .T. ) ;
#448 = AXIS2_PLACEMENT_3D ( 'NONE', #318, #652, #424 ) ;
#449 = ORIENTED_EDGE ( 'NONE', *, *, #629, .T. ) ;
#450 = FACE_OUTER_BOUND ( 'NONE', #700, .T. ) ;
#451 = DIRECTION ( 'NONE',  ( 0.000000000000000000, 0.000000000000000000, -1.000000000000000000 ) ) ;
#452 = LINE ( 'NONE', #182, #621 ) ;
#453 = ORIENTED_EDGE ( 'NONE', *, *, #295, .F. ) ;
#454 = PLANE ( 'NONE',  #43 ) ;
#455 = CARTESIAN_POINT ( 'NONE',  ( -13.66872037914690452, 6.600616113741001989, -6.881590357894502574 ) ) ;
#456 = PLANE ( 'NONE',  #703 ) ;
#457 = VERTEX_POINT ( 'NONE', #623 ) ;
#458 = DIRECTION ( 'NONE',  ( -0.000000000000000000, -1.000000000000000000, -0.000000000000000000 ) ) ;
#459 = FACE_OUTER_BOUND ( 'NONE', #537, .T. ) ;
#460 = DIRECTION ( 'NONE',  ( -0.000000000000000000, -1.000000000000000000, -0.000000000000000000 ) ) ;
#461 = ORIENTED_EDGE ( 'NONE', *, *, #601, .T. ) ;
#462 = AXIS2_PLACEMENT_3D ( 'NONE', #666, #323, #159 ) ;
#463 = CARTESIAN_POINT ( 'NONE',  ( 0.6657105370716737136, 2.699713161118429738, -8.549999999999997158 ) ) ;
#464 = CARTESIAN_POINT ( 'NONE',  ( -0.1301270189221822582, 12.53903810567358690, -0.4000000000000196176 ) ) ;
#465 = EDGE_LOOP ( 'NONE', ( #610, #685, #299, #361 ) ) ;
#466 =( BOUNDED_CURVE ( )  B_SPLINE_CURVE ( 3, ( #648, #48, #93, #45 ),
 .UNSPECIFIED., .F., .T. ) 
 B_SPLINE_CURVE_WITH_KNOTS ( ( 4, 4 ),
 ( 1.570796326794896558, 4.712388980384689674 ),
 .UNSPECIFIED. ) 
 CURVE ( )  GEOMETRIC_REPRESENTATION_ITEM ( )  RATIONAL_B_SPLINE_CURVE ( ( 1.000000000000000000, 0.3333333333333333703, 0.3333333333333333703, 1.000000000000000000 ) ) 
 REPRESENTATION_ITEM ( '' )  );
#467 = CARTESIAN_POINT ( 'NONE',  ( -0.5000000000000041078, 18.00000000000000000, -7.683974596215563224 ) ) ;
#468 = EDGE_CURVE ( 'NONE', #200, #595, #46, .T. ) ;
#469 = ORIENTED_EDGE ( 'NONE', *, *, #681, .F. ) ;
#470 = EDGE_CURVE ( 'NONE', #433, #512, #331, .T. ) ;
#471 = ADVANCED_FACE ( 'NONE', ( #503 ), #225, .F. ) ;
#472 = EDGE_LOOP ( 'NONE', ( #697, #453 ) ) ;
#473 = VECTOR ( 'NONE', #547, 1000.000000000000000 ) ;
#474 = ORIENTED_EDGE ( 'NONE', *, *, #468, .T. ) ;
#475 = CYLINDRICAL_SURFACE ( 'NONE', #594, 2.125000000000000000 ) ;
#476 = APPROVAL ( #381, 'UNSPECIFIED' ) ;
#477 = EDGE_CURVE ( 'NONE', #520, #608, #85, .T. ) ;
#478 = ORIENTED_EDGE ( 'NONE', *, *, #363, .F. ) ;
#479 = CARTESIAN_POINT ( 'NONE',  ( 0.000000000000000000, 39.28427124746190202, -10.00000000000000000 ) ) ;
#480 = ORIENTED_EDGE ( 'NONE', *, *, #692, .F. ) ;
#481 = DIRECTION ( 'NONE',  ( 0.2873478855663453291, -0.9578262852211514300, 0.000000000000000000 ) ) ;
#482 = AXIS2_PLACEMENT_3D ( 'NONE', #51, #663, #266 ) ;
#483 = DIRECTION ( 'NONE',  ( 1.000000000000000000, 0.000000000000000000, 0.000000000000000000 ) ) ;
#484 = ORIENTED_EDGE ( 'NONE', *, *, #712, .T. ) ;
#485 = CARTESIAN_POINT ( 'NONE',  ( -4.330127018922182103, 13.79903810567358491, -4.600000000000020073 ) ) ;
#486 =( BOUNDED_CURVE ( )  B_SPLINE_CURVE ( 3, ( #290, #379, #506, #23 ),
 .UNSPECIFIED., .F., .F. ) 
 B_SPLINE_CURVE_WITH_KNOTS ( ( 4, 4 ),
 ( 1.570796326794896780, 4.712388980384689674 ),
 .UNSPECIFIED. ) 
 CURVE ( )  GEOMETRIC_REPRESENTATION_ITEM ( )  RATIONAL_B_SPLINE_CURVE ( ( 1.000000000000000000, 0.3333333333333333703, 0.3333333333333333703, 1.000000000000000000 ) ) 
 REPRESENTATION_ITEM ( '' )  );
#487 = ORIENTED_EDGE ( 'NONE', *, *, #335, .F. ) ;
#488 = CARTESIAN_POINT ( 'NONE',  ( 0.000000000000000000, 39.28427124746190202, 0.000000000000000000 ) ) ;
#489 = EDGE_CURVE ( 'NONE', #644, #433, #188, .T. ) ;
#490 = CARTESIAN_POINT ( 'NONE',  ( 1.000000000000000000, 2.799999999996927169, -8.549999999999997158 ) ) ;
#491 = CYLINDRICAL_SURFACE ( 'NONE', #638, 8.550000000000000711 ) ;
#492 = ORIENTED_EDGE ( 'NONE', *, *, #258, .T. ) ;
#493 = DIRECTION ( 'NONE',  ( 0.000000000000000000, 0.000000000000000000, 1.000000000000000000 ) ) ;
#494 = CARTESIAN_POINT ( 'NONE',  ( 4.330127018922181215, 31.50000000000000000, -0.4000000000000214495 ) ) ;
#495 = DIRECTION ( 'NONE',  ( 0.000000000000000000, 0.000000000000000000, 1.000000000000000000 ) ) ;
#496 =( LENGTH_UNIT ( ) NAMED_UNIT ( * ) SI_UNIT ( .MILLI., .METRE. ) );
#497 = CARTESIAN_POINT ( 'NONE',  ( 1.366003243477517502E-15, 2.499999999996928235, 2.899999999999987477 ) ) ;
#498 = EDGE_CURVE ( 'NONE', #407, #137, #406, .T. ) ;
#499 = CARTESIAN_POINT ( 'NONE',  ( 1.366003243477517502E-15, 2.499999999996928235, 2.899999999999987477 ) ) ;
#500 = CARTESIAN_POINT ( 'NONE',  ( 1.366003243477517502E-15, 2.499999999996928235, 2.124999999999996891 ) ) ;
#501 = DIRECTION ( 'NONE',  ( -0.2873478855663453291, -0.9578262852211514300, 0.000000000000000000 ) ) ;
#502 = CARTESIAN_POINT ( 'NONE',  ( 1.658783576975712840E-15, 12.49999999999692868, -2.125000000000003553 ) ) ;
#503 = FACE_OUTER_BOUND ( 'NONE', #394, .T. ) ;
#504 = VERTEX_POINT ( 'NONE', #686 ) ;
#505 = CARTESIAN_POINT ( 'NONE',  ( 1.366003243477517502E-15, 2.499999999996928235, -8.491319096583287873 ) ) ;
#506 = CARTESIAN_POINT ( 'NONE',  ( 4.249999999999999112, 13.77499999999693259, -2.124999999999999112 ) ) ;
#507 = CARTESIAN_POINT ( 'NONE',  ( 1.658783576975712840E-15, 12.49999999999692868, -14.00999999999999979 ) ) ;
#508 = DATE_AND_TIME ( #670, #661 ) ;
#509 = PLANE ( 'NONE',  #616 ) ;
#510 = CARTESIAN_POINT ( 'NONE',  ( -4.330127018922182103, 13.79903810567358491, -0.4000000000000192846 ) ) ;
#511 = APPROVAL_STATUS ( 'not_yet_approved' ) ;
#512 = VERTEX_POINT ( 'NONE', #181 ) ;
#513 = CARTESIAN_POINT ( 'NONE',  ( -4.200000000000006395, 13.75999999999693557, 2.899999999999997247 ) ) ;
#514 = CARTESIAN_POINT ( 'NONE',  ( -4.330127018922182103, 31.50000000000000000, -2.500000000000019540 ) ) ;
#515 = COORDINATED_UNIVERSAL_TIME_OFFSET ( 5, 0, .BEHIND. ) ;
#516 = VERTEX_POINT ( 'NONE', #583 ) ;
#517 = LINE ( 'NONE', #467, #298 ) ;
#518 = APPROVAL_PERSON_ORGANIZATION ( #285, #476, #675 ) ;
#519 = ADVANCED_FACE ( 'NONE', ( #79 ), #439, .F. ) ;
#520 = VERTEX_POINT ( 'NONE', #435 ) ;
#521 = DIRECTION ( 'NONE',  ( 0.000000000000000000, -0.000000000000000000, 1.000000000000000000 ) ) ;
#522 = ADVANCED_FACE ( 'NONE', ( #671 ), #491, .T. ) ;
#523 = MANIFOLD_SOLID_BREP ( 'Stock-Eccentric Shaft-1', #30 ) ;
#524 = VERTEX_POINT ( 'NONE', #269 ) ;
#525 = ORIENTED_EDGE ( 'NONE', *, *, #215, .F. ) ;
#526 = EDGE_LOOP ( 'NONE', ( #105, #145, #152, #202 ) ) ;
#527 = CARTESIAN_POINT ( 'NONE',  ( 2.571758278209441957E-16, 31.50000000000000000, 7.100000000000000533 ) ) ;
#528 = PRODUCT_DEFINITION ( 'UNKNOWN', '', #14, #94 ) ;
#529 = AXIS2_PLACEMENT_3D ( 'NONE', #277, #627, #220 ) ;
#530 = ORIENTED_EDGE ( 'NONE', *, *, #82, .T. ) ;
#531 = CARTESIAN_POINT ( 'NONE',  ( 15.25706806282719974, 17.07712041884508380, 8.507637230630242797 ) ) ;
#532 = FACE_OUTER_BOUND ( 'NONE', #81, .T. ) ;
#533 = PLANE ( 'NONE',  #115 ) ;
#534 = AXIS2_PLACEMENT_3D ( 'NONE', #11, #501, #383 ) ;
#535 = EDGE_CURVE ( 'NONE', #524, #137, #206, .T. ) ;
#536 =( BOUNDED_CURVE ( )  B_SPLINE_CURVE ( 3, ( #645, #143, #357, #359 ),
 .UNSPECIFIED., .F., .T. ) 
 B_SPLINE_CURVE_WITH_KNOTS ( ( 4, 4 ),
 ( 4.712388980384689674, 7.853981633974482790 ),
 .UNSPECIFIED. ) 
 CURVE ( )  GEOMETRIC_REPRESENTATION_ITEM ( )  RATIONAL_B_SPLINE_CURVE ( ( 1.000000000000000000, 0.3333333333333333703, 0.3333333333333333703, 1.000000000000000000 ) ) 
 REPRESENTATION_ITEM ( '' )  );
#537 = EDGE_LOOP ( 'NONE', ( #75, #242, #208, #78 ) ) ;
#538 = CARTESIAN_POINT ( 'NONE',  ( -8.530127018922181392, 15.05903810567358292, -4.600000000000019185 ) ) ;
#539 = FACE_OUTER_BOUND ( 'NONE', #358, .T. ) ;
#540 = EDGE_CURVE ( 'NONE', #304, #137, #667, .T. ) ;
#541 = EDGE_CURVE ( 'NONE', #200, #365, #553, .T. ) ;
#542 = CARTESIAN_POINT ( 'NONE',  ( 1.366003243477517502E-15, 2.499999999996928235, -2.125000000000003553 ) ) ;
#543 = CARTESIAN_POINT ( 'NONE',  ( -4.249999999999999112, 3.774999999996928146, -2.124999999999999112 ) ) ;
#544 = CARTESIAN_POINT ( 'NONE',  ( -4.200000000000001066, 3.759999999996928022, 7.100000000000003197 ) ) ;
#545 = UNCERTAINTY_MEASURE_WITH_UNIT (LENGTH_MEASURE( 1.000000000000000082E-05 ), #496, 'distance_accuracy_value', 'NONE');
#546 = CARTESIAN_POINT ( 'NONE',  ( -0.5000000000000029976, 11.00000000000000000, 9.416025403784436421 ) ) ;
#547 = DIRECTION ( 'NONE',  ( 0.000000000000000000, 0.000000000000000000, 1.000000000000000000 ) ) ;
#548 = CARTESIAN_POINT ( 'NONE',  ( -4.330127018922182103, 31.50000000000000000, -2.500000000000019540 ) ) ;
#549 = CARTESIAN_POINT ( 'NONE',  ( 1.224646799147353256E-15, 39.28427124746190202, 10.00000000000000000 ) ) ;
#550 = CARTESIAN_POINT ( 'NONE',  ( -0.5000000000000041078, 18.00000000000000000, 0.8660254037844363761 ) ) ;
#551 = PERSON_AND_ORGANIZATION ( #268, #144 ) ;
#552 = ADVANCED_FACE ( 'NONE', ( #539, #167 ), #718, .T. ) ;
#553 = LINE ( 'NONE', #56, #49 ) ;
#554 = AXIS2_PLACEMENT_3D ( 'NONE', #6, #434, #172 ) ;
#555 = CARTESIAN_POINT ( 'NONE',  ( -0.5000000000000041078, 12.64999999999693081, -7.683974596215563224 ) ) ;
#556 = CYLINDRICAL_SURFACE ( 'NONE', #136, 8.549999999999997158 ) ;
#557 = ORIENTED_EDGE ( 'NONE', *, *, #431, .T. ) ;
#558 = DIRECTION ( 'NONE',  ( 0.000000000000000000, 0.000000000000000000, 1.000000000000000000 ) ) ;
#559 = CARTESIAN_POINT ( 'NONE',  ( -0.5000000000000029976, 12.64999999999693081, 9.416025403784436421 ) ) ;
#560 = DIRECTION ( 'NONE',  ( 0.000000000000000000, -1.000000000000000000, 0.000000000000000000 ) ) ;
#561 =( BOUNDED_CURVE ( )  B_SPLINE_CURVE ( 3, ( #505, #28, #463, #132 ),
 .UNSPECIFIED., .F., .T. ) 
 B_SPLINE_CURVE_WITH_KNOTS ( ( 4, 4 ),
 ( 1.453568952100827705, 1.570796326794896558 ),
 .UNSPECIFIED. ) 
 CURVE ( )  GEOMETRIC_REPRESENTATION_ITEM ( )  RATIONAL_B_SPLINE_CURVE ( ( 1.000000000000000000, 0.9988551397116050001, 0.9988551397116050001, 1.000000000000000000 ) ) 
 REPRESENTATION_ITEM ( '' )  );
#562 = CARTESIAN_POINT ( 'NONE',  ( 0.2499999999999958922, 11.00000000000000000, 0.4330127018922179660 ) ) ;
#563 = EDGE_CURVE ( 'NONE', #524, #520, #620, .T. ) ;
#564 =( GEOMETRIC_REPRESENTATION_CONTEXT ( 3 ) GLOBAL_UNCERTAINTY_ASSIGNED_CONTEXT ( ( #545 ) ) GLOBAL_UNIT_ASSIGNED_CONTEXT ( ( #496, #310, #719 ) ) REPRESENTATION_CONTEXT ( 'NONE', 'WORKASPACE' ) );
#565 = CARTESIAN_POINT ( 'NONE',  ( -0.1301270189221822582, 2.539038105673582901, -4.600000000000020073 ) ) ;
#566 = DIRECTION ( 'NONE',  ( -0.000000000000000000, 1.000000000000000000, 0.000000000000000000 ) ) ;
#567 = COORDINATED_UNIVERSAL_TIME_OFFSET ( 5, 0, .BEHIND. ) ;
#568 = EDGE_LOOP ( 'NONE', ( #676, #701 ) ) ;
#569 =( BOUNDED_CURVE ( )  B_SPLINE_CURVE ( 3, ( #149, #312, #531, #38 ),
 .UNSPECIFIED., .F., .T. ) 
 B_SPLINE_CURVE_WITH_KNOTS ( ( 4, 4 ),
 ( 1.629309242285699177, 4.653876064893887055 ),
 .UNSPECIFIED. ) 
 CURVE ( )  GEOMETRIC_REPRESENTATION_ITEM ( )  RATIONAL_B_SPLINE_CURVE ( ( 1.000000000000000000, 0.3723196881091623833, 0.3723196881091623833, 1.000000000000000000 ) ) 
 REPRESENTATION_ITEM ( '' )  );
#570 = AXIS2_PLACEMENT_3D ( 'NONE', #342, #392, #576 ) ;
#571 = CARTESIAN_POINT ( 'NONE',  ( 0.1301270189221805096, 12.53903810567358157, -4.600000000000022737 ) ) ;
#572 = CARTESIAN_POINT ( 'NONE',  ( -0.1301270189221822582, 2.539038105673582901, -0.4000000000000196176 ) ) ;
#573 = EDGE_CURVE ( 'NONE', #608, #31, #275, .T. ) ;
#574 = AXIS2_PLACEMENT_3D ( 'NONE', #514, #396, #451 ) ;
#575 = ORIENTED_EDGE ( 'NONE', *, *, #582, .T. ) ;
#576 = DIRECTION ( 'NONE',  ( 0.000000000000000000, 0.000000000000000000, -1.000000000000000000 ) ) ;
#577 = CARTESIAN_POINT ( 'NONE',  ( 0.000000000000000000, 30.75000000000000000, -2.125000000000000000 ) ) ;
#578 = EDGE_CURVE ( 'NONE', #133, #520, #588, .T. ) ;
#579 = VERTEX_POINT ( 'NONE', #280 ) ;
#580 = CARTESIAN_POINT ( 'NONE',  ( -4.330127018922182103, 13.79903810567358491, -4.600000000000020073 ) ) ;
#581 = ADVANCED_FACE ( 'NONE', ( #459 ), #243, .F. ) ;
#582 = EDGE_CURVE ( 'NONE', #304, #33, #255, .T. ) ;
#583 = CARTESIAN_POINT ( 'NONE',  ( 1.658783576975712840E-15, 12.49999999999692868, 9.401392999851985621 ) ) ;
#584 = EDGE_LOOP ( 'NONE', ( #262, #173, #590, #382 ) ) ;
#585 = CIRCLE ( 'NONE', #57, 8.550000000000000711 ) ;
#586 = APPLICATION_CONTEXT ( 'configuration controlled 3d designs of mechanical parts and assemblies' ) ;
#587 = ORIENTED_EDGE ( 'NONE', *, *, #354, .T. ) ;
#588 =( BOUNDED_CURVE ( )  B_SPLINE_CURVE ( 3, ( #333, #66, #127, #174 ),
 .UNSPECIFIED., .F., .T. ) 
 B_SPLINE_CURVE_WITH_KNOTS ( ( 4, 4 ),
 ( 4.712388980384689674, 4.829616355078758971 ),
 .UNSPECIFIED. ) 
 CURVE ( )  GEOMETRIC_REPRESENTATION_ITEM ( )  RATIONAL_B_SPLINE_CURVE ( ( 1.000000000000000000, 0.9988551397116050001, 0.9988551397116050001, 1.000000000000000000 ) ) 
 REPRESENTATION_ITEM ( '' )  );
#589 = DATE_AND_TIME ( #86, #417 ) ;
#590 = ORIENTED_EDGE ( 'NONE', *, *, #630, .T. ) ;
#591 = CYLINDRICAL_SURFACE ( 'NONE', #432, 10.00000000000000000 ) ;
#592 = ORIENTED_EDGE ( 'NONE', *, *, #34, .T. ) ;
#593 = CARTESIAN_POINT ( 'NONE',  ( 4.330127018922181215, 3.799038105673578691, -4.600000000000022737 ) ) ;
#594 = AXIS2_PLACEMENT_3D ( 'NONE', #147, #362, #368 ) ;
#595 = VERTEX_POINT ( 'NONE', #237 ) ;
#596 = CARTESIAN_POINT ( 'NONE',  ( 1.658783576975712840E-15, 12.49999999999692868, 2.899999999999987477 ) ) ;
#597 = ORIENTED_EDGE ( 'NONE', *, *, #582, .F. ) ;
#598 = FACE_BOUND ( 'NONE', #568, .T. ) ;
#599 = CARTESIAN_POINT ( 'NONE',  ( 10.00000000000000355, 5.499999999996927791, -14.00999999999999979 ) ) ;
#600 = CC_DESIGN_APPROVAL ( #141, ( #528 ) ) ;
#601 = EDGE_CURVE ( 'NONE', #39, #50, #113, .T. ) ;
#602 = PRODUCT ( 'EC3', 'EC3', '', ( #158 ) ) ;
#603 = VECTOR ( 'NONE', #614, 1000.000000000000000 ) ;
#604 = ORIENTED_EDGE ( 'NONE', *, *, #63, .T. ) ;
#605 = DIRECTION ( 'NONE',  ( 0.000000000000000000, 0.000000000000000000, -1.000000000000000000 ) ) ;
#606 = DIRECTION ( 'NONE',  ( 0.000000000000000000, -1.000000000000000000, 0.000000000000000000 ) ) ;
#607 = AXIS2_PLACEMENT_3D ( 'NONE', #550, #54, #373 ) ;
#608 = VERTEX_POINT ( 'NONE', #26 ) ;
#609 = DIRECTION ( 'NONE',  ( -0.000000000000000000, -1.000000000000000000, -0.000000000000000000 ) ) ;
#610 = ORIENTED_EDGE ( 'NONE', *, *, #112, .F. ) ;
#611 = CC_DESIGN_PERSON_AND_ORGANIZATION_ASSIGNMENT ( #163, #378, ( #528 ) ) ;
#612 = DIRECTION ( 'NONE',  ( 0.000000000000000000, 0.000000000000000000, 1.000000000000000000 ) ) ;
#613 = DATE_AND_TIME ( #387, #199 ) ;
#614 = DIRECTION ( 'NONE',  ( -0.000000000000000000, -1.000000000000000000, -0.000000000000000000 ) ) ;
#615 = CARTESIAN_POINT ( 'NONE',  ( 1.366003243477517502E-15, 2.499999999996928235, 7.099999999999989875 ) ) ;
#616 = AXIS2_PLACEMENT_3D ( 'NONE', #562, #682, #521 ) ;
#617 = CYLINDRICAL_SURFACE ( 'NONE', #462, 10.00000000000000000 ) ;
#618 = COORDINATED_UNIVERSAL_TIME_OFFSET ( 5, 0, .BEHIND. ) ;
#619 =( BOUNDED_CURVE ( )  B_SPLINE_CURVE ( 3, ( #490, #429, #1, #664 ),
 .UNSPECIFIED., .F., .T. ) 
 B_SPLINE_CURVE_WITH_KNOTS ( ( 4, 4 ),
 ( 1.570796326794896558, 4.712388980384689674 ),
 .UNSPECIFIED. ) 
 CURVE ( )  GEOMETRIC_REPRESENTATION_ITEM ( )  RATIONAL_B_SPLINE_CURVE ( ( 1.000000000000000000, 0.3333333333333333703, 0.3333333333333333703, 1.000000000000000000 ) ) 
 REPRESENTATION_ITEM ( '' )  );
#620 = LINE ( 'NONE', #328, #695 ) ;
#621 = VECTOR ( 'NONE', #393, 1000.000000000000000 ) ;
#622 = CARTESIAN_POINT ( 'NONE',  ( 4.330127018922181215, 3.799038105673578691, -0.4000000000000214495 ) ) ;
#623 = CARTESIAN_POINT ( 'NONE',  ( 1.224646799147353256E-15, 7.000000000000000000, 10.00000000000000000 ) ) ;
#624 = EDGE_LOOP ( 'NONE', ( #138, #148 ) ) ;
#625 =( BOUNDED_CURVE ( )  B_SPLINE_CURVE ( 3, ( #330, #397, #109, #672 ),
 .UNSPECIFIED., .F., .T. ) 
 B_SPLINE_CURVE_WITH_KNOTS ( ( 4, 4 ),
 ( 1.570796326794897668, 4.712388980384688786 ),
 .UNSPECIFIED. ) 
 CURVE ( )  GEOMETRIC_REPRESENTATION_ITEM ( )  RATIONAL_B_SPLINE_CURVE ( ( 1.000000000000000000, 0.3333333333333339810, 0.3333333333333339810, 1.000000000000000000 ) ) 
 REPRESENTATION_ITEM ( '' )  );
#626 = CARTESIAN_POINT ( 'NONE',  ( 8.530127018922181392, 5.059038105673578478, -0.4000000000000221712 ) ) ;
#627 = DIRECTION ( 'NONE',  ( 0.000000000000000000, 1.000000000000000000, 0.000000000000000000 ) ) ;
#628 = COORDINATED_UNIVERSAL_TIME_OFFSET ( 5, 0, .BEHIND. ) ;
#629 = EDGE_CURVE ( 'NONE', #608, #365, #561, .T. ) ;
#630 = EDGE_CURVE ( 'NONE', #39, #579, #517, .T. ) ;
#631 = CARTESIAN_POINT ( 'NONE',  ( 1.366003243477517502E-15, 2.499999999996928235, 2.899999999999987477 ) ) ;
#632 = ORIENTED_EDGE ( 'NONE', *, *, #205, .T. ) ;
#633 = AXIS2_PLACEMENT_3D ( 'NONE', #52, #717, #207 ) ;
#634 = AXIS2_PLACEMENT_3D ( 'NONE', #430, #61, #114 ) ;
#635 = ORIENTED_EDGE ( 'NONE', *, *, #630, .F. ) ;
#636 = FACE_OUTER_BOUND ( 'NONE', #118, .T. ) ;
#637 = VERTEX_POINT ( 'NONE', #228 ) ;
#638 = AXIS2_PLACEMENT_3D ( 'NONE', #101, #609, #213 ) ;
#639 = CARTESIAN_POINT ( 'NONE',  ( 1.658783576975712840E-15, 12.49999999999692868, 7.099999999999989875 ) ) ;
#640 = ORIENTED_EDGE ( 'NONE', *, *, #189, .T. ) ;
#641 = CALENDAR_DATE ( 2026, 26, 8 ) ;
#642 = ORIENTED_EDGE ( 'NONE', *, *, #418, .F. ) ;
#643 = APPROVAL_DATE_TIME ( #129, #180 ) ;
#644 = VERTEX_POINT ( 'NONE', #580 ) ;
#645 = CARTESIAN_POINT ( 'NONE',  ( 4.330127018922181215, 3.799038105673578691, -0.4000000000000214495 ) ) ;
#646 =( BOUNDED_CURVE ( )  B_SPLINE_CURVE ( 3, ( #12, #124, #340, #185 ),
 .UNSPECIFIED., .F., .T. ) 
 B_SPLINE_CURVE_WITH_KNOTS ( ( 4, 4 ),
 ( 1.512283411304094161, 1.570796326794896558 ),
 .UNSPECIFIED. ) 
 CURVE ( )  GEOMETRIC_REPRESENTATION_ITEM ( )  RATIONAL_B_SPLINE_CURVE ( ( 1.000000000000000000, 0.9997147069104228567, 0.9997147069104228567, 1.000000000000000000 ) ) 
 REPRESENTATION_ITEM ( '' )  );
#647 = ORIENTED_EDGE ( 'NONE', *, *, #15, .F. ) ;
#648 = CARTESIAN_POINT ( 'NONE',  ( 4.330127018922181215, 13.79903810567358136, -4.600000000000022737 ) ) ;
#649 = ORIENTED_EDGE ( 'NONE', *, *, #112, .T. ) ;
#650 = LINE ( 'NONE', #527, #184 ) ;
#651 = VECTOR ( 'NONE', #71, 1000.000000000000000 ) ;
#652 = DIRECTION ( 'NONE',  ( 0.000000000000000000, 1.000000000000000000, 0.000000000000000000 ) ) ;
#653 = PRODUCT_DEFINITION_SHAPE ( 'NONE', 'NONE',  #528 ) ;
#654 = DIRECTION ( 'NONE',  ( 0.000000000000000000, -1.000000000000000000, 0.000000000000000000 ) ) ;
#655 = EDGE_CURVE ( 'NONE', #504, #41, #329, .T. ) ;
#656 = ADVANCED_FACE ( 'NONE', ( #287, #450 ), #509, .T. ) ;
#657 = ORIENTED_EDGE ( 'NONE', *, *, #90, .F. ) ;
#658 = DIRECTION ( 'NONE',  ( -0.000000000000000000, -1.000000000000000000, -0.000000000000000000 ) ) ;
#659 = APPLICATION_CONTEXT ( 'configuration controlled 3d designs of mechanical parts and assemblies' ) ;
#660 = ORIENTED_EDGE ( 'NONE', *, *, #601, .F. ) ;
#661 = LOCAL_TIME ( 12, 29, 13.00000000000000000, #438 ) ;
#662 = CARTESIAN_POINT ( 'NONE',  ( 1.000000000000000000, 7.000000000000000000, 0.000000000000000000 ) ) ;
#663 = DIRECTION ( 'NONE',  ( 0.000000000000000000, -1.000000000000000000, 0.000000000000000000 ) ) ;
#664 = CARTESIAN_POINT ( 'NONE',  ( 1.000000000000001110, 2.799999999996927169, 8.549999999999997158 ) ) ;
#665 = ORIENTED_EDGE ( 'NONE', *, *, #541, .T. ) ;
#666 = CARTESIAN_POINT ( 'NONE',  ( 0.000000000000000000, 39.28427124746190202, 0.000000000000000000 ) ) ;
#667 = LINE ( 'NONE', #325, #187 ) ;
#668 = LINE ( 'NONE', #549, #247 ) ;
#669 = CARTESIAN_POINT ( 'NONE',  ( -0.5000000000000041078, 11.00000000000000000, 0.8660254037844363761 ) ) ;
#670 = CALENDAR_DATE ( 2026, 26, 8 ) ;
#671 = FACE_OUTER_BOUND ( 'NONE', #356, .T. ) ;
#672 = CARTESIAN_POINT ( 'NONE',  ( 1.366003243477517502E-15, 2.499999999996928235, -2.125000000000003553 ) ) ;
#673 = SECURITY_CLASSIFICATION ( '', '', #24 ) ;
#674 = CARTESIAN_POINT ( 'NONE',  ( -17.60000000000000142, 17.77999999999693159, 9.416025403784436421 ) ) ;
#675 = APPROVAL_ROLE ( '' ) ;
#676 = ORIENTED_EDGE ( 'NONE', *, *, #239, .T. ) ;
#677 = CARTESIAN_POINT ( 'NONE',  ( -4.330127018922182103, 3.799038105673582244, -4.600000000000020073 ) ) ;
#678 = CARTESIAN_POINT ( 'NONE',  ( -4.330127018922182103, 31.50000000000000000, -0.4000000000000192846 ) ) ;
#679 = ORIENTED_EDGE ( 'NONE', *, *, #239, .F. ) ;
#680 = ADVANCED_FACE ( 'NONE', ( #395, #22 ), #454, .T. ) ;
#681 = EDGE_CURVE ( 'NONE', #35, #579, #281, .T. ) ;
#682 = DIRECTION ( 'NONE',  ( -0.000000000000000000, 1.000000000000000000, 0.000000000000000000 ) ) ;
#683 = CARTESIAN_POINT ( 'NONE',  ( 1.658783576975712840E-15, 12.49999999999692868, -2.125000000000003553 ) ) ;
#684 = DATE_AND_TIME ( #111, #156 ) ;
#685 = ORIENTED_EDGE ( 'NONE', *, *, #155, .F. ) ;
#686 = CARTESIAN_POINT ( 'NONE',  ( 4.330127018922181215, 13.79903810567358136, -0.4000000000000214495 ) ) ;
#687 = CARTESIAN_POINT ( 'NONE',  ( 1.000000000000001110, 7.000000000000000000, 8.549999999999997158 ) ) ;
#688 = CARTESIAN_POINT ( 'NONE',  ( -4.250000000000006217, 13.77499999999693614, 2.125000000000003109 ) ) ;
#689 = ORIENTED_EDGE ( 'NONE', *, *, #578, .T. ) ;
#690 = CARTESIAN_POINT ( 'NONE',  ( 1.658783576975712840E-15, 12.49999999999692868, 2.899999999999987477 ) ) ;
#691 = ADVANCED_FACE ( 'NONE', ( #264 ), #150, .F. ) ;
#692 = EDGE_CURVE ( 'NONE', #365, #133, #619, .T. ) ;
#693 = CARTESIAN_POINT ( 'NONE',  ( 1.224646799147353256E-15, 11.00000000000000000, 10.00000000000000000 ) ) ;
#694 = CIRCLE ( 'NONE', #72, 10.00000000000000000 ) ;
#695 = VECTOR ( 'NONE', #558, 1000.000000000000000 ) ;
#696 = ORIENTED_EDGE ( 'NONE', *, *, #135, .F. ) ;
#697 = ORIENTED_EDGE ( 'NONE', *, *, #36, .F. ) ;
#698 = DIRECTION ( 'NONE',  ( -0.000000000000000000, -1.000000000000000000, -0.000000000000000000 ) ) ;
#699 =( BOUNDED_CURVE ( )  B_SPLINE_CURVE ( 3, ( #316, #260, #538, #485 ),
 .UNSPECIFIED., .F., .F. ) 
 B_SPLINE_CURVE_WITH_KNOTS ( ( 4, 4 ),
 ( 1.570796326794896558, 4.712388980384689674 ),
 .UNSPECIFIED. ) 
 CURVE ( )  GEOMETRIC_REPRESENTATION_ITEM ( )  RATIONAL_B_SPLINE_CURVE ( ( 1.000000000000000000, 0.3333333333333333703, 0.3333333333333333703, 1.000000000000000000 ) ) 
 REPRESENTATION_ITEM ( '' )  );
#700 = EDGE_LOOP ( 'NONE', ( #339, #190 ) ) ;
#701 = ORIENTED_EDGE ( 'NONE', *, *, #655, .T. ) ;
#702 = CIRCLE ( 'NONE', #554, 8.549999999999997158 ) ;
#703 = AXIS2_PLACEMENT_3D ( 'NONE', #216, #336, #68 ) ;
#704 = DIRECTION ( 'NONE',  ( 0.000000000000000000, 0.000000000000000000, 1.000000000000000000 ) ) ;
#705 = ORIENTED_EDGE ( 'NONE', *, *, #477, .T. ) ;
#706 = CARTESIAN_POINT ( 'NONE',  ( -4.249999999999999112, 3.774999999996928146, 2.124999999999999112 ) ) ;
#707 = CC_DESIGN_DATE_AND_TIME_ASSIGNMENT ( #684, #271, ( #528 ) ) ;
#708 = ORIENTED_EDGE ( 'NONE', *, *, #563, .T. ) ;
#709 = FACE_OUTER_BOUND ( 'NONE', #37, .T. ) ;
#710 = APPROVAL_PERSON_ORGANIZATION ( #444, #141, #218 ) ;
#711 = ADVANCED_FACE ( 'NONE', ( #374 ), #324, .F. ) ;
#712 = EDGE_CURVE ( 'NONE', #376, #407, #267, .T. ) ;
#713 = CYLINDRICAL_SURFACE ( 'NONE', #327, 8.549999999999997158 ) ;
#714 = LINE ( 'NONE', #422, #272 ) ;
#715 = EDGE_LOOP ( 'NONE', ( #474, #259 ) ) ;
#716 = PLANE ( 'NONE',  #401 ) ;
#717 = DIRECTION ( 'NONE',  ( -0.000000000000000000, -1.000000000000000000, -0.000000000000000000 ) ) ;
#718 = PLANE ( 'NONE',  #534 ) ;
#719 =( NAMED_UNIT ( * ) SI_UNIT ( $, .STERADIAN. ) SOLID_ANGLE_UNIT ( ) );
#720 = EDGE_LOOP ( 'NONE', ( #252, #647 ) ) ;
#721 =( BOUNDED_CURVE ( )  B_SPLINE_CURVE ( 3, ( #446, #8, #219, #677 ),
 .UNSPECIFIED., .F., .T. ) 
 B_SPLINE_CURVE_WITH_KNOTS ( ( 4, 4 ),
 ( 1.570796326794896558, 4.712388980384689674 ),
 .UNSPECIFIED. ) 
 CURVE ( )  GEOMETRIC_REPRESENTATION_ITEM ( )  RATIONAL_B_SPLINE_CURVE ( ( 1.000000000000000000, 0.3333333333333333703, 0.3333333333333333703, 1.000000000000000000 ) ) 
 REPRESENTATION_ITEM ( '' )  );
ENDSEC;
END-ISO-10303-21;
