ISO-10303-21;
HEADER;
FILE_DESCRIPTION (( 'STEP AP203' ),
    '1' );
FILE_NAME ('EC4.STEP',
    '2026-08-26T16:29:31',
    ( '' ),
    ( '' ),
    'SwSTEP 2.0',
    'SolidWorks 2025',
    '' );
FILE_SCHEMA (( 'CONFIG_CONTROL_DESIGN' ));
ENDSEC;

DATA;
#1 = DIRECTION ( 'NONE',  ( 0.000000000000000000, 0.000000000000000000, -1.000000000000000000 ) ) ;
#2 = DIRECTION ( 'NONE',  ( 0.2873478855663453291, -0.9578262852211514300, 0.000000000000000000 ) ) ;
#3 = CYLINDRICAL_SURFACE ( 'NONE', #458, 2.100000000000000089 ) ;
#4 = ADVANCED_FACE ( 'NONE', ( #181 ), #502, .T. ) ;
#5 = CARTESIAN_POINT ( 'NONE',  ( 1.000000000000001110, 2.799999999996927169, 8.549999999999997158 ) ) ;
#6 = FACE_OUTER_BOUND ( 'NONE', #506, .T. ) ;
#7 =( LENGTH_UNIT ( ) NAMED_UNIT ( * ) SI_UNIT ( .MILLI., .METRE. ) );
#8 = ORIENTED_EDGE ( 'NONE', *, *, #232, .F. ) ;
#9 = PLANE ( 'NONE',  #310 ) ;
#10 = ORIENTED_EDGE ( 'NONE', *, *, #150, .F. ) ;
#11 = ORIENTED_EDGE ( 'NONE', *, *, #513, .T. ) ;
#12 = CARTESIAN_POINT ( 'NONE',  ( -4.330127018922182103, 3.799038105673582244, -0.4000000000000192846 ) ) ;
#13 = AXIS2_PLACEMENT_3D ( 'NONE', #144, #271, #15 ) ;
#14 = ORIENTED_EDGE ( 'NONE', *, *, #215, .T. ) ;
#15 = DIRECTION ( 'NONE',  ( 0.000000000000000000, 0.000000000000000000, -1.000000000000000000 ) ) ;
#16 = PERSON_AND_ORGANIZATION ( #494, #563 ) ;
#17 = PLANE ( 'NONE',  #324 ) ;
#18 = APPROVAL_ROLE ( '' ) ;
#19 = ADVANCED_FACE ( 'NONE', ( #440 ), #3, .F. ) ;
#20 = CIRCLE ( 'NONE', #167, 10.00000000000000000 ) ;
#21 = DIRECTION ( 'NONE',  ( 0.000000000000000000, -1.000000000000000000, 0.000000000000000000 ) ) ;
#22 = LOCAL_TIME ( 12, 29, 31.00000000000000000, #70 ) ;
#23 = DIRECTION ( 'NONE',  ( 0.000000000000000000, 1.000000000000000000, 0.000000000000000000 ) ) ;
#24 = DIRECTION ( 'NONE',  ( 0.000000000000000000, 0.000000000000000000, -1.000000000000000000 ) ) ;
#25 = EDGE_CURVE ( 'NONE', #433, #587, #93, .T. ) ;
#26 = PERSON_AND_ORGANIZATION ( #494, #563 ) ;
#27 = CARTESIAN_POINT ( 'NONE',  ( 0.000000000000000000, -8.949999999999999289, 0.000000000000000000 ) ) ;
#28 = ORIENTED_EDGE ( 'NONE', *, *, #49, .F. ) ;
#29 = VERTEX_POINT ( 'NONE', #48 ) ;
#30 = VECTOR ( 'NONE', #184, 1000.000000000000000 ) ;
#31 = EDGE_LOOP ( 'NONE', ( #322, #472, #293, #246 ) ) ;
#32 = CC_DESIGN_SECURITY_CLASSIFICATION ( #581, ( #169 ) ) ;
#33 = FACE_BOUND ( 'NONE', #592, .T. ) ;
#34 = ORIENTED_EDGE ( 'NONE', *, *, #414, .T. ) ;
#35 = DIRECTION ( 'NONE',  ( 0.000000000000000000, 1.000000000000000000, 0.000000000000000000 ) ) ;
#36 = PRODUCT ( 'EC4', 'EC4', '', ( #505 ) ) ;
#37 = VERTEX_POINT ( 'NONE', #261 ) ;
#38 = ORIENTED_EDGE ( 'NONE', *, *, #379, .T. ) ;
#39 = CIRCLE ( 'NONE', #187, 2.100000000000000089 ) ;
#40 = DIRECTION ( 'NONE',  ( 0.000000000000000000, -1.000000000000000000, 0.000000000000000000 ) ) ;
#41 = CARTESIAN_POINT ( 'NONE',  ( 0.000000000000000000, 30.75000000000000000, -2.125000000000000000 ) ) ;
#42 = APPROVAL_DATE_TIME ( #347, #542 ) ;
#43 = CYLINDRICAL_SURFACE ( 'NONE', #13, 2.125000000000000000 ) ;
#44 = CARTESIAN_POINT ( 'NONE',  ( -4.330127018922182103, -8.949999999999999289, -2.500000000000019540 ) ) ;
#45 = ORIENTED_EDGE ( 'NONE', *, *, #266, .F. ) ;
#46 =( BOUNDED_CURVE ( )  B_SPLINE_CURVE ( 3, ( #329, #254, #434, #283 ),
 .UNSPECIFIED., .F., .F. ) 
 B_SPLINE_CURVE_WITH_KNOTS ( ( 4, 4 ),
 ( 1.688023701488965633, 4.595161605690620377 ),
 .UNSPECIFIED. ) 
 CURVE ( )  GEOMETRIC_REPRESENTATION_ITEM ( )  RATIONAL_B_SPLINE_CURVE ( ( 1.000000000000000000, 0.4113060428849905081, 0.4113060428849905081, 1.000000000000000000 ) ) 
 REPRESENTATION_ITEM ( '' )  );
#47 = CARTESIAN_POINT ( 'NONE',  ( -4.330127018922182103, -8.949999999999999289, -2.500000000000019540 ) ) ;
#48 = CARTESIAN_POINT ( 'NONE',  ( 2.571758278209441957E-16, -8.949999999999999289, 7.100000000000000533 ) ) ;
#49 = EDGE_CURVE ( 'NONE', #549, #317, #221, .T. ) ;
#50 =( NAMED_UNIT ( * ) SI_UNIT ( $, .STERADIAN. ) SOLID_ANGLE_UNIT ( ) );
#51 = CARTESIAN_POINT ( 'NONE',  ( 1.366003243477517502E-15, 2.499999999996928235, 2.124999999999996891 ) ) ;
#52 = CIRCLE ( 'NONE', #498, 10.00000000000000000 ) ;
#53 = ORIENTED_EDGE ( 'NONE', *, *, #232, .T. ) ;
#54 = CIRCLE ( 'NONE', #226, 2.100000000000000089 ) ;
#55 = LOCAL_TIME ( 12, 29, 31.00000000000000000, #149 ) ;
#56 =( BOUNDED_CURVE ( )  B_SPLINE_CURVE ( 3, ( #524, #586, #207, #120 ),
 .UNSPECIFIED., .F., .F. ) 
 B_SPLINE_CURVE_WITH_KNOTS ( ( 4, 4 ),
 ( 1.570796326794896558, 4.712388980384689674 ),
 .UNSPECIFIED. ) 
 CURVE ( )  GEOMETRIC_REPRESENTATION_ITEM ( )  RATIONAL_B_SPLINE_CURVE ( ( 1.000000000000000000, 0.3333333333333333703, 0.3333333333333333703, 1.000000000000000000 ) ) 
 REPRESENTATION_ITEM ( '' )  );
#57 = DIRECTION ( 'NONE',  ( 0.000000000000000000, -1.000000000000000000, 0.000000000000000000 ) ) ;
#58 = LINE ( 'NONE', #515, #518 ) ;
#59 = CARTESIAN_POINT ( 'NONE',  ( 4.330127018922181215, 3.799038105673578691, -0.4000000000000214495 ) ) ;
#60 = DATE_TIME_ROLE ( 'classification_date' ) ;
#61 = ORIENTED_EDGE ( 'NONE', *, *, #282, .T. ) ;
#62 = SECURITY_CLASSIFICATION_LEVEL ( 'unclassified' ) ;
#63 = EDGE_CURVE ( 'NONE', #479, #77, #517, .T. ) ;
#64 = LOCAL_TIME ( 12, 29, 31.00000000000000000, #567 ) ;
#65 = CARTESIAN_POINT ( 'NONE',  ( 4.199999999999994849, 3.759999999996923581, 7.099999999999996980 ) ) ;
#66 = CARTESIAN_POINT ( 'NONE',  ( 1.366003243477517502E-15, 2.499999999996928235, -2.125000000000003553 ) ) ;
#67 = EDGE_CURVE ( 'NONE', #485, #114, #401, .T. ) ;
#68 = ORIENTED_EDGE ( 'NONE', *, *, #508, .F. ) ;
#69 = DIRECTION ( 'NONE',  ( -0.000000000000000000, -1.000000000000000000, -0.000000000000000000 ) ) ;
#70 = COORDINATED_UNIVERSAL_TIME_OFFSET ( 5, 0, .BEHIND. ) ;
#71 = EDGE_LOOP ( 'NONE', ( #313, #88, #256, #257 ) ) ;
#72 = FACE_BOUND ( 'NONE', #338, .T. ) ;
#73 = ORIENTED_EDGE ( 'NONE', *, *, #393, .F. ) ;
#74 = EDGE_CURVE ( 'NONE', #301, #125, #265, .T. ) ;
#75 = DIRECTION ( 'NONE',  ( 0.000000000000000000, -1.000000000000000000, 0.000000000000000000 ) ) ;
#76 = SHAPE_DEFINITION_REPRESENTATION ( #279, #352 ) ;
#77 = VERTEX_POINT ( 'NONE', #362 ) ;
#78 = ORIENTED_EDGE ( 'NONE', *, *, #242, .T. ) ;
#79 = CC_DESIGN_PERSON_AND_ORGANIZATION_ASSIGNMENT ( #337, #375, ( #36 ) ) ;
#80 = CARTESIAN_POINT ( 'NONE',  ( 0.3319951462397508490, 2.599598543868852918, -8.530417279381918405 ) ) ;
#81 = DIRECTION ( 'NONE',  ( -0.000000000000000000, -1.000000000000000000, -0.000000000000000000 ) ) ;
#82 = ORIENTED_EDGE ( 'NONE', *, *, #377, .F. ) ;
#83 = CYLINDRICAL_SURFACE ( 'NONE', #196, 2.100000000000000089 ) ;
#84 = DIRECTION ( 'NONE',  ( 0.000000000000000000, 0.000000000000000000, 1.000000000000000000 ) ) ;
#85 = AXIS2_PLACEMENT_3D ( 'NONE', #148, #108, #244 ) ;
#86 = DIRECTION ( 'NONE',  ( 0.000000000000000000, 0.000000000000000000, -1.000000000000000000 ) ) ;
#87 = DIRECTION ( 'NONE',  ( 0.000000000000000000, -1.000000000000000000, 0.000000000000000000 ) ) ;
#88 = ORIENTED_EDGE ( 'NONE', *, *, #555, .T. ) ;
#89 = CARTESIAN_POINT ( 'NONE',  ( -4.330127018922182103, 31.50000000000000000, -0.4000000000000192846 ) ) ;
#90 = DIRECTION ( 'NONE',  ( 0.000000000000000000, 0.000000000000000000, 1.000000000000000000 ) ) ;
#91 = FACE_BOUND ( 'NONE', #391, .T. ) ;
#92 = FACE_OUTER_BOUND ( 'NONE', #364, .T. ) ;
#93 = LINE ( 'NONE', #174, #486 ) ;
#94 = CYLINDRICAL_SURFACE ( 'NONE', #267, 2.100000000000000089 ) ;
#95 = ORIENTED_EDGE ( 'NONE', *, *, #476, .T. ) ;
#96 = CIRCLE ( 'NONE', #449, 2.100000000000000089 ) ;
#97 = EDGE_LOOP ( 'NONE', ( #529, #264, #466, #173 ) ) ;
#98 = CC_DESIGN_PERSON_AND_ORGANIZATION_ASSIGNMENT ( #107, #464, ( #169 ) ) ;
#99 = CARTESIAN_POINT ( 'NONE',  ( 0.1301270189221805096, 2.539038105673578904, -4.600000000000022737 ) ) ;
#100 = CARTESIAN_POINT ( 'NONE',  ( -4.330127018922182103, 3.799038105673582244, -4.600000000000020073 ) ) ;
#101 = EDGE_CURVE ( 'NONE', #29, #389, #383, .T. ) ;
#102 = CARTESIAN_POINT ( 'NONE',  ( -4.330127018922182103, 3.799038105673582244, -0.4000000000000192846 ) ) ;
#103 = ORIENTED_EDGE ( 'NONE', *, *, #488, .F. ) ;
#104 = EDGE_CURVE ( 'NONE', #304, #206, #52, .T. ) ;
#105 = APPLICATION_PROTOCOL_DEFINITION ( 'international standard', 'config_control_design', 1994, #217 ) ;
#106 = EDGE_CURVE ( 'NONE', #37, #308, #297, .T. ) ;
#107 = PERSON_AND_ORGANIZATION ( #494, #563 ) ;
#108 = DIRECTION ( 'NONE',  ( 0.000000000000000000, 1.000000000000000000, 0.000000000000000000 ) ) ;
#109 = PERSON_AND_ORGANIZATION ( #494, #563 ) ;
#110 = DIRECTION ( 'NONE',  ( 0.000000000000000000, -1.000000000000000000, 0.000000000000000000 ) ) ;
#111 = ORIENTED_EDGE ( 'NONE', *, *, #101, .F. ) ;
#112 = CYLINDRICAL_SURFACE ( 'NONE', #578, 2.125000000000000000 ) ;
#113 = APPROVAL_ROLE ( '' ) ;
#114 = VERTEX_POINT ( 'NONE', #431 ) ;
#115 =( BOUNDED_CURVE ( )  B_SPLINE_CURVE ( 3, ( #453, #357, #460, #405 ),
 .UNSPECIFIED., .F., .F. ) 
 B_SPLINE_CURVE_WITH_KNOTS ( ( 4, 4 ),
 ( 1.570796326794896114, 4.712388980384689674 ),
 .UNSPECIFIED. ) 
 CURVE ( )  GEOMETRIC_REPRESENTATION_ITEM ( )  RATIONAL_B_SPLINE_CURVE ( ( 1.000000000000000000, 0.3333333333333332038, 0.3333333333333332038, 1.000000000000000000 ) ) 
 REPRESENTATION_ITEM ( '' )  );
#116 = CARTESIAN_POINT ( 'NONE',  ( 0.000000000000000000, -8.949999999999999289, 0.000000000000000000 ) ) ;
#117 = DATE_AND_TIME ( #241, #22 ) ;
#118 = CALENDAR_DATE ( 2026, 26, 8 ) ;
#119 = ORIENTED_EDGE ( 'NONE', *, *, #170, .T. ) ;
#120 = CARTESIAN_POINT ( 'NONE',  ( 4.330127018922181215, 3.799038105673578691, -0.4000000000000214495 ) ) ;
#121 = VECTOR ( 'NONE', #459, 1000.000000000000000 ) ;
#122 = EDGE_LOOP ( 'NONE', ( #252, #299 ) ) ;
#123 = LINE ( 'NONE', #439, #527 ) ;
#124 = CARTESIAN_POINT ( 'NONE',  ( 4.330127018922181215, -8.949999999999999289, -4.600000000000022737 ) ) ;
#125 = VERTEX_POINT ( 'NONE', #158 ) ;
#126 = DIRECTION ( 'NONE',  ( 0.000000000000000000, -1.000000000000000000, 0.000000000000000000 ) ) ;
#127 = CYLINDRICAL_SURFACE ( 'NONE', #240, 2.100000000000000089 ) ;
#128 = DIRECTION ( 'NONE',  ( 0.000000000000000000, 0.000000000000000000, -1.000000000000000000 ) ) ;
#129 = ORIENTED_EDGE ( 'NONE', *, *, #388, .T. ) ;
#130 = CARTESIAN_POINT ( 'NONE',  ( 0.6657105370716737136, 2.699713161118429738, -8.549999999999997158 ) ) ;
#131 = AXIS2_PLACEMENT_3D ( 'NONE', #116, #294, #478 ) ;
#132 = ORIENTED_EDGE ( 'NONE', *, *, #150, .T. ) ;
#133 = CARTESIAN_POINT ( 'NONE',  ( 4.330127018922181215, 3.799038105673578691, -4.600000000000022737 ) ) ;
#134 = DIRECTION ( 'NONE',  ( 0.000000000000000000, -1.000000000000000000, 0.000000000000000000 ) ) ;
#135 = EDGE_LOOP ( 'NONE', ( #471, #216 ) ) ;
#136 = DIRECTION ( 'NONE',  ( 0.000000000000000000, 1.000000000000000000, 0.000000000000000000 ) ) ;
#137 = ORIENTED_EDGE ( 'NONE', *, *, #316, .F. ) ;
#138 = DIRECTION ( 'NONE',  ( 0.000000000000000000, -1.000000000000000000, 0.000000000000000000 ) ) ;
#139 = CARTESIAN_POINT ( 'NONE',  ( -4.330127018922182103, 31.50000000000000000, -2.500000000000019540 ) ) ;
#140 = CARTESIAN_POINT ( 'NONE',  ( 1.000000000000000000, 2.799999999996927169, -8.549999999999997158 ) ) ;
#141 =( BOUNDED_CURVE ( )  B_SPLINE_CURVE ( 3, ( #165, #80, #130, #543 ),
 .UNSPECIFIED., .F., .F. ) 
 B_SPLINE_CURVE_WITH_KNOTS ( ( 4, 4 ),
 ( 1.453568952100827705, 1.570796326794896558 ),
 .UNSPECIFIED. ) 
 CURVE ( )  GEOMETRIC_REPRESENTATION_ITEM ( )  RATIONAL_B_SPLINE_CURVE ( ( 1.000000000000000000, 0.9988551397116050001, 0.9988551397116050001, 1.000000000000000000 ) ) 
 REPRESENTATION_ITEM ( '' )  );
#142 = EDGE_CURVE ( 'NONE', #549, #301, #56, .T. ) ;
#143 = LINE ( 'NONE', #224, #509 ) ;
#144 = CARTESIAN_POINT ( 'NONE',  ( 0.000000000000000000, 30.75000000000000000, 0.000000000000000000 ) ) ;
#145 = DIRECTION ( 'NONE',  ( 0.000000000000000000, 0.000000000000000000, -1.000000000000000000 ) ) ;
#146 = CIRCLE ( 'NONE', #210, 2.125000000000000000 ) ;
#147 = CALENDAR_DATE ( 2026, 26, 8 ) ;
#148 = CARTESIAN_POINT ( 'NONE',  ( 1.000000000000000000, 0.000000000000000000, 0.000000000000000000 ) ) ;
#149 = COORDINATED_UNIVERSAL_TIME_OFFSET ( 5, 0, .BEHIND. ) ;
#150 = EDGE_CURVE ( 'NONE', #497, #438, #46, .T. ) ;
#151 = DIRECTION ( 'NONE',  ( 0.000000000000000000, 0.000000000000000000, 1.000000000000000000 ) ) ;
#152 = DIRECTION ( 'NONE',  ( 1.000000000000000000, 0.000000000000000000, 0.000000000000000000 ) ) ;
#153 = ORIENTED_EDGE ( 'NONE', *, *, #175, .T. ) ;
#154 = AXIS2_PLACEMENT_3D ( 'NONE', #44, #312, #501 ) ;
#155 = ORIENTED_EDGE ( 'NONE', *, *, #25, .F. ) ;
#156 = CARTESIAN_POINT ( 'NONE',  ( -4.330127018922182103, 31.50000000000000000, -2.500000000000019540 ) ) ;
#157 = ORIENTED_EDGE ( 'NONE', *, *, #266, .T. ) ;
#158 = CARTESIAN_POINT ( 'NONE',  ( 4.330127018922181215, -8.949999999999999289, -0.4000000000000214495 ) ) ;
#159 =( BOUNDED_CURVE ( )  B_SPLINE_CURVE ( 3, ( #424, #473, #202, #576 ),
 .UNSPECIFIED., .F., .F. ) 
 B_SPLINE_CURVE_WITH_KNOTS ( ( 4, 4 ),
 ( 1.570796326794896558, 4.712388980384689674 ),
 .UNSPECIFIED. ) 
 CURVE ( )  GEOMETRIC_REPRESENTATION_ITEM ( )  RATIONAL_B_SPLINE_CURVE ( ( 1.000000000000000000, 0.3333333333333333703, 0.3333333333333333703, 1.000000000000000000 ) ) 
 REPRESENTATION_ITEM ( '' )  );
#160 = PERSON_AND_ORGANIZATION ( #494, #563 ) ;
#161 = ORIENTED_EDGE ( 'NONE', *, *, #270, .T. ) ;
#162 = EDGE_LOOP ( 'NONE', ( #340, #531 ) ) ;
#163 = ORIENTED_EDGE ( 'NONE', *, *, #316, .T. ) ;
#164 = ORIENTED_EDGE ( 'NONE', *, *, #342, .T. ) ;
#165 = CARTESIAN_POINT ( 'NONE',  ( 1.366003243477517502E-15, 2.499999999996928235, -8.491319096583287873 ) ) ;
#166 = CARTESIAN_POINT ( 'NONE',  ( 4.330127018922181215, -8.949999999999999289, -2.500000000000022204 ) ) ;
#167 = AXIS2_PLACEMENT_3D ( 'NONE', #186, #514, #564 ) ;
#168 = VERTEX_POINT ( 'NONE', #195 ) ;
#169 = PRODUCT_DEFINITION_FORMATION_WITH_SPECIFIED_SOURCE ( 'ANY', '', #36, .NOT_KNOWN. ) ;
#170 = EDGE_CURVE ( 'NONE', #168, #386, #512, .T. ) ;
#171 = ORIENTED_EDGE ( 'NONE', *, *, #342, .F. ) ;
#172 = CARTESIAN_POINT ( 'NONE',  ( 0.000000000000000000, 31.50000000000000000, 5.000000000000000000 ) ) ;
#173 = ORIENTED_EDGE ( 'NONE', *, *, #263, .T. ) ;
#174 = CARTESIAN_POINT ( 'NONE',  ( 1.000000000000000000, 7.000000000000000000, -8.549999999999997158 ) ) ;
#175 = EDGE_CURVE ( 'NONE', #587, #308, #251, .T. ) ;
#176 = DIRECTION ( 'NONE',  ( 0.9578262852211513190, 0.2873478855663452736, 0.000000000000000000 ) ) ;
#177 = DIRECTION ( 'NONE',  ( -0.000000000000000000, -1.000000000000000000, -0.000000000000000000 ) ) ;
#178 = FACE_BOUND ( 'NONE', #437, .T. ) ;
#179 = CARTESIAN_POINT ( 'NONE',  ( 4.330127018922181215, 31.50000000000000000, -2.500000000000022204 ) ) ;
#180 = CC_DESIGN_APPROVAL ( #523, ( #169 ) ) ;
#181 = FACE_OUTER_BOUND ( 'NONE', #269, .T. ) ;
#182 = DIRECTION ( 'NONE',  ( 0.9578262852211513190, -0.2873478855663452736, 0.000000000000000000 ) ) ;
#183 = CARTESIAN_POINT ( 'NONE',  ( 4.330127018922181215, 3.799038105673578691, -0.4000000000000214495 ) ) ;
#184 = DIRECTION ( 'NONE',  ( 0.000000000000000000, -1.000000000000000000, 0.000000000000000000 ) ) ;
#185 = ORIENTED_EDGE ( 'NONE', *, *, #225, .T. ) ;
#186 = CARTESIAN_POINT ( 'NONE',  ( 0.000000000000000000, -8.949999999999999289, 0.000000000000000000 ) ) ;
#187 = AXIS2_PLACEMENT_3D ( 'NONE', #47, #126, #491 ) ;
#188 = AXIS2_PLACEMENT_3D ( 'NONE', #493, #35, #84 ) ;
#189 = DIRECTION ( 'NONE',  ( 0.000000000000000000, 0.000000000000000000, 1.000000000000000000 ) ) ;
#190 = CARTESIAN_POINT ( 'NONE',  ( 0.000000000000000000, 31.50000000000000000, 5.000000000000000000 ) ) ;
#191 = EDGE_CURVE ( 'NONE', #429, #356, #159, .T. ) ;
#192 = DIRECTION ( 'NONE',  ( 0.000000000000000000, 1.000000000000000000, 0.000000000000000000 ) ) ;
#193 = PERSON_AND_ORGANIZATION_ROLE ( 'design_supplier' ) ;
#194 = CARTESIAN_POINT ( 'NONE',  ( 2.602374448188125350E-16, -8.949999999999999289, 2.125000000000000000 ) ) ;
#195 = CARTESIAN_POINT ( 'NONE',  ( 1.366003243477517502E-15, 2.499999999996928235, 2.899999999999987477 ) ) ;
#196 = AXIS2_PLACEMENT_3D ( 'NONE', #179, #134, #86 ) ;
#197 = COORDINATED_UNIVERSAL_TIME_OFFSET ( 5, 0, .BEHIND. ) ;
#198 = CARTESIAN_POINT ( 'NONE',  ( 0.000000000000000000, -8.949999999999999289, 10.00000000000000000 ) ) ;
#199 =( BOUNDED_CURVE ( )  B_SPLINE_CURVE ( 3, ( #140, #500, #551, #5 ),
 .UNSPECIFIED., .F., .F. ) 
 B_SPLINE_CURVE_WITH_KNOTS ( ( 4, 4 ),
 ( 1.570796326794896558, 4.712388980384689674 ),
 .UNSPECIFIED. ) 
 CURVE ( )  GEOMETRIC_REPRESENTATION_ITEM ( )  RATIONAL_B_SPLINE_CURVE ( ( 1.000000000000000000, 0.3333333333333333703, 0.3333333333333333703, 1.000000000000000000 ) ) 
 REPRESENTATION_ITEM ( '' )  );
#200 = PERSON_AND_ORGANIZATION ( #494, #563 ) ;
#201 = ADVANCED_FACE ( 'NONE', ( #380 ), #112, .F. ) ;
#202 = CARTESIAN_POINT ( 'NONE',  ( -8.530127018922181392, 5.059038105673581143, -4.600000000000019185 ) ) ;
#203 = CALENDAR_DATE ( 2026, 26, 8 ) ;
#204 = LINE ( 'NONE', #521, #298 ) ;
#205 = ORIENTED_EDGE ( 'NONE', *, *, #435, .T. ) ;
#206 = VERTEX_POINT ( 'NONE', #384 ) ;
#207 = CARTESIAN_POINT ( 'NONE',  ( 8.530127018922181392, 5.059038105673578478, -0.4000000000000221712 ) ) ;
#208 = ADVANCED_FACE ( 'NONE', ( #582 ), #532, .T. ) ;
#209 = APPROVAL_DATE_TIME ( #117, #523 ) ;
#210 = AXIS2_PLACEMENT_3D ( 'NONE', #519, #381, #591 ) ;
#211 = EDGE_LOOP ( 'NONE', ( #406, #34, #428, #223, #584, #10 ) ) ;
#212 = ORIENTED_EDGE ( 'NONE', *, *, #435, .F. ) ;
#213 = ADVANCED_FACE ( 'NONE', ( #72, #250, #33, #565, #470 ), #17, .T. ) ;
#214 = VERTEX_POINT ( 'NONE', #194 ) ;
#215 = EDGE_CURVE ( 'NONE', #125, #317, #321, .T. ) ;
#216 = ORIENTED_EDGE ( 'NONE', *, *, #215, .F. ) ;
#217 = APPLICATION_CONTEXT ( 'configuration controlled 3d designs of mechanical parts and assemblies' ) ;
#218 = ORIENTED_EDGE ( 'NONE', *, *, #74, .T. ) ;
#219 = ADVANCED_FACE ( 'NONE', ( #425 ), #373, .T. ) ;
#220 = LINE ( 'NONE', #355, #260 ) ;
#221 = LINE ( 'NONE', #553, #326 ) ;
#222 = DIRECTION ( 'NONE',  ( 0.000000000000000000, 0.000000000000000000, -1.000000000000000000 ) ) ;
#223 = ORIENTED_EDGE ( 'NONE', *, *, #67, .F. ) ;
#224 = CARTESIAN_POINT ( 'NONE',  ( 1.366003243477517502E-15, 2.499999999996928235, -14.00999999999999979 ) ) ;
#225 = EDGE_CURVE ( 'NONE', #386, #497, #376, .T. ) ;
#226 = AXIS2_PLACEMENT_3D ( 'NONE', #166, #57, #323 ) ;
#227 = AXIS2_PLACEMENT_3D ( 'NONE', #239, #566, #152 ) ;
#228 = CARTESIAN_POINT ( 'NONE',  ( -4.249999999999999112, 3.774999999996928146, -2.124999999999999112 ) ) ;
#229 =( NAMED_UNIT ( * ) PLANE_ANGLE_UNIT ( ) SI_UNIT ( $, .RADIAN. ) );
#230 = ORIENTED_EDGE ( 'NONE', *, *, #552, .T. ) ;
#231 = CARTESIAN_POINT ( 'NONE',  ( 4.330127018922181215, 3.799038105673578691, -4.600000000000022737 ) ) ;
#232 = EDGE_CURVE ( 'NONE', #490, #214, #146, .T. ) ;
#233 = APPLICATION_PROTOCOL_DEFINITION ( 'international standard', 'config_control_design', 1994, #365 ) ;
#234 = AXIS2_PLACEMENT_3D ( 'NONE', #465, #243, #145 ) ;
#235 = APPROVAL_PERSON_ORGANIZATION ( #200, #542, #18 ) ;
#236 = DIRECTION ( 'NONE',  ( -0.000000000000000000, 1.000000000000000000, -0.000000000000000000 ) ) ;
#237 = CARTESIAN_POINT ( 'NONE',  ( 0.000000000000000000, -8.949999999999999289, 5.000000000000000000 ) ) ;
#238 = APPROVAL_STATUS ( 'not_yet_approved' ) ;
#239 = CARTESIAN_POINT ( 'NONE',  ( 0.000000000000000000, 0.000000000000000000, 0.000000000000000000 ) ) ;
#240 = AXIS2_PLACEMENT_3D ( 'NONE', #172, #392, #222 ) ;
#241 = CALENDAR_DATE ( 2026, 26, 8 ) ;
#242 = EDGE_CURVE ( 'NONE', #304, #77, #275, .T. ) ;
#243 = DIRECTION ( 'NONE',  ( 0.000000000000000000, -1.000000000000000000, 0.000000000000000000 ) ) ;
#244 = DIRECTION ( 'NONE',  ( 0.000000000000000000, 0.000000000000000000, 1.000000000000000000 ) ) ;
#245 = CARTESIAN_POINT ( 'NONE',  ( -8.550000000000000711, -8.949999999999999289, -14.00999999999999979 ) ) ;
#246 = ORIENTED_EDGE ( 'NONE', *, *, #288, .T. ) ;
#247 = DIRECTION ( 'NONE',  ( 0.000000000000000000, 0.000000000000000000, -1.000000000000000000 ) ) ;
#248 = ORIENTED_EDGE ( 'NONE', *, *, #104, .T. ) ;
#249 = CC_DESIGN_DATE_AND_TIME_ASSIGNMENT ( #461, #60, ( #581 ) ) ;
#250 = FACE_BOUND ( 'NONE', #135, .T. ) ;
#251 = CIRCLE ( 'NONE', #85, 8.549999999999997158 ) ;
#252 = ORIENTED_EDGE ( 'NONE', *, *, #142, .T. ) ;
#253 = ORIENTED_EDGE ( 'NONE', *, *, #577, .F. ) ;
#254 = CARTESIAN_POINT ( 'NONE',  ( -13.66872037914690097, 6.600616113740999324, 6.881590357894507903 ) ) ;
#255 = CARTESIAN_POINT ( 'NONE',  ( 1.366003243477517502E-15, 2.499999999996928235, -2.125000000000003553 ) ) ;
#256 = ORIENTED_EDGE ( 'NONE', *, *, #101, .T. ) ;
#257 = ORIENTED_EDGE ( 'NONE', *, *, #480, .F. ) ;
#258 = CARTESIAN_POINT ( 'NONE',  ( 10.00000000000000355, 5.499999999996927791, -14.00999999999999979 ) ) ;
#259 = ORIENTED_EDGE ( 'NONE', *, *, #377, .T. ) ;
#260 = VECTOR ( 'NONE', #588, 1000.000000000000000 ) ;
#261 = CARTESIAN_POINT ( 'NONE',  ( 1.000000000000001110, 2.799999999996927169, 8.549999999999997158 ) ) ;
#262 = CARTESIAN_POINT ( 'NONE',  ( 1.366003243477517502E-15, 2.499999999996928235, 7.099999999999989875 ) ) ;
#263 = EDGE_CURVE ( 'NONE', #317, #125, #54, .T. ) ;
#264 = ORIENTED_EDGE ( 'NONE', *, *, #142, .F. ) ;
#265 = LINE ( 'NONE', #557, #30 ) ;
#266 = EDGE_CURVE ( 'NONE', #214, #490, #359, .T. ) ;
#267 = AXIS2_PLACEMENT_3D ( 'NONE', #402, #495, #268 ) ;
#268 = DIRECTION ( 'NONE',  ( 0.000000000000000000, 0.000000000000000000, -1.000000000000000000 ) ) ;
#269 = EDGE_LOOP ( 'NONE', ( #205, #535, #129, #155 ) ) ;
#270 = EDGE_CURVE ( 'NONE', #114, #485, #558, .T. ) ;
#271 = DIRECTION ( 'NONE',  ( -0.000000000000000000, -1.000000000000000000, -0.000000000000000000 ) ) ;
#272 = EDGE_CURVE ( 'NONE', #356, #463, #204, .T. ) ;
#273 = CARTESIAN_POINT ( 'NONE',  ( -0.1301270189221822582, 2.539038105673582901, -4.600000000000020073 ) ) ;
#274 = UNCERTAINTY_MEASURE_WITH_UNIT (LENGTH_MEASURE( 1.000000000000000082E-05 ), #7, 'distance_accuracy_value', 'NONE');
#275 = LINE ( 'NONE', #422, #568 ) ;
#276 = VECTOR ( 'NONE', #81, 1000.000000000000000 ) ;
#277 =( BOUNDED_CURVE ( )  B_SPLINE_CURVE ( 3, ( #539, #303, #441, #353 ),
 .UNSPECIFIED., .F., .F. ) 
 B_SPLINE_CURVE_WITH_KNOTS ( ( 4, 4 ),
 ( 4.712388980384689674, 4.829616355078758971 ),
 .UNSPECIFIED. ) 
 CURVE ( )  GEOMETRIC_REPRESENTATION_ITEM ( )  RATIONAL_B_SPLINE_CURVE ( ( 1.000000000000000000, 0.9988551397116050001, 0.9988551397116050001, 1.000000000000000000 ) ) 
 REPRESENTATION_ITEM ( '' )  );
#278 = CARTESIAN_POINT ( 'NONE',  ( 0.000000000000000000, 0.000000000000000000, 10.00000000000000000 ) ) ;
#279 = PRODUCT_DEFINITION_SHAPE ( 'NONE', 'NONE',  #572 ) ;
#280 = LINE ( 'NONE', #198, #121 ) ;
#281 = DATE_AND_TIME ( #203, #432 ) ;
#282 = EDGE_CURVE ( 'NONE', #206, #479, #280, .T. ) ;
#283 = CARTESIAN_POINT ( 'NONE',  ( 1.366003243477517502E-15, 2.499999999996928235, -8.491319096583287873 ) ) ;
#284 = CALENDAR_DATE ( 2026, 26, 8 ) ;
#285 = DIRECTION ( 'NONE',  ( 0.000000000000000000, -0.000000000000000000, -1.000000000000000000 ) ) ;
#286 = ORIENTED_EDGE ( 'NONE', *, *, #393, .T. ) ;
#287 = CIRCLE ( 'NONE', #188, 8.549999999999997158 ) ;
#288 = EDGE_CURVE ( 'NONE', #389, #29, #96, .T. ) ;
#289 = CYLINDRICAL_SURFACE ( 'NONE', #396, 2.100000000000000089 ) ;
#290 = ORIENTED_EDGE ( 'NONE', *, *, #272, .T. ) ;
#291 = CARTESIAN_POINT ( 'NONE',  ( 0.000000000000000000, 30.75000000000000000, 0.000000000000000000 ) ) ;
#292 = COORDINATED_UNIVERSAL_TIME_OFFSET ( 5, 0, .BEHIND. ) ;
#293 = ORIENTED_EDGE ( 'NONE', *, *, #480, .T. ) ;
#294 = DIRECTION ( 'NONE',  ( 0.000000000000000000, 1.000000000000000000, 0.000000000000000000 ) ) ;
#295 =( BOUNDED_CURVE ( )  B_SPLINE_CURVE ( 3, ( #100, #273, #415, #102 ),
 .UNSPECIFIED., .F., .F. ) 
 B_SPLINE_CURVE_WITH_KNOTS ( ( 4, 4 ),
 ( 4.712388980384689674, 7.853981633974482790 ),
 .UNSPECIFIED. ) 
 CURVE ( )  GEOMETRIC_REPRESENTATION_ITEM ( )  RATIONAL_B_SPLINE_CURVE ( ( 1.000000000000000000, 0.3333333333333333703, 0.3333333333333333703, 1.000000000000000000 ) ) 
 REPRESENTATION_ITEM ( '' )  );
#296 = ORIENTED_EDGE ( 'NONE', *, *, #106, .F. ) ;
#297 = LINE ( 'NONE', #336, #442 ) ;
#298 = VECTOR ( 'NONE', #21, 1000.000000000000000 ) ;
#299 = ORIENTED_EDGE ( 'NONE', *, *, #508, .T. ) ;
#300 = DIRECTION ( 'NONE',  ( -0.000000000000000000, -1.000000000000000000, -0.000000000000000000 ) ) ;
#301 = VERTEX_POINT ( 'NONE', #59 ) ;
#302 = ADVANCED_FACE ( 'NONE', ( #526 ), #289, .F. ) ;
#303 = CARTESIAN_POINT ( 'NONE',  ( 0.6657105370716743797, 2.699713161118429738, 8.549999999999997158 ) ) ;
#304 = VERTEX_POINT ( 'NONE', #580 ) ;
#305 = ORIENTED_EDGE ( 'NONE', *, *, #272, .F. ) ;
#306 = LINE ( 'NONE', #41, #419 ) ;
#307 = PLANE ( 'NONE',  #331 ) ;
#308 = VERTEX_POINT ( 'NONE', #520 ) ;
#309 = DIRECTION ( 'NONE',  ( -0.000000000000000000, -1.000000000000000000, -0.000000000000000000 ) ) ;
#310 = AXIS2_PLACEMENT_3D ( 'NONE', #314, #503, #182 ) ;
#311 =( GEOMETRIC_REPRESENTATION_CONTEXT ( 3 ) GLOBAL_UNCERTAINTY_ASSIGNED_CONTEXT ( ( #274 ) ) GLOBAL_UNIT_ASSIGNED_CONTEXT ( ( #7, #229, #50 ) ) REPRESENTATION_CONTEXT ( 'NONE', 'WORKASPACE' ) );
#312 = DIRECTION ( 'NONE',  ( 0.000000000000000000, -1.000000000000000000, 0.000000000000000000 ) ) ;
#313 = ORIENTED_EDGE ( 'NONE', *, *, #414, .F. ) ;
#314 = CARTESIAN_POINT ( 'NONE',  ( -10.00000000000000000, 5.499999999996927791, -14.00999999999999979 ) ) ;
#315 = DIRECTION ( 'NONE',  ( 0.000000000000000000, 0.000000000000000000, -1.000000000000000000 ) ) ;
#316 = EDGE_CURVE ( 'NONE', #438, #433, #141, .T. ) ;
#317 = VERTEX_POINT ( 'NONE', #124 ) ;
#318 = DIRECTION ( 'NONE',  ( 0.000000000000000000, 0.000000000000000000, 1.000000000000000000 ) ) ;
#319 = FACE_OUTER_BOUND ( 'NONE', #97, .T. ) ;
#320 = CARTESIAN_POINT ( 'NONE',  ( 0.000000000000000000, -8.949999999999999289, 5.000000000000000000 ) ) ;
#321 = CIRCLE ( 'NONE', #234, 2.100000000000000089 ) ;
#322 = ORIENTED_EDGE ( 'NONE', *, *, #555, .F. ) ;
#323 = DIRECTION ( 'NONE',  ( 0.000000000000000000, 0.000000000000000000, -1.000000000000000000 ) ) ;
#324 = AXIS2_PLACEMENT_3D ( 'NONE', #245, #455, #285 ) ;
#325 = CARTESIAN_POINT ( 'NONE',  ( 0.000000000000000000, -8.949999999999999289, 0.000000000000000000 ) ) ;
#326 = VECTOR ( 'NONE', #411, 1000.000000000000000 ) ;
#327 = EDGE_LOOP ( 'NONE', ( #544, #575 ) ) ;
#328 = CARTESIAN_POINT ( 'NONE',  ( 0.000000000000000000, -8.949999999999999289, 0.000000000000000000 ) ) ;
#329 = CARTESIAN_POINT ( 'NONE',  ( 1.366003243477517502E-15, 2.499999999996928235, 8.491319096583278991 ) ) ;
#330 = CARTESIAN_POINT ( 'NONE',  ( 4.249999999999994671, 3.774999999996922817, 2.124999999999996003 ) ) ;
#331 = AXIS2_PLACEMENT_3D ( 'NONE', #496, #87, #443 ) ;
#332 = CARTESIAN_POINT ( 'NONE',  ( 1.366003243477517502E-15, 2.499999999996928235, 7.099999999999989875 ) ) ;
#333 = DATE_TIME_ROLE ( 'creation_date' ) ;
#334 = EDGE_LOOP ( 'NONE', ( #82, #426, #290, #286 ) ) ;
#335 = EDGE_LOOP ( 'NONE', ( #296, #164, #132, #163, #399, #153 ) ) ;
#336 = CARTESIAN_POINT ( 'NONE',  ( 1.000000000000001110, 7.000000000000000000, 8.549999999999997158 ) ) ;
#337 = PERSON_AND_ORGANIZATION ( #494, #563 ) ;
#338 = EDGE_LOOP ( 'NONE', ( #53, #157 ) ) ;
#339 = DIRECTION ( 'NONE',  ( 0.000000000000000000, 0.000000000000000000, -1.000000000000000000 ) ) ;
#340 = ORIENTED_EDGE ( 'NONE', *, *, #513, .F. ) ;
#341 = ORIENTED_EDGE ( 'NONE', *, *, #288, .F. ) ;
#342 = EDGE_CURVE ( 'NONE', #37, #497, #277, .T. ) ;
#343 = VERTEX_POINT ( 'NONE', #395 ) ;
#344 = PLANE ( 'NONE',  #467 ) ;
#345 = DIRECTION ( 'NONE',  ( 0.000000000000000000, 1.000000000000000000, 0.000000000000000000 ) ) ;
#346 = LINE ( 'NONE', #540, #276 ) ;
#347 = DATE_AND_TIME ( #118, #570 ) ;
#348 = ORIENTED_EDGE ( 'NONE', *, *, #191, .T. ) ;
#349 = ADVANCED_FACE ( 'NONE', ( #400 ), #127, .F. ) ;
#350 = EDGE_LOOP ( 'NONE', ( #483, #259, #475, #305 ) ) ;
#351 = DIRECTION ( 'NONE',  ( 0.000000000000000000, 0.000000000000000000, -1.000000000000000000 ) ) ;
#352 = ADVANCED_BREP_SHAPE_REPRESENTATION ( 'EC4', ( #560, #227 ), #311 ) ;
#353 = CARTESIAN_POINT ( 'NONE',  ( 1.366003243477517502E-15, 2.499999999996928235, 8.491319096583278991 ) ) ;
#354 = DIRECTION ( 'NONE',  ( 0.000000000000000000, -1.000000000000000000, 0.000000000000000000 ) ) ;
#355 = CARTESIAN_POINT ( 'NONE',  ( 2.571758278209441957E-16, 31.50000000000000000, 7.100000000000000533 ) ) ;
#356 = VERTEX_POINT ( 'NONE', #499 ) ;
#357 = CARTESIAN_POINT ( 'NONE',  ( -4.200000000000001066, 3.759999999996928022, 7.100000000000003197 ) ) ;
#358 = CC_DESIGN_PERSON_AND_ORGANIZATION_ASSIGNMENT ( #26, #417, ( #572 ) ) ;
#359 = CIRCLE ( 'NONE', #481, 2.125000000000000000 ) ;
#360 = FACE_OUTER_BOUND ( 'NONE', #211, .T. ) ;
#361 = DIRECTION ( 'NONE',  ( -0.000000000000000000, -1.000000000000000000, -0.000000000000000000 ) ) ;
#362 = CARTESIAN_POINT ( 'NONE',  ( 1.224646799147353059E-15, 0.000000000000000000, -10.00000000000000000 ) ) ;
#363 = CARTESIAN_POINT ( 'NONE',  ( 1.366003243477517502E-15, 2.499999999996928235, 8.491319096583278991 ) ) ;
#364 = EDGE_LOOP ( 'NONE', ( #103, #161, #38, #45 ) ) ;
#365 = APPLICATION_CONTEXT ( 'configuration controlled 3d designs of mechanical parts and assemblies' ) ;
#366 = CARTESIAN_POINT ( 'NONE',  ( 1.366003243477517502E-15, 2.499999999996928235, -8.491319096583287873 ) ) ;
#367 = AXIS2_PLACEMENT_3D ( 'NONE', #190, #138, #315 ) ;
#368 = CC_DESIGN_PERSON_AND_ORGANIZATION_ASSIGNMENT ( #372, #421, ( #581 ) ) ;
#369 = DESIGN_CONTEXT ( 'detailed design', #217, 'design' ) ;
#370 = AXIS2_PLACEMENT_3D ( 'NONE', #561, #361, #1 ) ;
#371 = ADVANCED_FACE ( 'NONE', ( #487, #590 ), #344, .F. ) ;
#372 = PERSON_AND_ORGANIZATION ( #494, #563 ) ;
#373 = CYLINDRICAL_SURFACE ( 'NONE', #374, 10.00000000000000000 ) ;
#374 = AXIS2_PLACEMENT_3D ( 'NONE', #325, #192, #151 ) ;
#375 = PERSON_AND_ORGANIZATION_ROLE ( 'design_owner' ) ;
#376 = LINE ( 'NONE', #418, #454 ) ;
#377 = EDGE_CURVE ( 'NONE', #429, #343, #547, .T. ) ;
#378 =( BOUNDED_CURVE ( )  B_SPLINE_CURVE ( 3, ( #183, #510, #99, #231 ),
 .UNSPECIFIED., .F., .F. ) 
 B_SPLINE_CURVE_WITH_KNOTS ( ( 4, 4 ),
 ( 4.712388980384689674, 7.853981633974482790 ),
 .UNSPECIFIED. ) 
 CURVE ( )  GEOMETRIC_REPRESENTATION_ITEM ( )  RATIONAL_B_SPLINE_CURVE ( ( 1.000000000000000000, 0.3333333333333333703, 0.3333333333333333703, 1.000000000000000000 ) ) 
 REPRESENTATION_ITEM ( '' )  );
#379 = EDGE_CURVE ( 'NONE', #485, #490, #306, .T. ) ;
#380 = FACE_OUTER_BOUND ( 'NONE', #585, .T. ) ;
#381 = DIRECTION ( 'NONE',  ( -0.000000000000000000, 1.000000000000000000, -0.000000000000000000 ) ) ;
#382 = ORIENTED_EDGE ( 'NONE', *, *, #530, .T. ) ;
#383 = CIRCLE ( 'NONE', #407, 2.100000000000000089 ) ;
#384 = CARTESIAN_POINT ( 'NONE',  ( 0.000000000000000000, -8.949999999999999289, 10.00000000000000000 ) ) ;
#385 = ORIENTED_EDGE ( 'NONE', *, *, #270, .F. ) ;
#386 = VERTEX_POINT ( 'NONE', #262 ) ;
#387 = CARTESIAN_POINT ( 'NONE',  ( 1.366003243477517502E-15, 2.499999999996928235, 2.899999999999987477 ) ) ;
#388 = EDGE_CURVE ( 'NONE', #308, #587, #287, .T. ) ;
#389 = VERTEX_POINT ( 'NONE', #436 ) ;
#390 = CYLINDRICAL_SURFACE ( 'NONE', #528, 8.549999999999997158 ) ;
#391 = EDGE_LOOP ( 'NONE', ( #589, #394 ) ) ;
#392 = DIRECTION ( 'NONE',  ( 0.000000000000000000, -1.000000000000000000, 0.000000000000000000 ) ) ;
#393 = EDGE_CURVE ( 'NONE', #463, #343, #39, .T. ) ;
#394 = ORIENTED_EDGE ( 'NONE', *, *, #388, .F. ) ;
#395 = CARTESIAN_POINT ( 'NONE',  ( -4.330127018922182103, -8.949999999999999289, -0.4000000000000192846 ) ) ;
#396 = AXIS2_PLACEMENT_3D ( 'NONE', #156, #354, #427 ) ;
#397 = EDGE_LOOP ( 'NONE', ( #11, #78, #596, #444 ) ) ;
#398 = DIRECTION ( 'NONE',  ( 0.000000000000000000, 0.000000000000000000, 1.000000000000000000 ) ) ;
#399 = ORIENTED_EDGE ( 'NONE', *, *, #25, .T. ) ;
#400 = FACE_OUTER_BOUND ( 'NONE', #71, .T. ) ;
#401 =( BOUNDED_CURVE ( )  B_SPLINE_CURVE ( 3, ( #448, #228, #446, #51 ),
 .UNSPECIFIED., .F., .F. ) 
 B_SPLINE_CURVE_WITH_KNOTS ( ( 4, 4 ),
 ( 1.570796326794896780, 4.712388980384689674 ),
 .UNSPECIFIED. ) 
 CURVE ( )  GEOMETRIC_REPRESENTATION_ITEM ( )  RATIONAL_B_SPLINE_CURVE ( ( 1.000000000000000000, 0.3333333333333333703, 0.3333333333333333703, 1.000000000000000000 ) ) 
 REPRESENTATION_ITEM ( '' )  );
#402 = CARTESIAN_POINT ( 'NONE',  ( 4.330127018922181215, 31.50000000000000000, -2.500000000000022204 ) ) ;
#403 = EDGE_LOOP ( 'NONE', ( #230, #385, #382, #119, #185, #171, #212, #137 ) ) ;
#404 = ADVANCED_FACE ( 'NONE', ( #319 ), #94, .F. ) ;
#405 = CARTESIAN_POINT ( 'NONE',  ( 1.366003243477517502E-15, 2.499999999996928235, 2.899999999999987477 ) ) ;
#406 = ORIENTED_EDGE ( 'NONE', *, *, #225, .F. ) ;
#407 = AXIS2_PLACEMENT_3D ( 'NONE', #320, #451, #339 ) ;
#408 = CC_DESIGN_APPROVAL ( #542, ( #581 ) ) ;
#409 = DIRECTION ( 'NONE',  ( 0.000000000000000000, 1.000000000000000000, 0.000000000000000000 ) ) ;
#410 = ADVANCED_FACE ( 'NONE', ( #6 ), #83, .F. ) ;
#411 = DIRECTION ( 'NONE',  ( 0.000000000000000000, -1.000000000000000000, 0.000000000000000000 ) ) ;
#412 = ADVANCED_FACE ( 'NONE', ( #92 ), #43, .F. ) ;
#413 = CIRCLE ( 'NONE', #154, 2.100000000000000089 ) ;
#414 = EDGE_CURVE ( 'NONE', #386, #168, #115, .T. ) ;
#415 = CARTESIAN_POINT ( 'NONE',  ( -0.1301270189221822582, 2.539038105673582901, -0.4000000000000196176 ) ) ;
#416 = CARTESIAN_POINT ( 'NONE',  ( 4.249999999999994671, 3.774999999996922817, -2.124999999999995559 ) ) ;
#417 = PERSON_AND_ORGANIZATION_ROLE ( 'creator' ) ;
#418 = CARTESIAN_POINT ( 'NONE',  ( 1.366003243477517502E-15, 2.499999999996928235, -14.00999999999999979 ) ) ;
#419 = VECTOR ( 'NONE', #309, 1000.000000000000000 ) ;
#420 = DIRECTION ( 'NONE',  ( -0.000000000000000000, -1.000000000000000000, -0.000000000000000000 ) ) ;
#421 = PERSON_AND_ORGANIZATION_ROLE ( 'classification_officer' ) ;
#422 = CARTESIAN_POINT ( 'NONE',  ( 1.224646799147353059E-15, -8.949999999999999289, -10.00000000000000000 ) ) ;
#423 = PRODUCT_RELATED_PRODUCT_CATEGORY ( 'detail', '', ( #36 ) ) ;
#424 = CARTESIAN_POINT ( 'NONE',  ( -4.330127018922182103, 3.799038105673582244, -0.4000000000000192846 ) ) ;
#425 = FACE_OUTER_BOUND ( 'NONE', #397, .T. ) ;
#426 = ORIENTED_EDGE ( 'NONE', *, *, #476, .F. ) ;
#427 = DIRECTION ( 'NONE',  ( 0.000000000000000000, 0.000000000000000000, -1.000000000000000000 ) ) ;
#428 = ORIENTED_EDGE ( 'NONE', *, *, #530, .F. ) ;
#429 = VERTEX_POINT ( 'NONE', #12 ) ;
#430 = VECTOR ( 'NONE', #595, 1000.000000000000000 ) ;
#431 = CARTESIAN_POINT ( 'NONE',  ( 1.366003243477517502E-15, 2.499999999996928235, 2.124999999999996891 ) ) ;
#432 = LOCAL_TIME ( 12, 29, 31.00000000000000000, #292 ) ;
#433 = VERTEX_POINT ( 'NONE', #548 ) ;
#434 = CARTESIAN_POINT ( 'NONE',  ( -13.66872037914690452, 6.600616113741001989, -6.881590357894502574 ) ) ;
#435 = EDGE_CURVE ( 'NONE', #433, #37, #199, .T. ) ;
#436 = CARTESIAN_POINT ( 'NONE',  ( 0.000000000000000000, -8.949999999999999289, 2.899999999999999911 ) ) ;
#437 = EDGE_LOOP ( 'NONE', ( #95, #348 ) ) ;
#438 = VERTEX_POINT ( 'NONE', #366 ) ;
#439 = CARTESIAN_POINT ( 'NONE',  ( 1.366003243477517502E-15, 2.499999999996928235, -14.00999999999999979 ) ) ;
#440 = FACE_OUTER_BOUND ( 'NONE', #350, .T. ) ;
#441 = CARTESIAN_POINT ( 'NONE',  ( 0.3319951462397505160, 2.599598543868852474, 8.530417279381918405 ) ) ;
#442 = VECTOR ( 'NONE', #420, 1000.000000000000000 ) ;
#443 = DIRECTION ( 'NONE',  ( 0.000000000000000000, -0.000000000000000000, -1.000000000000000000 ) ) ;
#444 = ORIENTED_EDGE ( 'NONE', *, *, #282, .F. ) ;
#445 = FACE_OUTER_BOUND ( 'NONE', #31, .T. ) ;
#446 = CARTESIAN_POINT ( 'NONE',  ( -4.249999999999999112, 3.774999999996928146, 2.124999999999999112 ) ) ;
#447 = CARTESIAN_POINT ( 'NONE',  ( 0.000000000000000000, -8.949999999999999289, -2.125000000000000000 ) ) ;
#448 = CARTESIAN_POINT ( 'NONE',  ( 1.366003243477517502E-15, 2.499999999996928235, -2.125000000000003553 ) ) ;
#449 = AXIS2_PLACEMENT_3D ( 'NONE', #237, #110, #571 ) ;
#450 = CARTESIAN_POINT ( 'NONE',  ( 0.000000000000000000, 0.000000000000000000, 0.000000000000000000 ) ) ;
#451 = DIRECTION ( 'NONE',  ( 0.000000000000000000, -1.000000000000000000, 0.000000000000000000 ) ) ;
#452 = APPROVAL ( #533, 'UNSPECIFIED' ) ;
#453 = CARTESIAN_POINT ( 'NONE',  ( 1.366003243477517502E-15, 2.499999999996928235, 7.099999999999989875 ) ) ;
#454 = VECTOR ( 'NONE', #462, 1000.000000000000000 ) ;
#455 = DIRECTION ( 'NONE',  ( 0.000000000000000000, -1.000000000000000000, 0.000000000000000000 ) ) ;
#456 = APPROVAL_PERSON_ORGANIZATION ( #109, #452, #113 ) ;
#457 = ADVANCED_FACE ( 'NONE', ( #178, #360 ), #9, .F. ) ;
#458 = AXIS2_PLACEMENT_3D ( 'NONE', #139, #40, #351 ) ;
#459 = DIRECTION ( 'NONE',  ( 0.000000000000000000, 1.000000000000000000, 0.000000000000000000 ) ) ;
#460 = CARTESIAN_POINT ( 'NONE',  ( -4.200000000000001954, 3.759999999996928022, 2.900000000000001243 ) ) ;
#461 = DATE_AND_TIME ( #147, #64 ) ;
#462 = DIRECTION ( 'NONE',  ( 0.000000000000000000, 0.000000000000000000, 1.000000000000000000 ) ) ;
#463 = VERTEX_POINT ( 'NONE', #554 ) ;
#464 = PERSON_AND_ORGANIZATION_ROLE ( 'creator' ) ;
#465 = CARTESIAN_POINT ( 'NONE',  ( 4.330127018922181215, -8.949999999999999289, -2.500000000000022204 ) ) ;
#466 = ORIENTED_EDGE ( 'NONE', *, *, #49, .T. ) ;
#467 = AXIS2_PLACEMENT_3D ( 'NONE', #258, #2, #176 ) ;
#468 = CARTESIAN_POINT ( 'NONE',  ( 4.199999999999994849, 3.759999999996923581, 2.900000000000004352 ) ) ;
#469 = EDGE_CURVE ( 'NONE', #77, #479, #537, .T. ) ;
#470 = FACE_OUTER_BOUND ( 'NONE', #162, .T. ) ;
#471 = ORIENTED_EDGE ( 'NONE', *, *, #263, .F. ) ;
#472 = ORIENTED_EDGE ( 'NONE', *, *, #170, .F. ) ;
#473 = CARTESIAN_POINT ( 'NONE',  ( -8.530127018922181392, 5.059038105673581143, -0.4000000000000190070 ) ) ;
#474 = APPROVAL_ROLE ( '' ) ;
#475 = ORIENTED_EDGE ( 'NONE', *, *, #577, .T. ) ;
#476 = EDGE_CURVE ( 'NONE', #356, #429, #295, .T. ) ;
#477 = ORIENTED_EDGE ( 'NONE', *, *, #379, .F. ) ;
#478 = DIRECTION ( 'NONE',  ( 0.000000000000000000, 0.000000000000000000, 1.000000000000000000 ) ) ;
#479 = VERTEX_POINT ( 'NONE', #278 ) ;
#480 = EDGE_CURVE ( 'NONE', #168, #389, #58, .T. ) ;
#481 = AXIS2_PLACEMENT_3D ( 'NONE', #27, #236, #24 ) ;
#482 = APPROVAL_PERSON_ORGANIZATION ( #160, #523, #474 ) ;
#483 = ORIENTED_EDGE ( 'NONE', *, *, #191, .F. ) ;
#484 = FACE_OUTER_BOUND ( 'NONE', #327, .T. ) ;
#485 = VERTEX_POINT ( 'NONE', #255 ) ;
#486 = VECTOR ( 'NONE', #177, 1000.000000000000000 ) ;
#487 = FACE_BOUND ( 'NONE', #122, .T. ) ;
#488 = EDGE_CURVE ( 'NONE', #114, #214, #346, .T. ) ;
#489 = CLOSED_SHELL ( 'NONE', ( #4, #219, #201, #410, #19, #349, #457, #371, #504, #302, #404, #412, #569, #208, #562, #213 ) ) ;
#490 = VERTEX_POINT ( 'NONE', #447 ) ;
#491 = DIRECTION ( 'NONE',  ( 0.000000000000000000, 0.000000000000000000, -1.000000000000000000 ) ) ;
#492 = ORIENTED_EDGE ( 'NONE', *, *, #469, .F. ) ;
#493 = CARTESIAN_POINT ( 'NONE',  ( 1.000000000000000000, 0.000000000000000000, 0.000000000000000000 ) ) ;
#494 = PERSON ( 'UNSPECIFIED', 'UNSPECIFIED', 'UNSPECIFIED', ('UNSPECIFIED'), ('UNSPECIFIED'), ('UNSPECIFIED') ) ;
#495 = DIRECTION ( 'NONE',  ( 0.000000000000000000, -1.000000000000000000, 0.000000000000000000 ) ) ;
#496 = CARTESIAN_POINT ( 'NONE',  ( 0.000000000000000000, 0.000000000000000000, 0.000000000000000000 ) ) ;
#497 = VERTEX_POINT ( 'NONE', #363 ) ;
#498 = AXIS2_PLACEMENT_3D ( 'NONE', #328, #23, #189 ) ;
#499 = CARTESIAN_POINT ( 'NONE',  ( -4.330127018922182103, 3.799038105673582244, -4.600000000000020073 ) ) ;
#500 = CARTESIAN_POINT ( 'NONE',  ( 18.09999999999998721, 7.929999999996922178, -8.549999999999998934 ) ) ;
#501 = DIRECTION ( 'NONE',  ( 0.000000000000000000, 0.000000000000000000, -1.000000000000000000 ) ) ;
#502 = CYLINDRICAL_SURFACE ( 'NONE', #370, 8.549999999999997158 ) ;
#503 = DIRECTION ( 'NONE',  ( -0.2873478855663453291, -0.9578262852211514300, 0.000000000000000000 ) ) ;
#504 = ADVANCED_FACE ( 'NONE', ( #445 ), #559, .F. ) ;
#505 = MECHANICAL_CONTEXT ( 'NONE', #365, 'mechanical' ) ;
#506 = EDGE_LOOP ( 'NONE', ( #68, #218, #14, #28 ) ) ;
#507 = CARTESIAN_POINT ( 'NONE',  ( 0.000000000000000000, 0.000000000000000000, 0.000000000000000000 ) ) ;
#508 = EDGE_CURVE ( 'NONE', #301, #549, #378, .T. ) ;
#509 = VECTOR ( 'NONE', #90, 1000.000000000000000 ) ;
#510 = CARTESIAN_POINT ( 'NONE',  ( 0.1301270189221805096, 2.539038105673578904, -0.4000000000000207834 ) ) ;
#511 = ORIENTED_EDGE ( 'NONE', *, *, #242, .F. ) ;
#512 =( BOUNDED_CURVE ( )  B_SPLINE_CURVE ( 3, ( #387, #468, #65, #332 ),
 .UNSPECIFIED., .F., .F. ) 
 B_SPLINE_CURVE_WITH_KNOTS ( ( 4, 4 ),
 ( 1.570796326794897668, 4.712388980384688786 ),
 .UNSPECIFIED. ) 
 CURVE ( )  GEOMETRIC_REPRESENTATION_ITEM ( )  RATIONAL_B_SPLINE_CURVE ( ( 1.000000000000000000, 0.3333333333333339810, 0.3333333333333339810, 1.000000000000000000 ) ) 
 REPRESENTATION_ITEM ( '' )  );
#513 = EDGE_CURVE ( 'NONE', #206, #304, #20, .T. ) ;
#514 = DIRECTION ( 'NONE',  ( 0.000000000000000000, 1.000000000000000000, 0.000000000000000000 ) ) ;
#515 = CARTESIAN_POINT ( 'NONE',  ( 0.000000000000000000, 31.50000000000000000, 2.899999999999999911 ) ) ;
#516 = CC_DESIGN_DATE_AND_TIME_ASSIGNMENT ( #281, #333, ( #572 ) ) ;
#517 = CIRCLE ( 'NONE', #593, 10.00000000000000000 ) ;
#518 = VECTOR ( 'NONE', #75, 1000.000000000000000 ) ;
#519 = CARTESIAN_POINT ( 'NONE',  ( 0.000000000000000000, -8.949999999999999289, 0.000000000000000000 ) ) ;
#520 = CARTESIAN_POINT ( 'NONE',  ( 1.000000000000001110, 0.000000000000000000, 8.549999999999997158 ) ) ;
#521 = CARTESIAN_POINT ( 'NONE',  ( -4.330127018922182103, 31.50000000000000000, -4.600000000000020073 ) ) ;
#522 = APPROVAL_STATUS ( 'not_yet_approved' ) ;
#523 = APPROVAL ( #522, 'UNSPECIFIED' ) ;
#524 = CARTESIAN_POINT ( 'NONE',  ( 4.330127018922181215, 3.799038105673578691, -4.600000000000022737 ) ) ;
#525 = DATE_AND_TIME ( #284, #55 ) ;
#526 = FACE_OUTER_BOUND ( 'NONE', #334, .T. ) ;
#527 = VECTOR ( 'NONE', #398, 1000.000000000000000 ) ;
#528 = AXIS2_PLACEMENT_3D ( 'NONE', #536, #300, #128 ) ;
#529 = ORIENTED_EDGE ( 'NONE', *, *, #74, .F. ) ;
#530 = EDGE_CURVE ( 'NONE', #114, #168, #143, .T. ) ;
#531 = ORIENTED_EDGE ( 'NONE', *, *, #104, .F. ) ;
#532 = CYLINDRICAL_SURFACE ( 'NONE', #131, 10.00000000000000000 ) ;
#533 = APPROVAL_STATUS ( 'not_yet_approved' ) ;
#534 = EDGE_LOOP ( 'NONE', ( #341, #111 ) ) ;
#535 = ORIENTED_EDGE ( 'NONE', *, *, #106, .T. ) ;
#536 = CARTESIAN_POINT ( 'NONE',  ( 1.000000000000000000, 7.000000000000000000, 0.000000000000000000 ) ) ;
#537 = CIRCLE ( 'NONE', #550, 10.00000000000000000 ) ;
#538 = CC_DESIGN_APPROVAL ( #452, ( #572 ) ) ;
#539 = CARTESIAN_POINT ( 'NONE',  ( 1.000000000000001110, 2.799999999996927169, 8.549999999999997158 ) ) ;
#540 = CARTESIAN_POINT ( 'NONE',  ( 2.602374448188125350E-16, 30.75000000000000000, 2.125000000000000000 ) ) ;
#541 = ORIENTED_EDGE ( 'NONE', *, *, #67, .T. ) ;
#542 = APPROVAL ( #238, 'UNSPECIFIED' ) ;
#543 = CARTESIAN_POINT ( 'NONE',  ( 1.000000000000000000, 2.799999999996927169, -8.549999999999997158 ) ) ;
#544 = ORIENTED_EDGE ( 'NONE', *, *, #63, .T. ) ;
#545 = FACE_OUTER_BOUND ( 'NONE', #335, .T. ) ;
#546 = DIRECTION ( 'NONE',  ( 0.000000000000000000, 0.000000000000000000, 1.000000000000000000 ) ) ;
#547 = LINE ( 'NONE', #89, #430 ) ;
#548 = CARTESIAN_POINT ( 'NONE',  ( 1.000000000000000000, 2.799999999996927169, -8.549999999999997158 ) ) ;
#549 = VERTEX_POINT ( 'NONE', #133 ) ;
#550 = AXIS2_PLACEMENT_3D ( 'NONE', #450, #136, #318 ) ;
#551 = CARTESIAN_POINT ( 'NONE',  ( 18.09999999999998721, 7.929999999996922178, 8.549999999999993605 ) ) ;
#552 = EDGE_CURVE ( 'NONE', #438, #485, #123, .T. ) ;
#553 = CARTESIAN_POINT ( 'NONE',  ( 4.330127018922181215, 31.50000000000000000, -4.600000000000022737 ) ) ;
#554 = CARTESIAN_POINT ( 'NONE',  ( -4.330127018922182103, -8.949999999999999289, -4.600000000000020073 ) ) ;
#555 = EDGE_CURVE ( 'NONE', #386, #29, #220, .T. ) ;
#556 = CARTESIAN_POINT ( 'NONE',  ( 1.000000000000000000, 0.000000000000000000, -8.549999999999997158 ) ) ;
#557 = CARTESIAN_POINT ( 'NONE',  ( 4.330127018922181215, 31.50000000000000000, -0.4000000000000214495 ) ) ;
#558 =( BOUNDED_CURVE ( )  B_SPLINE_CURVE ( 3, ( #574, #330, #416, #66 ),
 .UNSPECIFIED., .F., .F. ) 
 B_SPLINE_CURVE_WITH_KNOTS ( ( 4, 4 ),
 ( 1.570796326794897668, 4.712388980384688786 ),
 .UNSPECIFIED. ) 
 CURVE ( )  GEOMETRIC_REPRESENTATION_ITEM ( )  RATIONAL_B_SPLINE_CURVE ( ( 1.000000000000000000, 0.3333333333333339810, 0.3333333333333339810, 1.000000000000000000 ) ) 
 REPRESENTATION_ITEM ( '' )  );
#559 = CYLINDRICAL_SURFACE ( 'NONE', #367, 2.100000000000000089 ) ;
#560 = MANIFOLD_SOLID_BREP ( 'Stock-Eccentric Shaft-1', #489 ) ;
#561 = CARTESIAN_POINT ( 'NONE',  ( 1.000000000000000000, 7.000000000000000000, 0.000000000000000000 ) ) ;
#562 = ADVANCED_FACE ( 'NONE', ( #545 ), #390, .T. ) ;
#563 = ORGANIZATION ( 'UNSPECIFIED', 'UNSPECIFIED', '' ) ;
#564 = DIRECTION ( 'NONE',  ( 0.000000000000000000, 0.000000000000000000, 1.000000000000000000 ) ) ;
#565 = FACE_BOUND ( 'NONE', #534, .T. ) ;
#566 = DIRECTION ( 'NONE',  ( 0.000000000000000000, 0.000000000000000000, 1.000000000000000000 ) ) ;
#567 = COORDINATED_UNIVERSAL_TIME_OFFSET ( 5, 0, .BEHIND. ) ;
#568 = VECTOR ( 'NONE', #345, 1000.000000000000000 ) ;
#569 = ADVANCED_FACE ( 'NONE', ( #91, #484 ), #307, .F. ) ;
#570 = LOCAL_TIME ( 12, 29, 31.00000000000000000, #197 ) ;
#571 = DIRECTION ( 'NONE',  ( 0.000000000000000000, 0.000000000000000000, -1.000000000000000000 ) ) ;
#572 = PRODUCT_DEFINITION ( 'UNKNOWN', '', #169, #369 ) ;
#573 = APPROVAL_DATE_TIME ( #525, #452 ) ;
#574 = CARTESIAN_POINT ( 'NONE',  ( 1.366003243477517502E-15, 2.499999999996928235, 2.124999999999996891 ) ) ;
#575 = ORIENTED_EDGE ( 'NONE', *, *, #469, .T. ) ;
#576 = CARTESIAN_POINT ( 'NONE',  ( -4.330127018922182103, 3.799038105673582244, -4.600000000000020073 ) ) ;
#577 = EDGE_CURVE ( 'NONE', #343, #463, #413, .T. ) ;
#578 = AXIS2_PLACEMENT_3D ( 'NONE', #291, #69, #247 ) ;
#579 = EDGE_LOOP ( 'NONE', ( #511, #248, #61, #492 ) ) ;
#580 = CARTESIAN_POINT ( 'NONE',  ( 1.224646799147353059E-15, -8.949999999999999289, -10.00000000000000000 ) ) ;
#581 = SECURITY_CLASSIFICATION ( '', '', #62 ) ;
#582 = FACE_OUTER_BOUND ( 'NONE', #579, .T. ) ;
#583 = CC_DESIGN_PERSON_AND_ORGANIZATION_ASSIGNMENT ( #16, #193, ( #169 ) ) ;
#584 = ORIENTED_EDGE ( 'NONE', *, *, #552, .F. ) ;
#585 = EDGE_LOOP ( 'NONE', ( #541, #594, #8, #477 ) ) ;
#586 = CARTESIAN_POINT ( 'NONE',  ( 8.530127018922181392, 5.059038105673578478, -4.600000000000022737 ) ) ;
#587 = VERTEX_POINT ( 'NONE', #556 ) ;
#588 = DIRECTION ( 'NONE',  ( 0.000000000000000000, -1.000000000000000000, 0.000000000000000000 ) ) ;
#589 = ORIENTED_EDGE ( 'NONE', *, *, #175, .F. ) ;
#590 = FACE_OUTER_BOUND ( 'NONE', #403, .T. ) ;
#591 = DIRECTION ( 'NONE',  ( 0.000000000000000000, 0.000000000000000000, -1.000000000000000000 ) ) ;
#592 = EDGE_LOOP ( 'NONE', ( #73, #253 ) ) ;
#593 = AXIS2_PLACEMENT_3D ( 'NONE', #507, #409, #546 ) ;
#594 = ORIENTED_EDGE ( 'NONE', *, *, #488, .T. ) ;
#595 = DIRECTION ( 'NONE',  ( 0.000000000000000000, -1.000000000000000000, 0.000000000000000000 ) ) ;
#596 = ORIENTED_EDGE ( 'NONE', *, *, #63, .F. ) ;
ENDSEC;
END-ISO-10303-21;
