ISO-10303-21;
HEADER;
FILE_DESCRIPTION (( 'STEP AP203' ),
    '1' );
FILE_NAME ('ES2.STEP',
    '2026-08-25T17:41:00',
    ( '' ),
    ( '' ),
    'SwSTEP 2.0',
    'SolidWorks 2025',
    '' );
FILE_SCHEMA (( 'CONFIG_CONTROL_DESIGN' ));
ENDSEC;

DATA;
#1 = CARTESIAN_POINT ( 'NONE',  ( -5.000000000000000000, 26.00000000000000000, 2.100000000000000089 ) ) ;
#2 = VERTEX_POINT ( 'NONE', #430 ) ;
#3 = EDGE_CURVE ( 'NONE', #381, #278, #38, .T. ) ;
#4 = ADVANCED_FACE ( 'NONE', ( #212, #170, #245, #427, #560 ), #338, .T. ) ;
#5 = CARTESIAN_POINT ( 'NONE',  ( 5.000000000000000000, 6.999999999999999112, 2.100000000000000089 ) ) ;
#6 = EDGE_LOOP ( 'NONE', ( #591, #36 ) ) ;
#7 = ADVANCED_FACE ( 'NONE', ( #401 ), #403, .F. ) ;
#8 = CC_DESIGN_DATE_AND_TIME_ASSIGNMENT ( #404, #150, ( #446 ) ) ;
#9 = AXIS2_PLACEMENT_3D ( 'NONE', #199, #339, #301 ) ;
#10 = DIRECTION ( 'NONE',  ( -0.000000000000000000, 1.000000000000000000, 0.000000000000000000 ) ) ;
#11 = VERTEX_POINT ( 'NONE', #172 ) ;
#12 = AXIS2_PLACEMENT_3D ( 'NONE', #88, #357, #349 ) ;
#13 = CARTESIAN_POINT ( 'NONE',  ( -5.000000000000000000, 26.00000000000000000, -2.100000000000000089 ) ) ;
#14 = ORIENTED_EDGE ( 'NONE', *, *, #73, .T. ) ;
#15 = CARTESIAN_POINT ( 'NONE',  ( -0.5000000000000041078, 11.00000000000000000, 0.8660254037844363761 ) ) ;
#16 = ORIENTED_EDGE ( 'NONE', *, *, #422, .T. ) ;
#17 = CARTESIAN_POINT ( 'NONE',  ( 0.000000000000000000, 11.00000000000000000, 0.000000000000000000 ) ) ;
#18 = ORIENTED_EDGE ( 'NONE', *, *, #554, .F. ) ;
#19 = VECTOR ( 'NONE', #124, 1000.000000000000000 ) ;
#20 = CARTESIAN_POINT ( 'NONE',  ( -5.000000000000000000, 6.999999999999999112, 0.000000000000000000 ) ) ;
#21 = ORIENTED_EDGE ( 'NONE', *, *, #134, .T. ) ;
#22 = DESIGN_CONTEXT ( 'detailed design', #468, 'design' ) ;
#23 = FACE_OUTER_BOUND ( 'NONE', #369, .T. ) ;
#24 = VERTEX_POINT ( 'NONE', #399 ) ;
#25 = ADVANCED_FACE ( 'NONE', ( #265 ), #490, .F. ) ;
#26 = APPROVAL_ROLE ( '' ) ;
#27 = DIRECTION ( 'NONE',  ( 0.000000000000000000, 0.000000000000000000, 1.000000000000000000 ) ) ;
#28 = CIRCLE ( 'NONE', #117, 2.125000000000000000 ) ;
#29 = LOCAL_TIME ( 13, 41, 0.000000000000000000, #146 ) ;
#30 = CARTESIAN_POINT ( 'NONE',  ( -0.5000000000000041078, 11.00000000000000000, -7.583974596215562691 ) ) ;
#31 =( NAMED_UNIT ( * ) SI_UNIT ( $, .STERADIAN. ) SOLID_ANGLE_UNIT ( ) );
#32 = DIRECTION ( 'NONE',  ( 0.000000000000000000, 0.000000000000000000, -1.000000000000000000 ) ) ;
#33 = ADVANCED_FACE ( 'NONE', ( #314 ), #180, .F. ) ;
#34 = CARTESIAN_POINT ( 'NONE',  ( -5.000000000000000000, 18.00000000000000000, 0.000000000000000000 ) ) ;
#35 = CARTESIAN_POINT ( 'NONE',  ( -0.5000000000000041078, 11.00000000000000000, 0.8660254037844363761 ) ) ;
#36 = ORIENTED_EDGE ( 'NONE', *, *, #472, .F. ) ;
#37 = DIRECTION ( 'NONE',  ( 0.000000000000000000, 0.000000000000000000, 1.000000000000000000 ) ) ;
#38 = CIRCLE ( 'NONE', #444, 8.449999999999999289 ) ;
#39 = CARTESIAN_POINT ( 'NONE',  ( 7.055092401879642594, 11.00000000000000000, 4.650609766572565640 ) ) ;
#40 = CC_DESIGN_APPROVAL ( #580, ( #446 ) ) ;
#41 = CARTESIAN_POINT ( 'NONE',  ( -5.000000000000000000, 18.00000000000000000, 2.100000000000000089 ) ) ;
#42 = APPROVAL_ROLE ( '' ) ;
#43 = EDGE_CURVE ( 'NONE', #267, #526, #133, .T. ) ;
#44 = AXIS2_PLACEMENT_3D ( 'NONE', #447, #217, #582 ) ;
#45 = APPROVAL ( #48, 'UNSPECIFIED' ) ;
#46 = CARTESIAN_POINT ( 'NONE',  ( 0.000000000000000000, 11.00000000000000000, 0.000000000000000000 ) ) ;
#47 = ORIENTED_EDGE ( 'NONE', *, *, #236, .T. ) ;
#48 = APPROVAL_STATUS ( 'not_yet_approved' ) ;
#49 = AXIS2_PLACEMENT_3D ( 'NONE', #410, #416, #60 ) ;
#50 = CARTESIAN_POINT ( 'NONE',  ( 0.000000000000000000, 30.75000000000000000, -2.125000000000000000 ) ) ;
#51 = VERTEX_POINT ( 'NONE', #30 ) ;
#52 = AXIS2_PLACEMENT_3D ( 'NONE', #255, #516, #197 ) ;
#53 = PRODUCT ( 'ES2', 'ES2', '', ( #309 ) ) ;
#54 = PLANE ( 'NONE',  #292 ) ;
#55 = ORIENTED_EDGE ( 'NONE', *, *, #266, .T. ) ;
#56 = EDGE_CURVE ( 'NONE', #11, #381, #215, .T. ) ;
#57 = CARTESIAN_POINT ( 'NONE',  ( 5.000000000000000000, 18.00000000000000000, 0.000000000000000000 ) ) ;
#58 = ORIENTED_EDGE ( 'NONE', *, *, #328, .F. ) ;
#59 = AXIS2_PLACEMENT_3D ( 'NONE', #46, #229, #545 ) ;
#60 = DIRECTION ( 'NONE',  ( 0.000000000000000000, 0.000000000000000000, 1.000000000000000000 ) ) ;
#61 = CIRCLE ( 'NONE', #85, 8.449999999999999289 ) ;
#62 = ORIENTED_EDGE ( 'NONE', *, *, #493, .T. ) ;
#63 = CIRCLE ( 'NONE', #402, 8.449999999999999289 ) ;
#64 = CARTESIAN_POINT ( 'NONE',  ( 0.000000000000000000, 29.00000000000000000, 0.000000000000000000 ) ) ;
#65 = VERTEX_POINT ( 'NONE', #482 ) ;
#66 = CARTESIAN_POINT ( 'NONE',  ( 0.000000000000000000, 6.999999999999999112, 5.000000000000000000 ) ) ;
#67 = DIRECTION ( 'NONE',  ( 0.000000000000000000, -0.000000000000000000, 1.000000000000000000 ) ) ;
#68 = LINE ( 'NONE', #13, #418 ) ;
#69 = ORIENTED_EDGE ( 'NONE', *, *, #179, .F. ) ;
#70 = DIRECTION ( 'NONE',  ( 0.000000000000000000, 1.000000000000000000, -0.000000000000000000 ) ) ;
#71 = VERTEX_POINT ( 'NONE', #41 ) ;
#72 = EDGE_CURVE ( 'NONE', #148, #51, #227, .T. ) ;
#73 = EDGE_CURVE ( 'NONE', #414, #250, #313, .T. ) ;
#74 = CARTESIAN_POINT ( 'NONE',  ( -5.000000000000000000, 26.00000000000000000, 0.000000000000000000 ) ) ;
#75 = ORIENTED_EDGE ( 'NONE', *, *, #422, .F. ) ;
#76 = CARTESIAN_POINT ( 'NONE',  ( -0.5000000000000029976, 18.00000000000000000, 9.316025403784434999 ) ) ;
#77 = DIRECTION ( 'NONE',  ( 0.000000000000000000, 1.000000000000000000, 0.000000000000000000 ) ) ;
#78 = AXIS2_PLACEMENT_3D ( 'NONE', #586, #130, #536 ) ;
#79 = CARTESIAN_POINT ( 'NONE',  ( -5.000000000000000000, 18.00000000000000000, -2.100000000000000089 ) ) ;
#80 = AXIS2_PLACEMENT_3D ( 'NONE', #17, #208, #298 ) ;
#81 = DIRECTION ( 'NONE',  ( 0.000000000000000000, 0.000000000000000000, -1.000000000000000000 ) ) ;
#82 = AXIS2_PLACEMENT_3D ( 'NONE', #531, #439, #225 ) ;
#83 = FACE_OUTER_BOUND ( 'NONE', #119, .T. ) ;
#84 = CARTESIAN_POINT ( 'NONE',  ( 2.602374448188125350E-16, 30.75000000000000000, 2.125000000000000000 ) ) ;
#85 = AXIS2_PLACEMENT_3D ( 'NONE', #316, #77, #436 ) ;
#86 = DIRECTION ( 'NONE',  ( -0.000000000000000000, 1.000000000000000000, 0.000000000000000000 ) ) ;
#87 = CARTESIAN_POINT ( 'NONE',  ( 0.000000000000000000, 30.75000000000000000, 0.000000000000000000 ) ) ;
#88 = CARTESIAN_POINT ( 'NONE',  ( -0.5000000000000041078, 18.00000000000000000, 0.8660254037844363761 ) ) ;
#89 = CYLINDRICAL_SURFACE ( 'NONE', #78, 2.100000000000000089 ) ;
#90 = EDGE_CURVE ( 'NONE', #434, #148, #564, .T. ) ;
#91 = CC_DESIGN_PERSON_AND_ORGANIZATION_ASSIGNMENT ( #214, #173, ( #53 ) ) ;
#92 = DATE_AND_TIME ( #370, #377 ) ;
#93 = DIRECTION ( 'NONE',  ( 0.000000000000000000, 0.000000000000000000, 1.000000000000000000 ) ) ;
#94 = EDGE_CURVE ( 'NONE', #142, #392, #534, .T. ) ;
#95 = ORIENTED_EDGE ( 'NONE', *, *, #390, .F. ) ;
#96 = CALENDAR_DATE ( 2026, 25, 8 ) ;
#97 = CARTESIAN_POINT ( 'NONE',  ( -5.000000000000000000, 26.00000000000000000, 0.000000000000000000 ) ) ;
#98 = ORIENTED_EDGE ( 'NONE', *, *, #221, .T. ) ;
#99 = EDGE_CURVE ( 'NONE', #278, #381, #61, .T. ) ;
#100 = CARTESIAN_POINT ( 'NONE',  ( 0.000000000000000000, 6.999999999999999112, 0.000000000000000000 ) ) ;
#101 = CC_DESIGN_PERSON_AND_ORGANIZATION_ASSIGNMENT ( #593, #506, ( #543 ) ) ;
#102 = EDGE_LOOP ( 'NONE', ( #95, #18 ) ) ;
#103 = FACE_OUTER_BOUND ( 'NONE', #583, .T. ) ;
#104 = ORIENTED_EDGE ( 'NONE', *, *, #73, .F. ) ;
#105 = DIRECTION ( 'NONE',  ( -0.000000000000000000, -1.000000000000000000, 0.000000000000000000 ) ) ;
#106 = EDGE_LOOP ( 'NONE', ( #417, #443, #291, #69 ) ) ;
#107 = AXIS2_PLACEMENT_3D ( 'NONE', #144, #332, #458 ) ;
#108 = FACE_OUTER_BOUND ( 'NONE', #563, .T. ) ;
#109 = ORIENTED_EDGE ( 'NONE', *, *, #257, .F. ) ;
#110 = CC_DESIGN_APPROVAL ( #45, ( #429 ) ) ;
#111 = CARTESIAN_POINT ( 'NONE',  ( 5.000000000000000000, 26.00000000000000000, -2.100000000000000089 ) ) ;
#112 = ORIENTED_EDGE ( 'NONE', *, *, #352, .T. ) ;
#113 = AXIS2_PLACEMENT_3D ( 'NONE', #248, #470, #67 ) ;
#114 = DIRECTION ( 'NONE',  ( 0.000000000000000000, 0.000000000000000000, 1.000000000000000000 ) ) ;
#115 = ORIENTED_EDGE ( 'NONE', *, *, #240, .T. ) ;
#116 = FACE_OUTER_BOUND ( 'NONE', #200, .T. ) ;
#117 = AXIS2_PLACEMENT_3D ( 'NONE', #280, #460, #237 ) ;
#118 = EDGE_CURVE ( 'NONE', #51, #333, #547, .T. ) ;
#119 = EDGE_LOOP ( 'NONE', ( #218, #242, #459, #302, #112 ) ) ;
#120 = LOCAL_TIME ( 13, 41, 0.000000000000000000, #544 ) ;
#121 = CARTESIAN_POINT ( 'NONE',  ( -0.5000000000000029976, 11.00000000000000000, 9.316025403784434999 ) ) ;
#122 = EDGE_LOOP ( 'NONE', ( #47, #576 ) ) ;
#123 = CYLINDRICAL_SURFACE ( 'NONE', #12, 8.449999999999999289 ) ;
#124 = DIRECTION ( 'NONE',  ( 0.000000000000000000, -1.000000000000000000, 0.000000000000000000 ) ) ;
#125 = CARTESIAN_POINT ( 'NONE',  ( -0.5000000000000041078, 18.00000000000000000, -7.583974596215562691 ) ) ;
#126 = CARTESIAN_POINT ( 'NONE',  ( 0.000000000000000000, 6.999999999999999112, 0.000000000000000000 ) ) ;
#127 = VECTOR ( 'NONE', #147, 1000.000000000000000 ) ;
#128 = APPLICATION_PROTOCOL_DEFINITION ( 'international standard', 'config_control_design', 1994, #468 ) ;
#129 = AXIS2_PLACEMENT_3D ( 'NONE', #537, #577, #315 ) ;
#130 = DIRECTION ( 'NONE',  ( 0.000000000000000000, -1.000000000000000000, 0.000000000000000000 ) ) ;
#131 = DIRECTION ( 'NONE',  ( -0.000000000000000000, -1.000000000000000000, -0.000000000000000000 ) ) ;
#132 = CARTESIAN_POINT ( 'NONE',  ( -5.000000000000000000, 6.999999999999999112, -2.100000000000000089 ) ) ;
#133 = LINE ( 'NONE', #269, #584 ) ;
#134 = EDGE_CURVE ( 'NONE', #351, #520, #201, .T. ) ;
#135 = ORIENTED_EDGE ( 'NONE', *, *, #90, .T. ) ;
#136 = CIRCLE ( 'NONE', #211, 2.100000000000000089 ) ;
#137 = CARTESIAN_POINT ( 'NONE',  ( 0.000000000000000000, 18.00000000000000000, 0.000000000000000000 ) ) ;
#138 = LOCAL_TIME ( 13, 41, 0.000000000000000000, #533 ) ;
#139 = PERSON ( 'UNSPECIFIED', 'UNSPECIFIED', 'UNSPECIFIED', ('UNSPECIFIED'), ('UNSPECIFIED'), ('UNSPECIFIED') ) ;
#140 = FACE_OUTER_BOUND ( 'NONE', #556, .T. ) ;
#141 = AXIS2_PLACEMENT_3D ( 'NONE', #575, #538, #32 ) ;
#142 = VERTEX_POINT ( 'NONE', #358 ) ;
#143 = ADVANCED_FACE ( 'NONE', ( #398 ), #89, .F. ) ;
#144 = CARTESIAN_POINT ( 'NONE',  ( 5.000000000000000000, 6.999999999999999112, 0.000000000000000000 ) ) ;
#145 = VERTEX_POINT ( 'NONE', #132 ) ;
#146 = COORDINATED_UNIVERSAL_TIME_OFFSET ( 5, 0, .BEHIND. ) ;
#147 = DIRECTION ( 'NONE',  ( -0.000000000000000000, -1.000000000000000000, -0.000000000000000000 ) ) ;
#148 = VERTEX_POINT ( 'NONE', #39 ) ;
#149 = VECTOR ( 'NONE', #131, 1000.000000000000000 ) ;
#150 = DATE_TIME_ROLE ( 'creation_date' ) ;
#151 = DIRECTION ( 'NONE',  ( 0.000000000000000000, -0.000000000000000000, 1.000000000000000000 ) ) ;
#152 = ORIENTED_EDGE ( 'NONE', *, *, #196, .T. ) ;
#153 = LINE ( 'NONE', #111, #222 ) ;
#154 = ORIENTED_EDGE ( 'NONE', *, *, #94, .F. ) ;
#155 = EDGE_CURVE ( 'NONE', #250, #2, #239, .T. ) ;
#156 = AXIS2_PLACEMENT_3D ( 'NONE', #541, #185, #277 ) ;
#157 = DIRECTION ( 'NONE',  ( 0.000000000000000000, 0.000000000000000000, 1.000000000000000000 ) ) ;
#158 = ORIENTED_EDGE ( 'NONE', *, *, #161, .T. ) ;
#159 = CARTESIAN_POINT ( 'NONE',  ( 0.000000000000000000, 26.00000000000000000, 5.000000000000000000 ) ) ;
#160 = ORIENTED_EDGE ( 'NONE', *, *, #43, .T. ) ;
#161 = EDGE_CURVE ( 'NONE', #188, #24, #259, .T. ) ;
#162 = CYLINDRICAL_SURFACE ( 'NONE', #495, 8.449999999999999289 ) ;
#163 = EDGE_CURVE ( 'NONE', #392, #233, #354, .T. ) ;
#164 = ORIENTED_EDGE ( 'NONE', *, *, #3, .T. ) ;
#165 = CARTESIAN_POINT ( 'NONE',  ( -5.000000000000000000, 6.999999999999999112, 0.000000000000000000 ) ) ;
#166 = AXIS2_PLACEMENT_3D ( 'NONE', #97, #324, #189 ) ;
#167 = EDGE_LOOP ( 'NONE', ( #411, #75, #365, #330, #254 ) ) ;
#168 = CIRCLE ( 'NONE', #356, 8.449999999999999289 ) ;
#169 = PERSON_AND_ORGANIZATION ( #139, #477 ) ;
#170 = FACE_BOUND ( 'NONE', #395, .T. ) ;
#171 = CARTESIAN_POINT ( 'NONE',  ( 0.000000000000000000, 6.999999999999999112, 2.899999999999999911 ) ) ;
#172 = CARTESIAN_POINT ( 'NONE',  ( 1.034826545279513264E-15, 11.00000000000000000, 8.449999999999999289 ) ) ;
#173 = PERSON_AND_ORGANIZATION_ROLE ( 'design_owner' ) ;
#174 = CARTESIAN_POINT ( 'NONE',  ( 5.000000000000000000, 26.00000000000000000, 2.100000000000000089 ) ) ;
#175 =( GEOMETRIC_REPRESENTATION_CONTEXT ( 3 ) GLOBAL_UNCERTAINTY_ASSIGNED_CONTEXT ( ( #251 ) ) GLOBAL_UNIT_ASSIGNED_CONTEXT ( ( #491, #585, #31 ) ) REPRESENTATION_CONTEXT ( 'NONE', 'WORKASPACE' ) );
#176 = DIRECTION ( 'NONE',  ( 0.000000000000000000, 0.000000000000000000, 1.000000000000000000 ) ) ;
#177 = DIRECTION ( 'NONE',  ( 0.000000000000000000, 1.000000000000000000, 0.000000000000000000 ) ) ;
#178 = CARTESIAN_POINT ( 'NONE',  ( 0.000000000000000000, 29.00000000000000000, -8.449999999999999289 ) ) ;
#179 = EDGE_CURVE ( 'NONE', #379, #233, #234, .T. ) ;
#180 = PLANE ( 'NONE',  #252 ) ;
#181 = ORIENTED_EDGE ( 'NONE', *, *, #390, .T. ) ;
#182 = PERSON_AND_ORGANIZATION ( #139, #477 ) ;
#183 = FACE_OUTER_BOUND ( 'NONE', #230, .T. ) ;
#184 = CIRCLE ( 'NONE', #384, 2.100000000000000089 ) ;
#185 = DIRECTION ( 'NONE',  ( -0.000000000000000000, -1.000000000000000000, -0.000000000000000000 ) ) ;
#186 = ORIENTED_EDGE ( 'NONE', *, *, #373, .T. ) ;
#187 = DIRECTION ( 'NONE',  ( -0.000000000000000000, -1.000000000000000000, -0.000000000000000000 ) ) ;
#188 = VERTEX_POINT ( 'NONE', #407 ) ;
#189 = DIRECTION ( 'NONE',  ( 0.000000000000000000, 0.000000000000000000, -1.000000000000000000 ) ) ;
#190 = ORIENTED_EDGE ( 'NONE', *, *, #518, .T. ) ;
#191 = ADVANCED_FACE ( 'NONE', ( #241 ), #329, .F. ) ;
#192 = COORDINATED_UNIVERSAL_TIME_OFFSET ( 5, 0, .BEHIND. ) ;
#193 = FACE_BOUND ( 'NONE', #457, .T. ) ;
#194 = ORIENTED_EDGE ( 'NONE', *, *, #3, .F. ) ;
#195 = CIRCLE ( 'NONE', #52, 2.100000000000000089 ) ;
#196 = EDGE_CURVE ( 'NONE', #233, #392, #435, .T. ) ;
#197 = DIRECTION ( 'NONE',  ( 0.000000000000000000, 0.000000000000000000, 1.000000000000000000 ) ) ;
#198 = ORIENTED_EDGE ( 'NONE', *, *, #431, .F. ) ;
#199 = CARTESIAN_POINT ( 'NONE',  ( 0.000000000000000000, 30.75000000000000000, 0.000000000000000000 ) ) ;
#200 = EDGE_LOOP ( 'NONE', ( #154, #522, #238, #152 ) ) ;
#201 = CIRCLE ( 'NONE', #569, 8.449999999999999289 ) ;
#202 = CYLINDRICAL_SURFACE ( 'NONE', #9, 2.125000000000000000 ) ;
#203 = EDGE_LOOP ( 'NONE', ( #104, #207, #62, #558 ) ) ;
#204 = CIRCLE ( 'NONE', #271, 2.100000000000000089 ) ;
#205 = EDGE_CURVE ( 'NONE', #379, #142, #28, .T. ) ;
#206 = CYLINDRICAL_SURFACE ( 'NONE', #317, 2.100000000000000089 ) ;
#207 = ORIENTED_EDGE ( 'NONE', *, *, #405, .T. ) ;
#208 = DIRECTION ( 'NONE',  ( 0.000000000000000000, 1.000000000000000000, 0.000000000000000000 ) ) ;
#209 = ORIENTED_EDGE ( 'NONE', *, *, #535, .F. ) ;
#210 = DATE_AND_TIME ( #264, #138 ) ;
#211 = AXIS2_PLACEMENT_3D ( 'NONE', #469, #432, #562 ) ;
#212 = FACE_OUTER_BOUND ( 'NONE', #342, .T. ) ;
#213 = LOCAL_TIME ( 13, 41, 0.000000000000000000, #415 ) ;
#214 = PERSON_AND_ORGANIZATION ( #139, #477 ) ;
#215 = LINE ( 'NONE', #578, #274 ) ;
#216 = CC_DESIGN_PERSON_AND_ORGANIZATION_ASSIGNMENT ( #182, #275, ( #543 ) ) ;
#217 = DIRECTION ( 'NONE',  ( 0.000000000000000000, 1.000000000000000000, 0.000000000000000000 ) ) ;
#218 = ORIENTED_EDGE ( 'NONE', *, *, #247, .F. ) ;
#219 = CARTESIAN_POINT ( 'NONE',  ( 0.000000000000000000, 18.00000000000000000, 5.000000000000000000 ) ) ;
#220 = CARTESIAN_POINT ( 'NONE',  ( -0.5000000000000041078, 18.00000000000000000, 0.8660254037844363761 ) ) ;
#221 = EDGE_CURVE ( 'NONE', #526, #24, #184, .T. ) ;
#222 = VECTOR ( 'NONE', #334, 1000.000000000000000 ) ;
#223 = DIRECTION ( 'NONE',  ( 0.000000000000000000, 1.000000000000000000, -0.000000000000000000 ) ) ;
#224 = SHAPE_DEFINITION_REPRESENTATION ( #272, #276 ) ;
#225 = DIRECTION ( 'NONE',  ( 0.000000000000000000, 0.000000000000000000, 1.000000000000000000 ) ) ;
#226 = ORIENTED_EDGE ( 'NONE', *, *, #518, .F. ) ;
#227 = CIRCLE ( 'NONE', #44, 8.449999999999999289 ) ;
#228 = APPROVAL_DATE_TIME ( #326, #45 ) ;
#229 = DIRECTION ( 'NONE',  ( -0.000000000000000000, 1.000000000000000000, 0.000000000000000000 ) ) ;
#230 = EDGE_LOOP ( 'NONE', ( #190, #294, #304, #335 ) ) ;
#231 = CIRCLE ( 'NONE', #523, 2.100000000000000089 ) ;
#232 = DIRECTION ( 'NONE',  ( 0.000000000000000000, 0.000000000000000000, 1.000000000000000000 ) ) ;
#233 = VERTEX_POINT ( 'NONE', #413 ) ;
#234 = LINE ( 'NONE', #50, #376 ) ;
#235 = ORIENTED_EDGE ( 'NONE', *, *, #260, .T. ) ;
#236 = EDGE_CURVE ( 'NONE', #2, #250, #363, .T. ) ;
#237 = DIRECTION ( 'NONE',  ( 0.000000000000000000, 0.000000000000000000, 1.000000000000000000 ) ) ;
#238 = ORIENTED_EDGE ( 'NONE', *, *, #179, .T. ) ;
#239 = CIRCLE ( 'NONE', #282, 2.100000000000000089 ) ;
#240 = EDGE_CURVE ( 'NONE', #71, #587, #590, .T. ) ;
#241 = FACE_OUTER_BOUND ( 'NONE', #345, .T. ) ;
#242 = ORIENTED_EDGE ( 'NONE', *, *, #134, .F. ) ;
#243 = AXIS2_PLACEMENT_3D ( 'NONE', #219, #397, #37 ) ;
#244 = CARTESIAN_POINT ( 'NONE',  ( 0.000000000000000000, 18.00000000000000000, -2.125000000000000000 ) ) ;
#245 = FACE_BOUND ( 'NONE', #517, .T. ) ;
#246 = DIRECTION ( 'NONE',  ( -0.000000000000000000, -1.000000000000000000, -0.000000000000000000 ) ) ;
#247 = EDGE_CURVE ( 'NONE', #520, #434, #319, .T. ) ;
#248 = CARTESIAN_POINT ( 'NONE',  ( -0.5000000000000041078, 18.00000000000000000, 0.8660254037844363761 ) ) ;
#249 = DIRECTION ( 'NONE',  ( 0.000000000000000000, 1.000000000000000000, 0.000000000000000000 ) ) ;
#250 = VERTEX_POINT ( 'NONE', #5 ) ;
#251 = UNCERTAINTY_MEASURE_WITH_UNIT (LENGTH_MEASURE( 1.000000000000000082E-05 ), #491, 'distance_accuracy_value', 'NONE');
#252 = AXIS2_PLACEMENT_3D ( 'NONE', #263, #441, #273 ) ;
#253 = DIRECTION ( 'NONE',  ( 0.000000000000000000, 0.000000000000000000, 1.000000000000000000 ) ) ;
#254 = ORIENTED_EDGE ( 'NONE', *, *, #99, .T. ) ;
#255 = CARTESIAN_POINT ( 'NONE',  ( -5.000000000000000000, 18.00000000000000000, 0.000000000000000000 ) ) ;
#256 = ORIENTED_EDGE ( 'NONE', *, *, #196, .F. ) ;
#257 = EDGE_CURVE ( 'NONE', #65, #414, #310, .T. ) ;
#258 = CIRCLE ( 'NONE', #49, 8.449999999999999289 ) ;
#259 = LINE ( 'NONE', #527, #19 ) ;
#260 = EDGE_CURVE ( 'NONE', #11, #148, #258, .T. ) ;
#261 = AXIS2_PLACEMENT_3D ( 'NONE', #66, #70, #253 ) ;
#262 = DIRECTION ( 'NONE',  ( 0.000000000000000000, 0.000000000000000000, 1.000000000000000000 ) ) ;
#263 = CARTESIAN_POINT ( 'NONE',  ( -0.5000000000000041078, 11.00000000000000000, 0.8660254037844363761 ) ) ;
#264 = CALENDAR_DATE ( 2026, 25, 8 ) ;
#265 = FACE_OUTER_BOUND ( 'NONE', #106, .T. ) ;
#266 = EDGE_CURVE ( 'NONE', #142, #379, #408, .T. ) ;
#267 = VERTEX_POINT ( 'NONE', #371 ) ;
#268 = APPROVAL_STATUS ( 'not_yet_approved' ) ;
#269 = CARTESIAN_POINT ( 'NONE',  ( 0.000000000000000000, 26.00000000000000000, 2.899999999999999911 ) ) ;
#270 = AXIS2_PLACEMENT_3D ( 'NONE', #15, #423, #380 ) ;
#271 = AXIS2_PLACEMENT_3D ( 'NONE', #165, #519, #157 ) ;
#272 = PRODUCT_DEFINITION_SHAPE ( 'NONE', 'NONE',  #446 ) ;
#273 = DIRECTION ( 'NONE',  ( 0.000000000000000000, -0.000000000000000000, 1.000000000000000000 ) ) ;
#274 = VECTOR ( 'NONE', #350, 1000.000000000000000 ) ;
#275 = PERSON_AND_ORGANIZATION_ROLE ( 'creator' ) ;
#276 = ADVANCED_BREP_SHAPE_REPRESENTATION ( 'ES2', ( #489, #129 ), #175 ) ;
#277 = DIRECTION ( 'NONE',  ( 0.000000000000000000, 0.000000000000000000, -1.000000000000000000 ) ) ;
#278 = VERTEX_POINT ( 'NONE', #548 ) ;
#279 = PERSON_AND_ORGANIZATION_ROLE ( 'classification_officer' ) ;
#280 = CARTESIAN_POINT ( 'NONE',  ( 0.000000000000000000, 18.00000000000000000, 0.000000000000000000 ) ) ;
#281 = EDGE_LOOP ( 'NONE', ( #256, #340 ) ) ;
#282 = AXIS2_PLACEMENT_3D ( 'NONE', #588, #223, #360 ) ;
#283 = CARTESIAN_POINT ( 'NONE',  ( 0.2499999999999985012, 11.00000000000000000, 0.4330127018922179660 ) ) ;
#284 = ADVANCED_FACE ( 'NONE', ( #183 ), #507, .T. ) ;
#285 = ORIENTED_EDGE ( 'NONE', *, *, #236, .F. ) ;
#286 = CALENDAR_DATE ( 2026, 25, 8 ) ;
#287 = DIRECTION ( 'NONE',  ( 0.000000000000000000, 0.000000000000000000, 1.000000000000000000 ) ) ;
#288 = ORIENTED_EDGE ( 'NONE', *, *, #257, .T. ) ;
#289 = ADVANCED_FACE ( 'NONE', ( #103, #193, #368, #449, #378 ), #54, .F. ) ;
#290 = CARTESIAN_POINT ( 'NONE',  ( 0.5000000000000004441, 7.000000000000000000, 0.000000000000000000 ) ) ;
#291 = ORIENTED_EDGE ( 'NONE', *, *, #163, .T. ) ;
#292 = AXIS2_PLACEMENT_3D ( 'NONE', #290, #555, #151 ) ;
#293 = DIRECTION ( 'NONE',  ( 0.000000000000000000, -1.000000000000000000, 0.000000000000000000 ) ) ;
#294 = ORIENTED_EDGE ( 'NONE', *, *, #306, .T. ) ;
#295 = CC_DESIGN_APPROVAL ( #574, ( #543 ) ) ;
#296 = CYLINDRICAL_SURFACE ( 'NONE', #483, 8.449999999999999289 ) ;
#297 = CARTESIAN_POINT ( 'NONE',  ( 0.000000000000000000, 6.999999999999999112, 0.000000000000000000 ) ) ;
#298 = DIRECTION ( 'NONE',  ( 0.000000000000000000, 0.000000000000000000, 1.000000000000000000 ) ) ;
#299 = ORIENTED_EDGE ( 'NONE', *, *, #205, .T. ) ;
#300 = CIRCLE ( 'NONE', #59, 8.449999999999999289 ) ;
#301 = DIRECTION ( 'NONE',  ( 0.000000000000000000, 0.000000000000000000, -1.000000000000000000 ) ) ;
#302 = ORIENTED_EDGE ( 'NONE', *, *, #118, .T. ) ;
#303 = DIRECTION ( 'NONE',  ( 0.000000000000000000, 0.000000000000000000, -1.000000000000000000 ) ) ;
#304 = ORIENTED_EDGE ( 'NONE', *, *, #118, .F. ) ;
#305 = ADVANCED_FACE ( 'NONE', ( #420 ), #362, .T. ) ;
#306 = EDGE_CURVE ( 'NONE', #467, #333, #300, .T. ) ;
#307 = DIRECTION ( 'NONE',  ( 0.000000000000000000, 1.000000000000000000, -0.000000000000000000 ) ) ;
#308 = DIRECTION ( 'NONE',  ( -0.000000000000000000, -1.000000000000000000, -0.000000000000000000 ) ) ;
#309 = MECHANICAL_CONTEXT ( 'NONE', #437, 'mechanical' ) ;
#310 = CIRCLE ( 'NONE', #462, 2.100000000000000089 ) ;
#311 = DIRECTION ( 'NONE',  ( -0.000000000000000000, -1.000000000000000000, 0.000000000000000000 ) ) ;
#312 = ADVANCED_FACE ( 'NONE', ( #140 ), #321, .F. ) ;
#313 = LINE ( 'NONE', #174, #425 ) ;
#314 = FACE_OUTER_BOUND ( 'NONE', #389, .T. ) ;
#315 = DIRECTION ( 'NONE',  ( 1.000000000000000000, 0.000000000000000000, 0.000000000000000000 ) ) ;
#316 = CARTESIAN_POINT ( 'NONE',  ( 0.000000000000000000, 6.999999999999999112, 0.000000000000000000 ) ) ;
#317 = AXIS2_PLACEMENT_3D ( 'NONE', #74, #567, #475 ) ;
#318 = PERSON_AND_ORGANIZATION ( #139, #477 ) ;
#319 = LINE ( 'NONE', #374, #127 ) ;
#320 = ADVANCED_FACE ( 'NONE', ( #108 ), #296, .T. ) ;
#321 = CYLINDRICAL_SURFACE ( 'NONE', #336, 2.100000000000000089 ) ;
#322 = EDGE_LOOP ( 'NONE', ( #361, #487, #186, #198 ) ) ;
#323 = APPROVAL_STATUS ( 'not_yet_approved' ) ;
#324 = DIRECTION ( 'NONE',  ( 0.000000000000000000, -1.000000000000000000, 0.000000000000000000 ) ) ;
#325 = ORIENTED_EDGE ( 'NONE', *, *, #56, .T. ) ;
#326 = DATE_AND_TIME ( #286, #120 ) ;
#327 = AXIS2_PLACEMENT_3D ( 'NONE', #559, #426, #343 ) ;
#328 = EDGE_CURVE ( 'NONE', #145, #587, #231, .T. ) ;
#329 = CYLINDRICAL_SURFACE ( 'NONE', #166, 2.100000000000000089 ) ;
#330 = ORIENTED_EDGE ( 'NONE', *, *, #512, .T. ) ;
#331 = CALENDAR_DATE ( 2026, 25, 8 ) ;
#332 = DIRECTION ( 'NONE',  ( 0.000000000000000000, 1.000000000000000000, -0.000000000000000000 ) ) ;
#333 = VERTEX_POINT ( 'NONE', #466 ) ;
#334 = DIRECTION ( 'NONE',  ( 0.000000000000000000, -1.000000000000000000, 0.000000000000000000 ) ) ;
#335 = ORIENTED_EDGE ( 'NONE', *, *, #72, .F. ) ;
#336 = AXIS2_PLACEMENT_3D ( 'NONE', #159, #341, #557 ) ;
#337 = CARTESIAN_POINT ( 'NONE',  ( 0.000000000000000000, 11.00000000000000000, -8.449999999999999289 ) ) ;
#338 = PLANE ( 'NONE',  #113 ) ;
#339 = DIRECTION ( 'NONE',  ( -0.000000000000000000, -1.000000000000000000, -0.000000000000000000 ) ) ;
#340 = ORIENTED_EDGE ( 'NONE', *, *, #163, .F. ) ;
#341 = DIRECTION ( 'NONE',  ( 0.000000000000000000, -1.000000000000000000, 0.000000000000000000 ) ) ;
#342 = EDGE_LOOP ( 'NONE', ( #21, #421 ) ) ;
#343 = DIRECTION ( 'NONE',  ( 0.000000000000000000, 0.000000000000000000, 1.000000000000000000 ) ) ;
#344 = ADVANCED_FACE ( 'NONE', ( #23 ), #162, .T. ) ;
#345 = EDGE_LOOP ( 'NONE', ( #409, #115, #58, #386 ) ) ;
#346 = CIRCLE ( 'NONE', #243, 2.100000000000000089 ) ;
#347 = PERSON_AND_ORGANIZATION_ROLE ( 'creator' ) ;
#348 = DIRECTION ( 'NONE',  ( -0.000000000000000000, -1.000000000000000000, -0.000000000000000000 ) ) ;
#349 = DIRECTION ( 'NONE',  ( 0.000000000000000000, 0.000000000000000000, -1.000000000000000000 ) ) ;
#350 = DIRECTION ( 'NONE',  ( -0.000000000000000000, -1.000000000000000000, -0.000000000000000000 ) ) ;
#351 = VERTEX_POINT ( 'NONE', #513 ) ;
#352 = EDGE_CURVE ( 'NONE', #333, #434, #393, .T. ) ;
#353 = PERSON_AND_ORGANIZATION ( #139, #477 ) ;
#354 = CIRCLE ( 'NONE', #532, 2.125000000000000000 ) ;
#355 = DIRECTION ( 'NONE',  ( 0.000000000000000000, 0.000000000000000000, 1.000000000000000000 ) ) ;
#356 = AXIS2_PLACEMENT_3D ( 'NONE', #471, #249, #428 ) ;
#357 = DIRECTION ( 'NONE',  ( -0.000000000000000000, -1.000000000000000000, -0.000000000000000000 ) ) ;
#358 = CARTESIAN_POINT ( 'NONE',  ( 2.602374448188125350E-16, 18.00000000000000000, 2.125000000000000000 ) ) ;
#359 = LINE ( 'NONE', #125, #149 ) ;
#360 = DIRECTION ( 'NONE',  ( 0.000000000000000000, 0.000000000000000000, 1.000000000000000000 ) ) ;
#361 = ORIENTED_EDGE ( 'NONE', *, *, #240, .F. ) ;
#362 = CYLINDRICAL_SURFACE ( 'NONE', #156, 8.449999999999999289 ) ;
#363 = CIRCLE ( 'NONE', #107, 2.100000000000000089 ) ;
#364 = ADVANCED_FACE ( 'NONE', ( #116 ), #202, .F. ) ;
#365 = ORIENTED_EDGE ( 'NONE', *, *, #306, .F. ) ;
#366 = APPROVAL_PERSON_ORGANIZATION ( #448, #45, #42 ) ;
#367 = APPROVAL_ROLE ( '' ) ;
#368 = FACE_BOUND ( 'NONE', #501, .T. ) ;
#369 = EDGE_LOOP ( 'NONE', ( #504, #480, #135, #514, #209 ) ) ;
#370 = CALENDAR_DATE ( 2026, 25, 8 ) ;
#371 = CARTESIAN_POINT ( 'NONE',  ( 0.000000000000000000, 18.00000000000000000, 2.899999999999999911 ) ) ;
#372 = ORIENTED_EDGE ( 'NONE', *, *, #431, .T. ) ;
#373 = EDGE_CURVE ( 'NONE', #566, #145, #68, .T. ) ;
#374 = CARTESIAN_POINT ( 'NONE',  ( -0.5000000000000029976, 18.00000000000000000, 9.316025403784434999 ) ) ;
#375 = ORIENTED_EDGE ( 'NONE', *, *, #493, .F. ) ;
#376 = VECTOR ( 'NONE', #187, 1000.000000000000000 ) ;
#377 = LOCAL_TIME ( 13, 41, 0.000000000000000000, #192 ) ;
#378 = FACE_BOUND ( 'NONE', #281, .T. ) ;
#379 = VERTEX_POINT ( 'NONE', #244 ) ;
#380 = DIRECTION ( 'NONE',  ( 0.000000000000000000, 0.000000000000000000, 1.000000000000000000 ) ) ;
#381 = VERTEX_POINT ( 'NONE', #385 ) ;
#382 = CARTESIAN_POINT ( 'NONE',  ( 2.602374448188125350E-16, 6.999999999999999112, 2.125000000000000000 ) ) ;
#383 = ORIENTED_EDGE ( 'NONE', *, *, #328, .T. ) ;
#384 = AXIS2_PLACEMENT_3D ( 'NONE', #503, #499, #232 ) ;
#385 = CARTESIAN_POINT ( 'NONE',  ( 1.034826545279513264E-15, 6.999999999999999112, 8.449999999999999289 ) ) ;
#386 = ORIENTED_EDGE ( 'NONE', *, *, #373, .F. ) ;
#387 = CC_DESIGN_SECURITY_CLASSIFICATION ( #429, ( #543 ) ) ;
#388 = DIRECTION ( 'NONE',  ( -0.000000000000000000, -1.000000000000000000, -0.000000000000000000 ) ) ;
#389 = EDGE_LOOP ( 'NONE', ( #568, #16, #235, #454 ) ) ;
#390 = EDGE_CURVE ( 'NONE', #267, #188, #136, .T. ) ;
#391 = CARTESIAN_POINT ( 'NONE',  ( 5.000000000000000000, 18.00000000000000000, 2.100000000000000089 ) ) ;
#392 = VERTEX_POINT ( 'NONE', #382 ) ;
#393 = CIRCLE ( 'NONE', #270, 8.449999999999999289 ) ;
#394 = DIRECTION ( 'NONE',  ( 0.000000000000000000, -1.000000000000000000, 0.000000000000000000 ) ) ;
#395 = EDGE_LOOP ( 'NONE', ( #109, #424 ) ) ;
#396 = CIRCLE ( 'NONE', #261, 2.100000000000000089 ) ;
#397 = DIRECTION ( 'NONE',  ( 0.000000000000000000, 1.000000000000000000, -0.000000000000000000 ) ) ;
#398 = FACE_OUTER_BOUND ( 'NONE', #511, .T. ) ;
#399 = CARTESIAN_POINT ( 'NONE',  ( 2.571758278209441957E-16, 6.999999999999999112, 7.100000000000000533 ) ) ;
#400 = CARTESIAN_POINT ( 'NONE',  ( -5.000000000000000000, 6.999999999999999112, 2.100000000000000089 ) ) ;
#401 = FACE_OUTER_BOUND ( 'NONE', #203, .T. ) ;
#402 = AXIS2_PLACEMENT_3D ( 'NONE', #438, #86, #176 ) ;
#403 = CYLINDRICAL_SURFACE ( 'NONE', #141, 2.100000000000000089 ) ;
#404 = DATE_AND_TIME ( #96, #213 ) ;
#405 = EDGE_CURVE ( 'NONE', #414, #65, #592, .T. ) ;
#406 = DIRECTION ( 'NONE',  ( 0.000000000000000000, 0.000000000000000000, 1.000000000000000000 ) ) ;
#407 = CARTESIAN_POINT ( 'NONE',  ( 2.571758278209441957E-16, 18.00000000000000000, 7.100000000000000533 ) ) ;
#408 = CIRCLE ( 'NONE', #453, 2.125000000000000000 ) ;
#409 = ORIENTED_EDGE ( 'NONE', *, *, #528, .T. ) ;
#410 = CARTESIAN_POINT ( 'NONE',  ( 0.000000000000000000, 11.00000000000000000, 0.000000000000000000 ) ) ;
#411 = ORIENTED_EDGE ( 'NONE', *, *, #56, .F. ) ;
#412 = EDGE_CURVE ( 'NONE', #520, #351, #168, .T. ) ;
#413 = CARTESIAN_POINT ( 'NONE',  ( 0.000000000000000000, 6.999999999999999112, -2.125000000000000000 ) ) ;
#414 = VERTEX_POINT ( 'NONE', #391 ) ;
#415 = COORDINATED_UNIVERSAL_TIME_OFFSET ( 5, 0, .BEHIND. ) ;
#416 = DIRECTION ( 'NONE',  ( 0.000000000000000000, 1.000000000000000000, 0.000000000000000000 ) ) ;
#417 = ORIENTED_EDGE ( 'NONE', *, *, #266, .F. ) ;
#418 = VECTOR ( 'NONE', #293, 1000.000000000000000 ) ;
#419 = CIRCLE ( 'NONE', #80, 8.449999999999999289 ) ;
#420 = FACE_OUTER_BOUND ( 'NONE', #167, .T. ) ;
#421 = ORIENTED_EDGE ( 'NONE', *, *, #412, .T. ) ;
#422 = EDGE_CURVE ( 'NONE', #333, #11, #419, .T. ) ;
#423 = DIRECTION ( 'NONE',  ( 0.000000000000000000, 1.000000000000000000, 0.000000000000000000 ) ) ;
#424 = ORIENTED_EDGE ( 'NONE', *, *, #405, .F. ) ;
#425 = VECTOR ( 'NONE', #442, 1000.000000000000000 ) ;
#426 = DIRECTION ( 'NONE',  ( 0.000000000000000000, 1.000000000000000000, -0.000000000000000000 ) ) ;
#427 = FACE_BOUND ( 'NONE', #6, .T. ) ;
#428 = DIRECTION ( 'NONE',  ( 0.000000000000000000, 0.000000000000000000, 1.000000000000000000 ) ) ;
#429 = SECURITY_CLASSIFICATION ( '', '', #498 ) ;
#430 = CARTESIAN_POINT ( 'NONE',  ( 5.000000000000000000, 6.999999999999999112, -2.100000000000000089 ) ) ;
#431 = EDGE_CURVE ( 'NONE', #587, #145, #204, .T. ) ;
#432 = DIRECTION ( 'NONE',  ( 0.000000000000000000, 1.000000000000000000, -0.000000000000000000 ) ) ;
#433 = ORIENTED_EDGE ( 'NONE', *, *, #464, .T. ) ;
#434 = VERTEX_POINT ( 'NONE', #121 ) ;
#435 = CIRCLE ( 'NONE', #540, 2.125000000000000000 ) ;
#436 = DIRECTION ( 'NONE',  ( 0.000000000000000000, 0.000000000000000000, 1.000000000000000000 ) ) ;
#437 = APPLICATION_CONTEXT ( 'configuration controlled 3d designs of mechanical parts and assemblies' ) ;
#438 = CARTESIAN_POINT ( 'NONE',  ( 0.000000000000000000, 11.00000000000000000, 0.000000000000000000 ) ) ;
#439 = DIRECTION ( 'NONE',  ( 0.000000000000000000, 1.000000000000000000, 0.000000000000000000 ) ) ;
#440 = LINE ( 'NONE', #178, #553 ) ;
#441 = DIRECTION ( 'NONE',  ( 0.000000000000000000, 1.000000000000000000, 0.000000000000000000 ) ) ;
#442 = DIRECTION ( 'NONE',  ( 0.000000000000000000, -1.000000000000000000, 0.000000000000000000 ) ) ;
#443 = ORIENTED_EDGE ( 'NONE', *, *, #94, .T. ) ;
#444 = AXIS2_PLACEMENT_3D ( 'NONE', #297, #478, #27 ) ;
#445 = ADVANCED_FACE ( 'NONE', ( #479 ), #206, .F. ) ;
#446 = PRODUCT_DEFINITION ( 'UNKNOWN', '', #543, #22 ) ;
#447 = CARTESIAN_POINT ( 'NONE',  ( -0.5000000000000041078, 11.00000000000000000, 0.8660254037844363761 ) ) ;
#448 = PERSON_AND_ORGANIZATION ( #139, #477 ) ;
#449 = FACE_BOUND ( 'NONE', #122, .T. ) ;
#450 = EDGE_LOOP ( 'NONE', ( #288, #14, #285, #375 ) ) ;
#451 = DATE_AND_TIME ( #331, #29 ) ;
#452 = DIRECTION ( 'NONE',  ( 0.000000000000000000, -1.000000000000000000, 0.000000000000000000 ) ) ;
#453 = AXIS2_PLACEMENT_3D ( 'NONE', #137, #500, #93 ) ;
#454 = ORIENTED_EDGE ( 'NONE', *, *, #90, .F. ) ;
#455 = APPROVAL_PERSON_ORGANIZATION ( #318, #574, #367 ) ;
#456 = DIRECTION ( 'NONE',  ( 0.000000000000000000, -0.000000000000000000, 1.000000000000000000 ) ) ;
#457 = EDGE_LOOP ( 'NONE', ( #98, #433 ) ) ;
#458 = DIRECTION ( 'NONE',  ( 0.000000000000000000, 0.000000000000000000, 1.000000000000000000 ) ) ;
#459 = ORIENTED_EDGE ( 'NONE', *, *, #535, .T. ) ;
#460 = DIRECTION ( 'NONE',  ( -0.000000000000000000, -1.000000000000000000, 0.000000000000000000 ) ) ;
#461 = ORIENTED_EDGE ( 'NONE', *, *, #512, .F. ) ;
#462 = AXIS2_PLACEMENT_3D ( 'NONE', #57, #510, #551 ) ;
#463 = VECTOR ( 'NONE', #348, 1000.000000000000000 ) ;
#464 = EDGE_CURVE ( 'NONE', #24, #526, #396, .T. ) ;
#465 = CC_DESIGN_DATE_AND_TIME_ASSIGNMENT ( #451, #539, ( #429 ) ) ;
#466 = CARTESIAN_POINT ( 'NONE',  ( -7.555092401879646147, 11.00000000000000000, -3.784584362788129486 ) ) ;
#467 = VERTEX_POINT ( 'NONE', #337 ) ;
#468 = APPLICATION_CONTEXT ( 'configuration controlled 3d designs of mechanical parts and assemblies' ) ;
#469 = CARTESIAN_POINT ( 'NONE',  ( 0.000000000000000000, 18.00000000000000000, 5.000000000000000000 ) ) ;
#470 = DIRECTION ( 'NONE',  ( 0.000000000000000000, 1.000000000000000000, 0.000000000000000000 ) ) ;
#471 = CARTESIAN_POINT ( 'NONE',  ( -0.5000000000000041078, 18.00000000000000000, 0.8660254037844363761 ) ) ;
#472 = EDGE_CURVE ( 'NONE', #71, #566, #195, .T. ) ;
#473 = ORIENTED_EDGE ( 'NONE', *, *, #554, .T. ) ;
#474 = CC_DESIGN_PERSON_AND_ORGANIZATION_ASSIGNMENT ( #169, #347, ( #446 ) ) ;
#475 = DIRECTION ( 'NONE',  ( 0.000000000000000000, 0.000000000000000000, -1.000000000000000000 ) ) ;
#476 = CLOSED_SHELL ( 'NONE', ( #320, #344, #25, #579, #191, #143, #289, #4, #305, #572, #284, #33, #364, #7, #445, #312 ) ) ;
#477 = ORGANIZATION ( 'UNSPECIFIED', 'UNSPECIFIED', '' ) ;
#478 = DIRECTION ( 'NONE',  ( 0.000000000000000000, 1.000000000000000000, 0.000000000000000000 ) ) ;
#479 = FACE_OUTER_BOUND ( 'NONE', #322, .T. ) ;
#480 = ORIENTED_EDGE ( 'NONE', *, *, #247, .T. ) ;
#481 = CARTESIAN_POINT ( 'NONE',  ( 5.000000000000000000, 26.00000000000000000, 0.000000000000000000 ) ) ;
#482 = CARTESIAN_POINT ( 'NONE',  ( 5.000000000000000000, 18.00000000000000000, -2.100000000000000089 ) ) ;
#483 = AXIS2_PLACEMENT_3D ( 'NONE', #64, #388, #303 ) ;
#484 = FACE_OUTER_BOUND ( 'NONE', #450, .T. ) ;
#485 = CC_DESIGN_PERSON_AND_ORGANIZATION_ASSIGNMENT ( #502, #279, ( #429 ) ) ;
#486 = DIRECTION ( 'NONE',  ( 0.000000000000000000, 0.000000000000000000, 1.000000000000000000 ) ) ;
#487 = ORIENTED_EDGE ( 'NONE', *, *, #472, .T. ) ;
#488 = DIRECTION ( 'NONE',  ( 0.000000000000000000, 0.000000000000000000, -1.000000000000000000 ) ) ;
#489 = MANIFOLD_SOLID_BREP ( 'Stock-Eccentric Shaft-1', #476 ) ;
#490 = CYLINDRICAL_SURFACE ( 'NONE', #508, 2.125000000000000000 ) ;
#491 =( LENGTH_UNIT ( ) NAMED_UNIT ( * ) SI_UNIT ( .MILLI., .METRE. ) );
#492 = DIRECTION ( 'NONE',  ( 0.000000000000000000, -1.000000000000000000, 0.000000000000000000 ) ) ;
#493 = EDGE_CURVE ( 'NONE', #65, #2, #153, .T. ) ;
#494 = CYLINDRICAL_SURFACE ( 'NONE', #571, 2.100000000000000089 ) ;
#495 = AXIS2_PLACEMENT_3D ( 'NONE', #521, #246, #565 ) ;
#496 = DIRECTION ( 'NONE',  ( 0.000000000000000000, 1.000000000000000000, 0.000000000000000000 ) ) ;
#497 = CIRCLE ( 'NONE', #525, 2.100000000000000089 ) ;
#498 = SECURITY_CLASSIFICATION_LEVEL ( 'unclassified' ) ;
#499 = DIRECTION ( 'NONE',  ( 0.000000000000000000, 1.000000000000000000, -0.000000000000000000 ) ) ;
#500 = DIRECTION ( 'NONE',  ( -0.000000000000000000, -1.000000000000000000, 0.000000000000000000 ) ) ;
#501 = EDGE_LOOP ( 'NONE', ( #383, #372 ) ) ;
#502 = PERSON_AND_ORGANIZATION ( #139, #477 ) ;
#503 = CARTESIAN_POINT ( 'NONE',  ( 0.000000000000000000, 6.999999999999999112, 5.000000000000000000 ) ) ;
#504 = ORIENTED_EDGE ( 'NONE', *, *, #412, .F. ) ;
#505 = APPROVAL_PERSON_ORGANIZATION ( #353, #580, #26 ) ;
#506 = PERSON_AND_ORGANIZATION_ROLE ( 'design_supplier' ) ;
#507 = PLANE ( 'NONE',  #589 ) ;
#508 = AXIS2_PLACEMENT_3D ( 'NONE', #87, #308, #81 ) ;
#509 = ORIENTED_EDGE ( 'NONE', *, *, #43, .F. ) ;
#510 = DIRECTION ( 'NONE',  ( 0.000000000000000000, 1.000000000000000000, -0.000000000000000000 ) ) ;
#511 = EDGE_LOOP ( 'NONE', ( #181, #158, #549, #509 ) ) ;
#512 = EDGE_CURVE ( 'NONE', #467, #278, #440, .T. ) ;
#513 = CARTESIAN_POINT ( 'NONE',  ( -0.5000000000000041078, 18.00000000000000000, -7.583974596215562691 ) ) ;
#514 = ORIENTED_EDGE ( 'NONE', *, *, #72, .T. ) ;
#515 = AXIS2_PLACEMENT_3D ( 'NONE', #35, #496, #355 ) ;
#516 = DIRECTION ( 'NONE',  ( 0.000000000000000000, 1.000000000000000000, -0.000000000000000000 ) ) ;
#517 = EDGE_LOOP ( 'NONE', ( #299, #55 ) ) ;
#518 = EDGE_CURVE ( 'NONE', #148, #467, #63, .T. ) ;
#519 = DIRECTION ( 'NONE',  ( 0.000000000000000000, 1.000000000000000000, -0.000000000000000000 ) ) ;
#520 = VERTEX_POINT ( 'NONE', #76 ) ;
#521 = CARTESIAN_POINT ( 'NONE',  ( -0.5000000000000041078, 18.00000000000000000, 0.8660254037844363761 ) ) ;
#522 = ORIENTED_EDGE ( 'NONE', *, *, #205, .F. ) ;
#523 = AXIS2_PLACEMENT_3D ( 'NONE', #20, #524, #114 ) ;
#524 = DIRECTION ( 'NONE',  ( 0.000000000000000000, 1.000000000000000000, -0.000000000000000000 ) ) ;
#525 = AXIS2_PLACEMENT_3D ( 'NONE', #34, #307, #262 ) ;
#526 = VERTEX_POINT ( 'NONE', #171 ) ;
#527 = CARTESIAN_POINT ( 'NONE',  ( 2.571758278209441957E-16, 26.00000000000000000, 7.100000000000000533 ) ) ;
#528 = EDGE_CURVE ( 'NONE', #566, #71, #497, .T. ) ;
#529 = PRODUCT_RELATED_PRODUCT_CATEGORY ( 'detail', '', ( #53 ) ) ;
#530 = APPLICATION_PROTOCOL_DEFINITION ( 'international standard', 'config_control_design', 1994, #437 ) ;
#531 = CARTESIAN_POINT ( 'NONE',  ( -0.5000000000000041078, 11.00000000000000000, 0.8660254037844363761 ) ) ;
#532 = AXIS2_PLACEMENT_3D ( 'NONE', #126, #311, #486 ) ;
#533 = COORDINATED_UNIVERSAL_TIME_OFFSET ( 5, 0, .BEHIND. ) ;
#534 = LINE ( 'NONE', #84, #463 ) ;
#535 = EDGE_CURVE ( 'NONE', #351, #51, #359, .T. ) ;
#536 = DIRECTION ( 'NONE',  ( 0.000000000000000000, 0.000000000000000000, -1.000000000000000000 ) ) ;
#537 = CARTESIAN_POINT ( 'NONE',  ( 0.000000000000000000, 0.000000000000000000, 0.000000000000000000 ) ) ;
#538 = DIRECTION ( 'NONE',  ( 0.000000000000000000, -1.000000000000000000, 0.000000000000000000 ) ) ;
#539 = DATE_TIME_ROLE ( 'classification_date' ) ;
#540 = AXIS2_PLACEMENT_3D ( 'NONE', #100, #105, #287 ) ;
#541 = CARTESIAN_POINT ( 'NONE',  ( 0.000000000000000000, 29.00000000000000000, 0.000000000000000000 ) ) ;
#542 = ORIENTED_EDGE ( 'NONE', *, *, #161, .F. ) ;
#543 = PRODUCT_DEFINITION_FORMATION_WITH_SPECIFIED_SOURCE ( 'ANY', '', #53, .NOT_KNOWN. ) ;
#544 = COORDINATED_UNIVERSAL_TIME_OFFSET ( 5, 0, .BEHIND. ) ;
#545 = DIRECTION ( 'NONE',  ( 0.000000000000000000, 0.000000000000000000, 1.000000000000000000 ) ) ;
#546 = ORIENTED_EDGE ( 'NONE', *, *, #99, .F. ) ;
#547 = CIRCLE ( 'NONE', #515, 8.449999999999999289 ) ;
#548 = CARTESIAN_POINT ( 'NONE',  ( 0.000000000000000000, 6.999999999999999112, -8.449999999999999289 ) ) ;
#549 = ORIENTED_EDGE ( 'NONE', *, *, #221, .F. ) ;
#550 = APPROVAL_DATE_TIME ( #92, #574 ) ;
#551 = DIRECTION ( 'NONE',  ( 0.000000000000000000, 0.000000000000000000, 1.000000000000000000 ) ) ;
#552 = ORIENTED_EDGE ( 'NONE', *, *, #260, .F. ) ;
#553 = VECTOR ( 'NONE', #581, 1000.000000000000000 ) ;
#554 = EDGE_CURVE ( 'NONE', #188, #267, #346, .T. ) ;
#555 = DIRECTION ( 'NONE',  ( -0.000000000000000000, 1.000000000000000000, 0.000000000000000000 ) ) ;
#556 = EDGE_LOOP ( 'NONE', ( #542, #473, #160, #573 ) ) ;
#557 = DIRECTION ( 'NONE',  ( 0.000000000000000000, 0.000000000000000000, -1.000000000000000000 ) ) ;
#558 = ORIENTED_EDGE ( 'NONE', *, *, #155, .F. ) ;
#559 = CARTESIAN_POINT ( 'NONE',  ( 5.000000000000000000, 18.00000000000000000, 0.000000000000000000 ) ) ;
#560 = FACE_BOUND ( 'NONE', #102, .T. ) ;
#561 = VECTOR ( 'NONE', #452, 1000.000000000000000 ) ;
#562 = DIRECTION ( 'NONE',  ( 0.000000000000000000, 0.000000000000000000, 1.000000000000000000 ) ) ;
#563 = EDGE_LOOP ( 'NONE', ( #552, #325, #164, #461, #226 ) ) ;
#564 = CIRCLE ( 'NONE', #82, 8.449999999999999289 ) ;
#565 = DIRECTION ( 'NONE',  ( 0.000000000000000000, 0.000000000000000000, -1.000000000000000000 ) ) ;
#566 = VERTEX_POINT ( 'NONE', #79 ) ;
#567 = DIRECTION ( 'NONE',  ( 0.000000000000000000, -1.000000000000000000, 0.000000000000000000 ) ) ;
#568 = ORIENTED_EDGE ( 'NONE', *, *, #352, .F. ) ;
#569 = AXIS2_PLACEMENT_3D ( 'NONE', #220, #177, #406 ) ;
#570 = APPROVAL_DATE_TIME ( #210, #580 ) ;
#571 = AXIS2_PLACEMENT_3D ( 'NONE', #481, #394, #488 ) ;
#572 = ADVANCED_FACE ( 'NONE', ( #83 ), #123, .T. ) ;
#573 = ORIENTED_EDGE ( 'NONE', *, *, #464, .F. ) ;
#574 = APPROVAL ( #323, 'UNSPECIFIED' ) ;
#575 = CARTESIAN_POINT ( 'NONE',  ( 5.000000000000000000, 26.00000000000000000, 0.000000000000000000 ) ) ;
#576 = ORIENTED_EDGE ( 'NONE', *, *, #155, .T. ) ;
#577 = DIRECTION ( 'NONE',  ( 0.000000000000000000, 0.000000000000000000, 1.000000000000000000 ) ) ;
#578 = CARTESIAN_POINT ( 'NONE',  ( 1.034826545279513264E-15, 29.00000000000000000, 8.449999999999999289 ) ) ;
#579 = ADVANCED_FACE ( 'NONE', ( #484 ), #494, .F. ) ;
#580 = APPROVAL ( #268, 'UNSPECIFIED' ) ;
#581 = DIRECTION ( 'NONE',  ( -0.000000000000000000, -1.000000000000000000, -0.000000000000000000 ) ) ;
#582 = DIRECTION ( 'NONE',  ( 0.000000000000000000, 0.000000000000000000, 1.000000000000000000 ) ) ;
#583 = EDGE_LOOP ( 'NONE', ( #546, #194 ) ) ;
#584 = VECTOR ( 'NONE', #492, 1000.000000000000000 ) ;
#585 =( NAMED_UNIT ( * ) PLANE_ANGLE_UNIT ( ) SI_UNIT ( $, .RADIAN. ) );
#586 = CARTESIAN_POINT ( 'NONE',  ( 0.000000000000000000, 26.00000000000000000, 5.000000000000000000 ) ) ;
#587 = VERTEX_POINT ( 'NONE', #400 ) ;
#588 = CARTESIAN_POINT ( 'NONE',  ( 5.000000000000000000, 6.999999999999999112, 0.000000000000000000 ) ) ;
#589 = AXIS2_PLACEMENT_3D ( 'NONE', #283, #10, #456 ) ;
#590 = LINE ( 'NONE', #1, #561 ) ;
#591 = ORIENTED_EDGE ( 'NONE', *, *, #528, .F. ) ;
#592 = CIRCLE ( 'NONE', #327, 2.100000000000000089 ) ;
#593 = PERSON_AND_ORGANIZATION ( #139, #477 ) ;
ENDSEC;
END-ISO-10303-21;
