ISO-10303-21;
HEADER;
FILE_DESCRIPTION (( 'STEP AP203' ),
    '1' );
FILE_NAME ('ES3.STEP',
    '2026-08-26T13:45:59',
    ( '' ),
    ( '' ),
    'SwSTEP 2.0',
    'SolidWorks 2025',
    '' );
FILE_SCHEMA (( 'CONFIG_CONTROL_DESIGN' ));
ENDSEC;

DATA;
#1 = PLANE ( 'NONE',  #768 ) ;
#2 = FACE_OUTER_BOUND ( 'NONE', #491, .T. ) ;
#3 = CARTESIAN_POINT ( 'NONE',  ( 0.000000000000000000, 38.75000000000000000, 0.000000000000000000 ) ) ;
#4 = ADVANCED_FACE ( 'NONE', ( #546 ), #742, .F. ) ;
#5 = DIRECTION ( 'NONE',  ( 0.000000000000000000, 0.000000000000000000, 1.000000000000000000 ) ) ;
#6 = CARTESIAN_POINT ( 'NONE',  ( 0.000000000000000000, 31.50000000000000000, 5.000000000000000000 ) ) ;
#7 = CARTESIAN_POINT ( 'NONE',  ( 2.571758278209441957E-16, 18.00000000000000000, 7.100000000000000533 ) ) ;
#8 = CIRCLE ( 'NONE', #568, 8.449999999999999289 ) ;
#9 = CIRCLE ( 'NONE', #772, 2.100000000000000089 ) ;
#10 = FACE_OUTER_BOUND ( 'NONE', #598, .T. ) ;
#11 = EDGE_CURVE ( 'NONE', #738, #256, #131, .T. ) ;
#12 = DIRECTION ( 'NONE',  ( 0.000000000000000000, 0.000000000000000000, 1.000000000000000000 ) ) ;
#13 = VERTEX_POINT ( 'NONE', #617 ) ;
#14 = DIRECTION ( 'NONE',  ( 0.000000000000000000, 0.000000000000000000, 1.000000000000000000 ) ) ;
#15 = DIRECTION ( 'NONE',  ( 0.000000000000000000, 1.000000000000000000, 0.000000000000000000 ) ) ;
#16 = DIRECTION ( 'NONE',  ( 0.000000000000000000, 0.000000000000000000, 1.000000000000000000 ) ) ;
#17 = VERTEX_POINT ( 'NONE', #309 ) ;
#19 = VECTOR ( 'NONE', #422, 1000.000000000000114 ) ;
#18 = CYLINDRICAL_SURFACE ( 'NONE', #213, 2.100000000000000089 ) ;
#20 =( LENGTH_UNIT ( ) NAMED_UNIT ( * ) SI_UNIT ( .MILLI., .METRE. ) );
#21 = CARTESIAN_POINT ( 'NONE',  ( -5.000000000000000000, 18.00000000000000000, 0.000000000000000000 ) ) ;
#22 = ORIENTED_EDGE ( 'NONE', *, *, #328, .F. ) ;
#23 = VECTOR ( 'NONE', #745, 1000.000000000000000 ) ;
#24 = CARTESIAN_POINT ( 'NONE',  ( -5.000000000000000000, 31.50000000000000000, 0.000000000000000000 ) ) ;
#25 = EDGE_LOOP ( 'NONE', ( #411, #583 ) ) ;
#26 = EDGE_CURVE ( 'NONE', #17, #265, #344, .T. ) ;
#27 = DIRECTION ( 'NONE',  ( 0.000000000000000000, -1.000000000000000000, 0.000000000000000000 ) ) ;
#28 = PERSON_AND_ORGANIZATION ( #767, #712 ) ;
#29 = ORIENTED_EDGE ( 'NONE', *, *, #747, .T. ) ;
#30 = DIRECTION ( 'NONE',  ( 0.000000000000000000, 0.000000000000000000, -1.000000000000000000 ) ) ;
#31 = EDGE_CURVE ( 'NONE', #256, #572, #550, .T. ) ;
#32 = PERSON_AND_ORGANIZATION_ROLE ( 'creator' ) ;
#33 = CARTESIAN_POINT ( 'NONE',  ( 7.055092401879641706, 29.87500000000000000, -4.650609766572567416 ) ) ;
#34 = AXIS2_PLACEMENT_3D ( 'NONE', #609, #300, #53 ) ;
#35 = PERSON_AND_ORGANIZATION ( #767, #712 ) ;
#36 = CIRCLE ( 'NONE', #474, 2.125000000000000000 ) ;
#37 = PLANE ( 'NONE',  #446 ) ;
#38 = ADVANCED_FACE ( 'NONE', ( #365 ), #241, .T. ) ;
#39 = CARTESIAN_POINT ( 'NONE',  ( 0.000000000000000000, 18.00000000000000000, 0.000000000000000000 ) ) ;
#40 = FACE_OUTER_BOUND ( 'NONE', #442, .T. ) ;
#41 = EDGE_CURVE ( 'NONE', #170, #735, #482, .T. ) ;
#42 = CARTESIAN_POINT ( 'NONE',  ( 0.000000000000000000, 29.00000000000000000, 0.000000000000000000 ) ) ;
#43 = APPROVAL_DATE_TIME ( #326, #646 ) ;
#44 = DIRECTION ( 'NONE',  ( 0.000000000000000000, -0.000000000000000000, 1.000000000000000000 ) ) ;
#45 = AXIS2_PLACEMENT_3D ( 'NONE', #748, #544, #188 ) ;
#46 = VERTEX_POINT ( 'NONE', #799 ) ;
#47 = ORIENTED_EDGE ( 'NONE', *, *, #238, .F. ) ;
#48 = AXIS2_PLACEMENT_3D ( 'NONE', #79, #615, #257 ) ;
#49 = CARTESIAN_POINT ( 'NONE',  ( 0.000000000000000000, 30.75000000000000000, 0.000000000000000000 ) ) ;
#50 = AXIS2_PLACEMENT_3D ( 'NONE', #140, #202, #307 ) ;
#51 = VERTEX_POINT ( 'NONE', #7 ) ;
#52 = ADVANCED_FACE ( 'NONE', ( #539 ), #483, .F. ) ;
#53 = DIRECTION ( 'NONE',  ( 0.000000000000000000, 0.000000000000000000, -1.000000000000000000 ) ) ;
#54 = ORIENTED_EDGE ( 'NONE', *, *, #182, .T. ) ;
#55 = ORIENTED_EDGE ( 'NONE', *, *, #31, .T. ) ;
#56 = CC_DESIGN_APPROVAL ( #646, ( #631 ) ) ;
#57 = VECTOR ( 'NONE', #276, 1000.000000000000000 ) ;
#58 = VERTEX_POINT ( 'NONE', #489 ) ;
#59 = EDGE_CURVE ( 'NONE', #13, #170, #454, .T. ) ;
#60 = DIRECTION ( 'NONE',  ( 0.000000000000000000, 0.000000000000000000, 1.000000000000000000 ) ) ;
#61 = VERTEX_POINT ( 'NONE', #427 ) ;
#62 = CARTESIAN_POINT ( 'NONE',  ( 0.000000000000000000, 38.75000000000000000, -7.449999999999991296 ) ) ;
#63 = VECTOR ( 'NONE', #321, 1000.000000000000000 ) ;
#64 = ORIENTED_EDGE ( 'NONE', *, *, #280, .T. ) ;
#65 = CARTESIAN_POINT ( 'NONE',  ( 9.123618653647769326E-16, 38.75000000000000000, 7.449999999999991296 ) ) ;
#66 = ADVANCED_FACE ( 'NONE', ( #67 ), #425, .T. ) ;
#67 = FACE_OUTER_BOUND ( 'NONE', #301, .T. ) ;
#68 = DIRECTION ( 'NONE',  ( 1.776356839400250465E-15, 0.000000000000000000, 1.000000000000000000 ) ) ;
#69 = LOCAL_TIME ( 9, 45, 59.00000000000000000, #275 ) ;
#70 = MECHANICAL_CONTEXT ( 'NONE', #258, 'mechanical' ) ;
#71 = ORIENTED_EDGE ( 'NONE', *, *, #515, .T. ) ;
#72 = LINE ( 'NONE', #694, #63 ) ;
#73 = ORIENTED_EDGE ( 'NONE', *, *, #369, .F. ) ;
#74 = CIRCLE ( 'NONE', #516, 8.449999999999999289 ) ;
#75 = PLANE ( 'NONE',  #407 ) ;
#76 = DIRECTION ( 'NONE',  ( 0.000000000000000000, 0.000000000000000000, 1.000000000000000000 ) ) ;
#77 = ORIENTED_EDGE ( 'NONE', *, *, #26, .T. ) ;
#78 = ORIENTED_EDGE ( 'NONE', *, *, #747, .F. ) ;
#79 = CARTESIAN_POINT ( 'NONE',  ( -5.000000000000000000, 31.50000000000000000, 0.000000000000000000 ) ) ;
#80 = CARTESIAN_POINT ( 'NONE',  ( -5.000000000000000000, 31.50000000000000000, -2.100000000000000089 ) ) ;
#81 = ORIENTED_EDGE ( 'NONE', *, *, #233, .T. ) ;
#83 = CLOSED_SHELL ( 'NONE', ( #641, #38, #130, #354, #655, #543, #508, #722, #389, #285, #148, #228, #305, #271, #564, #711, #138, #66, #88, #318, #558, #594, #520, #52, #4 ) ) ;
#82 = FACE_OUTER_BOUND ( 'NONE', #794, .T. ) ;
#84 = ORIENTED_EDGE ( 'NONE', *, *, #412, .T. ) ;
#85 = APPLICATION_CONTEXT ( 'configuration controlled 3d designs of mechanical parts and assemblies' ) ;
#86 = VECTOR ( 'NONE', #498, 1000.000000000000000 ) ;
#87 = FACE_OUTER_BOUND ( 'NONE', #753, .T. ) ;
#88 = ADVANCED_FACE ( 'NONE', ( #357 ), #1, .F. ) ;
#89 = ORIENTED_EDGE ( 'NONE', *, *, #238, .T. ) ;
#90 = DIRECTION ( 'NONE',  ( 0.000000000000000000, -1.000000000000000000, 0.000000000000000000 ) ) ;
#91 = DIRECTION ( 'NONE',  ( 0.000000000000000000, 0.000000000000000000, 1.000000000000000000 ) ) ;
#92 = EDGE_CURVE ( 'NONE', #208, #678, #356, .T. ) ;
#93 = COORDINATED_UNIVERSAL_TIME_OFFSET ( 5, 0, .BEHIND. ) ;
#94 = CARTESIAN_POINT ( 'NONE',  ( 2.602374448188125350E-16, 30.75000000000000000, 2.125000000000000000 ) ) ;
#95 = CARTESIAN_POINT ( 'NONE',  ( 0.000000000000000000, 38.75000000000000000, 0.000000000000000000 ) ) ;
#96 = CIRCLE ( 'NONE', #473, 8.449999999999999289 ) ;
#97 = DATE_AND_TIME ( #518, #764 ) ;
#98 = AXIS2_PLACEMENT_3D ( 'NONE', #146, #634, #573 ) ;
#99 = EDGE_CURVE ( 'NONE', #728, #724, #510, .T. ) ;
#100 = DIRECTION ( 'NONE',  ( 0.000000000000000000, -1.000000000000000000, 0.000000000000000000 ) ) ;
#101 = DIRECTION ( 'NONE',  ( 0.000000000000000000, -1.000000000000000000, 0.000000000000000000 ) ) ;
#102 = CALENDAR_DATE ( 2026, 26, 8 ) ;
#103 = LINE ( 'NONE', #648, #255 ) ;
#104 = ORIENTED_EDGE ( 'NONE', *, *, #182, .F. ) ;
#105 = FACE_BOUND ( 'NONE', #281, .T. ) ;
#106 = ORIENTED_EDGE ( 'NONE', *, *, #99, .T. ) ;
#107 = ORIENTED_EDGE ( 'NONE', *, *, #752, .F. ) ;
#108 = ADVANCED_BREP_SHAPE_REPRESENTATION ( 'ES3', ( #644, #392 ), #478 ) ;
#109 = AXIS2_PLACEMENT_3D ( 'NONE', #49, #236, #670 ) ;
#110 = CARTESIAN_POINT ( 'NONE',  ( 0.000000000000000000, 18.00000000000000000, -8.449999999999999289 ) ) ;
#111 = CIRCLE ( 'NONE', #408, 2.100000000000000089 ) ;
#112 = ORIENTED_EDGE ( 'NONE', *, *, #364, .F. ) ;
#113 = CC_DESIGN_DATE_AND_TIME_ASSIGNMENT ( #340, #444, ( #631 ) ) ;
#114 = DIRECTION ( 'NONE',  ( 0.000000000000000000, -1.000000000000000000, 0.000000000000000000 ) ) ;
#115 = VERTEX_POINT ( 'NONE', #452 ) ;
#116 = LOCAL_TIME ( 9, 45, 59.00000000000000000, #93 ) ;
#117 = DIRECTION ( 'NONE',  ( 0.000000000000000000, 0.000000000000000000, 1.000000000000000000 ) ) ;
#118 = CIRCLE ( 'NONE', #460, 2.100000000000000089 ) ;
#119 = DIRECTION ( 'NONE',  ( 0.000000000000000000, 0.000000000000000000, 1.000000000000000000 ) ) ;
#120 = ORIENTED_EDGE ( 'NONE', *, *, #782, .T. ) ;
#121 = CARTESIAN_POINT ( 'NONE',  ( 1.034826545279513461E-15, 37.74999999999998579, 8.449999999999999289 ) ) ;
#122 = EDGE_CURVE ( 'NONE', #678, #292, #103, .T. ) ;
#123 = CIRCLE ( 'NONE', #187, 8.449999999999999289 ) ;
#124 = DIRECTION ( 'NONE',  ( 0.000000000000000000, 1.000000000000000000, 0.000000000000000000 ) ) ;
#125 = DIRECTION ( 'NONE',  ( 0.000000000000000000, -1.000000000000000000, 0.000000000000000000 ) ) ;
#126 = DIRECTION ( 'NONE',  ( 0.000000000000000000, 0.000000000000000000, -1.000000000000000000 ) ) ;
#127 = CARTESIAN_POINT ( 'NONE',  ( -7.555092401879644370, 29.87500000000000000, 3.784584362788131262 ) ) ;
#128 = APPROVAL_ROLE ( '' ) ;
#129 = VERTEX_POINT ( 'NONE', #458 ) ;
#130 = ADVANCED_FACE ( 'NONE', ( #338 ), #161, .F. ) ;
#131 = CIRCLE ( 'NONE', #382, 7.449999999999991296 ) ;
#132 = CARTESIAN_POINT ( 'NONE',  ( -0.5000000000000042188, 30.75000000000000000, -9.316025403784434999 ) ) ;
#133 = CARTESIAN_POINT ( 'NONE',  ( 0.000000000000000000, 22.00000000000000000, 0.000000000000000000 ) ) ;
#134 = ORIENTED_EDGE ( 'NONE', *, *, #733, .T. ) ;
#135 = CIRCLE ( 'NONE', #260, 8.449999999999999289 ) ;
#136 = CIRCLE ( 'NONE', #151, 8.449999999999999289 ) ;
#137 = ORIENTED_EDGE ( 'NONE', *, *, #158, .F. ) ;
#138 = ADVANCED_FACE ( 'NONE', ( #626 ), #756, .T. ) ;
#139 = DIRECTION ( 'NONE',  ( 0.000000000000000000, 1.000000000000000000, -0.000000000000000000 ) ) ;
#140 = CARTESIAN_POINT ( 'NONE',  ( -0.5000000000000042188, 22.00000000000000000, -0.8660254037844361541 ) ) ;
#141 = DIRECTION ( 'NONE',  ( -0.000000000000000000, 1.000000000000000000, 0.000000000000000000 ) ) ;
#142 = ORIENTED_EDGE ( 'NONE', *, *, #532, .F. ) ;
#143 = DIRECTION ( 'NONE',  ( 0.000000000000000000, 1.000000000000000000, 0.000000000000000000 ) ) ;
#144 = DIRECTION ( 'NONE',  ( 0.000000000000000000, 0.000000000000000000, 1.000000000000000000 ) ) ;
#145 = EDGE_LOOP ( 'NONE', ( #106, #89, #461, #22 ) ) ;
#147 = AXIS2_PLACEMENT_3D ( 'NONE', #415, #672, #247 ) ;
#146 = CARTESIAN_POINT ( 'NONE',  ( 5.000000000000000000, 18.00000000000000000, 0.000000000000000000 ) ) ;
#148 = ADVANCED_FACE ( 'NONE', ( #40 ), #715, .T. ) ;
#149 = ORIENTED_EDGE ( 'NONE', *, *, #791, .T. ) ;
#150 = CIRCLE ( 'NONE', #744, 8.449999999999999289 ) ;
#151 = AXIS2_PLACEMENT_3D ( 'NONE', #325, #336, #584 ) ;
#152 = CARTESIAN_POINT ( 'NONE',  ( -5.000000000000000000, 31.50000000000000000, 0.000000000000000000 ) ) ;
#153 = DATE_AND_TIME ( #457, #169 ) ;
#154 = ORIENTED_EDGE ( 'NONE', *, *, #405, .F. ) ;
#155 = EDGE_CURVE ( 'NONE', #324, #665, #401, .T. ) ;
#156 = CARTESIAN_POINT ( 'NONE',  ( 2.602374448188125350E-16, 38.75000000000000000, 2.125000000000000000 ) ) ;
#157 = PERSON_AND_ORGANIZATION ( #767, #712 ) ;
#158 = EDGE_CURVE ( 'NONE', #46, #593, #718, .T. ) ;
#159 = FACE_OUTER_BOUND ( 'NONE', #693, .T. ) ;
#160 = COORDINATED_UNIVERSAL_TIME_OFFSET ( 5, 0, .BEHIND. ) ;
#161 = CYLINDRICAL_SURFACE ( 'NONE', #494, 2.125000000000000000 ) ;
#162 = ORIENTED_EDGE ( 'NONE', *, *, #669, .F. ) ;
#163 = CARTESIAN_POINT ( 'NONE',  ( 0.000000000000000000, 38.75000000000000000, 0.000000000000000000 ) ) ;
#164 = CIRCLE ( 'NONE', #579, 2.100000000000000089 ) ;
#165 = CARTESIAN_POINT ( 'NONE',  ( -0.5000000000000031086, 30.75000000000000000, 7.583974596215563579 ) ) ;
#166 = ORIENTED_EDGE ( 'NONE', *, *, #707, .T. ) ;
#167 = DIRECTION ( 'NONE',  ( 0.000000000000000000, 0.000000000000000000, 1.000000000000000000 ) ) ;
#168 = EDGE_CURVE ( 'NONE', #177, #593, #459, .T. ) ;
#169 = LOCAL_TIME ( 9, 45, 59.00000000000000000, #160 ) ;
#170 = VERTEX_POINT ( 'NONE', #563 ) ;
#171 = DIRECTION ( 'NONE',  ( -0.000000000000000000, -1.000000000000000000, -0.000000000000000000 ) ) ;
#172 = EDGE_CURVE ( 'NONE', #13, #234, #523, .T. ) ;
#173 = EDGE_LOOP ( 'NONE', ( #511, #314, #120, #788, #142, #180, #181 ) ) ;
#174 = CIRCLE ( 'NONE', #527, 8.449999999999999289 ) ;
#175 = DIRECTION ( 'NONE',  ( 0.000000000000000000, 1.000000000000000000, -0.000000000000000000 ) ) ;
#176 = CIRCLE ( 'NONE', #681, 8.449999999999999289 ) ;
#177 = VERTEX_POINT ( 'NONE', #692 ) ;
#178 = ORIENTED_EDGE ( 'NONE', *, *, #41, .F. ) ;
#179 = CARTESIAN_POINT ( 'NONE',  ( 0.000000000000000000, 30.75000000000000000, -8.449999999999999289 ) ) ;
#180 = ORIENTED_EDGE ( 'NONE', *, *, #417, .F. ) ;
#181 = ORIENTED_EDGE ( 'NONE', *, *, #587, .F. ) ;
#182 = EDGE_CURVE ( 'NONE', #593, #177, #118, .T. ) ;
#183 = LINE ( 'NONE', #349, #797 ) ;
#184 = DIRECTION ( 'NONE',  ( 0.000000000000000000, -0.000000000000000000, 1.000000000000000000 ) ) ;
#185 = DIRECTION ( 'NONE',  ( 0.000000000000000000, 1.000000000000000000, 0.000000000000000000 ) ) ;
#186 = DIRECTION ( 'NONE',  ( 0.000000000000000000, 0.000000000000000000, 1.000000000000000000 ) ) ;
#187 = AXIS2_PLACEMENT_3D ( 'NONE', #434, #378, #697 ) ;
#188 = DIRECTION ( 'NONE',  ( 0.000000000000000000, 0.000000000000000000, -1.000000000000000000 ) ) ;
#189 = DIRECTION ( 'NONE',  ( 0.000000000000000000, 0.000000000000000000, 1.000000000000000000 ) ) ;
#190 = PERSON_AND_ORGANIZATION ( #767, #712 ) ;
#191 = CARTESIAN_POINT ( 'NONE',  ( 0.000000000000000000, 22.00000000000000000, 0.000000000000000000 ) ) ;
#192 = CARTESIAN_POINT ( 'NONE',  ( 0.000000000000000000, 29.00000000000000000, -8.449999999999999289 ) ) ;
#193 = EDGE_CURVE ( 'NONE', #212, #61, #591, .T. ) ;
#194 = ORIENTED_EDGE ( 'NONE', *, *, #796, .F. ) ;
#195 = ORIENTED_EDGE ( 'NONE', *, *, #707, .F. ) ;
#196 = CARTESIAN_POINT ( 'NONE',  ( 7.055092401879640818, 28.99999999999999645, -4.650609766572567416 ) ) ;
#197 = DIRECTION ( 'NONE',  ( 0.000000000000000000, 1.000000000000000000, 0.000000000000000000 ) ) ;
#198 = FACE_OUTER_BOUND ( 'NONE', #350, .T. ) ;
#199 = VECTOR ( 'NONE', #291, 1000.000000000000000 ) ;
#200 = ORIENTED_EDGE ( 'NONE', *, *, #695, .T. ) ;
#201 = DIRECTION ( 'NONE',  ( 0.000000000000000000, -1.000000000000000000, 0.000000000000000000 ) ) ;
#202 = DIRECTION ( 'NONE',  ( 0.000000000000000000, 1.000000000000000000, 0.000000000000000000 ) ) ;
#203 = CARTESIAN_POINT ( 'NONE',  ( 0.000000000000000000, 30.75000000000000000, 0.000000000000000000 ) ) ;
#204 = ORIENTED_EDGE ( 'NONE', *, *, #11, .T. ) ;
#205 = DIRECTION ( 'NONE',  ( 0.000000000000000000, 0.000000000000000000, 1.000000000000000000 ) ) ;
#206 = CC_DESIGN_DATE_AND_TIME_ASSIGNMENT ( #97, #771, ( #534 ) ) ;
#207 = LOCAL_TIME ( 9, 45, 59.00000000000000000, #367 ) ;
#208 = VERTEX_POINT ( 'NONE', #313 ) ;
#210 = AXIS2_PLACEMENT_3D ( 'NONE', #191, #751, #119 ) ;
#209 = FACE_OUTER_BOUND ( 'NONE', #789, .T. ) ;
#211 = DESIGN_CONTEXT ( 'detailed design', #85, 'design' ) ;
#212 = VERTEX_POINT ( 'NONE', #500 ) ;
#213 = AXIS2_PLACEMENT_3D ( 'NONE', #24, #430, #436 ) ;
#214 = CIRCLE ( 'NONE', #50, 8.449999999999999289 ) ;
#215 = DIRECTION ( 'NONE',  ( 0.000000000000000000, 1.000000000000000000, 0.000000000000000000 ) ) ;
#216 = EDGE_CURVE ( 'NONE', #286, #637, #8, .T. ) ;
#217 = CARTESIAN_POINT ( 'NONE',  ( 0.000000000000000000, 18.00000000000000000, 2.899999999999999911 ) ) ;
#218 = SHAPE_DEFINITION_REPRESENTATION ( #611, #108 ) ;
#219 = DIRECTION ( 'NONE',  ( 0.000000000000000000, 0.000000000000000000, 1.000000000000000000 ) ) ;
#220 = APPROVAL_PERSON_ORGANIZATION ( #190, #646, #128 ) ;
#221 = ORIENTED_EDGE ( 'NONE', *, *, #455, .F. ) ;
#222 = DIRECTION ( 'NONE',  ( -0.000000000000000000, -1.000000000000000000, -0.000000000000000000 ) ) ;
#223 = CARTESIAN_POINT ( 'NONE',  ( 0.000000000000000000, 18.00000000000000000, 0.000000000000000000 ) ) ;
#224 = ORIENTED_EDGE ( 'NONE', *, *, #495, .F. ) ;
#225 = EDGE_CURVE ( 'NONE', #61, #212, #785, .T. ) ;
#226 = DIRECTION ( 'NONE',  ( -0.000000000000000000, -1.000000000000000000, 0.000000000000000000 ) ) ;
#227 = ORIENTED_EDGE ( 'NONE', *, *, #796, .T. ) ;
#228 = ADVANCED_FACE ( 'NONE', ( #198 ), #37, .F. ) ;
#229 = CARTESIAN_POINT ( 'NONE',  ( -0.5000000000000042188, 28.99999999999999645, -0.8660254037844361541 ) ) ;
#230 = ORIENTED_EDGE ( 'NONE', *, *, #515, .F. ) ;
#231 = PLANE ( 'NONE',  #649 ) ;
#232 = ORIENTED_EDGE ( 'NONE', *, *, #277, .T. ) ;
#233 = EDGE_CURVE ( 'NONE', #286, #324, #123, .T. ) ;
#234 = VERTEX_POINT ( 'NONE', #381 ) ;
#235 = AXIS2_PLACEMENT_3D ( 'NONE', #552, #143, #189 ) ;
#236 = DIRECTION ( 'NONE',  ( -0.000000000000000000, -1.000000000000000000, -0.000000000000000000 ) ) ;
#237 = AXIS2_PLACEMENT_3D ( 'NONE', #152, #449, #388 ) ;
#238 = EDGE_CURVE ( 'NONE', #724, #212, #632, .T. ) ;
#239 = ORIENTED_EDGE ( 'NONE', *, *, #225, .T. ) ;
#240 = DIRECTION ( 'NONE',  ( 0.000000000000000000, 0.000000000000000000, -1.000000000000000000 ) ) ;
#241 = CYLINDRICAL_SURFACE ( 'NONE', #45, 8.449999999999999289 ) ;
#242 = CARTESIAN_POINT ( 'NONE',  ( 0.000000000000000000, 37.74999999999998579, 0.000000000000000000 ) ) ;
#243 = DIRECTION ( 'NONE',  ( 0.000000000000000000, 0.000000000000000000, 1.000000000000000000 ) ) ;
#244 = CARTESIAN_POINT ( 'NONE',  ( 5.000000000000000000, 31.50000000000000000, 0.000000000000000000 ) ) ;
#245 = AXIS2_PLACEMENT_3D ( 'NONE', #288, #409, #667 ) ;
#246 = AXIS2_PLACEMENT_3D ( 'NONE', #133, #629, #322 ) ;
#247 = DIRECTION ( 'NONE',  ( 0.000000000000000000, -0.000000000000000000, 1.000000000000000000 ) ) ;
#248 = CYLINDRICAL_SURFACE ( 'NONE', #664, 2.100000000000000089 ) ;
#249 = CC_DESIGN_PERSON_AND_ORGANIZATION_ASSIGNMENT ( #303, #685, ( #418 ) ) ;
#250 = CARTESIAN_POINT ( 'NONE',  ( -0.5000000000000042188, 22.00000000000000000, -0.8660254037844361541 ) ) ;
#251 = ORIENTED_EDGE ( 'NONE', *, *, #277, .F. ) ;
#252 = DIRECTION ( 'NONE',  ( -0.000000000000000000, -1.000000000000000000, -0.000000000000000000 ) ) ;
#253 = DIRECTION ( 'NONE',  ( 0.000000000000000000, 0.000000000000000000, 1.000000000000000000 ) ) ;
#254 = DIRECTION ( 'NONE',  ( 0.000000000000000000, 0.000000000000000000, 1.000000000000000000 ) ) ;
#255 = VECTOR ( 'NONE', #100, 1000.000000000000000 ) ;
#256 = VERTEX_POINT ( 'NONE', #62 ) ;
#257 = DIRECTION ( 'NONE',  ( 0.000000000000000000, 0.000000000000000000, -1.000000000000000000 ) ) ;
#258 = APPLICATION_CONTEXT ( 'configuration controlled 3d designs of mechanical parts and assemblies' ) ;
#259 = DIRECTION ( 'NONE',  ( 0.000000000000000000, 1.000000000000000000, 0.000000000000000000 ) ) ;
#260 = AXIS2_PLACEMENT_3D ( 'NONE', #366, #690, #754 ) ;
#261 = EDGE_CURVE ( 'NONE', #343, #572, #287, .T. ) ;
#262 = ORIENTED_EDGE ( 'NONE', *, *, #666, .T. ) ;
#263 = FACE_OUTER_BOUND ( 'NONE', #560, .T. ) ;
#264 = DIRECTION ( 'NONE',  ( 0.000000000000000000, 0.000000000000000000, 1.000000000000000000 ) ) ;
#265 = VERTEX_POINT ( 'NONE', #179 ) ;
#266 = CARTESIAN_POINT ( 'NONE',  ( 0.000000000000000000, 38.75000000000000000, 0.000000000000000000 ) ) ;
#267 = COORDINATED_UNIVERSAL_TIME_OFFSET ( 5, 0, .BEHIND. ) ;
#268 = APPROVAL_PERSON_ORGANIZATION ( #653, #342, #635 ) ;
#269 = ORIENTED_EDGE ( 'NONE', *, *, #502, .F. ) ;
#270 = DIRECTION ( 'NONE',  ( 0.000000000000000000, 0.000000000000000000, -1.000000000000000000 ) ) ;
#271 = ADVANCED_FACE ( 'NONE', ( #2 ), #477, .F. ) ;
#272 = CIRCLE ( 'NONE', #347, 8.449999999999999289 ) ;
#273 = EDGE_LOOP ( 'NONE', ( #107, #720 ) ) ;
#274 = CARTESIAN_POINT ( 'NONE',  ( -7.555092401879644370, 22.00000000000000000, 3.784584362788131262 ) ) ;
#275 = COORDINATED_UNIVERSAL_TIME_OFFSET ( 5, 0, .BEHIND. ) ;
#276 = DIRECTION ( 'NONE',  ( -0.000000000000000000, -1.000000000000000000, -0.000000000000000000 ) ) ;
#277 = EDGE_CURVE ( 'NONE', #637, #453, #540, .T. ) ;
#278 = CYLINDRICAL_SURFACE ( 'NONE', #541, 8.449999999999999289 ) ;
#279 = DIRECTION ( 'NONE',  ( 0.000000000000000000, 1.000000000000000000, -0.000000000000000000 ) ) ;
#280 = EDGE_CURVE ( 'NONE', #738, #343, #736, .T. ) ;
#281 = EDGE_LOOP ( 'NONE', ( #419, #399 ) ) ;
#282 = CARTESIAN_POINT ( 'NONE',  ( 5.000000000000000000, 31.50000000000000000, 2.100000000000000089 ) ) ;
#283 = DIRECTION ( 'NONE',  ( 0.000000000000000000, 1.000000000000000000, 0.000000000000000000 ) ) ;
#284 = ORIENTED_EDGE ( 'NONE', *, *, #773, .F. ) ;
#285 = ADVANCED_FACE ( 'NONE', ( #795 ), #596, .T. ) ;
#286 = VERTEX_POINT ( 'NONE', #355 ) ;
#287 = CIRCLE ( 'NONE', #360, 8.449999999999999289 ) ;
#288 = CARTESIAN_POINT ( 'NONE',  ( 5.000000000000000000, 18.00000000000000000, 0.000000000000000000 ) ) ;
#289 = ORIENTED_EDGE ( 'NONE', *, *, #397, .F. ) ;
#290 = ORIENTED_EDGE ( 'NONE', *, *, #441, .F. ) ;
#291 = DIRECTION ( 'NONE',  ( -0.000000000000000000, -1.000000000000000000, -0.000000000000000000 ) ) ;
#292 = VERTEX_POINT ( 'NONE', #605 ) ;
#293 = ORIENTED_EDGE ( 'NONE', *, *, #331, .T. ) ;
#294 = DIRECTION ( 'NONE',  ( 0.000000000000000000, 0.000000000000000000, -1.000000000000000000 ) ) ;
#295 = PRODUCT_RELATED_PRODUCT_CATEGORY ( 'detail', '', ( #418 ) ) ;
#296 = ORIENTED_EDGE ( 'NONE', *, *, #405, .T. ) ;
#297 = ORIENTED_EDGE ( 'NONE', *, *, #216, .T. ) ;
#298 = CARTESIAN_POINT ( 'NONE',  ( 0.000000000000000000, 29.00000000000000000, 0.000000000000000000 ) ) ;
#299 = DIRECTION ( 'NONE',  ( 0.000000000000000000, 0.000000000000000000, 1.000000000000000000 ) ) ;
#300 = DIRECTION ( 'NONE',  ( 0.000000000000000000, -1.000000000000000000, 0.000000000000000000 ) ) ;
#301 = EDGE_LOOP ( 'NONE', ( #464, #639, #77, #800 ) ) ;
#302 = DIRECTION ( 'NONE',  ( -0.000000000000000000, 1.000000000000000000, 0.000000000000000000 ) ) ;
#303 = PERSON_AND_ORGANIZATION ( #767, #712 ) ;
#304 = CARTESIAN_POINT ( 'NONE',  ( 0.000000000000000000, 31.50000000000000000, 5.000000000000000000 ) ) ;
#305 = ADVANCED_FACE ( 'NONE', ( #352 ), #662, .T. ) ;
#306 = CARTESIAN_POINT ( 'NONE',  ( 0.000000000000000000, 18.00000000000000000, 5.000000000000000000 ) ) ;
#307 = DIRECTION ( 'NONE',  ( 0.000000000000000000, 0.000000000000000000, 1.000000000000000000 ) ) ;
#308 = AXIS2_PLACEMENT_3D ( 'NONE', #507, #27, #766 ) ;
#309 = CARTESIAN_POINT ( 'NONE',  ( -7.555092401879644370, 30.75000000000000000, 3.784584362788131262 ) ) ;
#310 = ORIENTED_EDGE ( 'NONE', *, *, #172, .F. ) ;
#311 = LINE ( 'NONE', #127, #386 ) ;
#312 = DIRECTION ( 'NONE',  ( 0.000000000000000000, 0.000000000000000000, 1.000000000000000000 ) ) ;
#313 = CARTESIAN_POINT ( 'NONE',  ( 5.000000000000000000, 31.50000000000000000, -2.100000000000000089 ) ) ;
#314 = ORIENTED_EDGE ( 'NONE', *, *, #155, .T. ) ;
#315 = VECTOR ( 'NONE', #691, 1000.000000000000000 ) ;
#316 = DIRECTION ( 'NONE',  ( 0.000000000000000000, 0.000000000000000000, 1.000000000000000000 ) ) ;
#317 =( NAMED_UNIT ( * ) SI_UNIT ( $, .STERADIAN. ) SOLID_ANGLE_UNIT ( ) );
#318 = ADVANCED_FACE ( 'NONE', ( #416 ), #361, .F. ) ;
#319 = DIRECTION ( 'NONE',  ( 0.000000000000000000, 0.000000000000000000, -1.000000000000000000 ) ) ;
#320 = VERTEX_POINT ( 'NONE', #110 ) ;
#321 = DIRECTION ( 'NONE',  ( -0.000000000000000000, -1.000000000000000000, -0.000000000000000000 ) ) ;
#322 = DIRECTION ( 'NONE',  ( 0.000000000000000000, 0.000000000000000000, 1.000000000000000000 ) ) ;
#323 = CONICAL_SURFACE ( 'NONE', #34, 7.449999999999991296, 0.7853981633974447263 ) ;
#324 = VERTEX_POINT ( 'NONE', #801 ) ;
#325 = CARTESIAN_POINT ( 'NONE',  ( 0.000000000000000000, 22.00000000000000000, 0.000000000000000000 ) ) ;
#326 = DATE_AND_TIME ( #513, #207 ) ;
#327 = EDGE_LOOP ( 'NONE', ( #112, #497, #413, #657 ) ) ;
#328 = EDGE_CURVE ( 'NONE', #728, #61, #183, .T. ) ;
#329 = DIRECTION ( 'NONE',  ( 0.000000000000000000, 0.000000000000000000, 1.000000000000000000 ) ) ;
#330 = DIRECTION ( 'NONE',  ( 0.000000000000000000, -1.000000000000000000, 0.000000000000000000 ) ) ;
#331 = EDGE_CURVE ( 'NONE', #734, #292, #334, .T. ) ;
#332 = CALENDAR_DATE ( 2026, 26, 8 ) ;
#333 = DIRECTION ( 'NONE',  ( -0.000000000000000000, -1.000000000000000000, -0.000000000000000000 ) ) ;
#334 = CIRCLE ( 'NONE', #245, 2.100000000000000089 ) ;
#335 = AXIS2_PLACEMENT_3D ( 'NONE', #709, #525, #783 ) ;
#336 = DIRECTION ( 'NONE',  ( 0.000000000000000000, 1.000000000000000000, 0.000000000000000000 ) ) ;
#337 = SECURITY_CLASSIFICATION_LEVEL ( 'unclassified' ) ;
#338 = FACE_OUTER_BOUND ( 'NONE', #145, .T. ) ;
#339 = CARTESIAN_POINT ( 'NONE',  ( -0.5000000000000031086, 22.00000000000000000, 7.583974596215563579 ) ) ;
#340 = DATE_AND_TIME ( #332, #116 ) ;
#341 = CARTESIAN_POINT ( 'NONE',  ( 0.000000000000000000, 28.99999999999999645, 0.000000000000000000 ) ) ;
#342 = APPROVAL ( #714, 'UNSPECIFIED' ) ;
#343 = VERTEX_POINT ( 'NONE', #121 ) ;
#344 = CIRCLE ( 'NONE', #549, 8.449999999999999289 ) ;
#345 = FACE_BOUND ( 'NONE', #597, .T. ) ;
#346 = ORIENTED_EDGE ( 'NONE', *, *, #261, .F. ) ;
#347 = AXIS2_PLACEMENT_3D ( 'NONE', #492, #763, #760 ) ;
#348 = AXIS2_PLACEMENT_3D ( 'NONE', #39, #521, #91 ) ;
#349 = CARTESIAN_POINT ( 'NONE',  ( 0.000000000000000000, 30.75000000000000000, -2.125000000000000000 ) ) ;
#350 = EDGE_LOOP ( 'NONE', ( #178, #71, #383, #674 ) ) ;
#351 = ORIENTED_EDGE ( 'NONE', *, *, #59, .T. ) ;
#352 = FACE_OUTER_BOUND ( 'NONE', #588, .T. ) ;
#353 = ORIENTED_EDGE ( 'NONE', *, *, #172, .T. ) ;
#354 = ADVANCED_FACE ( 'NONE', ( #729 ), #323, .T. ) ;
#355 = CARTESIAN_POINT ( 'NONE',  ( -7.555092401879645259, 28.99999999999999645, 3.784584362788131706 ) ) ;
#356 = CIRCLE ( 'NONE', #403, 2.100000000000000089 ) ;
#357 = FACE_OUTER_BOUND ( 'NONE', #555, .T. ) ;
#358 = EDGE_LOOP ( 'NONE', ( #406, #204 ) ) ;
#359 = VECTOR ( 'NONE', #394, 1000.000000000000000 ) ;
#360 = AXIS2_PLACEMENT_3D ( 'NONE', #242, #114, #414 ) ;
#361 = PLANE ( 'NONE',  #372 ) ;
#362 = CARTESIAN_POINT ( 'NONE',  ( 5.000000000000000000, 31.50000000000000000, 0.000000000000000000 ) ) ;
#363 = CARTESIAN_POINT ( 'NONE',  ( 0.000000000000000000, 18.00000000000000000, 0.000000000000000000 ) ) ;
#364 = EDGE_CURVE ( 'NONE', #699, #51, #545, .T. ) ;
#365 = FACE_OUTER_BOUND ( 'NONE', #173, .T. ) ;
#366 = CARTESIAN_POINT ( 'NONE',  ( -0.5000000000000042188, 30.75000000000000000, -0.8660254037844361541 ) ) ;
#367 = COORDINATED_UNIVERSAL_TIME_OFFSET ( 5, 0, .BEHIND. ) ;
#368 = DIRECTION ( 'NONE',  ( 0.000000000000000000, -1.000000000000000000, 0.000000000000000000 ) ) ;
#369 = EDGE_CURVE ( 'NONE', #343, #637, #741, .T. ) ;
#370 = CARTESIAN_POINT ( 'NONE',  ( 0.000000000000000000, 31.50000000000000000, 5.000000000000000000 ) ) ;
#371 = CARTESIAN_POINT ( 'NONE',  ( -5.000000000000000000, 31.50000000000000000, 2.100000000000000089 ) ) ;
#372 = AXIS2_PLACEMENT_3D ( 'NONE', #739, #542, #725 ) ;
#373 = AXIS2_PLACEMENT_3D ( 'NONE', #95, #451, #329 ) ;
#374 = DIRECTION ( 'NONE',  ( 0.000000000000000000, -0.000000000000000000, 1.000000000000000000 ) ) ;
#375 = ORIENTED_EDGE ( 'NONE', *, *, #445, .F. ) ;
#376 = DIRECTION ( 'NONE',  ( 0.000000000000000000, 1.000000000000000000, 0.000000000000000000 ) ) ;
#377 = EDGE_CURVE ( 'NONE', #324, #453, #96, .T. ) ;
#378 = DIRECTION ( 'NONE',  ( 0.000000000000000000, 1.000000000000000000, 0.000000000000000000 ) ) ;
#379 = ORIENTED_EDGE ( 'NONE', *, *, #233, .F. ) ;
#380 = DIRECTION ( 'NONE',  ( 0.000000000000000000, 0.000000000000000000, 1.000000000000000000 ) ) ;
#381 = CARTESIAN_POINT ( 'NONE',  ( 1.034826545279513264E-15, 18.00000000000000000, 8.449999999999999289 ) ) ;
#382 = AXIS2_PLACEMENT_3D ( 'NONE', #3, #486, #299 ) ;
#383 = ORIENTED_EDGE ( 'NONE', *, *, #669, .T. ) ;
#384 = DIRECTION ( 'NONE',  ( 0.000000000000000000, 0.000000000000000000, 1.000000000000000000 ) ) ;
#385 = APPROVAL_ROLE ( '' ) ;
#386 = VECTOR ( 'NONE', #556, 1000.000000000000000 ) ;
#387 = ORIENTED_EDGE ( 'NONE', *, *, #59, .F. ) ;
#388 = DIRECTION ( 'NONE',  ( 0.000000000000000000, -0.000000000000000000, 1.000000000000000000 ) ) ;
#389 = ADVANCED_FACE ( 'NONE', ( #421, #105, #345, #465, #533 ), #231, .F. ) ;
#390 = ORIENTED_EDGE ( 'NONE', *, *, #122, .T. ) ;
#391 = CARTESIAN_POINT ( 'NONE',  ( 0.000000000000000000, 38.75000000000000000, -2.125000000000000000 ) ) ;
#392 = AXIS2_PLACEMENT_3D ( 'NONE', #504, #186, #680 ) ;
#393 = DIRECTION ( 'NONE',  ( 0.000000000000000000, 1.000000000000000000, 0.000000000000000000 ) ) ;
#394 = DIRECTION ( 'NONE',  ( 0.000000000000000000, -1.000000000000000000, 0.000000000000000000 ) ) ;
#395 = EDGE_LOOP ( 'NONE', ( #73, #765, #439, #730, #296, #297 ) ) ;
#396 = LINE ( 'NONE', #33, #798 ) ;
#397 = EDGE_CURVE ( 'NONE', #572, #265, #503, .T. ) ;
#398 = DIRECTION ( 'NONE',  ( -0.000000000000000000, -1.000000000000000000, -0.000000000000000000 ) ) ;
#399 = ORIENTED_EDGE ( 'NONE', *, *, #606, .T. ) ;
#400 = ORIENTED_EDGE ( 'NONE', *, *, #11, .F. ) ;
#401 = LINE ( 'NONE', #165, #574 ) ;
#402 = ORIENTED_EDGE ( 'NONE', *, *, #193, .F. ) ;
#403 = AXIS2_PLACEMENT_3D ( 'NONE', #362, #610, #144 ) ;
#404 = DIRECTION ( 'NONE',  ( 8.659560562354904508E-17, -0.7071067811865500152, 0.7071067811865451302 ) ) ;
#405 = EDGE_CURVE ( 'NONE', #17, #286, #311, .T. ) ;
#406 = ORIENTED_EDGE ( 'NONE', *, *, #618, .T. ) ;
#407 = AXIS2_PLACEMENT_3D ( 'NONE', #163, #440, #713 ) ;
#408 = AXIS2_PLACEMENT_3D ( 'NONE', #6, #677, #264 ) ;
#409 = DIRECTION ( 'NONE',  ( 0.000000000000000000, -1.000000000000000000, 0.000000000000000000 ) ) ;
#410 = EDGE_LOOP ( 'NONE', ( #721, #227, #104, #137 ) ) ;
#411 = ORIENTED_EDGE ( 'NONE', *, *, #92, .F. ) ;
#412 = EDGE_CURVE ( 'NONE', #786, #46, #743, .T. ) ;
#413 = ORIENTED_EDGE ( 'NONE', *, *, #682, .T. ) ;
#414 = DIRECTION ( 'NONE',  ( 0.000000000000000000, 0.000000000000000000, 1.000000000000000000 ) ) ;
#415 = CARTESIAN_POINT ( 'NONE',  ( 0.000000000000000000, 31.50000000000000000, 5.000000000000000000 ) ) ;
#416 = FACE_OUTER_BOUND ( 'NONE', #25, .T. ) ;
#417 = EDGE_CURVE ( 'NONE', #58, #448, #135, .T. ) ;
#418 = PRODUCT ( 'ES3', 'ES3', '', ( #70 ) ) ;
#419 = ORIENTED_EDGE ( 'NONE', *, *, #445, .T. ) ;
#420 = VECTOR ( 'NONE', #404, 1000.000000000000114 ) ;
#421 = FACE_OUTER_BOUND ( 'NONE', #570, .T. ) ;
#422 = DIRECTION ( 'NONE',  ( 0.000000000000000000, -0.7071067811865500152, -0.7071067811865451302 ) ) ;
#423 = CARTESIAN_POINT ( 'NONE',  ( 0.000000000000000000, 30.75000000000000000, 0.000000000000000000 ) ) ;
#424 = APPROVAL_STATUS ( 'not_yet_approved' ) ;
#425 = PLANE ( 'NONE',  #661 ) ;
#426 = CYLINDRICAL_SURFACE ( 'NONE', #608, 2.100000000000000089 ) ;
#427 = CARTESIAN_POINT ( 'NONE',  ( 0.000000000000000000, 18.00000000000000000, -2.125000000000000000 ) ) ;
#428 = CC_DESIGN_PERSON_AND_ORGANIZATION_ASSIGNMENT ( #701, #705, ( #534 ) ) ;
#429 = ORIENTED_EDGE ( 'NONE', *, *, #757, .F. ) ;
#430 = DIRECTION ( 'NONE',  ( 0.000000000000000000, -1.000000000000000000, 0.000000000000000000 ) ) ;
#431 = CARTESIAN_POINT ( 'NONE',  ( -5.000000000000000000, 31.50000000000000000, 2.100000000000000089 ) ) ;
#432 = AXIS2_PLACEMENT_3D ( 'NONE', #475, #530, #117 ) ;
#433 = CIRCLE ( 'NONE', #98, 2.100000000000000089 ) ;
#434 = CARTESIAN_POINT ( 'NONE',  ( -0.5000000000000042188, 28.99999999999999645, -0.8660254037844361541 ) ) ;
#435 = ORIENTED_EDGE ( 'NONE', *, *, #587, .T. ) ;
#436 = DIRECTION ( 'NONE',  ( 0.000000000000000000, 0.000000000000000000, -1.000000000000000000 ) ) ;
#437 = CARTESIAN_POINT ( 'NONE',  ( -0.5000000000000042188, 22.00000000000000000, -9.316025403784434999 ) ) ;
#438 = CARTESIAN_POINT ( 'NONE',  ( 1.034826545279513264E-15, 29.00000000000000000, 8.449999999999999289 ) ) ;
#439 = ORIENTED_EDGE ( 'NONE', *, *, #397, .T. ) ;
#440 = DIRECTION ( 'NONE',  ( 0.000000000000000000, 1.000000000000000000, 0.000000000000000000 ) ) ;
#441 = EDGE_CURVE ( 'NONE', #115, #320, #566, .T. ) ;
#442 = EDGE_LOOP ( 'NONE', ( #29, #351, #758, #607 ) ) ;
#443 = CYLINDRICAL_SURFACE ( 'NONE', #484, 2.100000000000000089 ) ;
#444 = DATE_TIME_ROLE ( 'creation_date' ) ;
#445 = EDGE_CURVE ( 'NONE', #656, #51, #164, .T. ) ;
#446 = AXIS2_PLACEMENT_3D ( 'NONE', #761, #259, #496 ) ;
#447 = VECTOR ( 'NONE', #330, 1000.000000000000000 ) ;
#448 = VERTEX_POINT ( 'NONE', #132 ) ;
#449 = DIRECTION ( 'NONE',  ( 0.000000000000000000, 1.000000000000000000, 0.000000000000000000 ) ) ;
#450 = EDGE_CURVE ( 'NONE', #614, #665, #272, .T. ) ;
#451 = DIRECTION ( 'NONE',  ( 0.000000000000000000, 1.000000000000000000, 0.000000000000000000 ) ) ;
#452 = CARTESIAN_POINT ( 'NONE',  ( 0.000000000000000000, 22.00000000000000000, -8.449999999999999289 ) ) ;
#453 = VERTEX_POINT ( 'NONE', #196 ) ;
#454 = CIRCLE ( 'NONE', #210, 8.449999999999999289 ) ;
#455 = EDGE_CURVE ( 'NONE', #699, #129, #719, .T. ) ;
#456 = LINE ( 'NONE', #700, #447 ) ;
#457 = CALENDAR_DATE ( 2026, 26, 8 ) ;
#458 = CARTESIAN_POINT ( 'NONE',  ( 0.000000000000000000, 31.50000000000000000, 2.899999999999999911 ) ) ;
#459 = CIRCLE ( 'NONE', #538, 2.100000000000000089 ) ;
#460 = AXIS2_PLACEMENT_3D ( 'NONE', #21, #780, #254 ) ;
#461 = ORIENTED_EDGE ( 'NONE', *, *, #193, .T. ) ;
#462 = EDGE_LOOP ( 'NONE', ( #400, #64, #224, #501 ) ) ;
#463 = DIRECTION ( 'NONE',  ( 0.000000000000000000, 0.000000000000000000, 1.000000000000000000 ) ) ;
#464 = ORIENTED_EDGE ( 'NONE', *, *, #417, .T. ) ;
#465 = FACE_BOUND ( 'NONE', #472, .T. ) ;
#466 = ORIENTED_EDGE ( 'NONE', *, *, #377, .T. ) ;
#467 = ORIENTED_EDGE ( 'NONE', *, *, #666, .F. ) ;
#468 = AXIS2_PLACEMENT_3D ( 'NONE', #582, #519, #319 ) ;
#469 = CARTESIAN_POINT ( 'NONE',  ( 7.055092401879642594, 18.00000000000000000, -14.00999999999999979 ) ) ;
#470 = ORIENTED_EDGE ( 'NONE', *, *, #659, .F. ) ;
#471 = CC_DESIGN_PERSON_AND_ORGANIZATION_ASSIGNMENT ( #28, #32, ( #698 ) ) ;
#472 = EDGE_LOOP ( 'NONE', ( #595, #402 ) ) ;
#473 = AXIS2_PLACEMENT_3D ( 'NONE', #229, #185, #60 ) ;
#474 = AXIS2_PLACEMENT_3D ( 'NONE', #266, #393, #384 ) ;
#475 = CARTESIAN_POINT ( 'NONE',  ( 0.000000000000000000, 28.99999999999999645, 0.000000000000000000 ) ) ;
#476 = CARTESIAN_POINT ( 'NONE',  ( 0.000000000000000000, 30.75000000000000000, 0.000000000000000000 ) ) ;
#477 = CYLINDRICAL_SURFACE ( 'NONE', #109, 2.125000000000000000 ) ;
#478 =( GEOMETRIC_REPRESENTATION_CONTEXT ( 3 ) GLOBAL_UNCERTAINTY_ASSIGNED_CONTEXT ( ( #643 ) ) GLOBAL_UNIT_ASSIGNED_CONTEXT ( ( #20, #750, #317 ) ) REPRESENTATION_CONTEXT ( 'NONE', 'WORKASPACE' ) );
#479 = CARTESIAN_POINT ( 'NONE',  ( 0.000000000000000000, 28.99999999999999645, 0.000000000000000000 ) ) ;
#480 = CC_DESIGN_PERSON_AND_ORGANIZATION_ASSIGNMENT ( #576, #509, ( #631 ) ) ;
#481 = CARTESIAN_POINT ( 'NONE',  ( 2.571758278209441957E-16, 31.50000000000000000, 7.100000000000000533 ) ) ;
#482 = CIRCLE ( 'NONE', #603, 8.449999999999999289 ) ;
#483 = PLANE ( 'NONE',  #147 ) ;
#484 = AXIS2_PLACEMENT_3D ( 'NONE', #638, #90, #30 ) ;
#485 = CARTESIAN_POINT ( 'NONE',  ( 0.000000000000000000, 38.75000000000000000, -8.449999999999999289 ) ) ;
#486 = DIRECTION ( 'NONE',  ( 0.000000000000000000, 1.000000000000000000, 0.000000000000000000 ) ) ;
#487 = DIRECTION ( 'NONE',  ( 0.000000000000000000, -1.000000000000000000, 0.000000000000000000 ) ) ;
#488 = CARTESIAN_POINT ( 'NONE',  ( -0.5000000000000042188, 30.75000000000000000, -0.8660254037844361541 ) ) ;
#489 = CARTESIAN_POINT ( 'NONE',  ( 7.055092401879641706, 30.75000000000000000, -4.650609766572567416 ) ) ;
#490 = AXIS2_PLACEMENT_3D ( 'NONE', #755, #562, #312 ) ;
#491 = EDGE_LOOP ( 'NONE', ( #47, #737, #778, #239 ) ) ;
#492 = CARTESIAN_POINT ( 'NONE',  ( -0.5000000000000042188, 22.00000000000000000, -0.8660254037844361541 ) ) ;
#493 = CARTESIAN_POINT ( 'NONE',  ( 9.735942053221450984E-16, 38.75000000000000000, 7.449999999999991296 ) ) ;
#494 = AXIS2_PLACEMENT_3D ( 'NONE', #203, #398, #586 ) ;
#495 = EDGE_CURVE ( 'NONE', #572, #343, #174, .T. ) ;
#496 = DIRECTION ( 'NONE',  ( 0.000000000000000000, -0.000000000000000000, 1.000000000000000000 ) ) ;
#497 = ORIENTED_EDGE ( 'NONE', *, *, #455, .T. ) ;
#498 = DIRECTION ( 'NONE',  ( -0.000000000000000000, -1.000000000000000000, -0.000000000000000000 ) ) ;
#499 = CIRCLE ( 'NONE', #663, 8.449999999999999289 ) ;
#500 = CARTESIAN_POINT ( 'NONE',  ( 2.602374448188125350E-16, 18.00000000000000000, 2.125000000000000000 ) ) ;
#501 = ORIENTED_EDGE ( 'NONE', *, *, #31, .F. ) ;
#502 = EDGE_CURVE ( 'NONE', #265, #58, #150, .T. ) ;
#503 = LINE ( 'NONE', #485, #86 ) ;
#504 = CARTESIAN_POINT ( 'NONE',  ( 0.000000000000000000, 0.000000000000000000, 0.000000000000000000 ) ) ;
#505 = ORIENTED_EDGE ( 'NONE', *, *, #168, .T. ) ;
#506 = CC_DESIGN_APPROVAL ( #342, ( #698 ) ) ;
#507 = CARTESIAN_POINT ( 'NONE',  ( 0.000000000000000000, 38.75000000000000000, 0.000000000000000000 ) ) ;
#508 = ADVANCED_FACE ( 'NONE', ( #561 ), #18, .F. ) ;
#509 = PERSON_AND_ORGANIZATION_ROLE ( 'creator' ) ;
#510 = CIRCLE ( 'NONE', #727, 2.125000000000000000 ) ;
#511 = ORIENTED_EDGE ( 'NONE', *, *, #377, .F. ) ;
#512 = PLANE ( 'NONE',  #237 ) ;
#513 = CALENDAR_DATE ( 2026, 26, 8 ) ;
#514 = AXIS2_PLACEMENT_3D ( 'NONE', #298, #171, #294 ) ;
#515 = EDGE_CURVE ( 'NONE', #170, #115, #551, .T. ) ;
#516 = AXIS2_PLACEMENT_3D ( 'NONE', #488, #15, #746 ) ;
#517 = FACE_OUTER_BOUND ( 'NONE', #627, .T. ) ;
#518 = CALENDAR_DATE ( 2026, 26, 8 ) ;
#519 = DIRECTION ( 'NONE',  ( -0.000000000000000000, -1.000000000000000000, -0.000000000000000000 ) ) ;
#520 = ADVANCED_FACE ( 'NONE', ( #82 ), #628, .F. ) ;
#521 = DIRECTION ( 'NONE',  ( -0.000000000000000000, 1.000000000000000000, 0.000000000000000000 ) ) ;
#522 = DATE_AND_TIME ( #102, #69 ) ;
#523 = LINE ( 'NONE', #438, #57 ) ;
#524 = ORIENTED_EDGE ( 'NONE', *, *, #553, .F. ) ;
#525 = DIRECTION ( 'NONE',  ( 0.000000000000000000, 1.000000000000000000, -0.000000000000000000 ) ) ;
#526 = CARTESIAN_POINT ( 'NONE',  ( -5.000000000000000000, 18.00000000000000000, 0.000000000000000000 ) ) ;
#527 = AXIS2_PLACEMENT_3D ( 'NONE', #547, #201, #14 ) ;
#528 = ORIENTED_EDGE ( 'NONE', *, *, #441, .T. ) ;
#529 = ORIENTED_EDGE ( 'NONE', *, *, #618, .F. ) ;
#530 = DIRECTION ( 'NONE',  ( 0.000000000000000000, 1.000000000000000000, 0.000000000000000000 ) ) ;
#531 = ORIENTED_EDGE ( 'NONE', *, *, #450, .T. ) ;
#532 = EDGE_CURVE ( 'NONE', #448, #735, #72, .T. ) ;
#533 = FACE_BOUND ( 'NONE', #535, .T. ) ;
#534 = SECURITY_CLASSIFICATION ( '', '', #337 ) ;
#535 = EDGE_LOOP ( 'NONE', ( #668, #195 ) ) ;
#536 = ORIENTED_EDGE ( 'NONE', *, *, #168, .F. ) ;
#537 = DIRECTION ( 'NONE',  ( 0.000000000000000000, 0.000000000000000000, 1.000000000000000000 ) ) ;
#538 = AXIS2_PLACEMENT_3D ( 'NONE', #526, #279, #167 ) ;
#539 = FACE_OUTER_BOUND ( 'NONE', #716, .T. ) ;
#540 = CIRCLE ( 'NONE', #432, 8.449999999999999289 ) ;
#541 = AXIS2_PLACEMENT_3D ( 'NONE', #42, #222, #774 ) ;
#542 = DIRECTION ( 'NONE',  ( 0.000000000000000000, 1.000000000000000000, 0.000000000000000000 ) ) ;
#543 = ADVANCED_FACE ( 'NONE', ( #263 ), #426, .F. ) ;
#544 = DIRECTION ( 'NONE',  ( -0.000000000000000000, -1.000000000000000000, -0.000000000000000000 ) ) ;
#545 = LINE ( 'NONE', #481, #704 ) ;
#546 = FACE_OUTER_BOUND ( 'NONE', #327, .T. ) ;
#547 = CARTESIAN_POINT ( 'NONE',  ( 0.000000000000000000, 37.74999999999998579, 0.000000000000000000 ) ) ;
#548 = APPLICATION_PROTOCOL_DEFINITION ( 'international standard', 'config_control_design', 1994, #85 ) ;
#549 = AXIS2_PLACEMENT_3D ( 'NONE', #476, #623, #12 ) ;
#550 = LINE ( 'NONE', #683, #19 ) ;
#551 = CIRCLE ( 'NONE', #759, 8.449999999999999289 ) ;
#552 = CARTESIAN_POINT ( 'NONE',  ( -5.000000000000000000, 31.50000000000000000, 0.000000000000000000 ) ) ;
#553 = EDGE_CURVE ( 'NONE', #320, #234, #499, .T. ) ;
#554 = DIRECTION ( 'NONE',  ( 0.000000000000000000, 1.000000000000000000, 0.000000000000000000 ) ) ;
#555 = EDGE_LOOP ( 'NONE', ( #602, #81, #466, #251 ) ) ;
#556 = DIRECTION ( 'NONE',  ( -0.000000000000000000, -1.000000000000000000, -0.000000000000000000 ) ) ;
#557 = LINE ( 'NONE', #431, #315 ) ;
#558 = ADVANCED_FACE ( 'NONE', ( #10 ), #248, .F. ) ;
#559 = DIRECTION ( 'NONE',  ( -0.000000000000000000, -1.000000000000000000, 0.000000000000000000 ) ) ;
#560 = EDGE_LOOP ( 'NONE', ( #651, #390, #166, #467 ) ) ;
#561 = FACE_OUTER_BOUND ( 'NONE', #410, .T. ) ;
#562 = DIRECTION ( 'NONE',  ( 0.000000000000000000, 1.000000000000000000, 0.000000000000000000 ) ) ;
#563 = CARTESIAN_POINT ( 'NONE',  ( 7.055092401879641706, 22.00000000000000000, -4.650609766572567416 ) ) ;
#564 = ADVANCED_FACE ( 'NONE', ( #621, #684 ), #75, .T. ) ;
#565 = ORIENTED_EDGE ( 'NONE', *, *, #532, .T. ) ;
#566 = LINE ( 'NONE', #192, #23 ) ;
#567 = APPLICATION_PROTOCOL_DEFINITION ( 'international standard', 'config_control_design', 1994, #258 ) ;
#568 = AXIS2_PLACEMENT_3D ( 'NONE', #341, #784, #463 ) ;
#569 = APPROVAL ( #775, 'UNSPECIFIED' ) ;
#570 = EDGE_LOOP ( 'NONE', ( #524, #793 ) ) ;
#571 = DIRECTION ( 'NONE',  ( -0.000000000000000000, -1.000000000000000000, -0.000000000000000000 ) ) ;
#572 = VERTEX_POINT ( 'NONE', #770 ) ;
#573 = DIRECTION ( 'NONE',  ( 0.000000000000000000, 0.000000000000000000, -1.000000000000000000 ) ) ;
#574 = VECTOR ( 'NONE', #333, 1000.000000000000000 ) ;
#575 = CARTESIAN_POINT ( 'NONE',  ( 0.000000000000000000, 38.75000000000000000, 0.000000000000000000 ) ) ;
#576 = PERSON_AND_ORGANIZATION ( #767, #712 ) ;
#577 = CC_DESIGN_PERSON_AND_ORGANIZATION_ASSIGNMENT ( #35, #710, ( #698 ) ) ;
#578 = CARTESIAN_POINT ( 'NONE',  ( 0.000000000000000000, 18.00000000000000000, 0.000000000000000000 ) ) ;
#579 = AXIS2_PLACEMENT_3D ( 'NONE', #306, #139, #380 ) ;
#580 = CIRCLE ( 'NONE', #373, 7.449999999999991296 ) ;
#581 = FACE_OUTER_BOUND ( 'NONE', #273, .T. ) ;
#582 = CARTESIAN_POINT ( 'NONE',  ( 0.000000000000000000, 38.75000000000000000, 0.000000000000000000 ) ) ;
#583 = ORIENTED_EDGE ( 'NONE', *, *, #791, .F. ) ;
#584 = DIRECTION ( 'NONE',  ( 0.000000000000000000, 0.000000000000000000, 1.000000000000000000 ) ) ;
#585 = APPROVAL_DATE_TIME ( #522, #342 ) ;
#586 = DIRECTION ( 'NONE',  ( 0.000000000000000000, 0.000000000000000000, -1.000000000000000000 ) ) ;
#587 = EDGE_CURVE ( 'NONE', #453, #58, #396, .T. ) ;
#588 = EDGE_LOOP ( 'NONE', ( #781, #379, #154, #284, #565, #134, #531 ) ) ;
#589 = ORIENTED_EDGE ( 'NONE', *, *, #280, .F. ) ;
#590 = CARTESIAN_POINT ( 'NONE',  ( 1.034826545279513461E-15, 38.75000000000000000, 8.449999999999999289 ) ) ;
#591 = CIRCLE ( 'NONE', #636, 2.125000000000000000 ) ;
#592 = CIRCLE ( 'NONE', #246, 8.449999999999999289 ) ;
#593 = VERTEX_POINT ( 'NONE', #703 ) ;
#594 = ADVANCED_FACE ( 'NONE', ( #581 ), #512, .F. ) ;
#595 = ORIENTED_EDGE ( 'NONE', *, *, #225, .F. ) ;
#596 = CYLINDRICAL_SURFACE ( 'NONE', #514, 8.449999999999999289 ) ;
#597 = EDGE_LOOP ( 'NONE', ( #54, #505 ) ) ;
#598 = EDGE_LOOP ( 'NONE', ( #687, #149, #262, #293 ) ) ;
#599 = EDGE_LOOP ( 'NONE', ( #633, #470 ) ) ;
#600 = CARTESIAN_POINT ( 'NONE',  ( -0.5000000000000042188, 30.75000000000000000, -0.8660254037844361541 ) ) ;
#601 = CC_DESIGN_APPROVAL ( #569, ( #534 ) ) ;
#602 = ORIENTED_EDGE ( 'NONE', *, *, #216, .F. ) ;
#603 = AXIS2_PLACEMENT_3D ( 'NONE', #250, #554, #243 ) ;
#604 = AXIS2_PLACEMENT_3D ( 'NONE', #658, #141, #44 ) ;
#605 = CARTESIAN_POINT ( 'NONE',  ( 5.000000000000000000, 18.00000000000000000, 2.100000000000000089 ) ) ;
#606 = EDGE_CURVE ( 'NONE', #51, #656, #620, .T. ) ;
#607 = ORIENTED_EDGE ( 'NONE', *, *, #450, .F. ) ;
#608 = AXIS2_PLACEMENT_3D ( 'NONE', #676, #125, #679 ) ;
#609 = CARTESIAN_POINT ( 'NONE',  ( 0.000000000000000000, 38.75000000000000000, 0.000000000000000000 ) ) ;
#610 = DIRECTION ( 'NONE',  ( 0.000000000000000000, 1.000000000000000000, 0.000000000000000000 ) ) ;
#611 = PRODUCT_DEFINITION_SHAPE ( 'NONE', 'NONE',  #631 ) ;
#612 = DIRECTION ( 'NONE',  ( 0.000000000000000000, 1.000000000000000000, 0.000000000000000000 ) ) ;
#613 = CARTESIAN_POINT ( 'NONE',  ( 5.000000000000000000, 18.00000000000000000, -2.100000000000000089 ) ) ;
#614 = VERTEX_POINT ( 'NONE', #274 ) ;
#615 = DIRECTION ( 'NONE',  ( 0.000000000000000000, -1.000000000000000000, 0.000000000000000000 ) ) ;
#616 = CARTESIAN_POINT ( 'NONE',  ( -5.000000000000000000, 31.50000000000000000, 0.000000000000000000 ) ) ;
#617 = CARTESIAN_POINT ( 'NONE',  ( 1.034826545279513264E-15, 22.00000000000000000, 8.449999999999999289 ) ) ;
#618 = EDGE_CURVE ( 'NONE', #256, #738, #580, .T. ) ;
#619 = AXIS2_PLACEMENT_3D ( 'NONE', #600, #790, #240 ) ;
#620 = CIRCLE ( 'NONE', #335, 2.100000000000000089 ) ;
#621 = FACE_OUTER_BOUND ( 'NONE', #358, .T. ) ;
#622 = CARTESIAN_POINT ( 'NONE',  ( -0.5000000000000042188, 22.00000000000000000, -0.8660254037844361541 ) ) ;
#623 = DIRECTION ( 'NONE',  ( -0.000000000000000000, -1.000000000000000000, -0.000000000000000000 ) ) ;
#624 = ORIENTED_EDGE ( 'NONE', *, *, #553, .T. ) ;
#625 = CARTESIAN_POINT ( 'NONE',  ( 0.000000000000000000, 22.00000000000000000, 0.000000000000000000 ) ) ;
#626 = FACE_OUTER_BOUND ( 'NONE', #395, .T. ) ;
#627 = EDGE_LOOP ( 'NONE', ( #792, #708, #232, #435, #269, #289 ) ) ;
#628 = CYLINDRICAL_SURFACE ( 'NONE', #48, 2.100000000000000089 ) ;
#629 = DIRECTION ( 'NONE',  ( -0.000000000000000000, 1.000000000000000000, 0.000000000000000000 ) ) ;
#630 = AXIS2_PLACEMENT_3D ( 'NONE', #304, #368, #126 ) ;
#631 = PRODUCT_DEFINITION ( 'UNKNOWN', '', #698, #211 ) ;
#632 = LINE ( 'NONE', #94, #675 ) ;
#633 = ORIENTED_EDGE ( 'NONE', *, *, #99, .F. ) ;
#634 = DIRECTION ( 'NONE',  ( 0.000000000000000000, -1.000000000000000000, 0.000000000000000000 ) ) ;
#635 = APPROVAL_ROLE ( '' ) ;
#636 = AXIS2_PLACEMENT_3D ( 'NONE', #223, #226, #723 ) ;
#637 = VERTEX_POINT ( 'NONE', #779 ) ;
#638 = CARTESIAN_POINT ( 'NONE',  ( 0.000000000000000000, 31.50000000000000000, 5.000000000000000000 ) ) ;
#639 = ORIENTED_EDGE ( 'NONE', *, *, #773, .T. ) ;
#640 = APPROVAL_PERSON_ORGANIZATION ( #157, #569, #385 ) ;
#641 = ADVANCED_FACE ( 'NONE', ( #159 ), #278, .T. ) ;
#642 = CYLINDRICAL_SURFACE ( 'NONE', #732, 8.449999999999999289 ) ;
#643 = UNCERTAINTY_MEASURE_WITH_UNIT (LENGTH_MEASURE( 1.000000000000000082E-05 ), #20, 'distance_accuracy_value', 'NONE');
#644 = MANIFOLD_SOLID_BREP ( 'Stock-Eccentric Shaft-1', #83 ) ;
#645 = CARTESIAN_POINT ( 'NONE',  ( 5.000000000000000000, 31.50000000000000000, -2.100000000000000089 ) ) ;
#646 = APPROVAL ( #424, 'UNSPECIFIED' ) ;
#647 = APPROVAL_DATE_TIME ( #153, #569 ) ;
#648 = CARTESIAN_POINT ( 'NONE',  ( 5.000000000000000000, 31.50000000000000000, 2.100000000000000089 ) ) ;
#649 = AXIS2_PLACEMENT_3D ( 'NONE', #469, #175, #537 ) ;
#650 = CONICAL_SURFACE ( 'NONE', #308, 7.449999999999991296, 0.7853981633974447263 ) ;
#651 = ORIENTED_EDGE ( 'NONE', *, *, #92, .T. ) ;
#652 = LINE ( 'NONE', #645, #706 ) ;
#653 = PERSON_AND_ORGANIZATION ( #767, #712 ) ;
#654 = CARTESIAN_POINT ( 'NONE',  ( 0.000000000000000000, 38.75000000000000000, 0.000000000000000000 ) ) ;
#655 = ADVANCED_FACE ( 'NONE', ( #517 ), #642, .T. ) ;
#656 = VERTEX_POINT ( 'NONE', #217 ) ;
#657 = ORIENTED_EDGE ( 'NONE', *, *, #606, .F. ) ;
#658 = CARTESIAN_POINT ( 'NONE',  ( 0.2499999999999985012, 22.00000000000000000, 0.000000000000000000 ) ) ;
#659 = EDGE_CURVE ( 'NONE', #724, #728, #36, .T. ) ;
#660 = ORIENTED_EDGE ( 'NONE', *, *, #757, .T. ) ;
#661 = AXIS2_PLACEMENT_3D ( 'NONE', #686, #124, #374 ) ;
#662 = CYLINDRICAL_SURFACE ( 'NONE', #619, 8.449999999999999289 ) ;
#663 = AXIS2_PLACEMENT_3D ( 'NONE', #363, #302, #5 ) ;
#664 = AXIS2_PLACEMENT_3D ( 'NONE', #244, #487, #749 ) ;
#665 = VERTEX_POINT ( 'NONE', #339 ) ;
#666 = EDGE_CURVE ( 'NONE', #208, #734, #652, .T. ) ;
#667 = DIRECTION ( 'NONE',  ( 0.000000000000000000, 0.000000000000000000, -1.000000000000000000 ) ) ;
#668 = ORIENTED_EDGE ( 'NONE', *, *, #331, .F. ) ;
#669 = EDGE_CURVE ( 'NONE', #115, #614, #136, .T. ) ;
#670 = DIRECTION ( 'NONE',  ( 0.000000000000000000, 0.000000000000000000, -1.000000000000000000 ) ) ;
#671 = CIRCLE ( 'NONE', #490, 2.100000000000000089 ) ;
#672 = DIRECTION ( 'NONE',  ( 0.000000000000000000, 1.000000000000000000, 0.000000000000000000 ) ) ;
#673 = DIRECTION ( 'NONE',  ( -0.000000000000000000, -1.000000000000000000, -0.000000000000000000 ) ) ;
#674 = ORIENTED_EDGE ( 'NONE', *, *, #733, .F. ) ;
#675 = VECTOR ( 'NONE', #776, 1000.000000000000000 ) ;
#676 = CARTESIAN_POINT ( 'NONE',  ( 5.000000000000000000, 31.50000000000000000, 0.000000000000000000 ) ) ;
#677 = DIRECTION ( 'NONE',  ( 0.000000000000000000, 1.000000000000000000, 0.000000000000000000 ) ) ;
#678 = VERTEX_POINT ( 'NONE', #282 ) ;
#679 = DIRECTION ( 'NONE',  ( 0.000000000000000000, 0.000000000000000000, -1.000000000000000000 ) ) ;
#680 = DIRECTION ( 'NONE',  ( 1.000000000000000000, 0.000000000000000000, 0.000000000000000000 ) ) ;
#681 = AXIS2_PLACEMENT_3D ( 'NONE', #622, #696, #76 ) ;
#682 = EDGE_CURVE ( 'NONE', #129, #656, #456, .T. ) ;
#683 = CARTESIAN_POINT ( 'NONE',  ( 0.000000000000000000, 38.75000000000000000, -7.449999999999991296 ) ) ;
#684 = FACE_BOUND ( 'NONE', #599, .T. ) ;
#685 = PERSON_AND_ORGANIZATION_ROLE ( 'design_owner' ) ;
#686 = CARTESIAN_POINT ( 'NONE',  ( -0.5000000000000042188, 30.75000000000000000, -0.8660254037844361541 ) ) ;
#687 = ORIENTED_EDGE ( 'NONE', *, *, #122, .F. ) ;
#688 = AXIS2_PLACEMENT_3D ( 'NONE', #370, #376, #316 ) ;
#689 = CIRCLE ( 'NONE', #348, 8.449999999999999289 ) ;
#690 = DIRECTION ( 'NONE',  ( 0.000000000000000000, 1.000000000000000000, 0.000000000000000000 ) ) ;
#691 = DIRECTION ( 'NONE',  ( 0.000000000000000000, -1.000000000000000000, 0.000000000000000000 ) ) ;
#692 = CARTESIAN_POINT ( 'NONE',  ( -5.000000000000000000, 18.00000000000000000, 2.100000000000000089 ) ) ;
#693 = EDGE_LOOP ( 'NONE', ( #387, #353, #200, #290, #230 ) ) ;
#694 = CARTESIAN_POINT ( 'NONE',  ( -0.5000000000000042188, 30.75000000000000000, -9.316025403784434999 ) ) ;
#695 = EDGE_CURVE ( 'NONE', #234, #320, #689, .T. ) ;
#696 = DIRECTION ( 'NONE',  ( 0.000000000000000000, 1.000000000000000000, 0.000000000000000000 ) ) ;
#697 = DIRECTION ( 'NONE',  ( 0.000000000000000000, 0.000000000000000000, 1.000000000000000000 ) ) ;
#698 = PRODUCT_DEFINITION_FORMATION_WITH_SPECIFIED_SOURCE ( 'ANY', '', #418, .NOT_KNOWN. ) ;
#699 = VERTEX_POINT ( 'NONE', #717 ) ;
#700 = CARTESIAN_POINT ( 'NONE',  ( 0.000000000000000000, 31.50000000000000000, 2.899999999999999911 ) ) ;
#701 = PERSON_AND_ORGANIZATION ( #767, #712 ) ;
#702 = ORIENTED_EDGE ( 'NONE', *, *, #682, .F. ) ;
#703 = CARTESIAN_POINT ( 'NONE',  ( -5.000000000000000000, 18.00000000000000000, -2.100000000000000089 ) ) ;
#704 = VECTOR ( 'NONE', #787, 1000.000000000000000 ) ;
#705 = PERSON_AND_ORGANIZATION_ROLE ( 'classification_officer' ) ;
#706 = VECTOR ( 'NONE', #101, 1000.000000000000000 ) ;
#707 = EDGE_CURVE ( 'NONE', #292, #734, #433, .T. ) ;
#708 = ORIENTED_EDGE ( 'NONE', *, *, #369, .T. ) ;
#709 = CARTESIAN_POINT ( 'NONE',  ( 0.000000000000000000, 18.00000000000000000, 5.000000000000000000 ) ) ;
#710 = PERSON_AND_ORGANIZATION_ROLE ( 'design_supplier' ) ;
#711 = ADVANCED_FACE ( 'NONE', ( #87 ), #650, .T. ) ;
#712 = ORGANIZATION ( 'UNSPECIFIED', 'UNSPECIFIED', '' ) ;
#713 = DIRECTION ( 'NONE',  ( 0.000000000000000000, -0.000000000000000000, 1.000000000000000000 ) ) ;
#714 = APPROVAL_STATUS ( 'not_yet_approved' ) ;
#715 = PLANE ( 'NONE',  #604 ) ;
#716 = EDGE_LOOP ( 'NONE', ( #429, #221 ) ) ;
#717 = CARTESIAN_POINT ( 'NONE',  ( 2.571758278209441957E-16, 31.50000000000000000, 7.100000000000000533 ) ) ;
#718 = LINE ( 'NONE', #80, #359 ) ;
#719 = CIRCLE ( 'NONE', #688, 2.100000000000000089 ) ;
#720 = ORIENTED_EDGE ( 'NONE', *, *, #412, .F. ) ;
#721 = ORIENTED_EDGE ( 'NONE', *, *, #752, .T. ) ;
#722 = ADVANCED_FACE ( 'NONE', ( #209 ), #443, .F. ) ;
#723 = DIRECTION ( 'NONE',  ( 0.000000000000000000, 0.000000000000000000, 1.000000000000000000 ) ) ;
#724 = VERTEX_POINT ( 'NONE', #156 ) ;
#725 = DIRECTION ( 'NONE',  ( 0.000000000000000000, -0.000000000000000000, 1.000000000000000000 ) ) ;
#726 = EDGE_LOOP ( 'NONE', ( #310, #78, #162, #528, #624 ) ) ;
#727 = AXIS2_PLACEMENT_3D ( 'NONE', #654, #283, #219 ) ;
#728 = VERTEX_POINT ( 'NONE', #391 ) ;
#729 = FACE_OUTER_BOUND ( 'NONE', #462, .T. ) ;
#730 = ORIENTED_EDGE ( 'NONE', *, *, #26, .F. ) ;
#731 = AXIS2_PLACEMENT_3D ( 'NONE', #578, #559, #16 ) ;
#732 = AXIS2_PLACEMENT_3D ( 'NONE', #575, #571, #270 ) ;
#733 = EDGE_CURVE ( 'NONE', #735, #614, #214, .T. ) ;
#734 = VERTEX_POINT ( 'NONE', #613 ) ;
#735 = VERTEX_POINT ( 'NONE', #437 ) ;
#736 = LINE ( 'NONE', #65, #420 ) ;
#737 = ORIENTED_EDGE ( 'NONE', *, *, #659, .T. ) ;
#738 = VERTEX_POINT ( 'NONE', #493 ) ;
#739 = CARTESIAN_POINT ( 'NONE',  ( 5.000000000000000000, 31.50000000000000000, 0.000000000000000000 ) ) ;
#740 = DIRECTION ( 'NONE',  ( 0.000000000000000000, 1.000000000000000000, 0.000000000000000000 ) ) ;
#741 = LINE ( 'NONE', #590, #199 ) ;
#742 = CYLINDRICAL_SURFACE ( 'NONE', #630, 2.100000000000000089 ) ;
#743 = CIRCLE ( 'NONE', #235, 2.100000000000000089 ) ;
#744 = AXIS2_PLACEMENT_3D ( 'NONE', #423, #252, #68 ) ;
#745 = DIRECTION ( 'NONE',  ( -0.000000000000000000, -1.000000000000000000, -0.000000000000000000 ) ) ;
#746 = DIRECTION ( 'NONE',  ( 0.000000000000000000, 0.000000000000000000, 1.000000000000000000 ) ) ;
#747 = EDGE_CURVE ( 'NONE', #614, #13, #592, .T. ) ;
#748 = CARTESIAN_POINT ( 'NONE',  ( -0.5000000000000042188, 30.75000000000000000, -0.8660254037844361541 ) ) ;
#749 = DIRECTION ( 'NONE',  ( 0.000000000000000000, 0.000000000000000000, -1.000000000000000000 ) ) ;
#750 =( NAMED_UNIT ( * ) PLANE_ANGLE_UNIT ( ) SI_UNIT ( $, .RADIAN. ) );
#751 = DIRECTION ( 'NONE',  ( -0.000000000000000000, 1.000000000000000000, 0.000000000000000000 ) ) ;
#752 = EDGE_CURVE ( 'NONE', #46, #786, #9, .T. ) ;
#753 = EDGE_LOOP ( 'NONE', ( #589, #529, #55, #346 ) ) ;
#754 = DIRECTION ( 'NONE',  ( 0.000000000000000000, 0.000000000000000000, 1.000000000000000000 ) ) ;
#755 = CARTESIAN_POINT ( 'NONE',  ( 5.000000000000000000, 31.50000000000000000, 0.000000000000000000 ) ) ;
#756 = CYLINDRICAL_SURFACE ( 'NONE', #468, 8.449999999999999289 ) ;
#757 = EDGE_CURVE ( 'NONE', #129, #699, #111, .T. ) ;
#758 = ORIENTED_EDGE ( 'NONE', *, *, #782, .F. ) ;
#759 = AXIS2_PLACEMENT_3D ( 'NONE', #625, #612, #205 ) ;
#760 = DIRECTION ( 'NONE',  ( 0.000000000000000000, 0.000000000000000000, 1.000000000000000000 ) ) ;
#761 = CARTESIAN_POINT ( 'NONE',  ( -0.5000000000000042188, 22.00000000000000000, -0.8660254037844361541 ) ) ;
#762 = ORIENTED_EDGE ( 'NONE', *, *, #158, .T. ) ;
#763 = DIRECTION ( 'NONE',  ( 0.000000000000000000, 1.000000000000000000, 0.000000000000000000 ) ) ;
#764 = LOCAL_TIME ( 9, 45, 59.00000000000000000, #267 ) ;
#765 = ORIENTED_EDGE ( 'NONE', *, *, #261, .T. ) ;
#766 = DIRECTION ( 'NONE',  ( 0.000000000000000000, 0.000000000000000000, -1.000000000000000000 ) ) ;
#767 = PERSON ( 'UNSPECIFIED', 'UNSPECIFIED', 'UNSPECIFIED', ('UNSPECIFIED'), ('UNSPECIFIED'), ('UNSPECIFIED') ) ;
#768 = AXIS2_PLACEMENT_3D ( 'NONE', #479, #740, #184 ) ;
#769 = ORIENTED_EDGE ( 'NONE', *, *, #364, .T. ) ;
#770 = CARTESIAN_POINT ( 'NONE',  ( 0.000000000000000000, 37.74999999999998579, -8.449999999999999289 ) ) ;
#771 = DATE_TIME_ROLE ( 'classification_date' ) ;
#772 = AXIS2_PLACEMENT_3D ( 'NONE', #616, #197, #253 ) ;
#773 = EDGE_CURVE ( 'NONE', #448, #17, #74, .T. ) ;
#774 = DIRECTION ( 'NONE',  ( 0.000000000000000000, 0.000000000000000000, -1.000000000000000000 ) ) ;
#775 = APPROVAL_STATUS ( 'not_yet_approved' ) ;
#776 = DIRECTION ( 'NONE',  ( -0.000000000000000000, -1.000000000000000000, -0.000000000000000000 ) ) ;
#777 = CC_DESIGN_SECURITY_CLASSIFICATION ( #534, ( #698 ) ) ;
#778 = ORIENTED_EDGE ( 'NONE', *, *, #328, .T. ) ;
#779 = CARTESIAN_POINT ( 'NONE',  ( 1.034826545279513461E-15, 28.99999999999999645, 8.449999999999999289 ) ) ;
#780 = DIRECTION ( 'NONE',  ( 0.000000000000000000, 1.000000000000000000, -0.000000000000000000 ) ) ;
#781 = ORIENTED_EDGE ( 'NONE', *, *, #155, .F. ) ;
#782 = EDGE_CURVE ( 'NONE', #665, #170, #176, .T. ) ;
#783 = DIRECTION ( 'NONE',  ( 0.000000000000000000, 0.000000000000000000, 1.000000000000000000 ) ) ;
#784 = DIRECTION ( 'NONE',  ( 0.000000000000000000, 1.000000000000000000, 0.000000000000000000 ) ) ;
#785 = CIRCLE ( 'NONE', #731, 2.125000000000000000 ) ;
#786 = VERTEX_POINT ( 'NONE', #371 ) ;
#787 = DIRECTION ( 'NONE',  ( 0.000000000000000000, -1.000000000000000000, 0.000000000000000000 ) ) ;
#788 = ORIENTED_EDGE ( 'NONE', *, *, #41, .T. ) ;
#789 = EDGE_LOOP ( 'NONE', ( #660, #769, #375, #702 ) ) ;
#790 = DIRECTION ( 'NONE',  ( -0.000000000000000000, -1.000000000000000000, -0.000000000000000000 ) ) ;
#791 = EDGE_CURVE ( 'NONE', #678, #208, #671, .T. ) ;
#792 = ORIENTED_EDGE ( 'NONE', *, *, #495, .T. ) ;
#793 = ORIENTED_EDGE ( 'NONE', *, *, #695, .F. ) ;
#794 = EDGE_LOOP ( 'NONE', ( #194, #84, #762, #536 ) ) ;
#795 = FACE_OUTER_BOUND ( 'NONE', #726, .T. ) ;
#796 = EDGE_CURVE ( 'NONE', #786, #177, #557, .T. ) ;
#797 = VECTOR ( 'NONE', #673, 1000.000000000000000 ) ;
#798 = VECTOR ( 'NONE', #215, 1000.000000000000000 ) ;
#799 = CARTESIAN_POINT ( 'NONE',  ( -5.000000000000000000, 31.50000000000000000, -2.100000000000000089 ) ) ;
#800 = ORIENTED_EDGE ( 'NONE', *, *, #502, .T. ) ;
#801 = CARTESIAN_POINT ( 'NONE',  ( -0.5000000000000031086, 28.99999999999999645, 7.583974596215563579 ) ) ;
ENDSEC;
END-ISO-10303-21;
