ISO-10303-21;
HEADER;
FILE_DESCRIPTION (( 'STEP AP203' ),
    '1' );
FILE_NAME ('Magnent Holder.STEP',
    '2026-08-23T22:21:10',
    ( '' ),
    ( '' ),
    'SwSTEP 2.0',
    'SolidWorks 2025',
    '' );
FILE_SCHEMA (( 'CONFIG_CONTROL_DESIGN' ));
ENDSEC;

DATA;
#1 = DIRECTION ( 'NONE',  ( 0.000000000000000000, 0.000000000000000000, 1.000000000000000000 ) ) ;
#2 = DIRECTION ( 'NONE',  ( 0.000000000000000000, 1.000000000000000000, -0.000000000000000000 ) ) ;
#3 = LOCAL_TIME ( 18, 21, 10.00000000000000000, #462 ) ;
#4 = EDGE_CURVE ( 'NONE', #178, #403, #28, .T. ) ;
#5 = DATE_TIME_ROLE ( 'classification_date' ) ;
#6 = EDGE_CURVE ( 'NONE', #605, #240, #357, .T. ) ;
#7 = DIRECTION ( 'NONE',  ( 0.000000000000000000, 0.000000000000000000, 1.000000000000000000 ) ) ;
#8 = DIRECTION ( 'NONE',  ( 0.000000000000000000, 0.000000000000000000, 1.000000000000000000 ) ) ;
#9 = APPROVAL_ROLE ( '' ) ;
#10 = CARTESIAN_POINT ( 'NONE',  ( 3.612708057484692590E-16, 31.00000000000000000, 2.950000000000000622 ) ) ;
#11 = EDGE_CURVE ( 'NONE', #676, #807, #533, .T. ) ;
#12 = EDGE_LOOP ( 'NONE', ( #837, #225, #282, #439 ) ) ;
#13 = PERSON_AND_ORGANIZATION ( #608, #530 ) ;
#14 = DIRECTION ( 'NONE',  ( 0.000000000000000000, 0.000000000000000000, 1.000000000000000000 ) ) ;
#15 = ORIENTED_EDGE ( 'NONE', *, *, #517, .F. ) ;
#16 = VECTOR ( 'NONE', #212, 1000.000000000000000 ) ;
#17 = ORIENTED_EDGE ( 'NONE', *, *, #265, .F. ) ;
#18 = DIRECTION ( 'NONE',  ( -0.000000000000000000, -1.000000000000000000, -0.000000000000000000 ) ) ;
#19 = ORIENTED_EDGE ( 'NONE', *, *, #391, .F. ) ;
#20 = ORIENTED_EDGE ( 'NONE', *, *, #36, .T. ) ;
#21 = CARTESIAN_POINT ( 'NONE',  ( 1.959434878635764984E-16, 0.000000000000000000, -8.400000000000000355 ) ) ;
#22 = ORIENTED_EDGE ( 'NONE', *, *, #6, .F. ) ;
#23 = CARTESIAN_POINT ( 'NONE',  ( 7.885984946898764041E-15, 1.000000000000000000, 10.00000000000114575 ) ) ;
#24 = EDGE_CURVE ( 'NONE', #104, #449, #156, .T. ) ;
#25 = DIRECTION ( 'NONE',  ( -0.000000000000000000, -1.000000000000000000, -0.000000000000000000 ) ) ;
#26 = DIRECTION ( 'NONE',  ( 0.000000000000000000, 0.000000000000000000, 1.000000000000000000 ) ) ;
#27 = CARTESIAN_POINT ( 'NONE',  ( 10.00000000000057554, 1.000000000000000000, 1.599999999999890843 ) ) ;
#28 = CIRCLE ( 'NONE', #506, 1.700000000000000178 ) ;
#29 = FACE_OUTER_BOUND ( 'NONE', #755, .T. ) ;
#30 = CYLINDRICAL_SURFACE ( 'NONE', #83, 2.950000000000000622 ) ;
#31 = EDGE_LOOP ( 'NONE', ( #235, #844 ) ) ;
#32 = CIRCLE ( 'NONE', #537, 14.00000000000000178 ) ;
#33 = CARTESIAN_POINT ( 'NONE',  ( -10.00000000000057021, 0.000000000000000000, 5.706527979715091820E-13 ) ) ;
#34 = FACE_OUTER_BOUND ( 'NONE', #382, .T. ) ;
#35 = ORIENTED_EDGE ( 'NONE', *, *, #11, .T. ) ;
#36 = EDGE_CURVE ( 'NONE', #203, #644, #315, .T. ) ;
#37 = DIRECTION ( 'NONE',  ( 0.000000000000000000, 1.000000000000000000, -0.000000000000000000 ) ) ;
#38 = AXIS2_PLACEMENT_3D ( 'NONE', #670, #477, #675 ) ;
#39 = ORIENTED_EDGE ( 'NONE', *, *, #96, .T. ) ;
#40 = FACE_OUTER_BOUND ( 'NONE', #155, .T. ) ;
#41 = ADVANCED_FACE ( 'NONE', ( #289 ), #362, .F. ) ;
#42 = VECTOR ( 'NONE', #637, 1000.000000000000000 ) ;
#43 = ORIENTED_EDGE ( 'NONE', *, *, #557, .F. ) ;
#44 = CARTESIAN_POINT ( 'NONE',  ( -5.303300858899408610, 0.000000000000000000, -5.303300858898802872 ) ) ;
#45 = CARTESIAN_POINT ( 'NONE',  ( -5.303300858899408610, 0.000000000000000000, -7.003300858898803050 ) ) ;
#46 = DIRECTION ( 'NONE',  ( 0.000000000000000000, 1.000000000000000000, -0.000000000000000000 ) ) ;
#47 = VERTEX_POINT ( 'NONE', #745 ) ;
#48 = EDGE_CURVE ( 'NONE', #800, #74, #283, .T. ) ;
#49 = CARTESIAN_POINT ( 'NONE',  ( -5.303300858899408610, 1.000000000000000000, -5.303300858898802872 ) ) ;
#50 = LINE ( 'NONE', #308, #75 ) ;
#51 = CIRCLE ( 'NONE', #293, 14.00000000000000178 ) ;
#52 = CARTESIAN_POINT ( 'NONE',  ( 0.000000000000000000, 0.000000000000000000, 0.000000000000000000 ) ) ;
#53 = VERTEX_POINT ( 'NONE', #294 ) ;
#54 = DIRECTION ( 'NONE',  ( -0.000000000000000000, -1.000000000000000000, -0.000000000000000000 ) ) ;
#55 = ADVANCED_FACE ( 'NONE', ( #151 ), #556, .F. ) ;
#56 = LINE ( 'NONE', #427, #412 ) ;
#57 = DIRECTION ( 'NONE',  ( 0.000000000000000000, 0.000000000000000000, -1.000000000000000000 ) ) ;
#58 = CIRCLE ( 'NONE', #356, 1.600000000000000755 ) ;
#59 = EDGE_LOOP ( 'NONE', ( #377, #420 ) ) ;
#60 = AXIS2_PLACEMENT_3D ( 'NONE', #23, #737, #614 ) ;
#61 = DIRECTION ( 'NONE',  ( 0.000000000000000000, 0.000000000000000000, 1.000000000000000000 ) ) ;
#62 = DIRECTION ( 'NONE',  ( 0.000000000000000000, 0.000000000000000000, 1.000000000000000000 ) ) ;
#63 = VECTOR ( 'NONE', #516, 1000.000000000000000 ) ;
#64 = AXIS2_PLACEMENT_3D ( 'NONE', #44, #236, #323 ) ;
#65 = DIRECTION ( 'NONE',  ( 0.000000000000000000, 0.000000000000000000, 1.000000000000000000 ) ) ;
#66 = DIRECTION ( 'NONE',  ( 0.000000000000000000, 1.000000000000000000, -0.000000000000000000 ) ) ;
#67 = ADVANCED_FACE ( 'NONE', ( #94 ), #352, .F. ) ;
#68 = APPLICATION_PROTOCOL_DEFINITION ( 'international standard', 'config_control_design', 1994, #642 ) ;
#69 = CARTESIAN_POINT ( 'NONE',  ( 7.885984946898764041E-15, 0.000000000000000000, 10.00000000000114575 ) ) ;
#70 = CARTESIAN_POINT ( 'NONE',  ( -10.00000000000057021, 1.000000000000000000, -1.599999999999909051 ) ) ;
#71 = DATE_AND_TIME ( #395, #547 ) ;
#72 = ADVANCED_FACE ( 'NONE', ( #29 ), #343, .F. ) ;
#73 = CARTESIAN_POINT ( 'NONE',  ( 0.000000000000000000, 1.000000000000000000, 0.000000000000000000 ) ) ;
#74 = VERTEX_POINT ( 'NONE', #551 ) ;
#75 = VECTOR ( 'NONE', #451, 1000.000000000000000 ) ;
#76 = PERSON_AND_ORGANIZATION ( #608, #530 ) ;
#77 = EDGE_CURVE ( 'NONE', #346, #644, #219, .T. ) ;
#78 = CARTESIAN_POINT ( 'NONE',  ( 0.000000000000000000, 1.000000000000000000, 0.000000000000000000 ) ) ;
#79 = ORIENTED_EDGE ( 'NONE', *, *, #759, .F. ) ;
#80 = COORDINATED_UNIVERSAL_TIME_OFFSET ( 5, 0, .BEHIND. ) ;
#81 = CARTESIAN_POINT ( 'NONE',  ( -5.303300858899408610, 0.000000000000000000, -3.603300858898802694 ) ) ;
#82 = ORIENTED_EDGE ( 'NONE', *, *, #700, .F. ) ;
#83 = AXIS2_PLACEMENT_3D ( 'NONE', #103, #552, #816 ) ;
#84 = VERTEX_POINT ( 'NONE', #153 ) ;
#85 = CARTESIAN_POINT ( 'NONE',  ( 0.000000000000000000, 1.000000000000000000, -14.00000000000000178 ) ) ;
#86 = ORIENTED_EDGE ( 'NONE', *, *, #617, .T. ) ;
#87 = AXIS2_PLACEMENT_3D ( 'NONE', #380, #170, #175 ) ;
#88 = DIRECTION ( 'NONE',  ( -0.000000000000000000, -1.000000000000000000, -0.000000000000000000 ) ) ;
#89 = CARTESIAN_POINT ( 'NONE',  ( 0.000000000000000000, 1.000000000000000000, -11.60000000000000320 ) ) ;
#90 = CARTESIAN_POINT ( 'NONE',  ( 5.303300858898798431, 0.000000000000000000, 5.303300858899414827 ) ) ;
#91 = DIRECTION ( 'NONE',  ( -0.000000000000000000, -1.000000000000000000, 0.000000000000000000 ) ) ;
#92 = ORIENTED_EDGE ( 'NONE', *, *, #270, .F. ) ;
#93 = CIRCLE ( 'NONE', #567, 1.599999999999321743 ) ;
#94 = FACE_OUTER_BOUND ( 'NONE', #229, .T. ) ;
#95 = VERTEX_POINT ( 'NONE', #157 ) ;
#96 = EDGE_CURVE ( 'NONE', #541, #542, #716, .T. ) ;
#97 = ORIENTED_EDGE ( 'NONE', *, *, #208, .T. ) ;
#98 = ORIENTED_EDGE ( 'NONE', *, *, #583, .F. ) ;
#99 = AXIS2_PLACEMENT_3D ( 'NONE', #127, #2, #325 ) ;
#100 = EDGE_CURVE ( 'NONE', #618, #178, #568, .T. ) ;
#101 = CARTESIAN_POINT ( 'NONE',  ( 0.000000000000000000, 0.000000000000000000, 0.000000000000000000 ) ) ;
#102 = CIRCLE ( 'NONE', #663, 1.700000000000000178 ) ;
#103 = CARTESIAN_POINT ( 'NONE',  ( 0.000000000000000000, 31.00000000000000000, 0.000000000000000000 ) ) ;
#104 = VERTEX_POINT ( 'NONE', #384 ) ;
#105 = DIRECTION ( 'NONE',  ( 0.000000000000000000, 1.000000000000000000, -0.000000000000000000 ) ) ;
#106 = PLANE ( 'NONE',  #266 ) ;
#107 = ORIENTED_EDGE ( 'NONE', *, *, #772, .F. ) ;
#108 = DIRECTION ( 'NONE',  ( 0.000000000000000000, 1.000000000000000000, -0.000000000000000000 ) ) ;
#109 = CARTESIAN_POINT ( 'NONE',  ( -5.303300858898798431, 0.000000000000000000, 5.303300858899414827 ) ) ;
#110 = FACE_BOUND ( 'NONE', #559, .T. ) ;
#111 = EDGE_LOOP ( 'NONE', ( #409, #368 ) ) ;
#112 = DIRECTION ( 'NONE',  ( -0.000000000000000000, -1.000000000000000000, 0.000000000000000000 ) ) ;
#113 = CARTESIAN_POINT ( 'NONE',  ( 0.000000000000000000, 1.000000000000000000, -14.00000000000000178 ) ) ;
#114 = MECHANICAL_CONTEXT ( 'NONE', #131, 'mechanical' ) ;
#115 = ORIENTED_EDGE ( 'NONE', *, *, #733, .F. ) ;
#116 = DIRECTION ( 'NONE',  ( -0.000000000000000000, -1.000000000000000000, -0.000000000000000000 ) ) ;
#117 = DIRECTION ( 'NONE',  ( 0.000000000000000000, 1.000000000000000000, -0.000000000000000000 ) ) ;
#118 = CARTESIAN_POINT ( 'NONE',  ( 10.00000000000057554, 1.000000000000000000, -1.599999999998752864 ) ) ;
#119 = VERTEX_POINT ( 'NONE', #502 ) ;
#120 = CARTESIAN_POINT ( 'NONE',  ( 0.000000000000000000, 1.000000000000000000, 0.000000000000000000 ) ) ;
#121 = CYLINDRICAL_SURFACE ( 'NONE', #471, 1.599999999999321743 ) ;
#122 = DIRECTION ( 'NONE',  ( -0.000000000000000000, -1.000000000000000000, -0.000000000000000000 ) ) ;
#123 = AXIS2_PLACEMENT_3D ( 'NONE', #373, #558, #577 ) ;
#124 = AXIS2_PLACEMENT_3D ( 'NONE', #708, #117, #62 ) ;
#125 = CYLINDRICAL_SURFACE ( 'NONE', #176, 14.00000000000000178 ) ;
#126 = EDGE_CURVE ( 'NONE', #159, #546, #341, .T. ) ;
#127 = CARTESIAN_POINT ( 'NONE',  ( 0.000000000000000000, 0.000000000000000000, -10.00000000000000178 ) ) ;
#128 = PERSON_AND_ORGANIZATION_ROLE ( 'creator' ) ;
#129 = CARTESIAN_POINT ( 'NONE',  ( 3.612708057484692590E-16, 31.00000000000000000, 2.950000000000000622 ) ) ;
#130 = DIRECTION ( 'NONE',  ( 0.000000000000000000, 1.000000000000000000, -0.000000000000000000 ) ) ;
#131 = APPLICATION_CONTEXT ( 'configuration controlled 3d designs of mechanical parts and assemblies' ) ;
#132 = CARTESIAN_POINT ( 'NONE',  ( 10.00000000000057554, 0.000000000000000000, 5.690568523736238481E-13 ) ) ;
#133 = CC_DESIGN_APPROVAL ( #640, ( #627 ) ) ;
#134 = ORIENTED_EDGE ( 'NONE', *, *, #324, .F. ) ;
#135 = DIRECTION ( 'NONE',  ( 0.000000000000000000, 0.000000000000000000, 1.000000000000000000 ) ) ;
#136 = ORIENTED_EDGE ( 'NONE', *, *, #617, .F. ) ;
#137 = CARTESIAN_POINT ( 'NONE',  ( 0.000000000000000000, 0.000000000000000000, 0.000000000000000000 ) ) ;
#138 = ORIENTED_EDGE ( 'NONE', *, *, #808, .T. ) ;
#139 = CIRCLE ( 'NONE', #288, 1.599999999999740519 ) ;
#140 = EDGE_CURVE ( 'NONE', #95, #465, #674, .T. ) ;
#141 = VERTEX_POINT ( 'NONE', #113 ) ;
#142 = DIRECTION ( 'NONE',  ( -0.000000000000000000, -1.000000000000000000, -0.000000000000000000 ) ) ;
#143 = VERTEX_POINT ( 'NONE', #298 ) ;
#144 = CARTESIAN_POINT ( 'NONE',  ( 7.885984946898764041E-15, 1.000000000000000000, 10.00000000000114575 ) ) ;
#145 = CC_DESIGN_APPROVAL ( #795, ( #740 ) ) ;
#146 = ORIENTED_EDGE ( 'NONE', *, *, #100, .T. ) ;
#147 = ADVANCED_FACE ( 'NONE', ( #243 ), #779, .F. ) ;
#148 = AXIS2_PLACEMENT_3D ( 'NONE', #422, #105, #370 ) ;
#149 = ORIENTED_EDGE ( 'NONE', *, *, #421, .F. ) ;
#150 = ORIENTED_EDGE ( 'NONE', *, *, #583, .T. ) ;
#151 = FACE_OUTER_BOUND ( 'NONE', #731, .T. ) ;
#152 = ORIENTED_EDGE ( 'NONE', *, *, #263, .T. ) ;
#153 = CARTESIAN_POINT ( 'NONE',  ( 0.000000000000000000, 0.000000000000000000, -11.60000000000000320 ) ) ;
#154 = CC_DESIGN_SECURITY_CLASSIFICATION ( #627, ( #684 ) ) ;
#155 = EDGE_LOOP ( 'NONE', ( #571, #259, #97, #817 ) ) ;
#156 = CIRCLE ( 'NONE', #647, 1.600000000000479705 ) ;
#157 = CARTESIAN_POINT ( 'NONE',  ( 5.303300858899408610, 0.000000000000000000, -3.603300858898802694 ) ) ;
#158 = CARTESIAN_POINT ( 'NONE',  ( -5.303300858898798431, 1.000000000000000000, 3.603300858899414649 ) ) ;
#159 = VERTEX_POINT ( 'NONE', #45 ) ;
#160 = ADVANCED_FACE ( 'NONE', ( #304 ), #438, .F. ) ;
#161 = CARTESIAN_POINT ( 'NONE',  ( 5.303300858898798431, 0.000000000000000000, 3.603300858899414205 ) ) ;
#162 = EDGE_LOOP ( 'NONE', ( #606, #199, #549, #822 ) ) ;
#163 = CARTESIAN_POINT ( 'NONE',  ( 7.885984946898764041E-15, 0.000000000000000000, 8.400000000001405454 ) ) ;
#164 = PRODUCT ( 'Magnent Holder', 'Magnent Holder', '', ( #114 ) ) ;
#165 = DIRECTION ( 'NONE',  ( 0.000000000000000000, 0.000000000000000000, -1.000000000000000000 ) ) ;
#166 = AXIS2_PLACEMENT_3D ( 'NONE', #73, #599, #190 ) ;
#167 = DIRECTION ( 'NONE',  ( 0.000000000000000000, 0.000000000000000000, 1.000000000000000000 ) ) ;
#168 = ORIENTED_EDGE ( 'NONE', *, *, #437, .T. ) ;
#169 = CARTESIAN_POINT ( 'NONE',  ( -10.00000000000057021, 1.000000000000000000, -1.599999999999909051 ) ) ;
#170 = DIRECTION ( 'NONE',  ( 0.000000000000000000, 1.000000000000000000, -0.000000000000000000 ) ) ;
#171 = UNCERTAINTY_MEASURE_WITH_UNIT (LENGTH_MEASURE( 1.000000000000000082E-05 ), #183, 'distance_accuracy_value', 'NONE');
#172 = ORIENTED_EDGE ( 'NONE', *, *, #311, .T. ) ;
#173 = DIRECTION ( 'NONE',  ( 0.000000000000000000, 0.000000000000000000, -1.000000000000000000 ) ) ;
#174 = AXIS2_PLACEMENT_3D ( 'NONE', #652, #66, #717 ) ;
#175 = DIRECTION ( 'NONE',  ( 0.000000000000000000, 0.000000000000000000, 1.000000000000000000 ) ) ;
#176 = AXIS2_PLACEMENT_3D ( 'NONE', #120, #369, #500 ) ;
#177 = FACE_OUTER_BOUND ( 'NONE', #710, .T. ) ;
#178 = VERTEX_POINT ( 'NONE', #161 ) ;
#179 = FACE_BOUND ( 'NONE', #435, .T. ) ;
#180 = DIRECTION ( 'NONE',  ( 0.000000000000000000, 0.000000000000000000, -1.000000000000000000 ) ) ;
#181 = VECTOR ( 'NONE', #276, 1000.000000000000000 ) ;
#182 = EDGE_CURVE ( 'NONE', #676, #510, #507, .T. ) ;
#183 =( LENGTH_UNIT ( ) NAMED_UNIT ( * ) SI_UNIT ( .MILLI., .METRE. ) );
#184 = ORIENTED_EDGE ( 'NONE', *, *, #842, .T. ) ;
#185 = EDGE_CURVE ( 'NONE', #218, #739, #787, .T. ) ;
#186 = CARTESIAN_POINT ( 'NONE',  ( -5.303300858898798431, 1.000000000000000000, 5.303300858899414827 ) ) ;
#187 = DIRECTION ( 'NONE',  ( 0.000000000000000000, 1.000000000000000000, -0.000000000000000000 ) ) ;
#188 = DATE_AND_TIME ( #785, #295 ) ;
#189 = AXIS2_PLACEMENT_3D ( 'NONE', #641, #497, #227 ) ;
#190 = DIRECTION ( 'NONE',  ( 0.000000000000000000, 0.000000000000000000, -1.000000000000000000 ) ) ;
#191 = DIRECTION ( 'NONE',  ( 0.000000000000000000, 1.000000000000000000, -0.000000000000000000 ) ) ;
#192 = APPROVAL_STATUS ( 'not_yet_approved' ) ;
#193 = DIRECTION ( 'NONE',  ( -0.000000000000000000, -1.000000000000000000, -0.000000000000000000 ) ) ;
#194 = EDGE_CURVE ( 'NONE', #687, #514, #56, .T. ) ;
#195 = DIRECTION ( 'NONE',  ( 0.000000000000000000, 0.000000000000000000, 1.000000000000000000 ) ) ;
#196 = DATE_AND_TIME ( #593, #569 ) ;
#197 = CARTESIAN_POINT ( 'NONE',  ( 7.885984946898764041E-15, 1.000000000000000000, 8.400000000001405454 ) ) ;
#198 = VECTOR ( 'NONE', #591, 1000.000000000000000 ) ;
#199 = ORIENTED_EDGE ( 'NONE', *, *, #182, .T. ) ;
#200 = SECURITY_CLASSIFICATION_LEVEL ( 'unclassified' ) ;
#201 = AXIS2_PLACEMENT_3D ( 'NONE', #234, #775, #495 ) ;
#202 = FACE_OUTER_BOUND ( 'NONE', #702, .T. ) ;
#203 = VERTEX_POINT ( 'NONE', #575 ) ;
#204 = EDGE_LOOP ( 'NONE', ( #115, #262, #355, #491 ) ) ;
#205 = AXIS2_PLACEMENT_3D ( 'NONE', #459, #130, #722 ) ;
#206 = FACE_BOUND ( 'NONE', #532, .T. ) ;
#207 = ORIENTED_EDGE ( 'NONE', *, *, #365, .F. ) ;
#208 = EDGE_CURVE ( 'NONE', #800, #159, #773, .T. ) ;
#209 = ADVANCED_FACE ( 'NONE', ( #40 ), #827, .F. ) ;
#210 = CIRCLE ( 'NONE', #596, 1.700000000000000178 ) ;
#211 = DIRECTION ( 'NONE',  ( 0.000000000000000000, 0.000000000000000000, 1.000000000000000000 ) ) ;
#212 = DIRECTION ( 'NONE',  ( -0.000000000000000000, -1.000000000000000000, -0.000000000000000000 ) ) ;
#213 = ADVANCED_FACE ( 'NONE', ( #313 ), #447, .F. ) ;
#214 = ORIENTED_EDGE ( 'NONE', *, *, #269, .F. ) ;
#215 = CARTESIAN_POINT ( 'NONE',  ( -10.00000000000057021, 1.000000000000000000, 1.600000000001050360 ) ) ;
#216 = DIRECTION ( 'NONE',  ( -0.000000000000000000, -1.000000000000000000, -0.000000000000000000 ) ) ;
#217 = LINE ( 'NONE', #625, #446 ) ;
#218 = VERTEX_POINT ( 'NONE', #701 ) ;
#219 = LINE ( 'NONE', #815, #452 ) ;
#220 = ADVANCED_FACE ( 'NONE', ( #712 ), #121, .F. ) ;
#221 = LINE ( 'NONE', #89, #16 ) ;
#222 = ORIENTED_EDGE ( 'NONE', *, *, #760, .F. ) ;
#223 = DIRECTION ( 'NONE',  ( 0.000000000000000000, 0.000000000000000000, -1.000000000000000000 ) ) ;
#224 = CARTESIAN_POINT ( 'NONE',  ( -5.303300858899408610, 1.000000000000000000, -7.003300858898803050 ) ) ;
#225 = ORIENTED_EDGE ( 'NONE', *, *, #238, .T. ) ;
#226 = EDGE_CURVE ( 'NONE', #829, #531, #841, .T. ) ;
#227 = DIRECTION ( 'NONE',  ( 0.000000000000000000, 0.000000000000000000, -1.000000000000000000 ) ) ;
#228 = FACE_BOUND ( 'NONE', #683, .T. ) ;
#229 = EDGE_LOOP ( 'NONE', ( #487, #679, #626, #302 ) ) ;
#230 = EDGE_CURVE ( 'NONE', #531, #829, #285, .T. ) ;
#231 = FACE_OUTER_BOUND ( 'NONE', #592, .T. ) ;
#232 = DIRECTION ( 'NONE',  ( 0.000000000000000000, 1.000000000000000000, -0.000000000000000000 ) ) ;
#233 = CIRCLE ( 'NONE', #543, 1.600000000000479705 ) ;
#234 = CARTESIAN_POINT ( 'NONE',  ( 10.00000000000057554, 1.000000000000000000, 5.690568523736238481E-13 ) ) ;
#235 = ORIENTED_EDGE ( 'NONE', *, *, #126, .T. ) ;
#236 = DIRECTION ( 'NONE',  ( 0.000000000000000000, 1.000000000000000000, -0.000000000000000000 ) ) ;
#237 = CARTESIAN_POINT ( 'NONE',  ( 5.303300858899408610, 0.000000000000000000, -5.303300858898802872 ) ) ;
#238 = EDGE_CURVE ( 'NONE', #74, #546, #50, .T. ) ;
#239 = FACE_BOUND ( 'NONE', #555, .T. ) ;
#240 = VERTEX_POINT ( 'NONE', #70 ) ;
#241 = DIRECTION ( 'NONE',  ( 0.000000000000000000, 0.000000000000000000, -1.000000000000000000 ) ) ;
#242 = CIRCLE ( 'NONE', #99, 1.600000000000000755 ) ;
#243 = FACE_OUTER_BOUND ( 'NONE', #685, .T. ) ;
#244 = AXIS2_PLACEMENT_3D ( 'NONE', #584, #650, #241 ) ;
#245 = PLANE ( 'NONE',  #123 ) ;
#246 = ORIENTED_EDGE ( 'NONE', *, *, #672, .T. ) ;
#247 = CARTESIAN_POINT ( 'NONE',  ( 5.303300858898798431, 1.000000000000000000, 7.003300858899415005 ) ) ;
#248 = CARTESIAN_POINT ( 'NONE',  ( 5.303300858899408610, 1.000000000000000000, -5.303300858898802872 ) ) ;
#249 = PERSON_AND_ORGANIZATION_ROLE ( 'design_owner' ) ;
#250 = EDGE_CURVE ( 'NONE', #84, #514, #578, .T. ) ;
#251 = CARTESIAN_POINT ( 'NONE',  ( -10.00000000000057021, 0.000000000000000000, 5.706527979715091820E-13 ) ) ;
#252 = CARTESIAN_POINT ( 'NONE',  ( 10.00000000000057554, 0.000000000000000000, 5.690568523736238481E-13 ) ) ;
#253 = PERSON_AND_ORGANIZATION ( #608, #530 ) ;
#254 = AXIS2_PLACEMENT_3D ( 'NONE', #704, #761, #165 ) ;
#255 = LINE ( 'NONE', #197, #461 ) ;
#256 = CARTESIAN_POINT ( 'NONE',  ( 0.000000000000000000, 1.000000000000000000, 0.000000000000000000 ) ) ;
#257 = COORDINATED_UNIVERSAL_TIME_OFFSET ( 5, 0, .BEHIND. ) ;
#258 = DIRECTION ( 'NONE',  ( 0.000000000000000000, 1.000000000000000000, -0.000000000000000000 ) ) ;
#259 = ORIENTED_EDGE ( 'NONE', *, *, #269, .T. ) ;
#260 = APPROVAL_DATE_TIME ( #660, #795 ) ;
#261 = CARTESIAN_POINT ( 'NONE',  ( 5.303300858898798431, 1.000000000000000000, 3.603300858899414205 ) ) ;
#262 = ORIENTED_EDGE ( 'NONE', *, *, #6, .T. ) ;
#263 = EDGE_CURVE ( 'NONE', #514, #84, #242, .T. ) ;
#264 = ORIENTED_EDGE ( 'NONE', *, *, #517, .T. ) ;
#265 = EDGE_CURVE ( 'NONE', #240, #605, #689, .T. ) ;
#266 = AXIS2_PLACEMENT_3D ( 'NONE', #828, #305, #503 ) ;
#267 = DIRECTION ( 'NONE',  ( 0.000000000000000000, 1.000000000000000000, -0.000000000000000000 ) ) ;
#268 = ORIENTED_EDGE ( 'NONE', *, *, #557, .T. ) ;
#269 = EDGE_CURVE ( 'NONE', #74, #800, #550, .T. ) ;
#270 = EDGE_CURVE ( 'NONE', #119, #333, #661, .T. ) ;
#271 = ORIENTED_EDGE ( 'NONE', *, *, #48, .F. ) ;
#272 = EDGE_CURVE ( 'NONE', #47, #53, #774, .T. ) ;
#273 = LINE ( 'NONE', #396, #351 ) ;
#274 = EDGE_LOOP ( 'NONE', ( #107, #776 ) ) ;
#275 = ORIENTED_EDGE ( 'NONE', *, *, #342, .F. ) ;
#276 = DIRECTION ( 'NONE',  ( -0.000000000000000000, -1.000000000000000000, -0.000000000000000000 ) ) ;
#277 = ORIENTED_EDGE ( 'NONE', *, *, #194, .F. ) ;
#278 = CC_DESIGN_DATE_AND_TIME_ASSIGNMENT ( #188, #590, ( #740 ) ) ;
#279 = AXIS2_PLACEMENT_3D ( 'NONE', #137, #330, #654 ) ;
#280 = DIRECTION ( 'NONE',  ( 0.000000000000000000, 0.000000000000000000, 1.000000000000000000 ) ) ;
#281 = CARTESIAN_POINT ( 'NONE',  ( 10.00000000000057554, 1.000000000000000000, 5.690568523736238481E-13 ) ) ;
#282 = ORIENTED_EDGE ( 'NONE', *, *, #126, .F. ) ;
#283 = CIRCLE ( 'NONE', #838, 1.700000000000000178 ) ;
#284 = DIRECTION ( 'NONE',  ( -0.000000000000000000, -1.000000000000000000, -0.000000000000000000 ) ) ;
#285 = CIRCLE ( 'NONE', #619, 1.700000000000000178 ) ;
#286 = CARTESIAN_POINT ( 'NONE',  ( 0.000000000000000000, 0.000000000000000000, 0.000000000000000000 ) ) ;
#287 = EDGE_LOOP ( 'NONE', ( #671, #478 ) ) ;
#288 = AXIS2_PLACEMENT_3D ( 'NONE', #430, #778, #65 ) ;
#289 = FACE_OUTER_BOUND ( 'NONE', #659, .T. ) ;
#290 = EDGE_CURVE ( 'NONE', #758, #510, #397, .T. ) ;
#291 = CARTESIAN_POINT ( 'NONE',  ( 1.959434878635764984E-16, 1.000000000000000000, -8.400000000000000355 ) ) ;
#292 = ORIENTED_EDGE ( 'NONE', *, *, #140, .T. ) ;
#293 = AXIS2_PLACEMENT_3D ( 'NONE', #286, #813, #360 ) ;
#294 = CARTESIAN_POINT ( 'NONE',  ( 0.000000000000000000, 1.000000000000000000, -2.950000000000000622 ) ) ;
#295 = LOCAL_TIME ( 18, 21, 10.00000000000000000, #332 ) ;
#296 =( NAMED_UNIT ( * ) PLANE_ANGLE_UNIT ( ) SI_UNIT ( $, .RADIAN. ) );
#297 = ORIENTED_EDGE ( 'NONE', *, *, #140, .F. ) ;
#298 = CARTESIAN_POINT ( 'NONE',  ( 5.303300858898798431, 1.000000000000000000, 7.003300858899415893 ) ) ;
#299 = VECTOR ( 'NONE', #493, 1000.000000000000000 ) ;
#300 = EDGE_CURVE ( 'NONE', #739, #531, #788, .T. ) ;
#301 = FACE_BOUND ( 'NONE', #274, .T. ) ;
#302 = ORIENTED_EDGE ( 'NONE', *, *, #519, .F. ) ;
#303 = CARTESIAN_POINT ( 'NONE',  ( 8.081928434762309354E-15, 1.000000000000000000, 11.60000000000088605 ) ) ;
#304 = FACE_OUTER_BOUND ( 'NONE', #746, .T. ) ;
#305 = DIRECTION ( 'NONE',  ( 0.000000000000000000, 1.000000000000000000, -0.000000000000000000 ) ) ;
#306 = ORIENTED_EDGE ( 'NONE', *, *, #24, .T. ) ;
#307 = LINE ( 'NONE', #169, #581 ) ;
#308 = CARTESIAN_POINT ( 'NONE',  ( -5.303300858899408610, 1.000000000000000000, -3.603300858898803138 ) ) ;
#309 = DIRECTION ( 'NONE',  ( 0.000000000000000000, 0.000000000000000000, 1.000000000000000000 ) ) ;
#310 = ORIENTED_EDGE ( 'NONE', *, *, #576, .T. ) ;
#311 = EDGE_CURVE ( 'NONE', #346, #141, #32, .T. ) ;
#312 = FACE_OUTER_BOUND ( 'NONE', #598, .T. ) ;
#313 = FACE_OUTER_BOUND ( 'NONE', #204, .T. ) ;
#314 = AXIS2_PLACEMENT_3D ( 'NONE', #508, #448, #695 ) ;
#315 = CIRCLE ( 'NONE', #615, 14.00000000000000178 ) ;
#316 = CARTESIAN_POINT ( 'NONE',  ( 0.000000000000000000, 1.000000000000000000, -10.00000000000000178 ) ) ;
#317 = ORIENTED_EDGE ( 'NONE', *, *, #760, .T. ) ;
#318 = LINE ( 'NONE', #580, #321 ) ;
#319 = AXIS2_PLACEMENT_3D ( 'NONE', #390, #783, #589 ) ;
#320 = DIRECTION ( 'NONE',  ( 0.000000000000000000, 0.000000000000000000, -1.000000000000000000 ) ) ;
#321 = VECTOR ( 'NONE', #515, 1000.000000000000000 ) ;
#322 = EDGE_CURVE ( 'NONE', #141, #346, #509, .T. ) ;
#323 = DIRECTION ( 'NONE',  ( 0.000000000000000000, 0.000000000000000000, 1.000000000000000000 ) ) ;
#324 = EDGE_CURVE ( 'NONE', #541, #553, #846, .T. ) ;
#325 = DIRECTION ( 'NONE',  ( 0.000000000000000000, 0.000000000000000000, 1.000000000000000000 ) ) ;
#326 = AXIS2_PLACEMENT_3D ( 'NONE', #78, #267, #14 ) ;
#327 = PERSON_AND_ORGANIZATION_ROLE ( 'creator' ) ;
#328 = DIRECTION ( 'NONE',  ( 0.000000000000000000, 1.000000000000000000, -0.000000000000000000 ) ) ;
#329 = CARTESIAN_POINT ( 'NONE',  ( -5.303300858898798431, 1.000000000000000000, 7.003300858899415005 ) ) ;
#330 = DIRECTION ( 'NONE',  ( 0.000000000000000000, 1.000000000000000000, -0.000000000000000000 ) ) ;
#331 = EDGE_LOOP ( 'NONE', ( #306, #168 ) ) ;
#332 = COORDINATED_UNIVERSAL_TIME_OFFSET ( 5, 0, .BEHIND. ) ;
#333 = VERTEX_POINT ( 'NONE', #782 ) ;
#334 = SHAPE_DEFINITION_REPRESENTATION ( #762, #494 ) ;
#335 = CARTESIAN_POINT ( 'NONE',  ( 5.303300858899408610, 0.000000000000000000, -7.003300858898803050 ) ) ;
#336 = ORIENTED_EDGE ( 'NONE', *, *, #728, .F. ) ;
#337 = ADVANCED_FACE ( 'NONE', ( #312 ), #711, .F. ) ;
#338 = ORIENTED_EDGE ( 'NONE', *, *, #24, .F. ) ;
#339 = CARTESIAN_POINT ( 'NONE',  ( 0.000000000000000000, 31.00000000000000000, -2.950000000000000622 ) ) ;
#340 = ORIENTED_EDGE ( 'NONE', *, *, #272, .F. ) ;
#341 = CIRCLE ( 'NONE', #87, 1.700000000000000178 ) ;
#342 = EDGE_CURVE ( 'NONE', #240, #104, #307, .T. ) ;
#343 = CYLINDRICAL_SURFACE ( 'NONE', #742, 1.600000000000479705 ) ;
#344 = CC_DESIGN_PERSON_AND_ORGANIZATION_ASSIGNMENT ( #76, #128, ( #740 ) ) ;
#345 = LINE ( 'NONE', #215, #486 ) ;
#346 = VERTEX_POINT ( 'NONE', #378 ) ;
#347 = DESIGN_CONTEXT ( 'detailed design', #642, 'design' ) ;
#348 = DIRECTION ( 'NONE',  ( 0.000000000000000000, 0.000000000000000000, 1.000000000000000000 ) ) ;
#349 = ADVANCED_FACE ( 'NONE', ( #520 ), #125, .T. ) ;
#350 = DIRECTION ( 'NONE',  ( 0.000000000000000000, 0.000000000000000000, 1.000000000000000000 ) ) ;
#351 = VECTOR ( 'NONE', #666, 1000.000000000000000 ) ;
#352 = CYLINDRICAL_SURFACE ( 'NONE', #60, 1.599999999999740519 ) ;
#353 = AXIS2_PLACEMENT_3D ( 'NONE', #52, #309, #629 ) ;
#354 = CARTESIAN_POINT ( 'NONE',  ( 5.303300858899408610, 1.000000000000000000, -5.303300858898802872 ) ) ;
#355 = ORIENTED_EDGE ( 'NONE', *, *, #342, .T. ) ;
#356 = AXIS2_PLACEMENT_3D ( 'NONE', #316, #843, #167 ) ;
#357 = CIRCLE ( 'NONE', #574, 1.600000000000479705 ) ;
#358 = VERTEX_POINT ( 'NONE', #163 ) ;
#359 = AXIS2_PLACEMENT_3D ( 'NONE', #831, #847, #582 ) ;
#360 = DIRECTION ( 'NONE',  ( 0.000000000000000000, 0.000000000000000000, 1.000000000000000000 ) ) ;
#361 = ORIENTED_EDGE ( 'NONE', *, *, #781, .T. ) ;
#362 = CYLINDRICAL_SURFACE ( 'NONE', #799, 1.599999999999740519 ) ;
#363 = CARTESIAN_POINT ( 'NONE',  ( 10.00000000000057554, 0.000000000000000000, -1.599999999998752864 ) ) ;
#364 = ORIENTED_EDGE ( 'NONE', *, *, #4, .T. ) ;
#365 = EDGE_CURVE ( 'NONE', #465, #95, #845, .T. ) ;
#366 = EDGE_CURVE ( 'NONE', #546, #159, #473, .T. ) ;
#367 = CARTESIAN_POINT ( 'NONE',  ( 5.303300858899408610, 1.000000000000000000, -5.303300858898802872 ) ) ;
#368 = ORIENTED_EDGE ( 'NONE', *, *, #391, .T. ) ;
#369 = DIRECTION ( 'NONE',  ( -0.000000000000000000, -1.000000000000000000, -0.000000000000000000 ) ) ;
#370 = DIRECTION ( 'NONE',  ( 0.000000000000000000, 0.000000000000000000, 1.000000000000000000 ) ) ;
#371 = AXIS2_PLACEMENT_3D ( 'NONE', #432, #840, #180 ) ;
#372 = EDGE_CURVE ( 'NONE', #403, #178, #102, .T. ) ;
#373 = CARTESIAN_POINT ( 'NONE',  ( 0.000000000000000000, 1.000000000000000000, 0.000000000000000000 ) ) ;
#374 = VERTEX_POINT ( 'NONE', #839 ) ;
#375 = DIRECTION ( 'NONE',  ( 0.000000000000000000, 0.000000000000000000, 1.000000000000000000 ) ) ;
#376 = DIRECTION ( 'NONE',  ( 0.000000000000000000, 0.000000000000000000, -1.000000000000000000 ) ) ;
#377 = ORIENTED_EDGE ( 'NONE', *, *, #433, .F. ) ;
#378 = CARTESIAN_POINT ( 'NONE',  ( 1.714505518806294835E-15, 1.000000000000000000, 14.00000000000000178 ) ) ;
#379 = AXIS2_PLACEMENT_3D ( 'NONE', #612, #410, #821 ) ;
#380 = CARTESIAN_POINT ( 'NONE',  ( -5.303300858899408610, 0.000000000000000000, -5.303300858898802872 ) ) ;
#381 = DIRECTION ( 'NONE',  ( 0.000000000000000000, 0.000000000000000000, 1.000000000000000000 ) ) ;
#382 = EDGE_LOOP ( 'NONE', ( #697, #736, #536, #706 ) ) ;
#383 = CARTESIAN_POINT ( 'NONE',  ( 5.303300858899408610, 0.000000000000000000, -5.303300858898802872 ) ) ;
#384 = CARTESIAN_POINT ( 'NONE',  ( -10.00000000000057021, 0.000000000000000000, -1.599999999999909051 ) ) ;
#385 = CARTESIAN_POINT ( 'NONE',  ( 5.303300858898798431, 0.000000000000000000, 7.003300858899415893 ) ) ;
#386 = DIRECTION ( 'NONE',  ( 0.000000000000000000, 1.000000000000000000, -0.000000000000000000 ) ) ;
#387 = PERSON_AND_ORGANIZATION ( #608, #530 ) ;
#388 = FACE_OUTER_BOUND ( 'NONE', #780, .T. ) ;
#389 = ADVANCED_FACE ( 'NONE', ( #639 ), #631, .F. ) ;
#390 = CARTESIAN_POINT ( 'NONE',  ( 0.000000000000000000, 0.000000000000000000, -10.00000000000000178 ) ) ;
#391 = EDGE_CURVE ( 'NONE', #553, #358, #139, .T. ) ;
#392 = CIRCLE ( 'NONE', #326, 2.950000000000000622 ) ;
#393 = DIRECTION ( 'NONE',  ( 0.000000000000000000, 0.000000000000000000, 1.000000000000000000 ) ) ;
#394 = EDGE_LOOP ( 'NONE', ( #184, #806, #826, #336 ) ) ;
#395 = CALENDAR_DATE ( 2026, 23, 8 ) ;
#396 = CARTESIAN_POINT ( 'NONE',  ( 0.000000000000000000, 31.00000000000000000, -2.950000000000000622 ) ) ;
#397 = CIRCLE ( 'NONE', #423, 1.599999999999321743 ) ;
#398 = ORIENTED_EDGE ( 'NONE', *, *, #322, .T. ) ;
#399 = PERSON_AND_ORGANIZATION ( #608, #530 ) ;
#400 = AXIS2_PLACEMENT_3D ( 'NONE', #49, #54, #830 ) ;
#401 = ADVANCED_FACE ( 'NONE', ( #231 ), #698, .F. ) ;
#402 = CYLINDRICAL_SURFACE ( 'NONE', #166, 14.00000000000000178 ) ;
#403 = VERTEX_POINT ( 'NONE', #385 ) ;
#404 = ORIENTED_EDGE ( 'NONE', *, *, #250, .T. ) ;
#405 = PERSON_AND_ORGANIZATION ( #608, #530 ) ;
#406 = DIRECTION ( 'NONE',  ( 0.000000000000000000, 0.000000000000000000, -1.000000000000000000 ) ) ;
#407 = ORIENTED_EDGE ( 'NONE', *, *, #719, .T. ) ;
#408 = CC_DESIGN_PERSON_AND_ORGANIZATION_ASSIGNMENT ( #253, #249, ( #164 ) ) ;
#409 = ORIENTED_EDGE ( 'NONE', *, *, #489, .T. ) ;
#410 = DIRECTION ( 'NONE',  ( 0.000000000000000000, 1.000000000000000000, -0.000000000000000000 ) ) ;
#411 = EDGE_LOOP ( 'NONE', ( #136, #340 ) ) ;
#412 = VECTOR ( 'NONE', #628, 1000.000000000000000 ) ;
#413 = DIRECTION ( 'NONE',  ( 0.000000000000000000, 1.000000000000000000, -0.000000000000000000 ) ) ;
#414 = ORIENTED_EDGE ( 'NONE', *, *, #607, .T. ) ;
#415 = ORIENTED_EDGE ( 'NONE', *, *, #311, .F. ) ;
#416 = CIRCLE ( 'NONE', #38, 1.700000000000000178 ) ;
#417 = DIRECTION ( 'NONE',  ( -0.000000000000000000, -1.000000000000000000, -0.000000000000000000 ) ) ;
#418 = ORIENTED_EDGE ( 'NONE', *, *, #781, .F. ) ;
#419 = ORIENTED_EDGE ( 'NONE', *, *, #185, .F. ) ;
#420 = ORIENTED_EDGE ( 'NONE', *, *, #96, .F. ) ;
#421 = EDGE_CURVE ( 'NONE', #143, #403, #707, .T. ) ;
#422 = CARTESIAN_POINT ( 'NONE',  ( 7.885984946898764041E-15, 1.000000000000000000, 10.00000000000114575 ) ) ;
#423 = AXIS2_PLACEMENT_3D ( 'NONE', #252, #187, #521 ) ;
#424 = FACE_OUTER_BOUND ( 'NONE', #833, .T. ) ;
#425 = ORIENTED_EDGE ( 'NONE', *, *, #226, .T. ) ;
#426 = EDGE_CURVE ( 'NONE', #807, #758, #318, .T. ) ;
#427 = CARTESIAN_POINT ( 'NONE',  ( 1.959434878635765477E-16, 1.000000000000000000, -8.400000000000000355 ) ) ;
#428 = FACE_BOUND ( 'NONE', #411, .T. ) ;
#429 = ORIENTED_EDGE ( 'NONE', *, *, #426, .T. ) ;
#430 = CARTESIAN_POINT ( 'NONE',  ( 7.885984946898764041E-15, 0.000000000000000000, 10.00000000000114575 ) ) ;
#431 = CIRCLE ( 'NONE', #611, 1.600000000000000755 ) ;
#432 = CARTESIAN_POINT ( 'NONE',  ( -10.00000000000057021, 1.000000000000000000, 5.706527979715091820E-13 ) ) ;
#433 = EDGE_CURVE ( 'NONE', #542, #541, #805, .T. ) ;
#434 = FACE_BOUND ( 'NONE', #59, .T. ) ;
#435 = EDGE_LOOP ( 'NONE', ( #404, #152 ) ) ;
#436 = CARTESIAN_POINT ( 'NONE',  ( 7.885984946898764041E-15, 1.000000000000000000, 10.00000000000114575 ) ) ;
#437 = EDGE_CURVE ( 'NONE', #449, #104, #233, .T. ) ;
#438 = CYLINDRICAL_SURFACE ( 'NONE', #481, 1.700000000000000178 ) ;
#439 = ORIENTED_EDGE ( 'NONE', *, *, #208, .F. ) ;
#440 = FACE_BOUND ( 'NONE', #331, .T. ) ;
#441 = CARTESIAN_POINT ( 'NONE',  ( 5.303300858898798431, 1.000000000000000000, 3.603300858899414649 ) ) ;
#442 = LINE ( 'NONE', #713, #602 ) ;
#443 = ORIENTED_EDGE ( 'NONE', *, *, #688, .T. ) ;
#444 = CC_DESIGN_PERSON_AND_ORGANIZATION_ASSIGNMENT ( #802, #653, ( #627 ) ) ;
#445 = FACE_BOUND ( 'NONE', #811, .T. ) ;
#446 = VECTOR ( 'NONE', #540, 1000.000000000000000 ) ;
#447 = CYLINDRICAL_SURFACE ( 'NONE', #371, 1.600000000000479705 ) ;
#448 = DIRECTION ( 'NONE',  ( -0.000000000000000000, -1.000000000000000000, 0.000000000000000000 ) ) ;
#449 = VERTEX_POINT ( 'NONE', #572 ) ;
#450 = DIRECTION ( 'NONE',  ( -0.000000000000000000, -1.000000000000000000, -0.000000000000000000 ) ) ;
#451 = DIRECTION ( 'NONE',  ( -0.000000000000000000, -1.000000000000000000, -0.000000000000000000 ) ) ;
#452 = VECTOR ( 'NONE', #216, 1000.000000000000000 ) ;
#453 = PERSON_AND_ORGANIZATION ( #608, #530 ) ;
#454 = DIRECTION ( 'NONE',  ( 0.000000000000000000, 1.000000000000000000, -0.000000000000000000 ) ) ;
#455 = ADVANCED_FACE ( 'NONE', ( #636 ), #834, .F. ) ;
#456 = DIRECTION ( 'NONE',  ( 0.000000000000000000, 0.000000000000000000, 1.000000000000000000 ) ) ;
#457 = APPROVAL_ROLE ( '' ) ;
#458 = CARTESIAN_POINT ( 'NONE',  ( 0.000000000000000000, 1.000000000000000000, -10.00000000000000178 ) ) ;
#459 = CARTESIAN_POINT ( 'NONE',  ( 0.000000000000000000, 1.000000000000000000, 0.000000000000000000 ) ) ;
#460 = ADVANCED_FACE ( 'NONE', ( #440, #179, #445, #588, #388, #206, #723, #786, #594 ), #474, .F. ) ;
#461 = VECTOR ( 'NONE', #193, 1000.000000000000000 ) ;
#462 = COORDINATED_UNIVERSAL_TIME_OFFSET ( 5, 0, .BEHIND. ) ;
#463 = DIRECTION ( 'NONE',  ( 0.000000000000000000, 0.000000000000000000, 1.000000000000000000 ) ) ;
#464 = LOCAL_TIME ( 18, 21, 10.00000000000000000, #525 ) ;
#465 = VERTEX_POINT ( 'NONE', #335 ) ;
#466 = AXIS2_PLACEMENT_3D ( 'NONE', #643, #122, #57 ) ;
#467 = AXIS2_PLACEMENT_3D ( 'NONE', #823, #88, #223 ) ;
#468 = CALENDAR_DATE ( 2026, 23, 8 ) ;
#469 = CYLINDRICAL_SURFACE ( 'NONE', #680, 2.950000000000000622 ) ;
#470 = ORIENTED_EDGE ( 'NONE', *, *, #576, .F. ) ;
#471 = AXIS2_PLACEMENT_3D ( 'NONE', #756, #648, #320 ) ;
#472 = VERTEX_POINT ( 'NONE', #129 ) ;
#473 = CIRCLE ( 'NONE', #64, 1.700000000000000178 ) ;
#474 = PLANE ( 'NONE',  #279 ) ;
#475 = VERTEX_POINT ( 'NONE', #339 ) ;
#476 = ORIENTED_EDGE ( 'NONE', *, *, #272, .T. ) ;
#477 = DIRECTION ( 'NONE',  ( -0.000000000000000000, -1.000000000000000000, 0.000000000000000000 ) ) ;
#478 = ORIENTED_EDGE ( 'NONE', *, *, #372, .F. ) ;
#479 = CARTESIAN_POINT ( 'NONE',  ( -10.00000000000057021, 1.000000000000000000, 5.706527979715091820E-13 ) ) ;
#480 = ORIENTED_EDGE ( 'NONE', *, *, #230, .T. ) ;
#481 = AXIS2_PLACEMENT_3D ( 'NONE', #367, #564, #376 ) ;
#482 = DIRECTION ( 'NONE',  ( 0.000000000000000000, 1.000000000000000000, -0.000000000000000000 ) ) ;
#483 = FACE_OUTER_BOUND ( 'NONE', #579, .T. ) ;
#484 = ORIENTED_EDGE ( 'NONE', *, *, #657, .F. ) ;
#485 = ADVANCED_FACE ( 'NONE', ( #604 ), #402, .T. ) ;
#486 = VECTOR ( 'NONE', #743, 1000.000000000000000 ) ;
#487 = ORIENTED_EDGE ( 'NONE', *, *, #433, .T. ) ;
#488 = DIRECTION ( 'NONE',  ( 0.000000000000000000, 0.000000000000000000, 1.000000000000000000 ) ) ;
#489 = EDGE_CURVE ( 'NONE', #358, #553, #501, .T. ) ;
#490 = LINE ( 'NONE', #158, #181 ) ;
#491 = ORIENTED_EDGE ( 'NONE', *, *, #437, .F. ) ;
#492 = CIRCLE ( 'NONE', #724, 1.700000000000000178 ) ;
#493 = DIRECTION ( 'NONE',  ( -0.000000000000000000, -1.000000000000000000, -0.000000000000000000 ) ) ;
#494 = ADVANCED_BREP_SHAPE_REPRESENTATION ( 'Magnent Holder', ( #705, #353 ), #632 ) ;
#495 = DIRECTION ( 'NONE',  ( 0.000000000000000000, 0.000000000000000000, 1.000000000000000000 ) ) ;
#496 = ORIENTED_EDGE ( 'NONE', *, *, #607, .F. ) ;
#497 = DIRECTION ( 'NONE',  ( -0.000000000000000000, -1.000000000000000000, -0.000000000000000000 ) ) ;
#498 = DIRECTION ( 'NONE',  ( -0.000000000000000000, -1.000000000000000000, -0.000000000000000000 ) ) ;
#499 = ORIENTED_EDGE ( 'NONE', *, *, #263, .F. ) ;
#500 = DIRECTION ( 'NONE',  ( 0.000000000000000000, 0.000000000000000000, -1.000000000000000000 ) ) ;
#501 = CIRCLE ( 'NONE', #764, 1.599999999999740519 ) ;
#502 = CARTESIAN_POINT ( 'NONE',  ( 5.303300858899408610, 1.000000000000000000, -3.603300858898802694 ) ) ;
#503 = DIRECTION ( 'NONE',  ( 0.000000000000000000, 0.000000000000000000, 1.000000000000000000 ) ) ;
#504 = ORIENTED_EDGE ( 'NONE', *, *, #728, .T. ) ;
#505 = CARTESIAN_POINT ( 'NONE',  ( 5.303300858898798431, 1.000000000000000000, 5.303300858899414827 ) ) ;
#506 = AXIS2_PLACEMENT_3D ( 'NONE', #90, #810, #348 ) ;
#507 = LINE ( 'NONE', #693, #299 ) ;
#508 = CARTESIAN_POINT ( 'NONE',  ( 5.303300858898798431, 1.000000000000000000, 5.303300858899414827 ) ) ;
#509 = CIRCLE ( 'NONE', #691, 14.00000000000000178 ) ;
#510 = VERTEX_POINT ( 'NONE', #797 ) ;
#511 = DIRECTION ( 'NONE',  ( 0.000000000000000000, 0.000000000000000000, -1.000000000000000000 ) ) ;
#512 = AXIS2_PLACEMENT_3D ( 'NONE', #186, #450, #511 ) ;
#513 = DIRECTION ( 'NONE',  ( -0.000000000000000000, -1.000000000000000000, -0.000000000000000000 ) ) ;
#514 = VERTEX_POINT ( 'NONE', #21 ) ;
#515 = DIRECTION ( 'NONE',  ( -0.000000000000000000, -1.000000000000000000, -0.000000000000000000 ) ) ;
#516 = DIRECTION ( 'NONE',  ( -0.000000000000000000, -1.000000000000000000, -0.000000000000000000 ) ) ;
#517 = EDGE_CURVE ( 'NONE', #475, #53, #273, .T. ) ;
#518 = APPROVAL_STATUS ( 'not_yet_approved' ) ;
#519 = EDGE_CURVE ( 'NONE', #542, #358, #255, .T. ) ;
#520 = FACE_OUTER_BOUND ( 'NONE', #667, .T. ) ;
#521 = DIRECTION ( 'NONE',  ( 0.000000000000000000, 0.000000000000000000, 1.000000000000000000 ) ) ;
#522 = CARTESIAN_POINT ( 'NONE',  ( -5.303300858898798431, 0.000000000000000000, 7.003300858899415893 ) ) ;
#523 = CC_DESIGN_DATE_AND_TIME_ASSIGNMENT ( #71, #5, ( #627 ) ) ;
#524 = DIRECTION ( 'NONE',  ( -0.000000000000000000, -1.000000000000000000, 0.000000000000000000 ) ) ;
#525 = COORDINATED_UNIVERSAL_TIME_OFFSET ( 5, 0, .BEHIND. ) ;
#526 = CARTESIAN_POINT ( 'NONE',  ( -10.00000000000057021, 1.000000000000000000, 1.600000000001050360 ) ) ;
#527 = ORIENTED_EDGE ( 'NONE', *, *, #36, .F. ) ;
#528 = APPROVAL_DATE_TIME ( #196, #597 ) ;
#529 = CARTESIAN_POINT ( 'NONE',  ( 1.714505518806294835E-15, 0.000000000000000000, 14.00000000000000178 ) ) ;
#530 = ORGANIZATION ( 'UNSPECIFIED', 'UNSPECIFIED', '' ) ;
#531 = VERTEX_POINT ( 'NONE', #522 ) ;
#532 = EDGE_LOOP ( 'NONE', ( #207, #297 ) ) ;
#533 = CIRCLE ( 'NONE', #725, 1.599999999999321743 ) ;
#534 = PRODUCT_RELATED_PRODUCT_CATEGORY ( 'detail', '', ( #164 ) ) ;
#535 = CARTESIAN_POINT ( 'NONE',  ( 0.000000000000000000, 31.00000000000000000, 0.000000000000000000 ) ) ;
#536 = ORIENTED_EDGE ( 'NONE', *, *, #759, .T. ) ;
#537 = AXIS2_PLACEMENT_3D ( 'NONE', #256, #191, #456 ) ;
#538 = ORIENTED_EDGE ( 'NONE', *, *, #322, .F. ) ;
#539 = AXIS2_PLACEMENT_3D ( 'NONE', #436, #108, #715 ) ;
#540 = DIRECTION ( 'NONE',  ( -0.000000000000000000, -1.000000000000000000, -0.000000000000000000 ) ) ;
#541 = VERTEX_POINT ( 'NONE', #730 ) ;
#542 = VERTEX_POINT ( 'NONE', #790 ) ;
#543 = AXIS2_PLACEMENT_3D ( 'NONE', #251, #703, #375 ) ;
#544 = CYLINDRICAL_SURFACE ( 'NONE', #819, 1.599999999999321743 ) ;
#545 = EDGE_CURVE ( 'NONE', #687, #374, #431, .T. ) ;
#546 = VERTEX_POINT ( 'NONE', #81 ) ;
#547 = LOCAL_TIME ( 18, 21, 10.00000000000000000, #80 ) ;
#548 = DIRECTION ( 'NONE',  ( 0.000000000000000000, 0.000000000000000000, 1.000000000000000000 ) ) ;
#549 = ORIENTED_EDGE ( 'NONE', *, *, #290, .F. ) ;
#550 = CIRCLE ( 'NONE', #174, 1.700000000000000178 ) ;
#551 = CARTESIAN_POINT ( 'NONE',  ( -5.303300858899408610, 1.000000000000000000, -3.603300858898802694 ) ) ;
#552 = DIRECTION ( 'NONE',  ( -0.000000000000000000, -1.000000000000000000, -0.000000000000000000 ) ) ;
#553 = VERTEX_POINT ( 'NONE', #721 ) ;
#554 = CARTESIAN_POINT ( 'NONE',  ( -5.303300858899408610, 1.000000000000000000, -5.303300858898802872 ) ) ;
#555 = EDGE_LOOP ( 'NONE', ( #17, #22 ) ) ;
#556 = CYLINDRICAL_SURFACE ( 'NONE', #467, 1.600000000000000755 ) ;
#557 = EDGE_CURVE ( 'NONE', #510, #758, #93, .T. ) ;
#558 = DIRECTION ( 'NONE',  ( 0.000000000000000000, 1.000000000000000000, -0.000000000000000000 ) ) ;
#559 = EDGE_LOOP ( 'NONE', ( #741, #613 ) ) ;
#560 = CARTESIAN_POINT ( 'NONE',  ( -5.303300858899408610, 1.000000000000000000, -7.003300858898803050 ) ) ;
#561 = FACE_OUTER_BOUND ( 'NONE', #394, .T. ) ;
#562 = ORIENTED_EDGE ( 'NONE', *, *, #290, .T. ) ;
#563 = DIRECTION ( 'NONE',  ( -0.000000000000000000, -1.000000000000000000, -0.000000000000000000 ) ) ;
#564 = DIRECTION ( 'NONE',  ( -0.000000000000000000, -1.000000000000000000, -0.000000000000000000 ) ) ;
#565 = ORIENTED_EDGE ( 'NONE', *, *, #77, .T. ) ;
#566 = CARTESIAN_POINT ( 'NONE',  ( 5.303300858898798431, 0.000000000000000000, 5.303300858899414827 ) ) ;
#567 = AXIS2_PLACEMENT_3D ( 'NONE', #132, #454, #393 ) ;
#568 = LINE ( 'NONE', #441, #603 ) ;
#569 = LOCAL_TIME ( 18, 21, 10.00000000000000000, #257 ) ;
#570 = FACE_BOUND ( 'NONE', #635, .T. ) ;
#571 = ORIENTED_EDGE ( 'NONE', *, *, #238, .F. ) ;
#572 = CARTESIAN_POINT ( 'NONE',  ( -10.00000000000057021, 0.000000000000000000, 1.600000000001050360 ) ) ;
#573 = CIRCLE ( 'NONE', #314, 1.700000000000000178 ) ;
#574 = AXIS2_PLACEMENT_3D ( 'NONE', #479, #482, #26 ) ;
#575 = CARTESIAN_POINT ( 'NONE',  ( 0.000000000000000000, 0.000000000000000000, -14.00000000000000178 ) ) ;
#576 = EDGE_CURVE ( 'NONE', #141, #203, #658, .T. ) ;
#577 = DIRECTION ( 'NONE',  ( 0.000000000000000000, 0.000000000000000000, 1.000000000000000000 ) ) ;
#578 = CIRCLE ( 'NONE', #319, 1.600000000000000755 ) ;
#579 = EDGE_LOOP ( 'NONE', ( #812, #35, #429, #43 ) ) ;
#580 = CARTESIAN_POINT ( 'NONE',  ( 10.00000000000057554, 1.000000000000000000, -1.599999999998752864 ) ) ;
#581 = VECTOR ( 'NONE', #563, 1000.000000000000000 ) ;
#582 = DIRECTION ( 'NONE',  ( 0.000000000000000000, 0.000000000000000000, 1.000000000000000000 ) ) ;
#583 = EDGE_CURVE ( 'NONE', #472, #47, #662, .T. ) ;
#584 = CARTESIAN_POINT ( 'NONE',  ( 5.303300858898798431, 1.000000000000000000, 5.303300858899414827 ) ) ;
#585 = CARTESIAN_POINT ( 'NONE',  ( -10.00000000000057021, 1.000000000000000000, 5.706527979715091820E-13 ) ) ;
#586 = APPROVAL_PERSON_ORGANIZATION ( #453, #597, #9 ) ;
#587 = CC_DESIGN_PERSON_AND_ORGANIZATION_ASSIGNMENT ( #13, #327, ( #684 ) ) ;
#588 = FACE_BOUND ( 'NONE', #111, .T. ) ;
#589 = DIRECTION ( 'NONE',  ( 0.000000000000000000, 0.000000000000000000, 1.000000000000000000 ) ) ;
#590 = DATE_TIME_ROLE ( 'creation_date' ) ;
#591 = DIRECTION ( 'NONE',  ( -0.000000000000000000, -1.000000000000000000, -0.000000000000000000 ) ) ;
#592 = EDGE_LOOP ( 'NONE', ( #630, #769, #664, #669 ) ) ;
#593 = CALENDAR_DATE ( 2026, 23, 8 ) ;
#594 = FACE_BOUND ( 'NONE', #287, .T. ) ;
#595 = ORIENTED_EDGE ( 'NONE', *, *, #519, .T. ) ;
#596 = AXIS2_PLACEMENT_3D ( 'NONE', #354, #91, #350 ) ;
#597 = APPROVAL ( #192, 'UNSPECIFIED' ) ;
#598 = EDGE_LOOP ( 'NONE', ( #222, #601, #751, #798 ) ) ;
#599 = DIRECTION ( 'NONE',  ( -0.000000000000000000, -1.000000000000000000, -0.000000000000000000 ) ) ;
#600 = ORIENTED_EDGE ( 'NONE', *, *, #77, .F. ) ;
#601 = ORIENTED_EDGE ( 'NONE', *, *, #421, .T. ) ;
#602 = VECTOR ( 'NONE', #498, 1000.000000000000000 ) ;
#603 = VECTOR ( 'NONE', #513, 1000.000000000000000 ) ;
#604 = FACE_OUTER_BOUND ( 'NONE', #610, .T. ) ;
#605 = VERTEX_POINT ( 'NONE', #526 ) ;
#606 = ORIENTED_EDGE ( 'NONE', *, *, #772, .T. ) ;
#607 = EDGE_CURVE ( 'NONE', #472, #475, #655, .T. ) ;
#608 = PERSON ( 'UNSPECIFIED', 'UNSPECIFIED', 'UNSPECIFIED', ('UNSPECIFIED'), ('UNSPECIFIED'), ('UNSPECIFIED') ) ;
#609 = EDGE_LOOP ( 'NONE', ( #419, #418 ) ) ;
#610 = EDGE_LOOP ( 'NONE', ( #415, #565, #794, #470 ) ) ;
#611 = AXIS2_PLACEMENT_3D ( 'NONE', #458, #258, #463 ) ;
#612 = CARTESIAN_POINT ( 'NONE',  ( 0.000000000000000000, 31.00000000000000000, 0.000000000000000000 ) ) ;
#613 = ORIENTED_EDGE ( 'NONE', *, *, #545, .F. ) ;
#614 = DIRECTION ( 'NONE',  ( 0.000000000000000000, 0.000000000000000000, -1.000000000000000000 ) ) ;
#615 = AXIS2_PLACEMENT_3D ( 'NONE', #101, #677, #280 ) ;
#616 = DIRECTION ( 'NONE',  ( 0.000000000000000000, 0.000000000000000000, -1.000000000000000000 ) ) ;
#617 = EDGE_CURVE ( 'NONE', #53, #47, #392, .T. ) ;
#618 = VERTEX_POINT ( 'NONE', #261 ) ;
#619 = AXIS2_PLACEMENT_3D ( 'NONE', #109, #232, #767 ) ;
#620 = ORIENTED_EDGE ( 'NONE', *, *, #300, .F. ) ;
#621 = VECTOR ( 'NONE', #766, 1000.000000000000000 ) ;
#622 = ORIENTED_EDGE ( 'NONE', *, *, #230, .F. ) ;
#623 = CARTESIAN_POINT ( 'NONE',  ( 10.00000000000057554, 1.000000000000000000, 5.690568523736238481E-13 ) ) ;
#624 = CC_DESIGN_PERSON_AND_ORGANIZATION_ASSIGNMENT ( #387, #796, ( #684 ) ) ;
#625 = CARTESIAN_POINT ( 'NONE',  ( 5.303300858899408610, 1.000000000000000000, -7.003300858898803050 ) ) ;
#626 = ORIENTED_EDGE ( 'NONE', *, *, #489, .F. ) ;
#627 = SECURITY_CLASSIFICATION ( '', '', #200 ) ;
#628 = DIRECTION ( 'NONE',  ( -0.000000000000000000, -1.000000000000000000, -0.000000000000000000 ) ) ;
#629 = DIRECTION ( 'NONE',  ( 1.000000000000000000, 0.000000000000000000, 0.000000000000000000 ) ) ;
#630 = ORIENTED_EDGE ( 'NONE', *, *, #185, .T. ) ;
#631 = CYLINDRICAL_SURFACE ( 'NONE', #400, 1.700000000000000178 ) ;
#632 =( GEOMETRIC_REPRESENTATION_CONTEXT ( 3 ) GLOBAL_UNCERTAINTY_ASSIGNED_CONTEXT ( ( #171 ) ) GLOBAL_UNIT_ASSIGNED_CONTEXT ( ( #183, #296, #768 ) ) REPRESENTATION_CONTEXT ( 'NONE', 'WORKASPACE' ) );
#633 = DIRECTION ( 'NONE',  ( 0.000000000000000000, 0.000000000000000000, 1.000000000000000000 ) ) ;
#634 = FACE_OUTER_BOUND ( 'NONE', #765, .T. ) ;
#635 = EDGE_LOOP ( 'NONE', ( #443, #744 ) ) ;
#636 = FACE_OUTER_BOUND ( 'NONE', #638, .T. ) ;
#637 = DIRECTION ( 'NONE',  ( -0.000000000000000000, -1.000000000000000000, -0.000000000000000000 ) ) ;
#638 = EDGE_LOOP ( 'NONE', ( #149, #484, #146, #364 ) ) ;
#639 = FACE_OUTER_BOUND ( 'NONE', #12, .T. ) ;
#640 = APPROVAL ( #792, 'UNSPECIFIED' ) ;
#641 = CARTESIAN_POINT ( 'NONE',  ( -5.303300858898798431, 1.000000000000000000, 5.303300858899414827 ) ) ;
#642 = APPLICATION_CONTEXT ( 'configuration controlled 3d designs of mechanical parts and assemblies' ) ;
#643 = CARTESIAN_POINT ( 'NONE',  ( 0.000000000000000000, 1.000000000000000000, -10.00000000000000178 ) ) ;
#644 = VERTEX_POINT ( 'NONE', #529 ) ;
#645 = DIRECTION ( 'NONE',  ( -0.000000000000000000, -1.000000000000000000, 0.000000000000000000 ) ) ;
#646 = ADVANCED_FACE ( 'NONE', ( #202 ), #469, .T. ) ;
#647 = AXIS2_PLACEMENT_3D ( 'NONE', #33, #413, #488 ) ;
#648 = DIRECTION ( 'NONE',  ( -0.000000000000000000, -1.000000000000000000, -0.000000000000000000 ) ) ;
#649 = CYLINDRICAL_SURFACE ( 'NONE', #466, 1.600000000000000755 ) ;
#650 = DIRECTION ( 'NONE',  ( -0.000000000000000000, -1.000000000000000000, -0.000000000000000000 ) ) ;
#651 = VECTOR ( 'NONE', #116, 1000.000000000000000 ) ;
#652 = CARTESIAN_POINT ( 'NONE',  ( -5.303300858899408610, 1.000000000000000000, -5.303300858898802872 ) ) ;
#653 = PERSON_AND_ORGANIZATION_ROLE ( 'classification_officer' ) ;
#654 = DIRECTION ( 'NONE',  ( 0.000000000000000000, 0.000000000000000000, 1.000000000000000000 ) ) ;
#655 = CIRCLE ( 'NONE', #696, 2.950000000000000622 ) ;
#656 = DIRECTION ( 'NONE',  ( 0.000000000000000000, 1.000000000000000000, -0.000000000000000000 ) ) ;
#657 = EDGE_CURVE ( 'NONE', #618, #143, #416, .T. ) ;
#658 = LINE ( 'NONE', #85, #198 ) ;
#659 = EDGE_LOOP ( 'NONE', ( #134, #39, #595, #19 ) ) ;
#660 = DATE_AND_TIME ( #718, #464 ) ;
#661 = CIRCLE ( 'NONE', #729, 1.700000000000000178 ) ;
#662 = LINE ( 'NONE', #10, #681 ) ;
#663 = AXIS2_PLACEMENT_3D ( 'NONE', #566, #112, #61 ) ;
#664 = ORIENTED_EDGE ( 'NONE', *, *, #226, .F. ) ;
#665 = DATE_AND_TIME ( #468, #3 ) ;
#666 = DIRECTION ( 'NONE',  ( -0.000000000000000000, -1.000000000000000000, -0.000000000000000000 ) ) ;
#667 = EDGE_LOOP ( 'NONE', ( #600, #538, #310, #20 ) ) ;
#668 = ADVANCED_FACE ( 'NONE', ( #34 ), #750, .F. ) ;
#669 = ORIENTED_EDGE ( 'NONE', *, *, #672, .F. ) ;
#670 = CARTESIAN_POINT ( 'NONE',  ( 5.303300858898798431, 1.000000000000000000, 5.303300858899414827 ) ) ;
#671 = ORIENTED_EDGE ( 'NONE', *, *, #4, .F. ) ;
#672 = EDGE_CURVE ( 'NONE', #218, #829, #490, .T. ) ;
#673 = DIRECTION ( 'NONE',  ( 0.000000000000000000, 0.000000000000000000, -1.000000000000000000 ) ) ;
#674 = CIRCLE ( 'NONE', #825, 1.700000000000000178 ) ;
#675 = DIRECTION ( 'NONE',  ( 0.000000000000000000, 0.000000000000000000, 1.000000000000000000 ) ) ;
#676 = VERTEX_POINT ( 'NONE', #27 ) ;
#677 = DIRECTION ( 'NONE',  ( 0.000000000000000000, 1.000000000000000000, -0.000000000000000000 ) ) ;
#678 = ORIENTED_EDGE ( 'NONE', *, *, #719, .F. ) ;
#679 = ORIENTED_EDGE ( 'NONE', *, *, #324, .T. ) ;
#680 = AXIS2_PLACEMENT_3D ( 'NONE', #535, #142, #406 ) ;
#681 = VECTOR ( 'NONE', #18, 1000.000000000000000 ) ;
#682 = CARTESIAN_POINT ( 'NONE',  ( -5.303300858898798431, 1.000000000000000000, 7.003300858899415893 ) ) ;
#683 = EDGE_LOOP ( 'NONE', ( #271, #214 ) ) ;
#684 = PRODUCT_DEFINITION_FORMATION_WITH_SPECIFIED_SOURCE ( 'ANY', '', #164, .NOT_KNOWN. ) ;
#685 = EDGE_LOOP ( 'NONE', ( #620, #361, #246, #622 ) ) ;
#686 = DIRECTION ( 'NONE',  ( 0.000000000000000000, 0.000000000000000000, -1.000000000000000000 ) ) ;
#687 = VERTEX_POINT ( 'NONE', #291 ) ;
#688 = EDGE_CURVE ( 'NONE', #333, #119, #210, .T. ) ;
#689 = CIRCLE ( 'NONE', #803, 1.600000000000479705 ) ;
#690 = DIRECTION ( 'NONE',  ( -0.000000000000000000, -1.000000000000000000, -0.000000000000000000 ) ) ;
#691 = AXIS2_PLACEMENT_3D ( 'NONE', #720, #656, #8 ) ;
#692 = EDGE_LOOP ( 'NONE', ( #714, #317 ) ) ;
#693 = CARTESIAN_POINT ( 'NONE',  ( 10.00000000000057554, 1.000000000000000000, 1.599999999999890843 ) ) ;
#694 = AXIS2_PLACEMENT_3D ( 'NONE', #738, #25, #686 ) ;
#695 = DIRECTION ( 'NONE',  ( 0.000000000000000000, 0.000000000000000000, 1.000000000000000000 ) ) ;
#696 = AXIS2_PLACEMENT_3D ( 'NONE', #734, #793, #135 ) ;
#697 = ORIENTED_EDGE ( 'NONE', *, *, #808, .F. ) ;
#698 = CYLINDRICAL_SURFACE ( 'NONE', #512, 1.700000000000000178 ) ;
#699 = APPROVAL_PERSON_ORGANIZATION ( #399, #640, #457 ) ;
#700 = EDGE_CURVE ( 'NONE', #644, #203, #51, .T. ) ;
#701 = CARTESIAN_POINT ( 'NONE',  ( -5.303300858898798431, 1.000000000000000000, 3.603300858899414205 ) ) ;
#702 = EDGE_LOOP ( 'NONE', ( #98, #678, #264, #86 ) ) ;
#703 = DIRECTION ( 'NONE',  ( 0.000000000000000000, 1.000000000000000000, -0.000000000000000000 ) ) ;
#704 = CARTESIAN_POINT ( 'NONE',  ( -5.303300858899408610, 1.000000000000000000, -5.303300858898802872 ) ) ;
#705 = MANIFOLD_SOLID_BREP ( 'Boss-Extrude2', #770 ) ;
#706 = ORIENTED_EDGE ( 'NONE', *, *, #365, .T. ) ;
#707 = LINE ( 'NONE', #247, #621 ) ;
#708 = CARTESIAN_POINT ( 'NONE',  ( -5.303300858898798431, 1.000000000000000000, 5.303300858899414827 ) ) ;
#709 = CARTESIAN_POINT ( 'NONE',  ( -5.303300858898798431, 1.000000000000000000, 5.303300858899414827 ) ) ;
#710 = EDGE_LOOP ( 'NONE', ( #398, #172 ) ) ;
#711 = CYLINDRICAL_SURFACE ( 'NONE', #244, 1.700000000000000178 ) ;
#712 = FACE_OUTER_BOUND ( 'NONE', #162, .T. ) ;
#713 = CARTESIAN_POINT ( 'NONE',  ( 5.303300858899408610, 1.000000000000000000, -3.603300858898803138 ) ) ;
#714 = ORIENTED_EDGE ( 'NONE', *, *, #657, .T. ) ;
#715 = DIRECTION ( 'NONE',  ( 0.000000000000000000, 0.000000000000000000, 1.000000000000000000 ) ) ;
#716 = CIRCLE ( 'NONE', #148, 1.599999999999740519 ) ;
#717 = DIRECTION ( 'NONE',  ( 0.000000000000000000, 0.000000000000000000, 1.000000000000000000 ) ) ;
#718 = CALENDAR_DATE ( 2026, 23, 8 ) ;
#719 = EDGE_CURVE ( 'NONE', #475, #472, #748, .T. ) ;
#720 = CARTESIAN_POINT ( 'NONE',  ( 0.000000000000000000, 1.000000000000000000, 0.000000000000000000 ) ) ;
#721 = CARTESIAN_POINT ( 'NONE',  ( 8.081928434762309354E-15, 0.000000000000000000, 11.60000000000088605 ) ) ;
#722 = DIRECTION ( 'NONE',  ( 0.000000000000000000, 0.000000000000000000, 1.000000000000000000 ) ) ;
#723 = FACE_BOUND ( 'NONE', #804, .T. ) ;
#724 = AXIS2_PLACEMENT_3D ( 'NONE', #709, #46, #381 ) ;
#725 = AXIS2_PLACEMENT_3D ( 'NONE', #623, #747, #211 ) ;
#726 = ORIENTED_EDGE ( 'NONE', *, *, #733, .T. ) ;
#727 = APPROVAL_DATE_TIME ( #665, #640 ) ;
#728 = EDGE_CURVE ( 'NONE', #374, #84, #221, .T. ) ;
#729 = AXIS2_PLACEMENT_3D ( 'NONE', #248, #524, #195 ) ;
#730 = CARTESIAN_POINT ( 'NONE',  ( 8.081928434762309354E-15, 1.000000000000000000, 11.60000000000088605 ) ) ;
#731 = EDGE_LOOP ( 'NONE', ( #277, #814, #504, #499 ) ) ;
#732 = ORIENTED_EDGE ( 'NONE', *, *, #265, .T. ) ;
#733 = EDGE_CURVE ( 'NONE', #605, #449, #345, .T. ) ;
#734 = CARTESIAN_POINT ( 'NONE',  ( 0.000000000000000000, 31.00000000000000000, 0.000000000000000000 ) ) ;
#735 = ADVANCED_FACE ( 'NONE', ( #483 ), #544, .F. ) ;
#736 = ORIENTED_EDGE ( 'NONE', *, *, #688, .F. ) ;
#737 = DIRECTION ( 'NONE',  ( -0.000000000000000000, -1.000000000000000000, -0.000000000000000000 ) ) ;
#738 = CARTESIAN_POINT ( 'NONE',  ( 5.303300858899408610, 1.000000000000000000, -5.303300858898802872 ) ) ;
#739 = VERTEX_POINT ( 'NONE', #682 ) ;
#740 = PRODUCT_DEFINITION ( 'UNKNOWN', '', #684, #347 ) ;
#741 = ORIENTED_EDGE ( 'NONE', *, *, #842, .F. ) ;
#742 = AXIS2_PLACEMENT_3D ( 'NONE', #818, #284, #753 ) ;
#743 = DIRECTION ( 'NONE',  ( -0.000000000000000000, -1.000000000000000000, -0.000000000000000000 ) ) ;
#744 = ORIENTED_EDGE ( 'NONE', *, *, #270, .T. ) ;
#745 = CARTESIAN_POINT ( 'NONE',  ( 3.612708057484692590E-16, 1.000000000000000000, 2.950000000000000622 ) ) ;
#746 = EDGE_LOOP ( 'NONE', ( #92, #138, #292, #79 ) ) ;
#747 = DIRECTION ( 'NONE',  ( 0.000000000000000000, 1.000000000000000000, -0.000000000000000000 ) ) ;
#748 = CIRCLE ( 'NONE', #379, 2.950000000000000622 ) ;
#749 = ADVANCED_FACE ( 'NONE', ( #424 ), #30, .T. ) ;
#750 = CYLINDRICAL_SURFACE ( 'NONE', #694, 1.700000000000000178 ) ;
#751 = ORIENTED_EDGE ( 'NONE', *, *, #372, .T. ) ;
#752 = APPROVAL_PERSON_ORGANIZATION ( #405, #795, #789 ) ;
#753 = DIRECTION ( 'NONE',  ( 0.000000000000000000, 0.000000000000000000, -1.000000000000000000 ) ) ;
#754 = CIRCLE ( 'NONE', #201, 1.599999999999321743 ) ;
#755 = EDGE_LOOP ( 'NONE', ( #732, #726, #338, #275 ) ) ;
#756 = CARTESIAN_POINT ( 'NONE',  ( 10.00000000000057554, 1.000000000000000000, 5.690568523736238481E-13 ) ) ;
#757 = FACE_BOUND ( 'NONE', #692, .T. ) ;
#758 = VERTEX_POINT ( 'NONE', #363 ) ;
#759 = EDGE_CURVE ( 'NONE', #333, #465, #217, .T. ) ;
#760 = EDGE_CURVE ( 'NONE', #143, #618, #573, .T. ) ;
#761 = DIRECTION ( 'NONE',  ( -0.000000000000000000, -1.000000000000000000, -0.000000000000000000 ) ) ;
#762 = PRODUCT_DEFINITION_SHAPE ( 'NONE', 'NONE',  #740 ) ;
#763 = CARTESIAN_POINT ( 'NONE',  ( -5.303300858898798431, 0.000000000000000000, 3.603300858899414205 ) ) ;
#764 = AXIS2_PLACEMENT_3D ( 'NONE', #69, #328, #7 ) ;
#765 = EDGE_LOOP ( 'NONE', ( #407, #414 ) ) ;
#766 = DIRECTION ( 'NONE',  ( -0.000000000000000000, -1.000000000000000000, -0.000000000000000000 ) ) ;
#767 = DIRECTION ( 'NONE',  ( 0.000000000000000000, 0.000000000000000000, 1.000000000000000000 ) ) ;
#768 =( NAMED_UNIT ( * ) SI_UNIT ( $, .STERADIAN. ) SOLID_ANGLE_UNIT ( ) );
#769 = ORIENTED_EDGE ( 'NONE', *, *, #300, .T. ) ;
#770 = CLOSED_SHELL ( 'NONE', ( #749, #337, #72, #820, #220, #67, #485, #160, #401, #389, #209, #147, #668, #349, #41, #735, #55, #213, #455, #801, #460, #646, #824 ) ) ;
#771 = DIRECTION ( 'NONE',  ( -0.000000000000000000, -1.000000000000000000, -0.000000000000000000 ) ) ;
#772 = EDGE_CURVE ( 'NONE', #807, #676, #754, .T. ) ;
#773 = LINE ( 'NONE', #560, #42 ) ;
#774 = CIRCLE ( 'NONE', #205, 2.950000000000000622 ) ;
#775 = DIRECTION ( 'NONE',  ( 0.000000000000000000, 1.000000000000000000, -0.000000000000000000 ) ) ;
#776 = ORIENTED_EDGE ( 'NONE', *, *, #11, .F. ) ;
#777 = AXIS2_PLACEMENT_3D ( 'NONE', #383, #645, #1 ) ;
#778 = DIRECTION ( 'NONE',  ( 0.000000000000000000, 1.000000000000000000, -0.000000000000000000 ) ) ;
#779 = CYLINDRICAL_SURFACE ( 'NONE', #189, 1.700000000000000178 ) ;
#780 = EDGE_LOOP ( 'NONE', ( #527, #82 ) ) ;
#781 = EDGE_CURVE ( 'NONE', #739, #218, #492, .T. ) ;
#782 = CARTESIAN_POINT ( 'NONE',  ( 5.303300858899408610, 1.000000000000000000, -7.003300858898803050 ) ) ;
#783 = DIRECTION ( 'NONE',  ( 0.000000000000000000, 1.000000000000000000, -0.000000000000000000 ) ) ;
#784 = CC_DESIGN_APPROVAL ( #597, ( #684 ) ) ;
#785 = CALENDAR_DATE ( 2026, 23, 8 ) ;
#786 = FACE_BOUND ( 'NONE', #31, .T. ) ;
#787 = CIRCLE ( 'NONE', #124, 1.700000000000000178 ) ;
#788 = LINE ( 'NONE', #329, #63 ) ;
#789 = APPROVAL_ROLE ( '' ) ;
#790 = CARTESIAN_POINT ( 'NONE',  ( 7.885984946898764041E-15, 1.000000000000000000, 8.400000000001405454 ) ) ;
#791 = DIRECTION ( 'NONE',  ( 0.000000000000000000, 0.000000000000000000, 1.000000000000000000 ) ) ;
#792 = APPROVAL_STATUS ( 'not_yet_approved' ) ;
#793 = DIRECTION ( 'NONE',  ( 0.000000000000000000, 1.000000000000000000, -0.000000000000000000 ) ) ;
#794 = ORIENTED_EDGE ( 'NONE', *, *, #700, .T. ) ;
#795 = APPROVAL ( #518, 'UNSPECIFIED' ) ;
#796 = PERSON_AND_ORGANIZATION_ROLE ( 'design_supplier' ) ;
#797 = CARTESIAN_POINT ( 'NONE',  ( 10.00000000000057554, 0.000000000000000000, 1.599999999999890843 ) ) ;
#798 = ORIENTED_EDGE ( 'NONE', *, *, #100, .F. ) ;
#799 = AXIS2_PLACEMENT_3D ( 'NONE', #144, #690, #673 ) ;
#800 = VERTEX_POINT ( 'NONE', #224 ) ;
#801 = ADVANCED_FACE ( 'NONE', ( #239, #110, #301, #434, #177, #428, #570, #832, #228, #757 ), #245, .T. ) ;
#802 = PERSON_AND_ORGANIZATION ( #608, #530 ) ;
#803 = AXIS2_PLACEMENT_3D ( 'NONE', #585, #386, #791 ) ;
#804 = EDGE_LOOP ( 'NONE', ( #425, #480 ) ) ;
#805 = CIRCLE ( 'NONE', #539, 1.599999999999740519 ) ;
#806 = ORIENTED_EDGE ( 'NONE', *, *, #194, .T. ) ;
#807 = VERTEX_POINT ( 'NONE', #118 ) ;
#808 = EDGE_CURVE ( 'NONE', #119, #95, #442, .T. ) ;
#809 = AXIS2_PLACEMENT_3D ( 'NONE', #505, #771, #173 ) ;
#810 = DIRECTION ( 'NONE',  ( -0.000000000000000000, -1.000000000000000000, 0.000000000000000000 ) ) ;
#811 = EDGE_LOOP ( 'NONE', ( #562, #268 ) ) ;
#812 = ORIENTED_EDGE ( 'NONE', *, *, #182, .F. ) ;
#813 = DIRECTION ( 'NONE',  ( 0.000000000000000000, 1.000000000000000000, -0.000000000000000000 ) ) ;
#814 = ORIENTED_EDGE ( 'NONE', *, *, #545, .T. ) ;
#815 = CARTESIAN_POINT ( 'NONE',  ( 1.714505518806294835E-15, 1.000000000000000000, 14.00000000000000178 ) ) ;
#816 = DIRECTION ( 'NONE',  ( 0.000000000000000000, 0.000000000000000000, -1.000000000000000000 ) ) ;
#817 = ORIENTED_EDGE ( 'NONE', *, *, #366, .F. ) ;
#818 = CARTESIAN_POINT ( 'NONE',  ( -10.00000000000057021, 1.000000000000000000, 5.706527979715091820E-13 ) ) ;
#819 = AXIS2_PLACEMENT_3D ( 'NONE', #281, #417, #616 ) ;
#820 = ADVANCED_FACE ( 'NONE', ( #561 ), #649, .F. ) ;
#821 = DIRECTION ( 'NONE',  ( 0.000000000000000000, 0.000000000000000000, 1.000000000000000000 ) ) ;
#822 = ORIENTED_EDGE ( 'NONE', *, *, #426, .F. ) ;
#823 = CARTESIAN_POINT ( 'NONE',  ( 0.000000000000000000, 1.000000000000000000, -10.00000000000000178 ) ) ;
#824 = ADVANCED_FACE ( 'NONE', ( #634 ), #106, .T. ) ;
#825 = AXIS2_PLACEMENT_3D ( 'NONE', #237, #835, #633 ) ;
#826 = ORIENTED_EDGE ( 'NONE', *, *, #250, .F. ) ;
#827 = CYLINDRICAL_SURFACE ( 'NONE', #254, 1.700000000000000178 ) ;
#828 = CARTESIAN_POINT ( 'NONE',  ( 0.000000000000000000, 31.00000000000000000, 0.000000000000000000 ) ) ;
#829 = VERTEX_POINT ( 'NONE', #763 ) ;
#830 = DIRECTION ( 'NONE',  ( 0.000000000000000000, 0.000000000000000000, -1.000000000000000000 ) ) ;
#831 = CARTESIAN_POINT ( 'NONE',  ( -5.303300858898798431, 0.000000000000000000, 5.303300858899414827 ) ) ;
#832 = FACE_BOUND ( 'NONE', #609, .T. ) ;
#833 = EDGE_LOOP ( 'NONE', ( #496, #150, #476, #15 ) ) ;
#834 = CYLINDRICAL_SURFACE ( 'NONE', #809, 1.700000000000000178 ) ;
#835 = DIRECTION ( 'NONE',  ( -0.000000000000000000, -1.000000000000000000, 0.000000000000000000 ) ) ;
#836 = APPLICATION_PROTOCOL_DEFINITION ( 'international standard', 'config_control_design', 1994, #131 ) ;
#837 = ORIENTED_EDGE ( 'NONE', *, *, #48, .T. ) ;
#838 = AXIS2_PLACEMENT_3D ( 'NONE', #554, #37, #548 ) ;
#839 = CARTESIAN_POINT ( 'NONE',  ( 0.000000000000000000, 1.000000000000000000, -11.60000000000000320 ) ) ;
#840 = DIRECTION ( 'NONE',  ( -0.000000000000000000, -1.000000000000000000, -0.000000000000000000 ) ) ;
#841 = CIRCLE ( 'NONE', #359, 1.700000000000000178 ) ;
#842 = EDGE_CURVE ( 'NONE', #374, #687, #58, .T. ) ;
#843 = DIRECTION ( 'NONE',  ( 0.000000000000000000, 1.000000000000000000, -0.000000000000000000 ) ) ;
#844 = ORIENTED_EDGE ( 'NONE', *, *, #366, .T. ) ;
#845 = CIRCLE ( 'NONE', #777, 1.700000000000000178 ) ;
#846 = LINE ( 'NONE', #303, #651 ) ;
#847 = DIRECTION ( 'NONE',  ( 0.000000000000000000, 1.000000000000000000, -0.000000000000000000 ) ) ;
ENDSEC;
END-ISO-10303-21;
